<svg width="53" height="55" viewBox="0 0 53 55" fill="none" xmlns="http://www.w3.org/2000/svg">
<rect x="4" y="4" width="45" height="46" rx="10" fill="#D4D3D9"/>
<path d="M6.00478 50.1943C5.64398 50.3602 5.61427 50.3754 5.42488 50.1193C5.19487 49.8083 4.9112 49.6118 4.5441 49.4975C4.43873 49.4647 4.32254 49.3143 4.2991 49.1998C4.23327 48.8783 4.22226 48.546 4.17079 48.2209C4.14913 48.0841 4.11271 47.8689 4.02721 47.8365C3.60111 47.6749 3.6335 47.3322 3.59462 46.9817C3.54906 46.5712 3.43613 46.1661 3.10738 45.8736C3.03155 45.8061 2.91384 45.7326 2.82459 45.7427C2.47854 45.782 2.46201 45.4817 2.35317 45.2975C2.27509 45.1654 2.2472 44.9924 2.23492 44.8347C2.18726 44.2225 2.04163 43.5878 2.15177 43.0028C2.2432 42.5171 2.15194 42.0263 2.31587 41.5377C2.41794 41.2335 2.25251 40.8277 2.16984 40.4762C2.05627 39.9934 1.90528 39.5195 1.77709 39.0399C1.76527 38.9957 1.78616 38.9216 1.81921 38.8898C2.08534 38.6337 2.46484 38.053 2.45241 37.8017C2.43052 37.3593 2.26894 36.956 1.88331 36.7069C1.63724 36.548 1.52249 36.3729 1.53867 36.0749C1.55758 35.7266 1.55236 35.4018 1.7566 35.0734C1.9175 34.8147 1.95938 34.464 1.98594 34.1485C1.99657 34.0222 1.85122 33.8445 1.72944 33.754C1.52101 33.5993 1.47703 33.3649 1.56055 33.2043C1.69844 32.9391 1.58314 32.7286 1.54942 32.49C1.49454 32.1015 1.46662 31.7091 1.43203 31.318C1.42374 31.2243 1.39402 31.0845 1.44199 31.0414C1.86101 30.665 1.5756 30.1801 1.65308 29.7541C1.66035 29.7142 1.58965 29.6292 1.54074 29.6151C1.28209 29.5405 1.26384 29.5327 1.39413 29.3699C1.50473 29.2317 1.64099 29.1003 1.49058 28.9429C1.41276 28.8614 1.35272 28.5851 1.13497 28.8C1.0429 28.5905 0.865564 28.3768 0.875545 28.1722C0.900517 27.6602 0.644833 27.2266 0.570641 26.7477C0.545398 26.5848 0.510672 26.4183 0.521599 26.2561C0.534779 26.0607 0.593874 25.8685 0.629183 25.6742C0.645484 25.5845 0.618113 25.4531 0.66936 25.4091C0.979281 25.1429 0.8593 24.8666 0.750585 24.5568C0.545062 23.9712 0.769802 23.3201 1.25684 22.9797C1.8934 22.5348 1.93939 22.2179 1.3148 21.8071C0.999896 21.6 0.953031 21.3947 0.969629 21.087C0.976442 20.9607 0.993791 20.7772 0.922527 20.7135C0.344356 20.1964 0.931078 19.7382 0.985537 19.2589C0.997961 19.1495 1.12665 19.0533 1.20183 18.9511C1.11766 18.894 0.997146 18.8549 0.957681 18.7756C0.895912 18.6514 0.823251 18.4703 0.870549 18.3653C1.04208 17.9844 0.998915 17.6198 0.899461 17.2381C0.838584 17.0045 0.969721 16.7945 1.15005 16.6956C1.76502 16.3585 1.65973 15.7902 1.65357 15.2523C1.65267 15.1739 1.58954 15.083 1.53065 15.0213C1.41004 14.895 1.38442 14.7802 1.48308 14.6244C1.51764 14.5697 1.48323 14.4711 1.47933 14.3926C1.4742 14.2894 1.46809 14.1863 1.4624 14.0831C1.52802 14.1534 1.59033 14.2272 1.66044 14.2926C1.70586 14.335 1.76269 14.3652 1.81441 14.4009C1.83893 14.357 1.89211 14.3064 1.88353 14.2705C1.7967 13.9072 2.04221 13.7104 2.26658 13.5138C2.42385 13.376 2.48679 13.2258 2.46313 13.0198C2.44585 12.8693 2.46964 12.7145 2.45814 12.563C2.3851 11.6005 2.78849 10.8356 3.43287 10.1638C3.54422 10.0478 3.63801 9.90902 3.7152 9.76729C3.86929 9.48433 3.86222 9.48227 3.5497 9.48177C3.49775 9.4817 3.40269 9.4614 3.40152 9.44514C3.39696 9.38141 3.41059 9.31006 3.43868 9.25176C3.48487 9.15592 3.57546 9.07353 3.59482 8.97515C3.61149 8.89043 3.55488 8.79128 3.53066 8.69851C3.6115 8.76904 3.69279 8.83905 3.77299 8.91031C3.81518 8.94779 3.85352 9.01704 3.897 9.01989C3.9846 9.02563 4.07453 8.99573 4.1635 8.98053C4.11734 8.92664 4.07873 8.8364 4.02373 8.82495C3.73631 8.76514 3.77942 8.63468 3.9586 8.50692C4.11511 8.39533 3.95489 8.33435 3.95163 8.2503C3.94847 8.16872 3.98851 8.08547 4.00958 8.00295C4.06475 8.07536 4.1276 8.14334 4.1727 8.22156C4.21002 8.2863 4.22639 8.36311 4.25203 8.43457C4.30262 8.36026 4.37269 8.29207 4.39846 8.20997C4.42558 8.12354 4.3932 8.01932 4.41652 7.93067C4.53462 7.48159 4.60069 7.41044 5.12483 6.98474C5.30136 6.84137 5.45688 6.67006 5.61027 6.50088C5.74247 6.35506 5.87433 6.26596 6.0925 6.27372C6.42645 6.2856 6.76617 6.02299 6.79077 5.67313C6.81602 5.31392 7.06962 5.23046 7.29779 5.14856C7.63933 5.02596 7.88636 4.85397 8.07405 4.52595C8.31477 4.10524 8.78403 4.00023 9.22149 3.88207C9.27476 3.86768 9.33528 3.88019 9.39244 3.88009C9.73271 3.87952 10.014 3.8781 10.1843 3.44831C10.34 3.05536 10.7987 2.85222 11.1912 2.76124C11.5113 2.68701 11.7058 2.52845 11.8262 2.29073C11.9802 1.98658 12.1932 1.9055 12.5019 1.93294C12.691 1.94975 12.8827 1.93748 13.0733 1.93572C13.3768 1.93293 13.6351 1.93784 13.8596 1.6104C14.0338 1.35626 14.4156 1.24456 14.7047 1.06876C14.7205 1.05914 14.7338 1.02916 14.7451 1.03078C14.9763 1.06376 15.2169 1.15642 15.435 1.1186C15.627 1.0853 15.7944 0.812383 15.9718 0.813328C16.2836 0.81499 16.6271 0.887858 16.8952 1.04025C17.0905 1.15128 17.1822 1.09407 17.3264 1.02251C17.865 0.755173 18.4036 0.501592 19.0266 0.783417C19.0956 0.814644 19.2565 0.749802 19.3148 0.679659C19.5956 0.341715 19.9408 0.443228 20.2902 0.492913C20.4799 0.519872 20.7449 0.587754 20.8556 0.494445C21.2352 0.17462 21.5255 0.358895 21.8454 0.562669C22.115 0.734395 22.389 0.902121 22.6745 1.04477C22.868 1.14144 23.1288 1.36184 23.1738 0.882163C23.1811 0.804227 23.4092 0.671762 23.5108 0.691298C23.893 0.764728 24.2124 0.54582 24.4794 0.398139C24.8401 0.198578 25.1067 0.282178 25.4321 0.373322C25.9269 0.511902 26.4491 0.56745 26.8727 0.900764C26.8965 0.919511 26.9465 0.909673 26.9836 0.906204C27.3493 0.872094 27.7321 1.00175 28.0795 0.79249C28.4126 1.08701 28.738 0.780803 29.0631 0.761479C29.3879 0.74218 29.7203 0.453544 29.9316 0.97202C30.0018 1.14435 30.842 1.20008 31.0344 1.09044C31.2356 0.975785 31.4679 0.883956 31.6182 0.719577C31.8117 0.507899 32.0803 0.496759 32.2351 0.582453C32.5529 0.758391 32.8808 0.707505 33.165 0.653234C33.442 0.600342 33.6925 0.670788 33.8133 0.805577C34.274 1.31975 34.7438 1.07038 35.157 0.830516C35.4634 0.652623 35.6502 0.630498 35.9576 0.815171C36.218 0.971604 36.6015 1.01407 36.839 0.756555C37.0822 0.492756 37.4032 0.487738 37.613 0.585552C38.0374 0.783347 38.3496 0.59398 38.6676 0.419392C38.8471 0.32081 38.9489 0.309294 39.1079 0.43763C39.3162 0.605758 39.605 0.696484 39.7666 0.895661C40.1308 1.34469 40.6674 1.40101 41.1458 1.58415C41.3417 1.65915 41.3502 1.54132 41.2312 1.40104C41.2138 1.3805 41.2475 1.28232 41.2822 1.26167C41.316 1.24162 41.4185 1.2617 41.4276 1.28704C41.6094 1.78858 41.9579 1.60436 42.288 1.50479C42.3395 1.48925 42.397 1.49347 42.4484 1.47761C42.8661 1.34871 43.2795 1.23054 43.5773 1.7052C43.5883 1.72274 43.6516 1.70116 43.687 1.71068C44.3529 1.88966 44.7906 2.38657 45.2758 2.82706C45.4962 3.02707 45.7824 3.15698 46.0462 3.30563C46.1887 3.38598 46.2559 3.47881 46.2645 3.65233C46.2791 3.94256 46.3235 4.23285 46.3784 4.51868C46.3973 4.61684 46.4663 4.7549 46.5451 4.78311C46.8284 4.88447 47.1292 4.93585 47.4161 5.02857C47.5449 5.0702 47.6279 5.11267 47.536 5.32986C47.4102 5.627 47.7478 5.8828 47.9377 5.91175C48.3689 5.97749 48.2807 6.32714 48.2925 6.51497C48.3137 6.85534 48.2473 7.23225 48.4681 7.49283C48.6766 7.73881 48.311 7.97673 48.4785 8.07072C48.6892 8.18897 48.7659 8.29002 48.786 8.52434C48.8026 8.71797 48.8583 8.91747 49.173 8.93194C49.3801 8.94146 49.6962 8.99587 49.6989 9.36454C49.6995 9.44281 49.823 9.52664 49.9001 9.59662C50.0926 9.77128 50.3002 9.93032 50.4822 10.1149C50.5505 10.1841 50.6002 10.3076 50.5974 10.4046C50.5857 10.8032 50.6843 11.2106 50.4145 11.5891C50.3415 11.6915 50.4951 11.9475 50.2662 12.0628C50.2606 12.0655 50.3011 12.1948 50.342 12.2483C50.4855 12.4361 50.6041 12.6994 50.7965 12.7797C51.0595 12.8895 51.0924 13.052 51.0559 13.2552C50.9461 13.8682 51.1472 14.4336 51.2634 15.0183C51.3375 15.3912 51.3873 15.8121 51.1665 16.1573C50.9846 16.4416 51.0203 16.6471 51.2646 16.8297C51.6199 17.0953 51.5244 17.4542 51.4901 17.8011C51.4565 18.1418 51.2205 18.4082 51.1612 18.7539C51.0687 19.2933 50.9428 19.8269 50.9519 20.3763C50.9562 20.631 50.8252 20.8852 50.9476 21.1386C50.9661 21.1769 50.9964 21.2095 51.0213 21.2448C51.0345 21.2122 51.0534 21.1806 51.0595 21.1467C51.0662 21.1098 51.0539 21.0691 51.0624 21.0329C51.0893 20.918 51.122 20.8045 51.1525 20.6904C51.2363 20.8306 51.4148 20.9939 51.3871 21.1067C51.2869 21.5148 51.3975 21.8591 51.5955 22.194C51.7311 22.4235 51.5524 22.5824 51.4609 22.7347C51.3203 22.9687 51.1183 23.1655 50.9449 23.3802C50.7539 23.6167 50.7806 23.7294 51.0596 23.8927C51.1212 23.9288 51.1776 23.975 51.2417 24.0054C51.3688 24.0658 51.4996 24.1185 51.6289 24.1743C51.4617 24.3406 51.3374 24.1807 51.194 24.1236C50.9907 24.0426 50.9461 24.2046 50.8974 24.3431C50.8481 24.4833 50.6751 24.666 51.0325 24.6929C51.0245 24.9285 51.0991 25.1894 51.2715 25.2792C51.6114 25.4564 51.5941 25.7822 51.4963 25.9685C51.3246 26.2953 51.5002 26.4655 51.6273 26.6988C51.7014 26.8349 51.7734 27.0247 51.7359 27.1597C51.5897 27.6858 51.5335 28.2479 51.1379 28.6853C50.9357 28.909 51.068 29.2944 51.4163 29.3641C51.7614 29.4332 51.6508 29.7775 51.8583 29.8993C51.6498 30.2171 51.8916 30.4049 52.0857 30.5667C52.3856 30.8167 52.3401 31.107 52.2775 31.4281C52.1792 31.9329 51.8851 32.3365 51.6271 32.7602C51.562 32.8671 51.5073 32.9856 51.4219 33.0736C51.2893 33.2101 51.2644 33.3167 51.3413 33.5136C51.4156 33.704 51.449 33.9935 51.3535 34.1496C51.1651 34.4573 51.5155 34.6639 51.4282 34.9398C51.4144 34.9836 51.6593 35.0823 51.7429 35.1885C52.0746 35.6103 52.0725 36.0906 51.9244 36.5756C51.8267 36.8955 51.7918 37.1734 52.069 37.4408C52.1678 37.5362 52.2386 37.771 52.1904 37.8877C52.0425 38.2457 51.8489 38.589 51.6385 38.9156C51.4533 39.203 51.2965 39.4606 51.4781 39.8192C51.5476 39.9565 51.5104 40.1488 51.518 40.3162C51.5346 40.6803 51.5761 41.0326 51.6551 41.3962C51.7461 41.8155 51.9015 42.1864 52.063 42.5687C52.0954 42.6454 52.1032 42.7625 52.0675 42.8333C51.7879 43.3883 51.8334 43.9437 51.9607 44.534C52.0495 44.9458 51.8114 45.3346 51.6102 45.6936C51.4269 46.0206 51.202 46.3241 51.0105 46.6469C50.8741 46.8767 50.6946 47.1001 51.005 47.3702C51.072 47.4285 50.9646 47.7261 50.8939 47.8951C50.7647 48.2038 50.6165 48.5066 50.4505 48.7972C50.2997 49.0612 50.154 49.307 49.8031 49.4171C49.5761 49.4883 49.3871 49.7622 49.2399 49.9843C49.0748 50.2335 48.8839 50.3392 48.5933 50.3109C48.2836 50.2806 47.9757 50.2551 47.813 50.6273C47.7812 50.7002 47.6156 50.7037 47.5388 50.7704C47.4406 50.8558 47.3664 50.9704 47.2903 51.0783C47.2753 51.0995 47.2987 51.1477 47.3045 51.1835C47.3449 51.1697 47.3846 51.1471 47.4259 51.1438C47.5672 51.1328 47.569 50.7517 47.7833 50.9882C47.9275 51.1475 47.6809 51.2633 47.6213 51.3025C47.1998 51.5789 47.0026 52.0492 46.6435 52.3708C46.5601 52.4454 46.4091 52.4812 46.2922 52.4753C45.8308 52.4521 45.37 52.4111 44.9106 52.3614C44.831 52.3528 44.7538 52.2774 44.6849 52.2213C44.2877 51.897 43.815 51.9634 43.5525 52.3953C43.5285 52.4348 43.5866 52.5303 43.6167 52.595C43.6471 52.6604 43.6901 52.7198 43.7277 52.7819C43.6626 52.7833 43.5792 52.8118 43.5352 52.7821C42.9443 52.3829 42.376 52.512 41.7975 52.8202C41.494 52.9818 41.1678 53.0765 40.8079 53.0587C40.3516 53.036 39.8934 53.0515 39.436 53.0555C39.386 53.0559 39.313 53.0752 39.2931 53.11C39.2735 53.1443 39.2943 53.2191 39.3221 53.2586C39.3577 53.309 39.4181 53.3419 39.4679 53.3823C39.3758 53.4139 39.2853 53.4629 39.1913 53.4711C39.129 53.4764 39.0616 53.4232 38.9679 53.3962C38.9393 53.3581 38.9413 53.3199 38.9389 53.2819C38.9324 53.1788 38.9875 53.046 38.7915 53.0493C38.6546 53.0517 38.6069 53.0785 38.5883 53.2333C38.5491 53.5616 38.4323 53.6089 38.2036 53.3947C38.0448 53.246 37.905 53.1272 37.6653 53.1586C37.5764 53.1702 37.4523 53.1013 37.3829 53.031C37.2567 52.9034 37.1731 52.9211 37.0599 53.0423C36.7628 53.3605 36.4398 53.5333 35.9915 53.2929C35.8583 53.2215 35.6369 53.2349 35.4864 53.2911C35.0984 53.4359 34.6888 53.2528 34.3116 53.3993C34.1078 53.4785 33.9179 53.2455 33.7178 53.3944C33.6773 53.4245 33.6193 53.4311 33.5694 53.4486C33.6148 53.4693 33.6609 53.509 33.7054 53.5072C33.8787 53.5001 34.0388 53.5094 34.1275 53.691C33.9403 53.7452 33.7543 53.8378 33.5657 53.8435C33.3542 53.8498 33.1409 53.7737 32.9272 53.7414C32.8537 53.7303 32.7611 53.7162 32.7037 53.7494C32.3503 53.9537 32.0478 54.1206 31.5642 54.0087C31.1988 53.9242 30.8075 53.9018 30.4362 53.7703C30.3271 53.7317 30.1571 53.7948 30.0414 53.859C29.731 54.031 29.4501 53.9968 29.1977 53.7696C29.0119 53.6024 28.8154 53.4969 28.5603 53.5058C28.5291 53.5069 28.4716 53.4457 28.4671 53.4084C28.4406 53.1888 28.3467 53.0797 28.2067 53.1797C27.9596 53.3562 27.74 53.2762 27.5551 53.159C27.178 52.92 27.0249 53.3101 26.7654 53.3913C26.7837 53.431 26.8024 53.4706 26.8202 53.5106C26.8493 53.5762 26.8777 53.642 26.9064 53.7077C26.8413 53.7018 26.7632 53.7165 26.7142 53.6854C26.6357 53.6356 26.577 53.5549 26.509 53.4881C26.3477 53.3297 26.1425 53.3252 26.0131 53.4736C25.8401 53.672 25.6335 53.6503 25.443 53.6168C25.063 53.5499 24.6923 53.5385 24.3159 53.6233C24.1151 53.6685 23.9433 53.6083 23.8245 53.4329C23.5422 53.0159 23.0791 52.9506 22.6472 52.8247C22.1997 52.6943 21.6902 52.6855 21.4305 52.1897C21.4129 52.1561 21.3343 52.1415 21.2836 52.1404C20.8129 52.1299 20.335 52.1566 19.887 52.2707C19.5381 52.3596 19.2164 52.5899 18.9093 52.797C18.6994 52.9386 18.5634 53.0726 18.2507 52.9692C18.0622 52.9069 17.7694 53.1349 17.5336 53.2526C17.4259 53.3064 17.4106 53.3797 17.5727 53.4036C17.6118 53.4094 17.6373 53.5075 17.6691 53.5631C17.6051 53.5769 17.5079 53.6247 17.4823 53.5995C17.1123 53.2361 16.6849 53.3681 16.2827 53.4814C16.0716 53.5409 15.7417 53.3644 15.6577 53.7393C15.4224 53.7442 15.2098 53.7294 15.0328 53.5197C14.8425 53.294 14.6055 53.3583 14.4635 53.6287C14.4376 53.6781 14.3272 53.7415 14.3192 53.7337C14.1125 53.5308 14.0264 53.6368 13.9431 53.8513C13.9209 53.9084 13.7945 53.925 13.716 53.9602C13.7235 53.8817 13.7069 53.7892 13.7429 53.7272C13.8659 53.5151 13.8681 53.5283 13.6101 53.3897C13.5137 53.3379 13.4464 53.2323 13.365 53.152C12.9844 52.7765 12.7063 52.7171 12.2763 53.0337C12.0311 53.2142 11.9055 53.1821 11.7096 52.9961C11.5867 52.8794 11.4086 52.8069 11.2428 52.7531C11.0909 52.7038 10.9477 52.6346 10.7856 52.8459C10.6961 52.9626 10.3589 52.9754 10.1732 52.9142C9.78636 52.7867 9.42837 52.7728 9.04913 52.9152C8.96394 52.9472 8.80703 52.9278 8.74895 52.8681C8.50413 52.6163 8.28115 52.3428 8.05637 52.0721C7.92855 51.9182 7.84078 51.7088 7.68172 51.6108C7.57264 51.5437 7.40208 51.2964 7.22026 51.5518C7.08193 51.4093 6.84275 51.279 6.82395 51.1222C6.76461 50.6272 6.33675 50.4827 6.03337 50.1657C5.8781 50.0037 5.75167 49.87 5.62322 49.7383C5.62004 49.7351 5.59452 49.7536 5.57942 49.762C5.68936 49.8933 5.79753 50.0262 5.91089 50.1545C5.9312 50.1774 5.97294 50.1815 6.00478 50.1943ZM45.1717 20.9191C45.1519 20.8327 44.9163 20.8089 45.0752 20.6828C45.2384 20.5535 45.242 20.3961 45.227 20.2283C45.1609 19.4905 45.0677 18.764 44.5839 18.1495C44.4236 17.9459 44.3624 17.6785 44.4441 17.4215C44.5613 17.0525 44.7164 16.6957 44.8419 16.3291C44.9931 15.8875 44.7581 15.4025 44.98 14.9553C44.9984 14.9183 44.7307 14.7413 44.5987 14.6261C44.5732 14.6039 44.5475 14.5674 44.5448 14.5356C44.4997 14.0147 44.2663 13.4982 44.5342 12.9683C44.5879 12.8621 44.5476 12.7053 44.5374 12.5728C44.5358 12.5524 44.4512 12.512 44.4241 12.524C44.1933 12.6261 44.1567 12.5684 44.2484 12.3444C44.2951 12.2302 44.3495 12.0693 44.3043 11.9761C44.1189 11.5938 43.9491 11.1829 43.6728 10.8721C43.4101 10.5767 43.1829 10.2383 43.11 9.90306C42.9962 9.38022 42.6777 9.12266 42.2808 8.87774C42.0521 8.73654 41.7786 8.62285 41.624 8.42108C41.5091 8.27098 41.6117 7.96412 41.5087 7.79209C41.4133 7.63271 41.1723 7.5618 40.9996 7.44575C40.978 7.43124 40.9892 7.37482 40.9727 7.34471C40.7979 7.02631 40.591 6.96256 40.3578 7.22611C40.155 7.45527 39.898 7.4947 39.6977 7.40894C39.3267 7.2502 38.9758 7.31634 38.6118 7.35086C38.5589 7.35588 38.495 7.35785 38.4517 7.33361C38.1996 7.1926 37.9287 7.18611 37.6505 7.19437C37.3459 7.20342 36.9976 7.29034 36.746 7.17458C36.3615 6.99773 36.1277 7.13881 35.8663 7.35286C35.6389 7.53904 35.4097 7.611 35.1306 7.42958C34.8793 7.26621 34.6096 7.12671 34.3354 7.00512C34.2261 6.95662 33.9939 6.93776 33.9691 6.98493C33.7747 7.35535 33.3836 7.19578 33.111 7.27608C32.7905 7.3705 32.3818 7.40637 32.0208 7.20507C31.6325 6.98849 31.2453 7.02664 30.9376 7.37236C30.8079 7.51804 30.6621 7.52472 30.4905 7.54551C30.0359 7.60061 29.6358 7.40102 29.2122 7.31215C29.0046 7.26862 28.8198 7.22913 28.7149 6.99486C28.664 6.8813 28.4886 6.74866 28.3733 6.75194C27.9033 6.7653 27.43 6.64592 26.9698 6.95049C26.6434 7.16654 26.1767 7.13435 25.8494 7.41386C25.8238 7.4357 25.747 7.40809 25.6985 7.39076C25.4164 7.28997 25.1369 7.18205 24.854 7.08352C24.7203 7.03693 24.575 6.95922 24.4457 6.97645C24.0548 7.02853 23.6029 7.01867 23.2963 7.21896C22.7669 7.56479 22.3914 7.27476 21.9785 7.07462C21.8329 7.00407 21.7337 6.84209 21.6049 6.73182C21.3855 6.54414 21.3922 6.54958 21.323 6.8599C21.3008 6.95942 21.2599 7.11775 21.0792 7.00768C21.0363 6.98159 20.9486 6.95535 20.9305 6.97476C20.8392 7.07305 20.764 7.18636 20.6831 7.2944C20.5981 7.1855 20.514 7.0759 20.4266 6.96895C20.419 6.95961 20.3869 6.97418 20.3714 6.96677C19.9161 6.74914 19.5287 6.94092 19.2031 7.22256C18.9302 7.4587 18.6513 7.54216 18.3016 7.54806C17.898 7.55488 17.4963 7.48285 17.0849 7.63731C16.7695 7.75572 16.3801 7.56257 16.0522 7.76821C15.8039 7.5759 15.5078 7.70618 15.2437 7.64646C14.957 7.58161 14.8377 7.80658 14.8284 7.9525C14.8083 8.26999 14.7203 8.44666 14.41 8.58529C14.1692 8.69283 14.0235 9.00656 13.7843 9.12571C13.5044 9.26516 13.1083 9.43513 12.8721 9.33461C12.5483 9.19683 12.2487 9.47536 11.9631 9.2648C11.9158 9.22994 11.7472 9.3018 11.6784 9.3691C11.5995 9.44643 11.5098 9.65405 11.5269 9.6667C11.7198 9.80909 11.6939 9.60135 11.7587 9.51376C11.7946 9.46524 11.8817 9.44309 11.9492 9.43328C12 9.42589 12.0781 9.44099 12.1039 9.4758C12.127 9.50704 12.1155 9.59841 12.0849 9.62975C11.7147 10.0093 11.3385 10.3832 10.9623 10.757C10.924 10.795 10.8659 10.8589 10.8338 10.85C10.628 10.7931 10.6188 10.9652 10.5254 11.0679C10.1949 11.4318 9.83801 11.772 9.48756 12.1176C9.22702 12.3745 8.94504 12.5908 8.62985 12.7919C8.29724 13.0041 8.06471 13.4091 7.85955 13.7702C7.75429 13.9555 7.81688 14.2418 7.79595 14.4594C7.76814 14.7485 7.8071 14.954 7.94622 15.1802C8.0101 15.284 8.05137 15.4032 8.09275 15.5191C8.12847 15.6191 8.20716 15.7668 8.16777 15.8198C7.9827 16.0686 7.8667 16.2995 8.05251 16.6061C8.08214 16.655 7.97156 16.7905 7.92323 16.8847C7.8183 17.089 7.59015 17.3234 7.63241 17.4896C7.70803 17.787 7.65885 18.0419 7.60778 18.3167C7.56851 18.5281 7.68338 18.7616 7.46813 18.9476C7.15465 19.2184 7.77035 19.2984 7.61071 19.5591C7.57677 19.6146 7.63605 19.7289 7.60074 19.7814C7.40284 20.0755 7.48387 20.4032 7.50307 20.7086C7.52217 21.0126 7.40882 21.2078 7.19625 21.3882C6.86154 21.6724 6.85902 21.6809 7.12493 21.977C7.23395 22.0984 7.30269 22.1624 7.17256 22.3448C7.01408 22.567 6.76104 22.8373 7.11752 23.131C7.16756 23.1722 7.17665 23.3254 7.14228 23.3966C6.94563 23.8042 7.13139 24.098 7.36159 24.4216C7.44236 24.5351 7.61052 24.7237 7.42102 24.97C7.31993 25.1013 7.40121 25.3936 7.43901 25.6063C7.49073 25.8975 7.61194 26.2234 7.37825 26.4453C7.02111 26.7844 7.09458 27.1804 7.20727 27.5335C7.37782 28.068 7.59245 28.6013 7.92594 29.0619C8.10427 29.3082 8.11762 29.5133 7.96896 29.7691C7.86373 29.9501 7.78524 30.152 7.73017 30.3542C7.70787 30.4361 7.77423 30.6249 7.80928 30.6272C8.33339 30.6616 8.01006 30.9943 8.01444 31.1997C8.02099 31.5067 8.00107 31.8142 8.00441 32.1213C8.00556 32.2273 8.09779 32.3807 8.05427 32.431C7.76115 32.7697 7.99772 32.9497 8.22601 33.1571C8.28036 33.2065 8.29478 33.3272 8.28785 33.4119C8.25943 33.759 8.30202 34.1486 8.15452 34.4394C7.98992 34.7639 8.07847 35.1709 7.78647 35.4321C7.5348 35.6572 7.53407 35.9069 7.7083 36.1725C7.86607 36.413 8.03072 36.649 8.19259 36.8868C8.26348 36.9909 8.36183 37.0852 8.40191 37.2C8.66534 37.9542 8.4961 38.6569 8.12107 39.3295C7.84257 39.829 7.66003 40.3522 7.72108 40.9356C7.72851 41.0065 7.7424 41.1351 7.76451 41.1376C8.18596 41.1852 7.94532 41.47 7.94215 41.651C7.93939 41.8086 7.88029 41.9655 7.84402 42.1223C7.80659 42.284 7.8335 42.452 7.99051 42.4984C8.07252 42.5227 8.20633 42.3688 8.17941 42.6052C8.1555 42.8151 8.22976 42.9355 8.46122 43.002C8.6767 43.0638 8.87143 43.2097 9.06386 43.3361C9.19773 43.4239 9.41115 43.5351 9.41806 43.6465C9.4456 44.0899 9.67819 44.5071 9.46141 44.9912C9.25041 45.4624 9.5103 45.9195 9.94775 46.0684C9.98691 46.0818 10.0672 46.0372 10.0962 45.9966C10.1175 45.9668 10.0862 45.8994 10.0783 45.8487C10.1308 45.8836 10.2235 45.9126 10.2295 45.9542C10.2728 46.2535 10.4445 46.3453 10.7294 46.4415C11.0933 46.5644 11.4009 46.4609 11.7057 46.3639C12.0351 46.2591 12.2707 46.2953 12.4931 46.5571C12.6846 46.7825 12.9183 46.8643 13.2286 46.7729C13.4445 46.7093 13.6711 46.7495 13.8302 46.9725C13.8831 47.0467 14.0618 47.1276 14.1055 47.0965C14.4367 46.8609 14.7479 46.904 15.0681 47.1044C15.0955 47.1215 15.1487 47.1193 15.1801 47.1048C15.6609 46.8829 16.1901 46.9871 16.692 46.9114C16.9554 46.8717 17.1325 46.5399 17.4303 46.7165C17.4594 46.6626 17.5249 46.5738 17.5119 46.5602C17.3606 46.402 17.5881 46.3974 17.6058 46.3123C17.8603 46.4949 17.9772 46.2725 18.1252 46.1377C18.1462 46.1185 18.1783 46.1116 18.2053 46.099C18.2155 46.1506 18.2501 46.2155 18.2308 46.2509C18.1956 46.315 18.1161 46.3543 18.0781 46.4177C18.0456 46.472 18.0453 46.5456 18.0308 46.6107C18.1017 46.6235 18.1735 46.6497 18.2431 46.6446C18.2906 46.6412 18.3321 46.5776 18.3812 46.5691C18.8479 46.4882 19.3357 46.2232 19.7432 46.7166C19.7711 46.7504 19.8463 46.7695 19.8925 46.7602C20.1905 46.7008 20.4851 46.6246 20.7835 46.5677C21.0577 46.5154 21.267 46.3242 21.5019 46.2324C21.6965 46.1563 21.9956 46.348 22.2486 46.4204C22.385 46.4594 22.5499 46.4612 22.6528 46.5422C22.874 46.7163 23.2064 46.5442 23.3918 46.8284C23.6334 47.1987 23.7594 47.2044 24.0993 46.9045C24.2183 46.7995 24.2781 46.7784 24.4655 46.8412C24.8868 46.9822 25.3191 47.1526 25.7869 47.1114C25.8683 47.1043 26.0032 47.1354 26.031 47.1904C26.1449 47.4156 26.3146 47.2797 26.3799 47.2134C26.7011 46.8874 27.0275 46.9517 27.3723 47.1468C27.6091 47.2807 27.8346 47.3481 28.0619 47.1114C28.1282 47.0424 28.2681 46.9787 28.3502 47.001C28.7754 47.1164 29.2326 47.1372 29.6034 47.4267C29.7551 47.5451 29.944 47.6149 30.1112 47.7148C30.2812 47.8165 30.4408 47.6121 30.4313 47.5981C30.2375 47.3109 30.4432 47.3284 30.6229 47.337C30.8584 47.3484 31.0677 47.2369 31.3366 47.3026C31.5583 47.3568 31.8485 47.1179 32.1118 47.0181C32.2604 46.9618 32.447 46.8463 32.5626 46.8924C32.9218 47.0359 33.2781 47.2123 33.5901 47.4387C33.7741 47.5722 33.8402 47.5642 34.0035 47.4273C34.1749 47.2837 34.4607 47.0755 34.5996 47.1323C34.9945 47.2938 35.3792 47.184 35.7639 47.2138C35.9433 47.2277 36.0758 47.2663 36.2071 47.3972C36.5172 47.7064 36.5253 47.6981 36.9656 47.4499C37.0272 47.4152 37.0937 47.349 37.1521 47.355C37.5556 47.3962 37.8316 47.1074 38.1155 46.9249C38.4101 46.7355 38.6563 46.7225 38.9418 46.8274C39.2744 46.9495 39.6194 47.0149 39.897 47.2979C40.1624 47.5684 40.3895 47.4975 40.632 47.1854C40.7412 47.0447 40.8617 46.9083 40.9446 46.7527C41.0526 46.5497 41.1931 46.4074 41.4293 46.4242C41.683 46.4422 41.9343 46.4922 42.1873 46.5226C42.3725 46.5449 42.5497 46.5721 42.696 46.3877C42.8911 46.1418 43.1621 46.0507 43.4799 46.0709C43.5647 46.0763 43.7026 46.0248 43.7341 45.9598C43.8803 45.6572 44.1149 45.5846 44.4239 45.6165C44.6125 45.6359 44.8077 45.6417 44.9946 45.6153C45.3422 45.5662 45.4448 45.3794 45.2191 45.1232C44.9259 44.7903 44.9989 44.4747 45.0744 44.0996C45.1421 43.7632 45.2933 43.5013 45.4894 43.2385C45.7518 42.8865 45.7296 42.7955 45.3934 42.5316C45.3344 42.4854 45.2377 42.4304 45.2358 42.3767C45.2109 41.6788 45.1892 40.9802 45.6168 40.3639C45.6732 40.2827 45.7165 40.1267 45.6764 40.0567C45.5649 39.8623 45.6277 39.6406 45.7021 39.5273C45.912 39.2075 45.6874 38.8507 45.8413 38.5524C46.1044 38.0426 45.5715 38.0562 45.3953 37.8351C45.3643 37.7962 45.3681 37.7313 45.3419 37.6867C45.1481 37.3564 45.1812 37.0124 45.3111 36.681C45.4975 36.2059 45.7099 35.7409 45.9158 35.2737C46.07 34.924 46.0363 34.5511 45.734 34.4292C45.3402 34.2704 45.47 34.0132 45.4891 33.7514C45.5087 33.4827 45.5727 33.2015 45.5176 32.9474C45.4593 32.6791 45.3877 32.4555 45.6198 32.2384C45.6591 32.2016 45.6475 32.0785 45.6205 32.0109C45.5879 31.9294 45.4568 31.8552 45.4668 31.7941C45.5332 31.3905 45.2639 31.1474 45.0601 30.871C44.8877 30.6372 44.853 30.4063 44.9952 30.1305C45.259 29.619 45.469 29.0893 45.4632 28.493C45.4604 28.2003 45.4179 28.2226 45.2282 28.3985C45.0689 28.5462 45.1092 28.3347 45.1202 28.2938C45.1629 28.1348 45.2103 27.9918 44.9855 27.9318C44.9519 27.9229 44.9338 27.8554 44.9086 27.8149C44.9601 27.8055 45.0349 27.7699 45.059 27.7913C45.1329 27.8569 45.1696 27.9022 45.2702 27.8061C45.4026 27.6798 45.2574 27.6576 45.2175 27.6C45.114 27.4511 45.0263 27.2791 44.8903 27.1676C44.6711 26.988 44.6146 26.7711 44.6602 26.5174C44.701 26.2899 44.7223 26.0409 44.8336 25.8485C44.9955 25.5686 45.0273 25.3649 44.7374 25.1624C44.6806 25.1227 44.6457 24.9907 44.6632 24.9159C44.7598 24.5023 44.754 24.0372 45.0355 23.7033C45.3435 23.3379 45.2851 22.9812 45.1054 22.6308C44.9534 22.3346 44.9533 22.0549 45.1235 21.8124C45.3308 21.517 45.3618 21.2368 45.2861 20.9191C45.3013 20.8582 45.3166 20.7972 45.3318 20.7362C45.3069 20.7306 45.282 20.725 45.2571 20.7194C45.2477 20.786 45.2383 20.8526 45.1717 20.9191ZM50.718 47.7356C50.7311 47.6462 50.7487 47.5571 50.7556 47.4673C50.7589 47.4241 50.742 47.3794 50.7342 47.3354C50.6526 47.4011 50.5277 47.4526 50.5005 47.5361C50.4683 47.6347 50.4224 47.8254 50.718 47.7356ZM49.1742 9.48354C49.2494 9.48354 49.3247 9.48354 49.3999 9.48354C49.3732 9.41773 49.364 9.33073 49.3158 9.29098C49.2399 9.22842 49.1378 9.19765 49.0469 9.15343C49.0702 9.24441 49.0936 9.33539 49.1742 9.48354ZM34.5938 47.6213C34.7873 47.4587 34.6665 47.4349 34.5124 47.4538C34.4226 47.4647 34.2646 47.5123 34.2627 47.5498C34.2513 47.7741 34.4379 47.6428 34.5938 47.6213ZM4.17509 47.6213C4.17509 47.5667 4.1893 47.5071 4.17192 47.4588C4.14203 47.3758 4.09245 47.2999 4.05114 47.221C4.01622 47.3063 3.94656 47.396 3.95658 47.4756C3.96577 47.5488 4.06073 47.6113 4.17509 47.6213ZM50.718 13.0858C50.6713 13.0286 50.6246 12.9714 50.5779 12.9142C50.5483 12.97 50.4838 13.0359 50.4964 13.0796C50.5242 13.1764 50.5908 13.2621 50.6415 13.3523C50.667 13.3016 50.6925 13.2509 50.718 13.0858ZM42.8274 1.76452C42.9278 1.77845 43.0282 1.79239 43.1287 1.80633C43.1305 1.7803 43.1443 1.74159 43.1323 1.73028C43.0466 1.64958 42.9744 1.50069 42.8274 1.76452ZM47.9163 6.16722C47.8591 6.21097 47.8019 6.25472 47.7447 6.29848C47.8114 6.35958 47.8781 6.4207 47.9447 6.48181C47.9543 6.396 47.9639 6.3102 47.9163 6.16722ZM51.1754 41.3317C51.2373 41.4223 51.2992 41.5128 51.3611 41.6034C51.3754 41.5734 51.4015 41.5436 51.402 41.5134C51.4041 41.395 51.4453 41.2425 51.1754 41.3317ZM24.2446 47.3354C24.3351 47.2735 24.4257 47.2116 24.5163 47.1497C24.4863 47.1353 24.4565 47.1093 24.4263 47.1087C24.3079 47.1067 24.1554 47.0654 24.2446 47.3354ZM51.2898 25.5506C51.2135 25.5663 51.1373 25.5819 51.061 25.5976C51.0817 25.6756 51.1024 25.7536 51.123 25.8316C51.1595 25.757 51.1961 25.6824 51.2898 25.5506ZM45.2289 22.2342C45.2726 22.2914 45.3164 22.3486 45.3601 22.4058C45.3926 22.3733 45.4251 22.3408 45.4576 22.3083C45.4004 22.2645 45.3432 22.2208 45.2289 22.2342ZM1.88797 33.4411C1.90058 33.4919 1.91319 33.5426 1.9258 33.5933C1.9258 33.4537 1.9258 33.3142 1.9258 33.1746C1.91318 33.2253 1.90058 33.276 1.88797 33.4411ZM23.5584 1.02121C23.508 1.03353 23.4575 1.04584 23.4071 1.05816C23.4385 1.08396 23.4917 1.13639 23.4978 1.13139C23.5519 1.08697 23.7432 1.25069 23.5584 1.02121ZM45.8578 34.1844C45.8769 34.1026 45.9012 34.0214 45.912 33.9385C45.9155 33.9117 45.8833 33.8802 45.8674 33.8509C45.8452 33.8892 45.8123 33.9251 45.8034 33.9663C45.7922 34.0177 45.8007 34.0734 45.8578 34.1844ZM7.14834 51.0519C7.22374 51.0528 7.29914 51.0536 7.37453 51.0545C7.29914 51.0155 7.22374 50.9765 7.14834 51.0519ZM7.60577 30.9253C7.64388 30.9062 7.682 30.8872 7.72012 30.8681C7.682 30.8491 7.64389 30.83 7.60577 30.9253ZM9.20675 44.7624C9.19667 44.7142 9.1866 44.666 9.17652 44.6178C9.15184 44.6245 9.10528 44.6355 9.10564 44.6373C9.11751 44.6986 9.13387 44.759 9.20675 44.7624ZM7.14834 19.6041C7.17121 19.6193 7.19409 19.6345 7.21696 19.6498C7.21315 19.6155 7.20933 19.5812 7.14834 19.6041ZM45.8579 36.4716C45.8731 36.4487 45.8883 36.4258 45.9036 36.4029C45.8693 36.4068 45.835 36.4106 45.8579 36.4716ZM47.3445 5.36673C47.3597 5.34386 47.375 5.32099 47.3902 5.29813C47.3559 5.30194 47.3216 5.30575 47.3445 5.36673ZM45.8578 31.6686C45.8731 31.6457 45.8883 31.6229 45.9036 31.6C45.8693 31.6038 45.835 31.6076 45.8578 31.6686ZM29.5621 1.07838C29.5392 1.06314 29.5164 1.04789 29.4935 1.03264C29.4973 1.06694 29.5011 1.10125 29.5621 1.07838Z" fill="#E50052"/>
<path d="M34.9077 35.671C34.7316 35.7473 34.5321 35.8504 34.3205 35.8919C34.1211 35.9311 33.9896 36.0078 34.0264 36.2127C34.0894 36.5631 33.8252 36.7119 33.6379 36.9112C33.549 37.0059 33.4176 37.0799 33.3709 37.1908C33.2888 37.3859 33.3457 37.4383 33.5164 37.2779C33.5304 37.2648 33.6226 37.335 33.6784 37.3665C33.6358 37.4112 33.5902 37.4967 33.5512 37.4937C33.3751 37.4805 33.3136 37.5467 33.3323 37.719C33.3398 37.7886 33.3136 37.8619 33.3027 37.9336C33.2489 37.858 33.1899 37.7855 33.1429 37.7059C33.1075 37.6459 33.0875 37.5769 33.0606 37.5119C33.0378 37.5712 33.0064 37.6287 32.9939 37.6901C32.9546 37.8823 32.8497 37.9817 32.6461 37.9588C32.6085 37.9545 32.569 37.9523 32.5321 37.9591C32.3203 37.9981 32.032 37.9701 31.9159 38.0977C31.7521 38.278 31.5696 38.6548 31.6527 38.8053C31.8856 39.2271 31.4552 39.3704 31.3535 39.3908C30.9723 39.4671 30.8184 39.7804 30.5665 39.9862C30.4785 40.0581 30.4162 40.1939 30.3209 40.2186C29.9585 40.3126 29.5292 40.1143 29.226 40.474C28.8768 40.3977 28.522 40.3398 28.1813 40.236C28.0516 40.1965 27.9595 40.0444 27.8408 39.9563C27.4579 39.6723 27.0772 39.4038 26.5535 39.6389C26.4107 39.703 26.1909 39.7273 26.0597 39.6623C25.569 39.4194 25.1956 39.6474 24.7872 39.8736C24.7205 39.826 24.6824 39.8069 24.6443 39.7593C24.4792 39.7446 24.3942 39.4449 24.1931 39.615C24.1747 39.6306 24.1825 39.7145 24.1877 39.7155C24.3391 39.7436 24.4918 39.7652 24.6443 39.8164C24.6824 39.8641 24.7205 39.8832 24.7586 39.9022C24.6631 40.2052 24.4168 40.188 24.2178 40.0918C23.8373 39.908 23.4518 39.8048 23.0297 39.7738C22.8757 39.7625 22.6636 39.6225 22.6005 39.485C22.4734 39.2077 22.3008 39.131 22.0103 39.0877C21.5538 39.0197 21.2527 38.6715 20.9866 38.3167C20.7266 37.97 20.4857 37.6089 20.227 37.261C20.1049 37.0968 20.0642 37.18 20.0674 37.3318C19.9921 37.3265 19.9084 37.3397 19.8437 37.3106C19.7793 37.2817 19.74 37.2016 19.6788 37.1598C19.5915 37.1001 19.4942 37.0549 19.4012 37.0035C19.4937 36.9786 19.591 36.9647 19.6773 36.9261C19.7741 36.8827 19.8608 36.8171 19.952 36.7611C19.8834 36.7027 19.8108 36.6483 19.747 36.585C19.6234 36.4624 19.4954 36.3423 19.3856 36.2078C19.0679 35.8185 18.6944 35.4657 18.2143 35.3504C17.9179 35.2792 17.8019 35.029 17.8081 34.9128C17.8303 34.5015 17.6764 34.1976 17.4468 33.8858C17.3054 33.6939 17.4138 33.4698 17.4983 33.267C17.5593 33.1208 17.6193 32.9731 17.6593 32.8207C17.6643 32.8019 17.5281 32.7081 17.485 32.724C17.4289 32.7448 17.4004 32.8404 17.36 32.9038C17.3485 32.8324 17.3621 32.7388 17.3216 32.6929C16.9125 32.2289 16.9914 31.6657 16.9793 31.1172C16.9733 30.8448 17.0359 30.5691 16.8818 30.2994C16.8322 30.2126 16.949 30.0349 16.9802 29.8967C17.0237 29.7042 17.1371 29.4821 17.0809 29.3217C16.9518 28.9536 17.0093 28.587 16.9783 28.2208C16.9649 28.063 16.8932 27.9109 16.8714 27.753C16.8453 27.5633 16.6233 27.3426 16.9399 27.1899C16.9637 27.1784 16.9863 27.1237 16.9798 27.096C16.8414 26.5096 17.3229 26.2704 17.6291 25.935C17.7535 25.7988 17.8981 25.7077 17.803 25.4567C17.7593 25.3416 17.891 25.0614 18.0137 25.0022C18.2758 24.8757 18.3472 24.6312 18.4278 24.4271C18.5483 24.1224 18.7136 23.9073 19.0072 23.7737C19.0693 23.7455 19.1155 23.6679 19.1537 23.6039C19.3928 23.203 19.5673 22.7585 20.1026 22.6204C20.2746 22.5761 20.4502 22.4009 20.4151 22.1449C20.384 21.9179 20.4892 21.8187 20.6991 21.6873C21.0269 21.4822 21.3154 21.2501 21.7274 21.2563C21.8054 21.2574 21.8966 21.1956 21.9611 21.1393C22.3267 20.8207 22.6974 20.5066 23.0417 20.1661C23.1805 20.0288 23.3185 20.0029 23.4923 20.0023C24.0255 20.0002 24.5416 20.0428 25.0612 20.214C25.369 20.3154 25.7618 20.2994 26.072 20.199C26.2554 20.1397 26.3928 20.2315 26.4256 20.2653C26.9037 20.7574 27.425 20.8535 28.1102 20.7163C28.8254 20.573 29.5422 20.8341 30.1943 21.1637C30.455 21.2956 30.5997 21.4101 30.8564 21.1C30.9973 20.9299 31.4364 20.86 31.6706 20.9432C32.2316 21.1426 32.7514 21.4583 33.287 21.7288C33.9864 22.0821 34.2595 22.7806 34.572 23.417C34.6973 23.6721 34.7544 23.7929 35.0495 23.927C35.5507 24.1547 35.9752 24.5766 36.3846 24.9667C36.5135 25.0896 36.5249 25.3708 36.5311 25.5813C36.5533 26.3388 36.465 27.0882 36.3095 27.8298C36.2909 27.9188 36.3194 28.0555 36.2685 28.0938C35.8902 28.3787 36.3167 28.7038 36.2089 28.9959C36.6 29.2821 36.23 29.6206 36.2702 29.9316C36.2799 30.0072 36.2486 30.0882 36.2362 30.1667C36.3012 30.1499 36.3655 30.129 36.4315 30.1176C36.4956 30.1065 36.5614 30.1052 36.6264 30.0996C36.6028 30.1781 36.604 30.2866 36.5514 30.33C36.2973 30.54 36.0051 30.7213 36.2645 31.1194C36.2807 31.1443 36.2134 31.2233 36.1853 31.2773C35.943 31.7429 35.7555 32.1914 35.9358 32.7588C36.0131 33.0021 35.8729 33.3714 35.7232 33.6175C35.4634 34.0444 35.4424 34.6318 34.8957 34.8853C34.8234 34.9189 34.8292 35.1528 34.8264 35.2945C34.824 35.4196 34.8601 35.5455 34.9077 35.671ZM28.0178 33.6126C28.3214 33.5489 28.5607 33.4274 28.5744 33.0617C28.5773 32.9819 28.629 32.8672 28.6931 32.832C29.2336 32.5353 29.5554 31.9321 30.1941 31.7685C30.2806 31.7463 30.4357 31.6275 30.2457 31.4939C29.9699 31.2999 29.9775 31.049 30.069 30.7532C30.1726 30.4181 30.2361 30.0569 30.0135 29.7459C29.8261 29.484 29.9298 29.2767 30.06 29.0544C30.1228 28.9473 30.224 28.8457 30.2411 28.7316C30.3224 28.1886 30.0652 27.7055 29.587 27.4355C29.4774 27.3736 29.3741 27.2956 29.2811 27.2106C29.1292 27.0717 29.0119 26.8607 28.8361 26.7915C28.6385 26.7136 28.3923 26.7596 28.1673 26.7507C28.1503 26.75 28.1289 26.7459 28.1173 26.7351C27.7115 26.354 27.1503 26.6476 26.7082 26.4134C26.6572 26.3864 26.5682 26.4311 26.4968 26.4425C26.56 26.4828 26.6577 26.5095 26.68 26.566C26.7495 26.7415 27.0957 26.4985 27.0249 26.7894C27.0105 26.8483 26.7284 26.8425 26.5695 26.8647C26.5532 26.867 26.5329 26.8606 26.5183 26.8519C26.0942 26.5992 25.6031 26.7751 25.1582 26.6449C25.1181 26.6332 25.0442 26.733 24.9875 26.7828C24.5244 27.1893 24.2925 27.7911 23.7721 28.1638C23.5241 28.3414 23.3462 28.6462 23.3753 29.0219C23.3895 29.2058 23.3246 29.4207 23.2292 29.5825C23.069 29.8543 23.1532 30.0369 23.3599 30.2126C23.6407 30.4511 23.6973 30.7442 23.6227 31.0985C23.5805 31.299 23.5995 31.517 23.6183 31.7246C23.657 32.1519 23.9841 32.4949 24.4284 32.5817C24.7335 32.6413 24.8942 32.8362 24.9889 33.1144C25.0569 33.314 25.1467 33.5062 25.2148 33.7057C25.4346 34.3497 25.9846 34.4944 26.4578 34.0288C26.5392 33.9488 26.6058 33.8395 26.7029 33.7924C26.9158 33.6892 27.138 33.5837 27.3677 33.5435C27.537 33.5138 27.7242 33.5859 28.0178 33.6126ZM31.1626 39.1589C31.2769 39.0789 31.3935 39.0017 31.5005 38.9128C31.5075 38.907 31.4405 38.8121 31.408 38.7586C31.2661 38.884 30.9549 38.8973 31.1626 39.1589ZM30.2477 31.0396C30.2581 31.0881 30.2684 31.1365 30.2787 31.185C30.3359 31.1278 30.3931 31.0707 30.4503 31.0135C30.4018 31.0031 30.3533 30.9928 30.2477 31.0396Z" fill="#E50052"/>
<path d="M39.9684 13.3717C40.0087 13.5074 40.0285 13.6181 40.0927 13.6591C40.5678 13.9624 40.3686 14.3569 40.1829 14.6782C40.0124 14.9732 40.0668 15.3684 39.7546 15.5888C39.7434 15.5967 39.7346 15.629 39.7411 15.6379C40.0873 16.1148 39.513 16.407 39.4982 16.8194C39.4905 17.0338 39.2687 17.2133 39.3745 17.4857C39.3976 17.5452 39.1589 17.7751 39.009 17.8195C38.6293 17.9322 38.4016 18.2184 38.13 18.4621C38.0413 18.5417 37.918 18.6056 37.8015 18.6265C37.4935 18.6819 37.1815 18.3545 36.8652 18.6271C36.8541 18.6367 36.7713 18.5806 36.7363 18.5421C36.5516 18.3388 36.3622 18.1668 36.0684 18.3561C36.0476 18.3695 35.9941 18.3733 35.9918 18.3674C35.9725 18.3182 35.9772 18.2512 35.9453 18.2167C35.8365 18.0988 35.7901 17.9574 35.5583 17.9241C35.2005 17.8728 34.7754 17.8418 34.5808 17.4223C34.5692 17.3974 34.5207 17.3773 34.4885 17.3761C33.973 17.3566 33.8796 16.9801 33.786 16.5807C33.7511 16.4318 33.6288 16.305 33.5561 16.1632C33.4494 15.9548 33.2785 15.8115 33.4061 15.4851C33.5013 15.2418 33.3429 14.8535 33.201 14.5798C33.1114 14.407 33.113 14.3287 33.2212 14.2072C33.4412 13.9599 33.5197 13.6156 33.8682 13.445C34.127 13.3184 34.3 13.0269 34.2449 12.7032C34.184 12.3453 34.4358 12.0865 34.649 12.0361C35.0207 11.9481 35.0962 11.6459 35.2687 11.4266C35.4279 11.2242 35.5578 11.1014 35.8367 11.0671C36.1227 11.0319 36.4055 10.8807 36.6629 10.7336C36.8635 10.619 36.9992 10.6441 37.2054 10.7308C37.804 10.9827 38.2434 11.394 38.6001 11.9213C38.7106 12.0847 38.8394 12.2128 39.0857 12.2433C39.4328 12.2864 39.7527 12.4289 39.7515 12.8955C39.7512 13.035 39.8922 13.1749 39.9684 13.3717ZM38.9392 17.317C38.9126 17.3436 38.8847 17.3691 38.8597 17.3971C38.8127 17.4495 38.7673 17.5033 38.7212 17.5565C38.7856 17.5612 38.8548 17.583 38.9132 17.5665C38.9955 17.5432 39.1033 17.5112 39.1404 17.4478C39.2186 17.3143 39.1482 17.2441 38.9392 17.317Z" fill="#E50052"/>
</svg>
