<svg width="77" height="71" viewBox="0 0 77 71" fill="none" xmlns="http://www.w3.org/2000/svg">
<rect x="4" y="4" width="70" height="62" rx="30" fill="#D4D3D9"/>
<path d="M63.9279 61.8752C63.7303 61.9049 63.5318 61.8933 63.3354 61.9085C63.179 61.9206 63.1784 61.9958 63.2827 62.1607C63.3122 62.2072 63.2508 62.3712 63.2472 62.3707C62.6768 62.2875 62.315 62.6312 61.9556 62.9875C61.6172 63.323 61.308 63.6554 61.1798 64.1533C61.1098 64.4252 60.7942 64.5745 60.4865 64.6396C60.0554 64.7309 59.6931 64.9052 59.6508 65.4259C59.6461 65.4837 59.5492 65.5408 59.4862 65.5858C59.1232 65.8456 58.7195 65.9586 58.2711 65.9466C57.7578 65.9328 57.2433 65.9309 56.7305 65.9518C56.5971 65.9573 56.3743 66.045 56.3538 66.1327C56.2844 66.4301 56.0888 66.435 55.8701 66.4162C55.5539 66.389 55.2412 66.409 55.0246 66.6601C54.7083 67.0269 54.2366 66.9581 53.8513 67.1269C53.4029 67.3232 52.956 67.4931 52.6364 67.908C52.4897 68.0985 52.2633 68.2974 51.955 68.1505C51.9198 68.1337 51.8638 68.1264 51.8314 68.1426C51.3623 68.3775 50.8588 68.314 50.3631 68.3188C50.2841 68.3196 50.1744 68.2853 50.1312 68.3247C49.9246 68.5132 49.6611 68.4714 49.4246 68.5371C49.1619 68.6101 48.9116 68.728 48.6552 68.8246C48.5697 68.8568 48.4777 68.9176 48.3961 68.9072C47.9616 68.8514 47.6565 69.0649 47.4014 69.3722C47.1702 69.6508 46.9251 69.6703 46.5855 69.5575C46.1836 69.4239 45.7664 69.3507 45.4126 69.0899C45.3322 69.0305 45.1948 69.0399 45.0829 69.0362C45.0395 69.0348 44.9944 69.0847 44.9501 69.1113C44.9881 69.1639 45.0154 69.2357 45.0668 69.2647C45.1448 69.3087 45.2415 69.3182 45.3263 69.3523C45.36 69.3658 45.3831 69.4059 45.411 69.4338C45.3708 69.4581 45.3309 69.503 45.2903 69.5035C44.915 69.509 44.5379 69.485 44.1648 69.5143C43.9097 69.5343 43.6598 69.6243 43.4094 69.6897C43.3997 69.6922 43.4081 69.7641 43.4081 69.8334C42.8243 69.7194 42.2246 69.4029 41.7277 70.0576C41.4903 70.3703 41.1414 70.2194 40.8515 70.1997C40.4452 70.172 40.0469 70.0123 39.6413 69.9935C39.1242 69.9695 38.6463 69.8631 38.1855 69.6321C38.0787 69.5786 37.9544 69.3803 37.791 69.5899C37.7732 69.6129 37.5459 69.5437 37.5258 69.4817C37.4009 69.0946 37.0096 69.1903 36.7579 69.0432C36.5692 68.9329 36.4644 69.1767 36.3388 69.2878C36.3304 69.2953 36.3605 69.3772 36.3834 69.3832C36.4389 69.3978 36.503 69.3981 36.5595 69.3857C36.6594 69.3639 36.7563 69.3283 36.8545 69.2985C36.7615 69.4075 36.6861 69.5777 36.5714 69.6105C36.4179 69.6544 36.2334 69.5961 36.0633 69.5735C35.9531 69.5588 35.8443 69.5317 35.7358 69.5064C35.1422 69.3681 34.7117 69.7306 34.3037 70.0428C34.0893 70.2068 33.9641 70.183 33.7664 70.1044C33.5965 70.0368 33.4001 70.0279 33.24 69.9454C33.0075 69.8255 32.8164 69.6298 32.5668 69.9457C32.5032 70.0263 32.27 69.9636 32.117 69.9839C31.7859 70.0278 31.4768 69.9781 31.1218 70.1674C30.7408 70.3705 30.1896 70.268 29.7476 70.0223C29.427 69.8441 29.16 69.58 28.7792 69.4907C28.6513 69.4606 28.5601 69.2481 28.4645 69.1104C28.2074 68.7402 28.0578 68.7067 27.6607 68.9443C27.3504 69.13 26.665 69.0121 26.2948 68.6975C26.1446 68.5699 26.004 68.428 25.876 68.2781C25.6248 67.984 25.3573 67.7868 24.9269 67.8328C24.5408 67.8741 24.3701 67.5164 24.2053 67.25C24.0951 67.0719 23.9849 66.9741 23.8016 67.0179C23.4992 67.0902 23.1045 67.1106 22.9317 67.3111C22.6879 67.5939 22.579 67.4772 22.3354 67.3724C22.0847 67.2646 21.779 67.2578 21.4971 67.2569C21.1465 67.2559 20.8395 67.2414 20.7305 66.8201C20.7092 66.7376 20.6006 66.6213 20.5275 66.6177C20.057 66.5943 19.98 66.1356 19.7012 65.9056C19.4113 65.6663 19.0989 65.4545 18.7667 65.2307C18.6938 65.0264 18.6912 65.0211 18.6118 65.0604C18.1537 65.2871 17.7827 65.0571 17.4362 64.809C17.1583 64.61 16.9911 64.188 16.5212 64.4906C16.4477 64.538 16.234 64.3672 16.0851 64.2974C15.5858 64.0633 15.2229 63.6387 14.7678 63.3479C14.4232 63.1276 14.1537 62.9035 14.0139 62.4868C13.9275 62.2293 13.8214 61.7943 13.3204 61.9917C13.2825 62.0066 13.1366 61.7338 13.0341 61.6C12.884 61.4038 12.7336 61.2072 12.5697 61.0229C12.5325 60.9811 12.4393 60.9891 12.3718 60.9741C12.3981 61.0314 12.4492 61.091 12.4439 61.1451C12.4382 61.2031 12.3854 61.2624 12.3389 61.3057C12.3292 61.3147 12.2339 61.2656 12.2181 61.2268C12.1836 61.1422 12.203 60.9963 12.1497 60.9666C12.0377 60.904 11.893 60.9003 11.7618 60.8723C11.8943 60.8584 12.0314 60.8605 12.1575 60.8241C12.2239 60.8049 12.2784 60.7235 12.3203 60.6585C12.3281 60.6465 12.2559 60.5514 12.2104 60.5414C11.9312 60.4796 11.8602 60.2377 11.7348 60.0335C11.636 59.8726 11.5118 59.7221 11.375 59.5921C11.3177 59.5377 11.192 59.517 11.1091 59.535C10.8376 59.5941 10.8182 59.6057 10.7963 59.3767C10.7756 59.161 10.6907 59.0484 10.4752 59.0554C10.1208 59.0669 10.0025 58.7959 9.83719 58.5582C9.53816 58.1282 9.15557 57.8123 8.60678 57.7456C7.97235 57.6685 7.50273 57.1433 7.46982 56.4865C7.44862 56.0633 7.3651 55.7105 6.86005 55.5964C6.67246 55.554 6.50982 55.3872 6.51309 55.1203C6.51706 54.7963 6.40563 54.5104 6.18703 54.2449C6.05856 54.0888 5.98039 53.8574 6.07693 53.6095C6.17214 53.365 5.9991 53.0226 5.74935 52.8786C5.69721 52.8486 5.63801 52.8308 5.58206 52.8073C5.58874 52.8609 5.59786 52.9143 5.60135 52.9681C5.60452 53.0169 5.60157 53.0661 5.60131 53.1152C5.4333 52.9618 5.25428 52.8331 5.01005 52.8503C5.0354 52.8198 5.0552 52.7804 5.08712 52.7605C5.20679 52.6858 5.4182 52.6335 5.43458 52.5434C5.47061 52.3455 5.41015 52.1295 5.38583 51.9213C5.38123 51.8819 5.11456 51.7477 5.07778 51.6842C5.02464 51.5924 4.98617 51.4326 5.03142 51.3533C5.25656 50.9586 5.27311 50.9546 4.89658 50.7214C4.4156 50.4236 4.18589 50.0015 4.13526 49.4393C4.11685 49.2349 3.94695 49.0468 3.8626 48.8444C3.83332 48.7741 3.85363 48.6831 3.88095 48.6313C3.94724 48.6639 3.98388 48.6668 4.02053 48.6697C3.98388 48.647 3.94724 48.6243 3.9106 48.6016C3.70603 48.3807 3.68935 48.3658 3.56144 48.5091C3.49226 48.5866 3.47135 48.6374 3.44061 48.5107C3.41794 48.4172 3.4756 48.2807 3.42695 48.2226C3.35306 48.1342 3.21802 48.0972 3.10894 48.0384C3.24152 48.0244 3.37593 48.0187 3.50516 47.9897C3.53165 47.9837 3.56723 47.8576 3.5505 47.8433C3.28662 47.6178 3.43612 47.1396 2.9866 46.9999C2.75448 46.9278 2.74513 46.5974 2.88664 46.3598C2.91472 46.3127 2.964 46.2568 2.95582 46.214C2.94074 46.1353 2.89032 46.0633 2.85463 45.9885C2.81125 46.0358 2.75697 46.0771 2.72707 46.1319C2.68358 46.2115 2.66314 46.3038 2.61885 46.3828C2.61148 46.3959 2.53293 46.369 2.48726 46.3607C2.58358 46.1757 2.19221 46.0057 2.47742 45.7927C2.53111 45.7525 2.48884 45.5268 2.43641 45.4115C2.2695 45.0446 2.08984 44.682 1.88818 44.3333C1.80092 44.1824 1.78177 44.0128 1.50678 43.9366C1.15185 43.8384 1.09998 43.3606 1.08361 43.0309C1.0601 42.5575 1.00821 42.0792 1.15846 41.5892C1.25821 41.2638 1.32077 40.8093 0.781177 40.6245C0.637209 40.5752 0.498121 40.3 0.485575 40.1195C0.455133 39.6816 0.36363 39.2704 0.189442 38.8714C0.170337 38.8276 0.204985 38.7613 0.211852 38.705C0.255324 38.3489 0.695505 38.1481 0.596093 37.7318C0.594377 37.7246 0.704855 37.7068 0.740031 37.6712C0.81635 37.594 0.912533 37.5104 0.935746 37.4138C0.959933 37.3132 0.907856 37.1941 0.889132 37.0831C0.828787 37.1748 0.768852 37.2667 0.707964 37.358C0.663836 37.4241 0.618448 37.4894 0.573625 37.5551C0.539375 37.4789 0.480102 37.4034 0.477511 37.3261C0.474586 37.2388 0.514374 37.1463 0.550021 37.0623C0.678507 36.7592 0.847414 36.4679 0.930983 36.1535C0.973424 35.9938 0.876213 35.7909 0.817197 35.616C0.806989 35.5857 0.665874 35.5772 0.596972 35.5978C0.556316 35.61 0.538756 35.6994 0.510805 35.754C0.497492 35.7002 0.472675 35.6463 0.472649 35.5925C0.472396 35.0446 0.457964 35.0059 0.079203 34.4869C0.037482 34.4297 -0.0102659 34.3455 0.00193989 34.2855C0.0757244 33.9225 0.136282 33.5522 0.261283 33.206C0.347432 32.9675 0.54445 32.7712 0.662913 32.5411C0.705926 32.4575 0.699393 32.3123 0.654711 32.2273C0.568123 32.0624 0.465352 31.8843 0.321066 31.7762C0.0191083 31.5499 0.0358676 31.1979 0.135001 30.9746C0.424623 30.3223 0.38545 29.5883 0.699892 28.9518C0.572047 28.3406 0.966033 28.0451 1.40404 27.7679C1.62175 27.6302 1.69875 27.4168 1.65698 27.1322C1.7661 27.0542 1.90791 27.0315 1.82177 26.8502C1.73987 26.6778 1.72459 26.5541 1.84979 26.3419C2.08759 25.9387 2.20891 25.465 2.36267 25.0152C2.38935 24.9372 2.33762 24.8322 2.3221 24.7397C2.25854 24.8038 2.1668 24.8573 2.13794 24.9344C2.09306 25.0543 2.09093 25.1903 2.07068 25.3194C2.02286 25.1307 1.9363 24.9421 1.93566 24.7533C1.93449 24.409 2.10703 24.0082 1.98165 23.7345C1.82606 23.3949 1.96798 23.2672 2.15384 23.1077C2.39074 22.9043 2.53221 22.6875 2.50029 22.3519C2.48871 22.2302 2.59391 22.0441 2.70185 21.9745C2.97729 21.7968 3.27732 21.6515 3.58057 21.5245C3.899 21.3912 4.06108 21.1839 4.16234 20.8415C4.31057 20.3401 4.35944 19.8214 4.53331 19.2928C4.6618 19.1713 4.76102 19.0799 4.85794 18.9862C4.86138 18.9828 4.84212 18.956 4.83343 18.9401C4.73706 19.0144 4.63829 19.0859 4.54594 19.1649C4.52164 19.1857 4.51721 19.2298 4.50365 19.2631C4.37949 18.988 4.37551 18.9841 4.53633 18.8166C4.73941 18.6051 4.95821 18.4081 5.15306 18.1896C5.23581 18.0967 5.25715 17.9495 5.33876 17.855C5.42687 17.753 5.54275 17.6338 5.66407 17.6094C6.06489 17.5285 6.29774 17.3561 6.45163 16.9289C6.62118 16.4583 6.82507 16.0142 6.89837 15.5063C6.92608 15.3142 7.18067 15.0981 7.38314 15.0057C7.55575 14.9269 7.63574 14.8593 7.72437 14.689C7.97784 14.2022 8.36451 13.7918 8.53948 13.2545C8.69146 12.7879 9.16913 12.7314 9.49991 12.7587C10.1298 12.8105 10.3326 12.3851 10.6161 12.0104C10.6476 11.9688 10.6852 11.8848 10.6667 11.8593C10.372 11.4537 10.8392 11.3853 10.9775 11.1936C11.1584 10.9429 11.4137 10.7469 11.6301 10.5208C11.7943 10.349 11.9419 10.1768 12.2256 10.23C12.3975 10.2622 12.5802 10.2361 12.7581 10.2359C13.2941 10.2352 13.3233 10.2387 13.3892 9.70376C13.4329 9.34909 13.5891 9.24614 13.9186 9.14527C14.2957 9.02984 14.7157 8.86508 14.9315 8.48985C15.0685 8.25179 15.2046 8.13563 15.4849 8.07835C15.7217 8.02996 15.9665 7.84873 16.1309 7.65936C16.3562 7.39978 16.6094 7.35444 16.9136 7.38444C17.1023 7.40304 17.2573 7.3572 17.3138 7.14716C17.3701 6.93791 17.5256 6.89692 17.7149 6.90923C17.7936 6.91435 17.8729 6.91024 17.952 6.91006C18.3733 6.9091 18.4039 6.93067 18.6755 6.54482C19.2085 5.78767 20.0606 5.51501 20.8231 5.15294C21.66 4.75557 22.5776 4.5371 23.4148 4.10514C23.65 3.98382 23.9738 3.95204 24.2459 3.82648C24.5725 3.67578 24.8201 3.48043 25.0464 3.17678C25.3829 2.72551 26.0756 2.74149 26.441 2.27769C26.7939 2.33228 27.1471 2.38532 27.4994 2.444C27.5319 2.44941 27.5637 2.51624 27.5871 2.51151C28.1483 2.39835 28.7082 2.44239 29.2685 2.51493C29.2879 2.51745 29.3208 2.52279 29.3259 2.51417C29.5295 2.16483 29.9733 2.23204 30.2357 1.987C30.606 1.64113 31.0776 1.54365 31.5406 1.59281C31.7042 1.61017 31.8434 1.58296 31.9773 1.5564C32.4661 1.45943 32.9451 1.31269 33.434 1.21657C33.6091 1.18216 33.7875 1.10435 33.9916 1.1973C34.1213 1.25635 34.381 1.26954 34.444 1.19141C34.6578 0.926084 34.9462 1.03849 35.1877 0.956565C35.5596 0.830413 35.8454 1.05128 36.1713 1.09375C36.5104 1.13795 36.8542 0.989943 37.2011 1.18933C37.3319 1.26453 37.6134 1.16382 37.7816 1.06619C38.026 0.924315 38.239 0.722465 38.4489 0.528227C38.7239 0.273715 39.0169 0.174213 39.3805 0.319765C39.6693 0.435445 40.0049 0.362317 40.28 0.598962C40.3889 0.692603 40.6524 0.648471 40.7923 0.447788C41.0405 0.0916785 41.3711 0.055883 41.7617 0.206405C42.0346 0.311577 42.3153 0.300807 42.582 0.142024C42.7788 0.024789 42.9823 -0.0920872 43.2087 0.109147C43.2552 0.15047 43.377 0.165752 43.4277 0.134289C43.9178 -0.169822 44.2943 0.127039 44.6524 0.384335C44.9767 0.6173 45.3106 0.587156 45.6219 0.459956C45.9358 0.331669 46.2001 0.35547 46.4897 0.490579C46.579 0.532272 46.6864 0.530706 46.806 0.520977C47.3766 0.474554 47.9836 0.365282 48.3816 1.00326C48.5492 1.27207 48.9227 1.25891 49.2331 1.15335C49.3557 1.11168 49.5355 1.19276 49.6737 1.25352C49.9249 1.36396 50.1605 1.50957 50.4107 1.6227C50.5097 1.66751 50.6612 1.71857 50.7361 1.67527C51.3127 1.34146 51.7212 1.77244 52.0871 2.04329C52.3796 2.25979 52.6718 2.35488 52.9394 2.25767C53.3177 2.1203 53.5449 2.30134 53.7602 2.50189C54.0963 2.81505 54.4774 2.96806 54.9253 2.99117C55.2266 3.00671 55.3082 3.2882 55.3722 3.47834C55.5129 3.89582 55.7748 3.98986 56.1624 3.94411C56.3378 3.9234 56.5197 3.92424 56.695 3.94571C56.8385 3.9633 57.0786 3.99616 57.1011 4.07332C57.3035 4.76807 57.9703 4.55566 58.415 4.75321C58.5667 4.82063 58.7201 4.86346 58.8589 4.97302C59.0472 5.12163 59.2623 5.23603 59.465 5.36652C59.497 5.38707 59.5353 5.44243 59.5519 5.43565C60.1093 5.2084 60.1937 5.72798 60.4716 5.98145C60.8575 6.33346 61.312 6.6106 61.7413 6.9139C61.8113 6.96334 61.9437 7.03445 61.9777 7.00751C62.3076 6.74621 62.4914 7.05108 62.7163 7.18389C62.8445 7.25962 62.9534 7.39447 63.0891 7.42689C63.7868 7.59365 64.1116 8.1153 64.3653 8.7143C64.4223 8.84897 64.4742 8.98592 64.5338 9.11941C64.6594 9.40082 64.8243 9.58005 65.1876 9.53532C65.4438 9.50378 65.7927 9.493 65.9603 9.63666C66.2495 9.88464 66.4627 10.2425 66.6451 10.5876C66.7795 10.8421 66.8134 11.1498 66.894 11.4332C66.9039 11.4679 66.9252 11.5275 66.942 11.5278C67.4906 11.5383 67.672 12.2097 68.1751 12.2433C68.7341 12.2807 68.915 12.6906 69.0109 13.0831C69.2007 13.8593 69.701 14.3483 70.3049 14.7881C70.4748 14.9119 70.6395 15.0653 70.5724 15.3289C70.5071 15.585 70.6888 15.8764 70.4614 16.1178C70.4397 16.1408 70.4862 16.2783 70.5349 16.3096C70.9081 16.5493 71.2742 16.8096 71.6747 16.9932C71.9036 17.0983 72.07 17.1891 72.1151 17.4483C72.1369 17.5735 72.2089 17.6905 72.2274 17.8157C72.2881 18.2253 72.3615 18.608 72.7902 18.8264C73.0033 18.935 73.088 19.1511 73.068 19.4206C73.0309 19.9209 73.2029 20.3723 73.4603 20.7991C73.5531 20.9529 73.6255 21.1356 73.6474 21.3125C73.7063 21.7885 73.7186 22.2703 73.7788 22.7461C73.8084 22.9809 73.8504 23.2452 73.9814 23.4281C74.14 23.6496 74.181 23.8197 74.0428 24.0492C74.0155 24.0946 74.0565 24.1812 74.066 24.2487C74.1264 24.2199 74.1898 24.1959 74.246 24.1605C74.2864 24.135 74.3172 24.0942 74.3523 24.0603C74.3844 24.1163 74.4578 24.1909 74.4423 24.2254C74.2459 24.6613 74.3753 24.9725 74.7778 25.2013C75.079 25.3726 74.893 25.7408 75.0716 25.9712C75.1216 26.0357 75.0661 26.1943 75.1194 26.2423C75.7002 26.7637 75.4323 27.3867 75.2923 27.9614C75.2455 28.1538 75.1921 28.2478 75.3477 28.392C75.4543 28.4909 75.5642 28.6243 75.5951 28.7599C75.6805 29.1357 75.7462 29.5082 76.1039 29.7411C76.1364 29.7623 76.1523 29.8513 76.1377 29.8965C75.9063 30.6174 75.9892 31.3193 76.2429 32.0162C76.2746 32.1033 76.2789 32.2125 76.2599 32.304C76.1561 32.8043 76.4044 33.1953 76.635 33.5965C76.6886 33.6898 76.7387 33.8073 76.7309 33.9091C76.7139 34.1319 76.694 34.3659 76.6126 34.5703C76.3838 35.1444 76.6348 35.6879 76.7802 36.1929C76.9435 36.7606 76.7788 37.1639 76.4499 37.5277C76.134 37.8771 75.8538 38.1614 76.1193 38.6857C76.2004 38.8457 76.0048 39.1257 76.0371 39.335C76.1387 39.9933 75.9296 40.5992 75.7857 41.2173C75.7572 41.3399 75.6867 41.4528 75.6348 41.5698C75.568 41.7202 75.4771 41.8652 75.4426 42.0226C75.4243 42.1061 75.5033 42.211 75.5383 42.3063C75.5874 42.2419 75.6327 42.1742 75.6865 42.114C75.7375 42.0569 75.7972 42.0076 75.8531 41.9548C75.8713 42.0264 75.8924 42.0974 75.9071 42.1698C75.9563 42.412 75.7708 42.5389 75.6219 42.6397C75.291 42.8637 75.1901 43.2125 75.0946 43.5526C75.0554 43.692 75.2398 43.9172 75.1803 44.0236C75.0144 44.3203 75.2044 44.5015 75.316 44.7153C75.3631 44.8055 75.3515 44.8718 75.3397 44.9778C75.2601 45.6958 74.757 46.1438 74.3493 46.65C74.1519 46.8951 73.9083 47.1032 73.6825 47.3249C73.4775 47.5261 73.4087 47.6986 73.7568 47.8182C73.8071 47.8356 73.8418 47.8988 73.8837 47.9408C73.8189 47.9631 73.7482 47.9753 73.6903 48.0094C73.4171 48.1702 73.0438 48.1597 72.9048 48.5575C72.8517 48.7096 72.8183 48.775 72.9306 48.8968C73.0003 48.9724 73.0192 49.0949 73.061 49.1964L72.8237 50.1871C72.7842 50.2895 72.6894 50.4087 72.7146 50.4913C72.8269 50.8591 72.4411 51.0705 72.4533 51.4018C72.4548 51.4422 72.382 51.5107 72.3325 51.5237C71.6709 51.6974 71.7118 52.2689 71.6461 52.7634C71.6197 52.9613 71.4262 53.1595 71.6228 53.3892C71.6535 53.4251 71.4972 53.6389 71.406 53.7534C71.3707 53.7979 71.2763 53.7953 71.2088 53.8142C71.2063 53.7467 71.1741 53.6505 71.2066 53.6166C71.3312 53.4865 71.4527 53.3663 71.3899 53.164C71.2641 53.2574 71.047 53.3361 71.0292 53.4469C70.9695 53.8176 71.0544 54.2204 70.7146 54.5071C70.935 54.5622 71.0234 54.6518 70.8101 54.837C70.7084 54.9254 70.6025 55.0158 70.5259 55.1247C70.343 55.3849 69.9454 55.4871 69.9638 55.9061C69.9663 55.9616 69.7949 56.0364 69.6947 56.0817C69.5785 56.1342 69.4412 56.1451 69.3326 56.2079C69.1709 56.3015 69.0292 56.429 68.8738 56.5346C68.6168 56.7094 68.9167 56.834 68.9276 56.9848C68.9417 57.1795 68.9479 57.3344 68.852 57.5176C68.5167 58.1585 67.8643 58.4581 67.3775 58.9342C67.3674 58.944 67.3287 58.927 67.321 58.9367C67.2161 59.0682 67.1143 59.2022 67.0118 59.3356C67.1436 59.2814 67.2771 59.2309 67.4064 59.1714C67.4732 59.1407 67.5295 59.0867 67.5967 59.0578C67.6218 59.047 67.6645 59.0776 67.6992 59.0893C67.6874 59.1173 67.6828 59.1527 67.6628 59.1722C67.1722 59.6486 66.695 60.1403 66.1827 60.5921C65.861 60.8758 65.4886 61.1026 65.134 61.3478C64.9473 61.477 64.7487 61.5701 64.5057 61.5524C64.2635 61.5347 64.013 61.5365 63.9279 61.8752ZM12.6878 52.937C12.7815 53.036 12.8872 53.2288 12.9669 53.2186C13.4488 53.1568 13.7403 53.4001 13.9884 53.7599C14.0547 53.856 14.143 53.9868 14.2391 54.0045C14.919 54.1294 14.8339 54.6383 14.8235 55.1163C14.8196 55.2944 14.8102 55.4737 14.8259 55.6505C14.8468 55.8847 14.9883 56.0448 15.2165 56.0781C15.386 56.1028 15.5888 56.1186 15.7338 56.0489C16.1556 55.8461 16.4561 56.0119 16.7534 56.2904C16.8899 56.4183 17.0407 56.5835 17.2075 56.6159C17.6171 56.6957 17.7432 56.9422 17.7948 57.316C17.8563 57.7625 18.1038 57.9744 18.5502 57.9786C18.7996 57.981 19.0084 58.0142 19.161 58.2301C19.3571 58.5078 19.6132 58.6325 19.9657 58.5849C20.2402 58.5478 20.4314 58.6724 20.5882 58.9308C20.774 59.237 20.9892 59.5113 20.9993 59.8941C21.0018 59.9896 21.093 60.1935 21.2422 60.0374C21.5531 59.7121 21.8395 59.8609 22.1648 59.9989C22.7453 60.2452 23.0387 60.8452 23.5891 61.1191C23.8178 61.233 24.0491 61.3607 24.294 61.4145C24.4056 61.4391 24.5507 61.2939 24.6854 61.2372C24.7527 61.2089 24.8305 61.2045 24.9041 61.1925C25.392 61.1127 25.8804 61.036 26.3678 60.9536C26.5652 60.9202 26.689 61.0201 26.824 61.1472C27.104 61.4106 27.3851 61.8307 27.699 61.8631C28.1636 61.911 28.6586 62.1404 29.1365 61.9012C29.2013 61.8688 29.2417 61.7873 29.2934 61.7285C29.1381 61.636 29.1937 61.5233 29.3103 61.4888C29.373 61.4702 29.5273 61.5664 29.5488 61.6383C29.6346 61.9245 29.7921 62.1497 30.0181 62.3365C30.0551 62.3671 30.0746 62.4189 30.1022 62.4609C30.0347 62.4582 29.9671 62.4571 29.8998 62.452C29.8576 62.4489 29.8158 62.4398 29.7739 62.4333C29.7719 62.4721 29.7529 62.5314 29.7707 62.5461C29.8555 62.6161 29.9432 62.6906 30.0427 62.7333C30.3605 62.8697 30.6912 63.1033 30.991 63.4267C31.2697 63.7273 31.5178 63.7504 31.9564 63.5814C32.247 63.4695 32.5548 63.3884 32.8621 63.3383C33.0758 63.3036 33.2702 63.3395 33.3381 63.0413C33.3808 62.8542 33.5975 62.8247 33.7806 62.8567C34.4009 62.965 35.0148 62.6305 35.6438 62.8425C35.7753 62.8868 35.9616 62.7743 36.1207 62.7276C36.2258 62.6968 36.3651 62.592 36.4247 62.6278C36.7947 62.8501 37.1924 62.6709 37.567 62.7405C37.7823 62.7806 38.0039 62.8351 38.1974 62.9331C38.4447 63.0584 38.7316 63.1865 38.8859 63.3979C39.2092 63.841 39.3612 63.2124 39.6188 63.3245C39.7019 63.3607 39.814 63.3306 39.9128 63.3301C40.1051 63.3292 40.2954 63.357 40.4467 63.1688C40.4826 63.1241 40.6896 63.157 40.7684 63.2181C41.0637 63.4469 41.3958 63.4352 41.7421 63.4589C42.3458 63.5003 42.9599 63.4321 43.4601 63.1662C43.8087 62.9809 44.039 62.9617 44.3276 63.1295C44.5668 63.2685 44.7193 63.1777 44.9459 63.0622C45.4064 62.8275 45.7403 62.4675 46.0994 62.1241C46.15 62.0757 46.2278 62.0294 46.294 62.028C46.7308 62.0189 47.1595 62.0285 47.5454 62.2987C47.8759 62.5301 48.2998 62.5313 48.4173 62.2661C48.5378 61.9942 48.8263 61.8813 48.9151 61.6524C49.0593 61.2808 49.319 61.3062 49.6081 61.3101C49.9045 61.3141 50.202 61.297 50.4973 61.3161C50.6804 61.328 50.909 61.3339 51.0319 61.4408C51.3455 61.7135 51.5487 61.5938 51.7517 61.3287C51.8201 61.2394 51.8947 61.1519 51.9457 61.0528C52.0632 60.825 52.2799 60.7747 52.4969 60.7166C52.8169 60.6309 53.1356 60.5396 53.4561 60.4555C53.5996 60.4179 53.7711 60.3268 53.8874 60.3713C54.6511 60.6635 54.9458 60.2844 55.2625 59.7504C55.4502 59.4338 55.7017 59.2977 56.0484 59.2923C56.246 59.2892 56.4444 59.3017 56.6411 59.2877C56.7489 59.2801 56.885 59.2641 56.9548 59.1965C57.2817 58.8798 57.6312 58.5823 57.7714 58.112C57.8138 57.9697 57.9715 57.806 58.1113 57.7609C58.3767 57.6754 58.6742 57.611 58.9457 57.6437C59.2676 57.6825 59.3762 57.4856 59.4084 57.2837C59.4731 56.8777 59.6803 56.655 60.0652 56.5576C60.3319 56.49 60.5888 56.3693 60.8583 56.3318C61.1004 56.2981 61.1932 56.2051 61.2061 55.9677C61.2138 55.8247 61.2483 55.5901 61.3305 55.56C61.7452 55.4082 62.0226 54.986 62.5298 55.0045C62.8736 55.017 62.9606 54.8745 62.9806 54.5303C62.9871 54.4177 62.981 54.2884 63.0336 54.1974C63.2495 53.8246 63.4628 53.4594 63.4636 53.0048C63.4637 52.9227 63.5808 52.8085 63.6708 52.7649C63.9498 52.6297 64.2452 52.5288 64.5273 52.3995C64.6775 52.3307 64.849 52.2606 64.9497 52.1399C65.3671 51.6396 65.7335 51.1028 65.9435 50.4763C66.0566 50.1389 66.1908 49.8391 66.0903 49.4297C65.9801 48.9811 65.984 48.4926 66.4635 48.1046C66.8073 47.8264 67.1459 47.425 67.1206 46.9104C67.1063 46.6201 67.2587 46.4383 67.4506 46.3399C67.7633 46.1795 67.8797 45.9079 68.0289 45.6306C68.2477 45.2241 68.4999 44.8357 68.7366 44.4389C68.8501 44.2487 68.9769 44.0639 69.0656 43.8626C69.1116 43.7583 69.1399 43.5531 69.0868 43.5135C68.7661 43.2741 68.8916 42.9643 68.9092 42.6679C68.9443 42.0763 69.0976 41.5252 69.4968 41.0724C69.6141 40.9394 69.6541 40.8288 69.5861 40.6617C69.5379 40.543 69.4901 40.4019 69.5093 40.2816C69.5971 39.7329 69.7377 39.1992 70.05 38.7255C70.1197 38.6197 70.1456 38.4845 70.2171 38.3804C70.4254 38.0768 70.2572 37.7274 70.3431 37.421C70.4522 37.0314 70.2816 36.8124 70.0051 36.6009C69.899 36.5198 69.7469 36.3884 69.7535 36.2889C69.7849 35.8103 69.6524 35.3306 69.8401 34.8455C69.9341 34.6023 69.9349 34.2636 69.6327 34.0503C69.5571 33.997 69.4881 33.8382 69.512 33.7558C69.6381 33.3209 69.3888 32.9575 69.321 32.5612C69.2954 32.4117 69.2121 32.2048 69.2781 32.1187C69.522 31.8008 69.2626 31.5515 69.2198 31.2756C69.2058 31.1852 69.1221 31.0581 69.1555 31.0164C69.2894 30.8497 69.1843 30.7772 69.086 30.6561C68.7151 30.1993 68.3328 29.7385 68.6669 29.0841C68.7069 29.0057 68.6958 28.8814 68.6671 28.7917C68.6178 28.6373 68.4911 28.4739 68.8125 28.5198C68.8365 28.5233 68.9198 28.3873 68.9029 28.3577C68.7369 28.0673 68.8548 27.872 69.0848 27.6902C69.1313 27.6535 69.1591 27.5438 69.1417 27.4832C69.0221 27.0664 69.0335 26.5801 68.5026 26.3855C68.3162 26.3171 68.1536 26.1574 68.0095 26.0106C67.9363 25.9361 67.8666 25.7701 67.901 25.6927C68.0646 25.3252 67.8381 25.0386 67.7122 24.7515C67.5654 24.4167 67.5622 24.1201 67.8148 23.8776C68.0268 23.674 67.9414 23.5692 67.7811 23.4125C67.565 23.2013 67.2276 23.023 67.4814 22.6225C67.499 22.5946 67.4565 22.5165 67.4261 22.4729C67.378 22.4038 67.3164 22.3441 67.2605 22.2805C67.2297 22.3761 67.1467 22.4974 67.1786 22.562C67.2511 22.7096 67.3289 22.8865 67.1473 22.9301C66.9183 22.9852 67.0511 22.7406 67.0038 22.6373C66.9582 22.5379 66.8946 22.4293 66.899 22.3272C66.9223 21.785 66.9189 21.7738 66.5439 21.4597C66.4796 21.4059 66.4607 21.2987 66.4182 21.2176C66.3874 21.1588 66.3655 21.0814 66.3158 21.0499C66.2469 21.0062 66.1557 20.9977 66.0741 20.9742C66.1663 20.9582 66.2602 20.9484 66.3501 20.9239C66.4152 20.9062 66.4751 20.8691 66.5373 20.8406C66.5033 20.7756 66.4817 20.6987 66.4331 20.6474C66.0459 20.2384 65.3796 20.0364 65.4412 19.2956C65.4423 19.2829 65.4102 19.2702 65.4019 19.2534C65.1702 18.7844 64.7401 18.4456 64.5523 17.9426C64.5151 17.8429 64.3463 17.7924 64.2384 17.719C64.0995 17.6244 63.964 17.5246 63.8215 17.436C63.5233 17.2506 63.2397 16.9889 62.9151 16.9166C62.681 16.8644 62.6072 16.7304 62.5238 16.5976C62.3191 16.2717 62.2211 15.8483 61.9544 15.5993C61.5973 15.2661 61.1018 15.0782 61.0196 14.5113C61.0173 14.4956 60.9951 14.48 60.9788 14.4696C60.3859 14.0874 59.8211 13.6459 59.1895 13.3447C58.749 13.1346 58.5099 12.8492 58.347 12.4253C58.2686 12.2213 58.1434 12.0274 58.0054 11.8564C57.8448 11.6574 57.6298 11.5024 57.4694 11.3032C57.2477 11.0279 57.0436 10.7758 56.6517 11.0399C56.6114 11.067 56.4957 11.0424 56.4567 11.0017C56.1422 10.6733 55.7279 10.772 55.4243 10.8928C55.1608 10.9977 54.9666 10.8129 54.9447 10.7705C54.7582 10.408 54.3438 10.2012 54.2982 9.72718C54.2791 9.52828 54.0159 9.35294 53.8636 9.16689C53.4733 9.3599 53.3354 8.98644 53.088 8.83819C52.8727 8.70915 52.6161 8.63068 52.3675 8.58152C52.1582 8.54012 51.9333 8.56013 51.7171 8.57627C51.4503 8.59618 51.214 8.57041 51.0442 8.32817C51.0181 8.29086 50.9224 8.26214 50.8828 8.28067C50.4315 8.49184 50.4377 8.48806 50.1519 8.26521C50.0534 8.1884 49.9153 8.09431 49.8087 8.10857C49.4621 8.15497 49.1288 7.92953 48.7734 8.08549C48.6917 8.12133 48.5117 8.03136 48.4293 7.94762C48.209 7.72387 48.0334 7.6988 47.722 7.84297C47.1863 8.09098 47.1206 8.0509 46.6054 7.66705C46.4021 7.51559 46.2144 7.34982 45.9497 7.38879C45.4469 7.46281 44.9504 7.207 44.4446 7.38031C44.2642 7.44211 44.1365 7.27867 43.984 7.21152C43.6208 7.05156 43.2408 6.79149 42.8148 7.08136C42.797 7.09352 42.6999 7.03577 42.7024 7.02365C42.7209 6.93461 42.7535 6.84821 42.7855 6.76238C42.8117 6.69184 42.8431 6.62322 42.8722 6.55375C42.7741 6.58586 42.6079 6.5972 42.5906 6.654C42.5387 6.82456 42.4762 6.82267 42.3483 6.74211C42.1769 6.63407 41.9463 6.57599 41.8349 6.42639C41.6354 6.15853 41.4105 6.31486 41.2003 6.32546C41.1035 6.33034 40.9959 6.41946 40.9207 6.49707C40.7312 6.69256 40.5303 6.76493 40.2568 6.68104C40.1404 6.64533 39.9941 6.69765 39.8653 6.72697C39.8526 6.72985 40.0445 6.99599 39.8348 6.88881C39.4604 6.69742 39.1954 6.93924 38.8866 6.99019C38.6514 7.029 38.3608 7.00869 38.2413 7.28082C38.1148 7.56887 37.8863 7.59582 37.6187 7.62885C36.9137 7.71589 36.2925 7.38696 35.6359 7.24658C35.2725 7.16888 34.9834 7.08191 34.6114 7.30092C34.414 7.4171 34.1109 7.63463 33.7781 7.43562C33.5312 7.28796 33.3752 7.64452 33.1338 7.63723C33.1459 7.67922 33.1454 7.74578 33.1719 7.75927C33.3616 7.85578 33.493 7.74364 33.6287 7.62769C33.6525 7.60739 33.7511 7.63583 33.7786 7.67069C33.8034 7.70211 33.7973 7.80659 33.7717 7.82139C33.5976 7.92205 33.42 8.02125 33.2332 8.09418C33.0286 8.17403 32.7595 8.16636 32.6125 8.3003C32.2527 8.62818 31.9586 8.55096 31.5626 8.35547C31.2692 8.21068 30.8794 8.14673 30.5599 8.42689C30.4804 8.49664 30.3694 8.54961 30.2653 8.56885C29.7858 8.65744 29.2901 8.84091 28.8258 8.78348C28.2128 8.70767 27.8677 9.19276 27.3585 9.28567C27.2546 9.61234 26.9779 9.54842 26.7563 9.51658C26.013 9.4098 25.343 9.87601 24.6015 9.77356C24.5055 9.76029 24.3764 9.81792 24.2973 9.88425C24.0944 10.0545 23.9519 10.3595 23.607 10.1223C23.5858 10.1077 23.4931 10.1554 23.4675 10.1957C23.2565 10.5274 22.6859 10.648 22.8758 11.2264C22.9026 11.3082 22.7869 11.4919 22.6902 11.5495C22.3607 11.7458 22.0468 11.9743 21.6408 12.0244C21.2546 12.072 20.8175 12.0834 20.507 12.2777C20.0836 12.5427 19.7563 12.9633 19.3955 13.3248C19.3499 13.3705 19.3235 13.4672 19.3344 13.5325C19.4113 13.9934 19.0648 14.1355 18.7566 14.2676C18.3014 14.4629 17.8244 14.5454 17.3154 14.5289C17.0169 14.5193 16.6754 14.6184 16.4204 14.7769C16.0676 14.9962 15.7755 15.3146 15.4632 15.5971C15.3952 15.6586 15.3315 15.7409 15.3041 15.826C15.2843 15.8876 15.3277 15.9696 15.3429 16.0424C15.3849 16.0095 15.4295 15.9795 15.4678 15.9428C15.4945 15.9173 15.5081 15.8778 15.5353 15.8532C15.6348 15.7631 15.7375 15.6767 15.8389 15.5889C15.8033 15.7381 15.7686 15.8875 15.7308 16.0361C15.7265 16.0526 15.7063 16.0681 15.6898 16.0778C15.3236 16.2948 15.1738 16.6733 14.984 17.0223C14.9274 17.1265 14.8943 17.2051 14.7376 17.2633C14.3535 17.4059 13.9737 17.337 13.5934 17.3614C13.3417 17.3775 12.8543 17.6514 12.809 17.8283C12.7582 18.0267 12.7274 18.2303 12.6285 18.4317C12.5265 18.4713 12.4237 18.5091 12.3226 18.5509C12.2215 18.5928 12.0676 18.6121 12.0309 18.6873C11.8288 19.1016 11.4944 19.4943 11.6292 19.9964C11.7108 20.3004 11.619 20.5017 11.4257 20.7106C11.2452 20.9057 10.9785 21.1062 10.9446 21.3334C10.8844 21.7375 10.6272 21.7883 10.3389 21.8787C9.84712 22.0329 9.78764 22.1577 9.85939 22.6707C9.90661 23.0084 9.90111 23.4022 9.66392 23.6232C9.39823 23.8707 9.31505 24.1409 9.24217 24.458C9.1978 24.6511 9.14445 24.9236 9.00786 24.9965C8.74418 25.1373 8.69481 25.3877 8.57304 25.5936C8.39741 25.8907 8.38804 26.2662 8.07123 26.5088C7.92035 26.6243 7.86565 26.8706 7.98411 27.0828C8.16267 27.4027 8.08285 27.7252 7.92367 27.9999C7.63502 28.4981 7.58943 29.047 7.60696 29.5809C7.62157 30.0259 7.57693 30.3995 7.24803 30.7049C7.1108 30.8323 7.14066 30.9042 7.20996 31.084C7.47501 31.7716 7.44689 31.8173 7.11272 32.4896C7.06375 32.5882 7.00753 32.6831 6.95891 32.7818C6.93979 32.8206 6.91273 32.8704 6.92247 32.9062C7.04319 33.3497 7.17718 33.7896 7.29114 34.2347C7.3269 34.3744 7.32546 34.5275 7.31733 34.6732C7.31243 34.761 7.21033 34.8755 7.24003 34.9278C7.43979 35.2796 7.33936 35.6128 7.23973 35.9631C7.19293 36.1276 7.16502 36.358 7.24461 36.4865C7.45653 36.8284 7.30157 37.0587 7.08481 37.2829C6.65767 37.7248 6.66235 38.288 6.64597 38.839C6.64004 39.0387 6.68252 39.2568 6.76472 39.4385C6.92753 39.7983 7.026 40.1376 6.82826 40.5203C6.70461 40.7597 6.94874 40.5861 6.99449 40.7028C7.19218 41.1336 7.3819 41.5685 7.59413 41.992C7.63767 42.0789 7.76139 42.1305 7.85567 42.1853C7.9336 42.2307 8.06737 42.2336 8.09958 42.2955C8.32823 42.7346 8.62354 43.155 8.51165 43.7004C8.42186 44.1381 8.58109 44.3581 8.99706 44.573C9.18798 44.6716 9.43914 44.8609 9.46252 45.0359C9.51921 45.4605 9.62093 45.9055 9.43992 46.3359C9.41015 46.4067 9.41854 46.4976 9.42359 46.5783C9.44071 46.8526 9.50509 47.1311 9.47495 47.3994C9.43757 47.7321 9.6223 47.8841 9.86958 47.8753C10.3076 47.8598 10.4402 48.1831 10.5373 48.4602C10.6772 48.8597 10.8134 49.3084 10.7663 49.7146C10.6934 50.344 11.1134 50.5507 11.5102 50.7151C11.7554 50.8167 11.8656 50.9885 11.8401 51.1339C11.7676 51.5484 12.0061 51.8733 12.1235 52.2121C12.2065 52.4516 12.2906 52.8401 12.6878 52.937ZM6.87588 55.4314C6.9419 55.4445 7.00791 55.4576 7.07394 55.4706C7.04745 55.2997 7.02743 55.1273 6.98851 54.9592C6.98154 54.9292 6.89266 54.8958 6.84858 54.9036C6.81273 54.9099 6.75578 54.9831 6.76301 55.0135C6.78747 55.1164 6.83634 55.2134 6.87588 55.4314ZM68.2572 25.5584C68.2418 25.7014 68.2081 25.846 68.221 25.9863C68.2254 26.0346 68.3459 26.0722 68.4134 26.1147C68.4395 26.0471 68.4944 25.9753 68.4854 25.9128C68.4679 25.7919 68.4144 25.6762 68.2572 25.5584ZM1.00462 40.1683C0.942385 40.0891 0.854523 39.9324 0.822015 39.9431C0.590048 40.02 0.734443 40.1234 0.818949 40.2248C0.838676 40.2485 0.811912 40.3079 0.829355 40.3372C0.869147 40.4041 0.923074 40.4627 0.971256 40.5246C1.00215 40.4256 1.03304 40.3266 1.00462 40.1683ZM36.9438 7.14764C36.9557 7.08031 36.9675 7.01298 36.9793 6.94564C36.8588 6.96349 36.7315 6.96404 36.6208 7.00719C36.5726 7.02597 36.5583 7.13222 36.5287 7.19874C36.6473 7.2015 36.7659 7.20427 36.9438 7.14764ZM11.561 51.4523C11.5808 51.3822 11.6325 51.3017 11.6139 51.244C11.5705 51.1096 11.4968 50.9842 11.4238 50.862C11.4174 50.8513 11.28 50.9021 11.281 50.9064C11.3089 51.0276 11.3399 51.1494 11.3864 51.2646C11.4066 51.3147 11.4622 51.3506 11.561 51.4523ZM56.574 4.35633C56.6822 4.41572 56.7877 4.48146 56.9009 4.52869C56.9214 4.53724 56.9735 4.46989 57.011 4.43757C56.8643 4.37313 56.8334 4.05502 56.574 4.35633ZM17.7881 14.215C17.9504 14.3369 18.0435 14.3029 18.0212 14.0936C18.0096 13.9858 18.1252 13.7815 17.8777 13.8125C17.8367 13.8177 17.8174 13.9972 17.7881 14.215ZM11.0866 11.78C11.1 11.6747 11.1135 11.5694 11.1269 11.4641C11.0312 11.533 10.9355 11.6019 10.8399 11.6708C10.9023 11.727 10.9648 11.7832 11.0866 11.78ZM60.7254 63.9835C60.6942 64.0033 60.6609 64.0204 60.6324 64.0435C60.5827 64.0838 60.4891 64.1378 60.4957 64.1686C60.5438 64.3946 60.6031 64.1735 60.6611 64.1681C60.7386 64.1609 60.8489 64.1957 60.8893 64.1558C61.0314 64.0153 61.0044 63.9181 60.7254 63.9835ZM66.2408 10.711C66.1496 10.7231 66.0585 10.7352 65.9673 10.7473C66.0183 10.9133 66.1375 10.9745 66.2993 10.9469C66.4816 10.9157 66.44 10.8156 66.2408 10.711ZM62.4452 7.26642C62.3785 7.23915 62.3128 7.20842 62.2446 7.18574C62.1935 7.16879 62.139 7.16223 62.086 7.15104C62.1039 7.20631 62.1081 7.27331 62.1428 7.31426C62.2036 7.38593 62.2833 7.4416 62.355 7.50398C62.4049 7.44459 62.4547 7.3852 62.4452 7.26642ZM69.7991 33.5166C69.6591 33.6934 69.7364 33.8298 69.88 33.9539C69.8935 33.9656 69.9072 33.9771 69.9208 33.9887C69.9334 33.845 69.9471 33.7013 69.9566 33.5574C69.9575 33.5447 69.9314 33.5303 69.7991 33.5166ZM13.5774 53.8279C13.5777 53.749 13.6099 53.6327 13.5711 53.5994C13.5046 53.5424 13.3937 53.5373 13.3015 53.5103C13.327 53.5893 13.3479 53.6702 13.3803 53.7462C13.3942 53.7787 13.4319 53.801 13.5774 53.8279ZM49.5166 1.44624C49.4143 1.48324 49.2207 1.34687 49.2325 1.57987C49.2345 1.6188 49.3987 1.65738 49.4918 1.68055C49.5413 1.69287 49.5991 1.6718 49.6532 1.66581C49.6274 1.61242 49.6017 1.55902 49.5166 1.44624ZM67.9014 58.2227C67.9607 58.1521 68.0326 58.0876 68.0714 58.0071C68.0828 57.9836 67.9733 57.8683 67.9647 57.8733C67.8341 57.9493 67.6179 57.9917 67.9014 58.2227ZM10.197 49.2549C10.246 49.3143 10.295 49.3737 10.344 49.4331C10.3741 49.3547 10.4354 49.2733 10.4281 49.1986C10.41 49.0141 10.3027 49.0545 10.197 49.2549ZM13.9926 9.46384C13.8449 9.31174 13.7629 9.45262 13.685 9.54517C13.6691 9.564 13.7288 9.64653 13.7536 9.6997C13.8333 9.66067 13.9129 9.62165 13.9926 9.46384ZM21.2871 11.6613C21.2732 11.6752 21.2557 11.6871 21.2468 11.7038C21.2415 11.7137 21.2476 11.7422 21.2523 11.7431C21.3256 11.7572 21.4211 11.8018 21.4678 11.7716C21.5271 11.7333 21.5585 11.6367 21.5783 11.5592C21.5869 11.5255 21.5367 11.4767 21.5133 11.4348C21.4577 11.4905 21.4021 11.5462 21.2871 11.6613ZM58.0566 65.7058C58.1194 65.756 58.1767 65.8923 58.2599 65.7351C58.2974 65.6643 58.3016 65.5758 58.3209 65.4953C58.2543 65.5044 58.182 65.5004 58.1229 65.5264C58.0731 65.5483 58.0386 65.6051 58.0566 65.7058ZM26.5653 68.2596C26.5989 68.0318 26.4319 68.0741 26.3128 68.089C26.2727 68.094 26.2436 68.1876 26.2095 68.2406C26.3084 68.2667 26.4072 68.2928 26.5653 68.2596ZM52.4819 61.311C52.5634 61.2051 52.6038 61.0977 52.4194 61.0796C52.3449 61.0723 52.2636 61.1337 52.1854 61.1638C52.2447 61.2128 52.304 61.2619 52.4819 61.311ZM5.80838 52.4619C5.80838 52.4225 5.79279 52.372 5.81139 52.346C5.86083 52.2767 5.97938 52.2271 5.8382 52.1338C5.80605 52.1126 5.78196 52.0791 5.75417 52.0513C5.7327 52.1177 5.69284 52.1846 5.69423 52.2505C5.69615 52.3411 5.7293 52.4311 5.80838 52.4619ZM7.46894 15.4028C7.2283 15.2369 7.1903 15.4557 7.11668 15.5947C7.10695 15.6131 7.14573 15.6572 7.16204 15.6894C7.18955 15.6687 7.21932 15.6505 7.24411 15.627C7.30058 15.5734 7.35461 15.5173 7.46894 15.4028ZM59.8358 5.60351C59.6702 5.84449 59.8886 5.88254 60.0274 5.95626C60.0458 5.966 60.0898 5.92717 60.122 5.91084C60.1014 5.88329 60.0832 5.85348 60.0597 5.82865C60.0062 5.7721 59.9501 5.718 59.8358 5.60351ZM69.2654 14.0962C69.2515 14.0823 69.2396 14.0648 69.223 14.0559C69.2131 14.0506 69.196 14.0587 69.1821 14.0608C69.2139 14.1558 69.2429 14.2519 69.2805 14.3445C69.2857 14.3575 69.3329 14.3534 69.3606 14.3572C69.3487 14.29 69.3367 14.2228 69.2654 14.0962ZM40.7987 63.5084C40.7196 63.5089 40.6404 63.5081 40.5619 63.5149C40.5586 63.5152 40.5586 63.6203 40.5619 63.6206C40.6404 63.6274 40.7196 63.6266 40.7987 63.5084ZM72.4086 50.7396C72.4206 50.6724 72.4326 50.6052 72.4445 50.5381C72.3751 50.5836 72.3058 50.629 72.2364 50.6745C72.274 50.716 72.3116 50.7575 72.4086 50.7396ZM54.7948 9.58262C54.7157 9.58318 54.6366 9.58234 54.558 9.5892C54.5547 9.58949 54.5547 9.69452 54.558 9.69481C54.6366 9.70167 54.7157 9.70083 54.7948 9.58262ZM49.7539 68.3189C49.7533 68.2398 49.7541 68.1605 49.7473 68.0818C49.747 68.0785 49.6421 68.0785 49.6418 68.0818C49.635 68.1605 49.6358 68.2398 49.7539 68.3189ZM29.8272 69.7443C29.8804 69.7306 29.9336 69.7169 29.9868 69.7032C29.9083 69.6377 29.8324 69.5686 29.7487 69.5105C29.7354 69.5013 29.6875 69.5421 29.6555 69.5598C29.693 69.6015 29.7304 69.6432 29.8272 69.7443ZM1.30115 42.4845C1.34278 42.5262 1.37758 42.5839 1.42783 42.6054C1.48737 42.6309 1.56024 42.6251 1.62733 42.6329C1.59159 42.5773 1.56539 42.5103 1.51706 42.4698C1.47903 42.4379 1.41367 42.4388 1.30115 42.4845ZM56.3961 10.5922C56.3825 10.6058 56.3656 10.6176 56.3566 10.6337C56.3511 10.6436 56.3559 10.6716 56.3592 10.6722C56.4498 10.6866 56.5405 10.7017 56.6318 10.7073C56.6435 10.708 56.6583 10.6574 56.6716 10.6306C56.6193 10.6178 56.567 10.605 56.3961 10.5922ZM9.12949 45.0976C9.06501 45.0434 9.00053 44.9892 8.93604 44.935C8.92145 44.9655 8.88801 45.0164 8.89528 45.0231C8.94903 45.0727 9.01088 45.1135 9.12949 45.0976ZM7.82477 42.722C7.83522 42.7721 7.84567 42.8221 7.85612 42.8722C7.88172 42.8652 7.93002 42.8538 7.92964 42.8519C7.91734 42.7883 7.90036 42.7255 7.82477 42.722ZM8.1806 43.5535C8.14107 43.5733 8.10153 43.5931 8.062 43.6129C8.10153 43.6327 8.14107 43.6525 8.1806 43.5535ZM69.9771 39.515C70.0398 39.5313 70.1025 39.5483 70.1661 39.5606C70.168 39.561 70.1794 39.5126 70.1863 39.487C70.1363 39.4765 70.0864 39.4661 69.9771 39.515ZM46.1362 0.792954C46.0734 0.776645 46.0108 0.759649 45.9472 0.747324C45.9453 0.746947 45.9339 0.79531 45.9269 0.820948C45.9769 0.831413 46.0269 0.841878 46.1362 0.792954ZM20.1603 66.1215C20.2231 66.1378 20.2858 66.1548 20.3493 66.1672C20.3513 66.1675 20.3626 66.1192 20.3696 66.0935C20.3196 66.0831 20.2696 66.0726 20.1603 66.1215ZM59.1834 65.2901C59.1207 65.2738 59.058 65.2568 58.9944 65.2444C58.9925 65.2441 58.9811 65.2924 58.9742 65.3181C59.0242 65.3285 59.0741 65.339 59.1834 65.2901ZM26.8619 9.28567C26.9119 9.2752 26.9618 9.26474 27.0118 9.25427C27.0049 9.22864 26.9935 9.18027 26.9916 9.18064C26.928 9.19297 26.8654 9.20997 26.8619 9.28567ZM6.40143 53.0558C6.33865 53.0395 6.27599 53.0225 6.21243 53.0102C6.21049 53.0098 6.19913 53.0582 6.19217 53.0838C6.24216 53.0943 6.29214 53.1047 6.40143 53.0558ZM14.2891 54.5406C14.2733 54.5643 14.2575 54.5881 14.2416 54.6118C14.2772 54.6079 14.3128 54.6039 14.2891 54.5406ZM7.58755 27.5183C7.61127 27.5341 7.63499 27.55 7.65871 27.5658C7.65476 27.5302 7.65081 27.4945 7.58755 27.5183ZM3.19893 22.1732C3.17521 22.1574 3.15149 22.1415 3.12776 22.1257C3.13172 22.1613 3.13567 22.197 3.19893 22.1732ZM70.2143 35.1202C70.1906 35.1043 70.1668 35.0885 70.1431 35.0726C70.1471 35.1083 70.151 35.1439 70.2143 35.1202ZM45.3059 63.152C45.3296 63.1679 45.3534 63.1837 45.3771 63.1996C45.3731 63.1639 45.3692 63.1283 45.3059 63.152ZM18.737 13.6211C18.7607 13.6369 18.7844 13.6528 18.8082 13.6686C18.8042 13.633 18.8003 13.5974 18.737 13.6211ZM43.9419 63.5678C43.9577 63.544 43.9735 63.5203 43.9893 63.4965C43.9538 63.5005 43.9182 63.5044 43.9419 63.5678ZM72.7051 49.2549C72.7288 49.2707 72.7526 49.2866 72.7763 49.3024C72.7723 49.2668 72.7684 49.2311 72.7051 49.2549ZM0.708094 38.6835C0.684371 38.6677 0.660647 38.6519 0.636927 38.636C0.64088 38.6716 0.644836 38.7073 0.708094 38.6835ZM15.4159 8.39483C15.4396 8.41066 15.4633 8.4265 15.4871 8.44234C15.4831 8.4067 15.4792 8.37107 15.4159 8.39483ZM54.7948 3.4061C54.7711 3.39026 54.7474 3.37442 54.7237 3.35859C54.7276 3.39422 54.7316 3.42985 54.7948 3.4061ZM25.2606 3.28732C25.2843 3.30315 25.3081 3.31899 25.3318 3.33483C25.3278 3.2992 25.3239 3.26356 25.2606 3.28732ZM51.4144 2.15891C51.3986 2.18267 51.3828 2.20643 51.367 2.23018C51.4025 2.22622 51.4381 2.22226 51.4144 2.15891Z" fill="#E50052"/>
<path d="M51.4734 46.3447C51.1964 46.3359 50.977 46.3197 50.8483 46.5545C50.6856 46.8514 50.38 46.8965 50.1336 46.8048C49.7377 46.6573 49.4627 46.8467 49.1928 47.0393C48.9911 47.1832 48.8294 47.242 48.5714 47.1908C48.2812 47.1333 47.9598 47.129 47.6907 47.3366C47.6379 47.3773 47.5547 47.408 47.4909 47.4001C47.0907 47.3503 46.7947 47.4246 46.4742 47.5986C46.3008 47.6928 46.0916 47.7364 45.893 47.7655C45.5358 47.8178 45.1643 47.6914 44.8112 47.8797C44.706 47.9357 44.5002 47.9367 44.4122 47.8692C43.8605 47.4463 43.3359 47.7456 42.841 47.944C42.4883 48.0854 42.1713 47.9263 41.9277 47.8376C41.6316 47.7297 41.5306 47.8813 41.4729 48.0054C41.3386 48.2944 41.1472 48.3319 40.8539 48.3875C40.4106 48.4715 40.0431 48.4243 39.624 48.2695C39.3557 48.1704 38.9704 48.1381 38.7123 48.4743C38.6405 48.5679 38.4416 48.5809 38.2972 48.5974C38.0289 48.6281 37.7258 48.5626 37.4945 48.6658C37.0538 48.8626 36.74 48.748 36.4237 48.4425C36.1145 48.1439 35.7488 47.9683 35.2999 48.0029C35.1937 48.0111 35.0839 47.9479 34.9739 47.9382C34.6343 47.908 34.2595 47.6784 33.9933 48.1062C33.956 48.1661 33.8622 48.2498 33.8181 48.2376C33.2743 48.0866 32.735 48.5895 32.1945 48.2452C31.8714 48.3547 31.55 48.0595 31.2233 48.2417C31.1781 48.267 31.079 48.2709 31.0516 48.2413C30.7169 47.8798 30.1928 48.0282 29.8182 47.7737C29.6995 47.6931 29.5499 47.6593 29.4181 47.5964C29.3022 47.5411 29.1815 47.4091 29.08 47.4244C28.3935 47.5279 27.7877 47.0403 27.1005 47.1729C26.8899 47.2135 26.7883 47.1056 26.6688 46.9049C26.4112 46.4723 26.1329 46.0717 25.4877 46.0782C25.1191 46.082 24.7461 45.7979 24.3784 45.6358C24.3084 45.6049 24.2014 45.5379 24.2014 45.4877C24.2015 45.1744 23.9492 45.0705 23.7657 44.9009C23.5975 44.7453 23.6008 44.843 23.5974 44.9857C23.5962 45.0389 23.5685 45.0915 23.5529 45.1445C23.497 45.0968 23.4053 45.0578 23.3914 45C23.33 44.7458 23.232 44.4799 23.259 44.2303C23.292 43.9255 23.0352 43.8861 22.9216 43.8699C22.6416 43.8298 22.3364 43.8479 22.0624 43.9215C21.8383 43.9818 21.6692 43.9701 21.4794 43.8526C21.006 43.5593 20.5156 43.2977 20.2117 42.7907C20.1381 42.6678 19.9399 42.605 19.7866 42.5478C19.4779 42.4326 19.1614 42.3377 18.8464 42.24C18.7578 42.2126 18.6605 42.181 18.572 42.1915C18.1522 42.2412 17.9413 42.0064 17.7841 41.6614C17.6852 41.4443 17.5559 41.2401 17.43 41.0365C17.351 40.9088 17.237 40.6796 17.1662 40.6897C16.6644 40.7611 16.5973 40.1929 16.2291 40.0866C16.1947 40.0767 16.1776 40.0069 16.1524 39.9649C16.207 39.9535 16.2875 39.9609 16.3117 39.9274C16.419 39.7785 16.5263 40.2079 16.5893 39.9313C16.6116 39.8332 16.5134 39.625 16.4322 39.6019C16.2137 39.54 16.0482 39.1705 15.7588 39.4555C15.7486 39.4106 15.7383 39.3656 15.7283 39.3206C15.7118 39.2468 15.7168 39.1557 15.6742 39.1032C15.6097 39.024 15.5122 38.9717 15.4287 38.9079C15.5246 38.9321 15.6218 38.9798 15.7159 38.9743C15.8256 38.9679 15.964 39.0647 16.024 38.8266C16.0892 38.5681 16.0563 38.2413 16.4369 38.0948C16.5604 38.0473 16.5689 37.654 16.5925 37.4151C16.6018 37.3213 16.5294 37.197 16.4575 37.1218C16.2728 36.9288 16.5038 37.001 16.5458 36.944C16.5954 36.8766 16.5698 36.7585 16.605 36.6743C16.6756 36.5055 16.7247 36.2593 16.855 36.1972C17.2119 36.0273 17.3349 35.682 17.5435 35.4084C17.8636 34.9885 18.2103 34.8454 18.7266 34.9874C18.8677 35.0262 19.0189 35.0282 19.1655 35.047C19.1741 34.9724 19.1828 34.8978 19.1915 34.8231C19.2691 34.8745 19.3457 34.9273 19.4244 34.9769C19.6552 35.1222 20.2583 35.2053 20.5551 35.2102C20.8045 35.2142 21.0703 35.2692 21.2466 35.4954C21.5124 35.8363 21.8519 36.0839 22.2745 36.1608C22.8471 36.265 22.9477 36.7381 22.985 37.1512C23.0292 37.641 23.1418 37.9509 23.6674 38.0556C23.8505 38.0922 24.0037 38.2899 24.1656 38.4201C24.4292 38.6319 24.657 38.8947 25.0513 38.8721C25.1599 38.8659 25.28 38.9803 25.3867 39.0516C25.4512 39.0947 25.5158 39.2188 25.5537 39.2085C26.0581 39.0707 26.4376 39.5781 26.9411 39.4603C27.3777 39.3582 27.6348 39.5808 27.8591 39.9577C28.0511 40.2802 28.3224 40.5567 28.7908 40.534C29.398 40.5046 29.9259 40.7425 30.3591 41.1763C30.415 41.2323 30.4709 41.2883 30.5268 41.3443C31.0507 41.8689 31.0544 41.8771 31.7542 41.558C32.0262 41.434 32.2681 41.3931 32.4802 41.6411C32.6042 41.786 32.776 41.7855 32.9298 41.8478C33.254 41.979 33.6367 41.8917 33.9288 42.1741C34.0527 42.2938 34.3165 42.2846 34.5194 42.3027C35.0165 42.3471 35.5165 42.2497 36.0173 42.4077C36.2251 42.4732 36.5669 42.5583 36.671 42.1315C36.6943 42.036 37.0251 41.9202 37.1637 41.9662C37.6063 42.1135 37.9866 41.9583 38.3882 41.8397C38.4762 41.8137 38.6001 41.8869 38.7002 41.931C38.8007 41.9754 38.8956 42.0355 38.9869 42.0975C39.142 42.203 39.2897 42.4022 39.4453 42.4069C39.7665 42.4167 40.1058 42.5028 40.4091 42.4093C40.6407 42.3378 40.9004 42.1655 41.0187 41.9627C41.1945 41.6612 41.3981 41.5705 41.7207 41.5854C41.8801 41.5928 42.0416 41.4976 42.2055 41.4802C42.3335 41.4665 42.4853 41.548 42.5937 41.5048C42.8416 41.4058 43.0508 41.5053 43.2358 41.61C43.8533 41.96 44.3144 41.9363 44.6937 41.3629C44.8902 41.0658 45.1318 41.0619 45.3253 41.134C45.9227 41.3567 46.5252 41.1752 47.121 41.23C47.2384 41.2408 47.3697 41.1695 47.4852 41.1158C47.668 41.0309 47.8426 40.9284 48.0212 40.8342C48.2012 40.7393 48.3892 40.6841 48.4081 40.4045C48.4165 40.2791 48.6242 40.0688 48.7439 40.0672C49.1704 40.0614 49.476 39.8222 49.8207 39.6399C49.9614 39.5655 50.1561 39.5783 50.3262 39.5788C50.4755 39.5792 50.5527 39.5407 50.5241 39.3819C50.4656 39.0576 50.742 38.8371 50.9181 38.797C51.3098 38.7077 51.4754 38.3972 51.735 38.181C51.9363 38.0132 52.0857 37.8826 52.4147 38.0046C52.7112 38.1145 53.0738 38.0821 53.374 37.7653C53.5712 37.5573 54.0078 37.5818 53.9774 37.1324C53.9765 37.1183 54.0753 37.099 54.1267 37.0797C54.2293 37.0411 54.3289 36.9772 54.434 36.9665C54.6073 36.949 54.7788 36.9779 54.9088 36.8041C54.9397 36.7628 55.0926 36.8 55.1852 36.8202C55.6413 36.9196 56.0292 36.6643 55.9764 36.2874C55.9684 36.2308 55.9137 36.1677 55.8631 36.1334C55.8005 36.0909 55.7197 36.0754 55.6468 36.0483C55.7842 35.963 55.9228 35.8044 56.0587 35.8066C56.4238 35.8125 56.4307 35.8381 56.352 35.4959C56.3138 35.33 56.3739 35.3056 56.5222 35.2933C56.7841 35.2715 57.0422 35.202 57.304 35.1836C57.6756 35.1573 57.9236 34.9275 57.9781 34.6173C58.0385 34.2734 58.2486 34.2151 58.4802 34.2401C58.8901 34.2845 59.2489 34.0929 59.5234 33.9004C59.8028 33.7046 60.0307 33.7482 60.1791 33.888C60.4576 34.1505 60.7951 34.1762 61.1146 34.2135C61.4076 34.2477 61.5868 34.3488 61.6716 34.614C61.7613 34.8946 61.8463 35.1781 61.9071 35.4659C61.9655 35.7425 61.9846 36.0271 62.0339 36.3059C62.0459 36.3736 62.094 36.4563 62.1507 36.4914C62.8607 36.9309 62.4119 37.4966 62.2449 37.9529C62.0364 38.5223 61.6277 39.0182 61.6704 39.675C61.6736 39.7229 61.6402 39.7959 61.6009 39.8202C61.1941 40.072 60.8958 40.4943 60.3518 40.5345C59.9854 40.5615 59.5977 40.625 59.2736 40.7834C59.0725 40.8816 58.9513 41.1766 58.8336 41.4037C58.7251 41.613 58.6578 41.8463 58.5927 42.0748C58.4951 42.4181 58.1563 42.4097 57.9202 42.5319C57.7298 42.6304 57.4811 42.6096 57.2653 42.6679C57.1459 42.7001 56.9774 42.7598 56.9395 42.8519C56.6034 43.6672 55.8575 43.9175 55.1359 44.2073C55.0343 44.2482 54.9016 44.2709 54.8423 44.3477C54.6035 44.6572 54.2894 44.5978 53.993 44.5253C53.4364 44.3892 53.4526 44.3809 53.216 44.8853C53.1445 45.0376 52.9814 45.1469 52.8601 45.2757C52.6351 45.5145 52.3786 45.7314 52.1942 45.9983C52.0214 46.2484 51.8388 46.3915 51.4734 46.3447ZM59.7169 34.2293C59.815 34.2689 59.9108 34.3221 60.0128 34.3398C60.0438 34.3452 60.0918 34.2524 60.132 34.2047C60.0154 34.1337 59.905 34.041 59.7784 34.0054C59.7422 33.9952 59.6596 34.1501 59.7169 34.2293ZM31.7839 41.7717C31.8096 42.1114 32.0693 41.8892 32.2127 41.9453C32.2515 41.9605 32.3123 41.9196 32.3631 41.9044C32.3186 41.8506 32.2826 41.7637 32.2279 41.7497C32.1046 41.7181 31.972 41.7226 31.7839 41.7717ZM37.3587 42.2469C37.2005 42.2472 37.0424 42.2472 36.8844 42.2527C36.883 42.2527 36.883 42.3597 36.8844 42.3598C37.0424 42.3652 37.2005 42.3653 37.3587 42.2469ZM17.0761 36.783C17.2209 36.6715 17.2441 36.5375 17.15 36.3818C17.0534 36.4688 16.9314 36.5404 16.8666 36.6468C16.7832 36.7835 16.8594 36.8588 17.0761 36.783ZM52.7781 45.0976C52.8018 45.0024 52.8254 44.9073 52.849 44.8122C52.754 44.86 52.623 44.8839 52.572 44.9609C52.4827 45.0957 52.5595 45.1728 52.7781 45.0976ZM40.146 48.1264C40.2275 48.0206 40.2679 47.9131 40.0836 47.895C40.009 47.8877 39.9277 47.9491 39.8495 47.9792C39.9088 48.0283 39.9681 48.0774 40.146 48.1264ZM24.4893 45.3945C24.5303 45.4356 24.5702 45.4778 24.6127 45.5173C24.6522 45.5541 24.6944 45.5881 24.7354 45.6232C24.7423 45.5569 24.7786 45.4711 24.7502 45.4282C24.6875 45.3333 24.5922 45.2599 24.5102 45.1778C24.4835 45.2302 24.4567 45.2827 24.4893 45.3945ZM44.9498 41.5342C44.9996 41.554 45.0562 41.5991 45.0978 41.588C45.1719 41.5682 45.2368 41.5144 45.3056 41.4748C45.2368 41.4352 45.1719 41.3814 45.0978 41.3616C45.0562 41.3504 44.9996 41.3956 44.9498 41.5342ZM58.5308 34.7044C58.4904 34.6261 58.45 34.5477 58.4095 34.4694C58.4104 34.5477 58.4113 34.6261 58.5308 34.7044ZM38.4855 48.1264C38.4331 48.1392 38.3808 48.152 38.3285 48.1648C38.3611 48.1916 38.3901 48.2336 38.4269 48.2422C38.52 48.2639 38.5547 48.2357 38.4855 48.1264ZM28.5221 47.0574C28.4834 47.0187 28.4447 46.9799 28.4061 46.9412C28.3884 47.0027 28.3708 47.0643 28.3532 47.1258C28.4293 47.1228 28.5054 47.1198 28.5221 47.0574ZM16.3645 39.0398C16.354 38.9898 16.3436 38.9397 16.3331 38.8896C16.3075 38.8966 16.2592 38.908 16.2596 38.9099C16.2719 38.9736 16.2889 39.0363 16.3645 39.0398ZM59.7169 34.8231C59.7327 34.7994 59.7485 34.7756 59.7643 34.7519C59.7287 34.7558 59.6932 34.7598 59.7169 34.8231ZM16.4831 38.5647C16.5068 38.5805 16.5305 38.5964 16.5542 38.6122C16.5503 38.5766 16.5463 38.5409 16.4831 38.5647ZM51.0583 39.3368C51.0741 39.313 51.0899 39.2893 51.1057 39.2655C51.0701 39.2695 51.0345 39.2734 51.0583 39.3368Z" fill="#E50052"/>
<path d="M51.741 28.2605C51.7644 28.902 52.1287 29.4995 51.8352 30.1253C51.7972 30.2062 51.831 30.3204 51.8298 30.4192C51.8237 30.9353 51.9456 31.4906 51.3591 31.8184C51.2736 31.8662 51.2374 32.0006 51.1754 32.0928C51.005 32.3463 50.9855 32.7658 50.6018 32.789C50.3037 32.8071 50.0015 32.8688 49.6931 32.8146C49.5638 32.7919 49.3908 32.8548 49.2776 32.9351C48.9093 33.1964 48.589 33.5253 48.0749 33.1766C47.9377 33.0836 47.6588 33.1651 47.4556 33.2123C47.0914 33.2969 46.8016 33.2248 46.61 32.9727C46.2465 32.4942 45.9948 31.9755 45.8863 31.3732C45.8363 31.0959 45.6451 30.8442 45.518 30.5808C45.487 30.6047 45.4568 30.6298 45.4248 30.6522C45.387 30.6786 45.3337 30.7322 45.3118 30.7218C45.2624 30.6984 45.2038 30.6486 45.1921 30.5993C45.1475 30.4116 45.1749 30.1794 45.0723 30.04C44.9459 29.8683 44.8196 29.7154 44.7939 29.4992C44.7671 29.2736 44.6547 29.0074 44.7362 28.8319C44.8562 28.5736 44.8305 28.3874 44.7533 28.1343C44.6668 27.8505 44.8956 27.6222 45.1106 27.4914C45.5935 27.1974 46.0068 26.7535 46.6347 26.736C46.7239 26.7335 46.8789 26.6001 46.8846 26.5189C46.9126 26.1237 47.3051 25.9864 47.4378 25.6775C47.542 25.4351 47.7603 25.3288 47.967 25.3344C48.3373 25.3444 48.625 25.1793 48.8902 24.9833C49.1103 24.8205 49.2641 24.8566 49.5073 24.937C50.391 25.2295 50.8232 25.9719 51.3174 26.6571C51.3658 26.7243 51.349 26.8416 51.3543 26.9362C51.3598 27.0346 51.3549 27.1336 51.3557 27.2324C51.3574 27.4468 51.7103 27.428 51.6514 27.7096C51.6174 27.8721 51.6879 28.0564 51.741 28.2605ZM48.0937 25.7959C48.1736 25.6922 48.2163 25.5916 48.0346 25.5632C47.9932 25.5567 47.9387 25.6065 47.8966 25.6387C47.8139 25.7022 47.5903 25.6579 47.7075 25.8672C47.7187 25.8872 47.8823 25.8217 48.0937 25.7959ZM49.9322 25.9741C49.963 25.9543 49.9914 25.9264 50.0252 25.9162C50.1104 25.8905 50.198 25.8728 50.2846 25.8519C50.2432 25.8104 50.2069 25.7428 50.1593 25.7335C50.0831 25.7186 49.9585 25.7135 49.928 25.7565C49.8784 25.8267 49.8882 25.9389 49.9322 25.9741ZM51.3555 28.4684C51.4612 28.55 51.5685 28.5904 51.5866 28.4059C51.5939 28.3312 51.5326 28.2498 51.5025 28.1715C51.4535 28.2309 51.4045 28.2902 51.3555 28.4684ZM46.4332 32.21C46.4925 32.1645 46.5518 32.1191 46.6111 32.0736C46.5419 32.0101 46.4728 31.9467 46.4036 31.8832C46.3937 31.9723 46.3838 32.0614 46.4332 32.21ZM51.1776 27.5776C51.1183 27.623 51.059 27.6684 50.9997 27.7138C51.0334 27.7476 51.0671 27.7814 51.1008 27.8151C51.1462 27.7557 51.1916 27.6963 51.1776 27.5776ZM48.2716 32.982C48.3565 33.0018 48.4407 33.0271 48.5267 33.0383C48.5545 33.0419 48.5871 33.0084 48.6176 32.9919C48.5779 32.9688 48.5406 32.9347 48.4979 32.9254C48.4445 32.9138 48.3868 32.9226 48.2716 32.982Z" fill="#E50052"/>
<path d="M26.2981 30.3987C26.3277 30.3492 26.3221 30.3273 26.3286 30.31C26.4157 30.0774 26.1508 30.107 26.0989 29.9987C25.9645 29.7185 26.4054 30.0888 26.337 29.8021C26.3043 29.6654 26.3452 29.4957 26.3979 29.3582C26.4498 29.2224 26.6173 29.1151 26.6321 28.9837C26.6918 28.4548 27.1362 28.0654 27.1501 27.5362C27.1592 27.1891 27.6015 27.2689 27.6169 27.03C27.6334 26.7729 27.6735 26.5211 27.8971 26.4389C28.3408 26.276 28.6794 25.9929 29.006 25.674C29.0675 25.6141 29.1785 25.5517 29.2513 25.5664C29.5209 25.621 29.7907 25.6898 30.0484 25.7857C30.4936 25.9515 30.8842 26.2286 31.3426 26.3858C31.801 26.543 32.1101 26.9231 32.2589 27.4064C32.3832 27.8097 32.4998 28.2162 32.647 28.6111C32.704 28.7639 32.8487 28.8817 32.9299 29.0284C33.0001 29.155 33.1132 29.3286 33.0747 29.4318C32.9459 29.7767 33.0954 30.2068 32.7453 30.4861C32.6702 30.546 32.6336 30.6792 32.618 30.7844C32.5412 31.3004 32.4365 31.8037 32.1594 32.2587C32.1151 32.3315 32.1468 32.4495 32.1392 32.5462C32.1178 32.8217 32.0897 33.0357 31.7018 33.065C31.4757 33.0821 31.2518 33.3148 31.0547 33.4832C30.8002 33.7006 30.6149 33.8957 30.1882 33.7839C29.7927 33.6802 29.3152 33.6524 28.906 33.9415C28.8069 34.0116 28.5821 33.9525 28.4358 33.8976C27.8799 33.689 27.5935 33.2112 27.2582 32.754C26.94 32.32 26.8396 31.8135 26.6088 31.3554C26.5606 31.2598 26.5548 31.1281 26.5695 31.0184C26.6064 30.7423 26.5087 30.5728 26.234 30.5108C26.2288 30.5096 26.2226 30.4811 26.2279 30.4711C26.2368 30.4544 26.2545 30.4424 26.2981 30.3987ZM28.1662 26.8651C28.1799 26.7996 28.1936 26.7341 28.2073 26.6687C28.1151 26.694 28.0043 26.6972 27.9376 26.753C27.898 26.7862 27.9279 26.9025 27.9266 26.9814C27.9669 26.9426 28.0073 26.9038 28.1662 26.8651ZM30.3012 26.1524C30.2419 26.1978 30.1826 26.2432 30.1233 26.2886C30.157 26.3224 30.1907 26.3562 30.2245 26.3899C30.2698 26.3305 30.3152 26.2712 30.3012 26.1524ZM31.7839 32.6258C31.8234 32.606 31.8629 32.5863 31.9025 32.5665C31.8629 32.5467 31.8234 32.5269 31.7839 32.6258ZM27.9883 33.101C27.9646 33.0851 27.9408 33.0693 27.9171 33.0534C27.9211 33.0891 27.925 33.1247 27.9883 33.101ZM28.4627 33.4573C28.4865 33.4731 28.5102 33.489 28.5339 33.5048C28.53 33.4692 28.526 33.4335 28.4627 33.4573Z" fill="#E50052"/>
</svg>
