<svg width="20" height="21" viewBox="0 0 20 21" fill="none" xmlns="http://www.w3.org/2000/svg">
<path d="M10.1983 0.5C8.16102 0.5 6.46231 1.20244 5.1438 2.61451C3.78223 3.26974 2.671 4.19223 1.81989 5.38107C0.949557 6.59676 0.5 7.89074 0.5 9.2541C0.5 10.9997 1.17756 12.7122 2.47203 14.3842C2.33724 15.9089 3.2144 17.2932 4.83624 18.5289C6.55312 19.837 8.44693 20.5 10.505 20.5C11.9203 20.5 13.1899 20.1137 14.296 19.3348C17.235 17.7281 18.8235 15.6204 18.8235 12.9918C18.8235 11.3427 18.1902 9.52926 16.9897 7.56446C17.0595 5.44637 16.408 3.73421 14.986 2.50334C13.6689 1.17241 12.0638 0.5 10.1983 0.5Z" fill="#030201" stroke="#030201"/>
</svg>
