<svg width="429" height="640" viewBox="0 0 429 640" fill="none" xmlns="http://www.w3.org/2000/svg">
<path d="M191.977 217.526C192.663 214.999 193.596 213.009 193.729 210.636C193.838 208.704 195.036 206.471 196.44 205.052C199.056 202.407 198.045 199.036 198.968 196.092C199.071 195.763 198.922 195.358 199.015 195.023C200.121 191.012 200.914 186.869 202.488 183.049C203.591 180.369 203.971 177.369 205.9 174.965C206.563 174.139 206.371 172.617 206.539 171.409C206.926 168.641 207.321 165.875 207.663 163.102C208.312 157.843 210.727 152.964 210.753 147.524C210.764 145.449 211.94 143.315 212.844 141.325C213.785 139.257 219.257 138.216 220.91 139.823C221.62 140.514 222.345 142.123 222.011 142.776C221.076 144.601 221.977 146.896 220.24 148.519C219.729 148.996 220.179 150.393 219.964 151.316C219.274 154.282 218.178 157.185 217.792 160.183C217.189 164.883 215.121 169.373 215.775 174.266C215.839 174.747 214.9 175.288 214.74 175.886C213.326 181.152 210.247 185.914 210.03 191.551C209.997 192.415 209.567 193.308 209.158 194.104C207.05 198.206 205.808 202.602 204.674 207.036C204.336 208.359 203.584 209.815 203.876 211C204.254 212.536 201.212 212.8 202.913 214.425C199.563 217.76 200.324 223.042 197.153 226.545C196.409 227.367 196.885 229.183 196.473 230.434C194.537 236.325 191.763 241.858 188.944 247.36C187.845 249.506 184.916 249.908 181.87 248.491C179.91 247.58 179.317 245.881 180.534 243.421C181.825 240.811 183.436 238.359 184.934 235.854C185.302 235.24 186.103 234.708 186.14 234.103C186.321 231.212 188.189 228.974 188.953 226.313C189.771 223.464 190.872 220.696 191.977 217.526Z" fill="#858098"/>
<path d="M326.743 189.584C327.305 187.386 327.977 185.431 328.668 183.483C329.511 181.107 332.288 179.249 334.704 179.427C337.428 179.627 339.239 181.8 338.097 184.373C336.298 188.43 336.049 192.816 334.815 196.986C333.269 202.212 332.944 207.798 332.058 213.223C331.917 214.089 331.645 214.941 331.358 215.774C329.842 220.171 328.246 224.541 326.805 228.963C326.357 230.34 326.104 231.852 326.134 233.295C326.167 234.826 324.797 235.542 324.545 237.055C324.152 239.416 322.023 241.505 321.694 243.858C320.758 250.545 317.648 256.478 315.736 262.812C315.285 264.306 314.215 265.604 313.515 267.034C313.185 267.71 312.815 268.507 312.879 269.211C313.121 271.876 311.708 273.931 310.778 276.232C309.996 278.165 307.942 279.834 307.925 281.36C307.897 283.893 305.925 285.207 305.575 287.335C305.235 289.407 303.116 290.013 301.817 290.032C300.133 290.057 298.039 289.655 296.847 287.826C295.531 285.808 296.717 284.12 297.624 282.539C299.123 279.925 301.731 277.64 302.316 274.886C303.079 271.293 305.214 268.41 306.089 264.942C307.001 261.323 309.085 257.926 309.557 254.289C310.077 250.283 311.947 247.282 313.946 244.036C315.021 242.291 314.856 239.778 315.221 237.606C315.32 237.016 315.198 236.375 315.365 235.813C317.1 229.965 318.832 224.115 320.671 218.299C321.03 217.161 321.854 216.171 322.437 215.099C322.677 214.66 323.066 214.157 323.016 213.727C322.286 207.518 325.299 201.796 325.323 195.664C325.331 193.718 326.322 191.775 326.743 189.584Z" fill="#858098"/>
<path d="M128.834 386.843C129.258 382.371 129.907 378.336 131.503 374.511C132.11 373.055 135.347 371.396 137.209 371.738C138.84 372.039 140.889 372.641 140.757 374.577C140.617 376.628 141.046 378.937 139.526 380.782C139.144 381.246 138.577 381.893 138.661 382.352C139.367 386.202 137.092 389.423 136.541 392.994C136.094 395.89 135.769 398.815 135.117 401.665C134.486 404.423 134.582 407.304 133.177 409.958C131.982 412.213 131.335 414.774 130.575 417.239C129.806 419.739 128.856 422.135 128.532 424.842C128.273 427.013 127.869 429.621 125.753 431.346C125.069 431.903 124.484 433.4 124.753 434.139C125.338 435.747 124.42 436.86 124.065 438.147C123.346 440.757 122.885 443.521 121.674 445.893C119.485 450.179 118.952 455.127 116.089 459.141C115.473 460.005 115.938 461.57 115.493 462.64C114.192 465.767 113.736 469.175 111.562 472.044C109.944 474.18 109.192 476.968 108.035 479.458C106.847 482.013 103.781 482.88 101.06 481.448C99.0023 480.365 98.272 477.811 99.5913 475.518C100.974 473.116 102.583 470.844 104.084 468.509C104.412 467.998 104.876 467.497 104.984 466.934C105.687 463.296 107.602 460.1 108.66 456.587C109.738 453.006 111.318 449.566 112.257 445.956C113.144 442.545 114.694 439.552 116.304 436.465C117.44 434.286 117.353 431.466 117.795 428.929C117.856 428.58 117.738 428.192 117.831 427.858C118.979 423.725 119.654 419.36 121.482 415.55C122.811 412.78 122.304 409.272 125.008 407.081C125.496 406.685 125.718 405.651 125.662 404.944C125.354 401.08 126.258 397.415 127.234 393.739C127.806 391.584 128.221 389.387 128.834 386.843Z" fill="#858098"/>
<path d="M153.313 354.32C152.679 355.354 152.053 355.963 151.688 356.701C150.526 359.047 149.534 361.479 148.336 363.806C147.353 365.715 144.38 366.263 141.968 365.148C140.037 364.254 138.696 362.218 139.952 359.784C141.288 357.195 142.889 354.741 144.394 352.241C144.765 351.624 145.466 351.099 145.583 350.454C146.203 347.05 148.049 344.103 149.022 340.83C150.014 337.489 151.532 334.292 152.357 330.919C153.054 328.066 153.816 325.195 155.359 322.807C158.945 317.259 158.015 310.526 160.571 304.672C161.696 302.097 161.245 298.808 163.595 296.57C162.537 292.403 167.963 289.561 165.919 285.194C167.266 280.95 167.879 276.583 168.126 272.154C170.5 269.852 169.237 266.674 170.111 264.064C170.78 262.068 171.277 259.992 172.119 258.058C173.223 255.521 178.941 254.445 180.603 256.515C181.342 257.436 181.672 258.553 181.363 260.051C180.659 263.46 178.748 266.554 179.169 270.325C179.348 271.93 177.494 273.397 177.334 275.546C177.033 279.581 175.366 283.519 175.117 287.55C174.966 289.994 174.156 292.033 173.443 294.203C172.677 296.535 171.776 298.823 171.044 301.165C170.301 303.543 169.47 305.849 169.131 308.408C168.843 310.592 168.479 313.215 166.346 314.919C165.745 315.399 165.313 316.606 165.436 317.379C165.826 319.825 164.601 321.813 163.874 323.918C163.039 326.336 162.841 328.895 161.56 331.25C160.162 333.819 159.424 336.756 158.474 339.558C157.671 341.926 156.072 343.888 155.855 346.623C155.657 349.115 154.291 351.514 153.313 354.32Z" fill="#858098"/>
<path d="M242.154 99.5285C240.478 103.337 240.243 107.342 237.575 110.306C237.707 113.301 236.58 116.016 235.437 118.649C233.609 122.857 231.57 126.978 229.48 131.064C228.458 133.063 225.129 133.414 222.338 132.036C220.511 131.134 219.959 129.285 221.169 126.885C222.14 124.958 223.541 123.251 224.658 121.39C225.541 119.917 226.675 118.431 226.971 116.818C227.254 115.279 228.109 114.099 228.567 112.704C230.218 107.676 232.308 102.775 233.662 97.6747C234.67 93.8747 236.251 90.4981 238.148 87.1058C239.253 85.1288 239.794 82.5381 239.669 80.2745C239.584 78.7367 240.125 77.5981 240.415 76.294C240.983 73.7403 241.458 71.1458 242.3 68.6802C242.888 66.9576 243.575 65.2429 244.539 63.5933C245.286 62.3143 245.033 60.2209 246.443 58.8177C246.937 58.3263 247.211 57.3937 247.212 56.662C247.222 50.1894 248.855 44.0295 250.453 37.8219C251.402 34.1352 251.269 30.2123 252.769 26.588C254.043 23.514 258.008 21.6463 260.91 23.2077C261.781 23.6762 262.752 24.9162 262.766 25.8173C262.795 27.6227 262.769 29.9831 261.703 31.1043C260.506 32.3632 260.854 33.4121 260.61 34.6541C260.023 37.6381 259.023 40.5404 258.429 43.5233C257.496 48.2061 256.603 52.9103 256.064 57.6477C255.948 58.6735 255.43 59.1881 255.153 59.9598C253.579 64.332 251.995 68.7033 250.575 73.1264C249.896 75.2421 249.691 77.5086 249.036 79.6344C248.689 80.7614 247.676 81.6719 247.252 82.7896C246.569 84.5911 246.071 86.4697 245.59 88.3401C244.936 90.8845 244.798 93.6852 243.584 95.9094C242.992 96.9939 244.631 98.9855 242.154 99.5285Z" fill="#858098"/>
<path d="M254.578 426.582C254.562 427.18 254.836 427.507 254.763 427.632C253.036 430.603 253.052 433.965 252.476 437.212C251.061 445.18 249.032 452.987 246.072 460.549C245.315 462.483 245.354 464.722 244.643 466.681C243.665 469.375 241.844 471.829 241.229 474.575C239.692 481.449 237.271 488.013 234.93 494.613C234.359 496.223 234.32 498.13 232.579 499.236C232.152 499.507 231.798 500.518 231.966 500.994C232.653 502.945 231.763 504.709 230.864 506.019C229.286 508.318 229.712 511.632 227.015 513.289C226.744 513.456 226.427 514 226.512 514.225C227.44 516.687 224.995 517.902 224.459 519.833C223.916 521.789 222.248 522.556 220.212 522.661C218.121 522.769 216.54 521.767 215.545 520.218C214.228 518.166 215.825 516.303 216.749 514.622C218.138 512.096 220.334 509.938 221.339 507.301C222.083 505.35 222.908 503.384 223.576 501.382C224.271 499.3 225.076 497.254 225.724 495.158C226.763 491.797 228.333 488.624 228.582 484.976C228.7 483.246 229.883 481.597 230.872 479.958C232.844 476.692 234.21 472.999 234.054 468.991C234.045 468.751 234.221 468.506 234.296 468.259C236.144 462.18 237.896 456.069 239.889 450.037C240.549 448.039 242.024 446.381 241.974 444.042C241.928 441.884 242.167 439.686 242.575 437.562C243.401 433.262 244.369 428.987 245.39 424.729C246.209 421.309 247.142 417.914 248.129 414.538C248.528 413.174 252.516 412.041 254.501 412.595C256.744 413.22 257.614 414.661 257.031 417.113C256.704 418.488 256.024 419.777 255.678 421.149C255.258 422.814 255.021 424.525 254.578 426.582Z" fill="#858098"/>
<path d="M268.31 373.066C268.637 371.852 268.793 370.99 269.044 370.158C269.646 368.163 269.901 365.923 271.005 364.25C273.136 361.021 274.035 357.516 274.536 353.81C274.601 353.33 274.58 352.826 274.717 352.369C276.507 346.402 277.906 340.273 280.255 334.532C282.081 330.07 282.699 325.548 283.217 320.906C283.379 319.445 284.507 318.305 284.07 316.529C283.72 315.11 284.127 313.243 284.826 311.903C285.486 310.638 285.629 309.326 286.009 308.054C286.794 305.424 287.26 302.699 288.046 300.069C288.805 297.532 291.448 295.756 293.952 295.838C296.4 295.918 298.09 297.855 297.769 300.297C297.686 300.924 297.312 301.507 297.159 302.132C296.566 304.551 296.014 306.98 295.434 309.402C294.813 311.992 293.907 314.548 293.611 317.173C293.132 321.434 291.119 325.424 291.523 329.839C291.598 330.659 290.999 331.544 290.702 332.395C289.3 336.422 288.21 340.598 286.384 344.423C285.104 347.104 286.634 350.599 283.718 352.648C283.893 355.514 281.292 357.371 281.033 360.098C280.395 366.815 277.128 372.74 275.205 379.072C274.825 380.326 274.82 381.846 273.266 382.638C272.765 382.894 272.291 384.217 272.524 384.712C273.342 386.451 272.341 387.867 271.672 389.045C270.198 391.641 270.257 395.065 267.458 396.951C267.196 397.127 266.936 397.737 267.046 397.967C268.283 400.542 265.592 401.689 264.935 403.557C263.91 406.472 258.909 407.177 256.673 405.075C255.325 403.807 255.62 401.189 257.179 398.818C258.91 396.183 261.059 393.63 261.98 390.711C262.895 387.812 264.376 385.166 265.167 382.23C265.972 379.244 267.161 376.361 268.31 373.066Z" fill="#858098"/>
<path d="M240.536 342.031C240.004 342.82 239.453 343.182 239.243 343.686C239.088 344.056 239.596 344.708 239.435 345.069C238.58 346.991 236.851 348.867 236.868 350.746C236.888 353.084 236.016 354.981 235.191 356.854C234.878 357.563 234.831 358.2 234.651 358.874C234.299 360.189 233.823 361.472 233.501 362.793C233.192 364.059 233.019 365.358 232.772 366.639C232.723 366.89 232.674 367.276 232.512 367.35C229.936 368.527 230.244 371.457 228.841 373.364C227.484 375.208 226.421 375.718 224.097 374.895C221.92 374.123 220.966 372.87 221.577 370.705C222.148 368.68 223.339 366.839 224.112 364.861C224.837 363.008 225.407 361.093 225.972 359.183C226.213 358.368 225.968 357.215 226.455 356.702C228.878 354.149 228.678 350.757 229.424 347.723C230.003 345.37 230.468 343.126 231.756 340.974C232.585 339.589 232.596 337.659 232.772 335.953C232.982 333.919 234.088 332.189 234.188 330.029C234.317 327.213 235.482 324.451 236.132 321.65C236.521 319.975 236.628 318.224 237.125 316.587C238.197 313.048 240.789 309.943 240.064 305.875C240.004 305.537 240.936 305.098 241.249 304.605C242.943 301.945 245.053 297.293 244.786 294.129C244.484 290.547 246.86 288.459 248.093 285.733C248.226 285.437 248.804 285.312 248.885 285.026C249.301 283.546 249.193 281.658 250.093 280.644C251.095 279.514 251.357 278.418 251.752 277.12C252.206 275.626 253.338 274.352 253.925 272.882C254.418 271.649 255.553 270.893 255.457 269.104C255.34 266.9 259.911 264.486 262.213 265.009C263.439 265.287 264.751 267.473 264.427 268.783C263.706 271.7 262.954 274.61 262.204 277.519C262.108 277.893 262.055 278.353 261.809 278.602C260.245 280.19 258.448 281.72 258.329 284.092C258.215 286.362 256.947 288.177 256.047 289.999C255.01 292.1 254.627 294.369 253.751 296.315C252.421 299.275 252.767 302.856 250.339 305.332C249.901 311.527 245.536 316.653 245.523 322.971C245.523 323.337 245.39 323.813 245.14 324.05C243.714 325.404 243.848 327.245 243.313 328.906C241.962 333.096 240.731 337.238 240.536 342.031Z" fill="#858098"/>
<path d="M196.366 433.384C198.127 429.723 199.713 426.434 199.433 422.571C199.396 422.062 200.33 421.531 200.693 420.936C203.326 416.618 204.133 415.668 204.149 410.581C204.16 407.076 205.993 404.764 207.53 402.229C208.331 400.907 209.101 399.818 208.937 398.247C208.9 397.894 208.871 397.261 209.008 397.209C211.637 396.223 210.617 393.466 211.707 391.756C212.159 391.046 212.839 390.424 213.088 389.656C213.539 388.27 214.945 387.556 214.842 385.597C214.714 383.154 220.026 380.493 222.206 381.753C223.108 382.273 223.906 384.029 223.765 385.093C223.39 387.923 222.485 390.683 221.774 393.467C221.647 393.966 221.565 394.554 221.249 394.913C219.789 396.565 217.871 398.001 217.77 400.398C217.673 402.664 216.538 404.661 215.478 406.264C213.952 408.572 214.16 411.304 212.996 413.34C211.424 416.089 212.351 419.749 209.524 421.854C209.339 427.067 206.519 431.49 205.144 436.349C204.701 437.915 205.559 439.623 203.929 441.175C202.914 442.142 203.116 444.333 202.643 445.937C202.133 447.668 201.382 449.331 200.91 451.07C200.596 452.227 200.548 453.464 200.455 454.671C200.4 455.38 200.803 456.354 200.463 456.775C198.121 459.677 199.206 463.879 196.392 466.736C195.31 467.834 195.756 470.312 195.158 472.041C193.947 475.545 192.218 478.888 192.28 482.736C192.285 483.099 192.139 483.697 191.9 483.797C189.216 484.921 189.707 487.946 188.244 489.824C186.857 491.602 185.802 492.131 183.473 491.297C181.304 490.521 180.372 489.275 180.995 487.091C181.571 485.072 182.771 483.239 183.541 481.264C184.263 479.413 184.816 477.492 185.375 475.582C185.613 474.766 185.38 473.617 185.869 473.102C188.195 470.654 188.062 467.426 188.724 464.504C189.316 461.889 189.957 459.424 191.289 457.028C192.205 455.38 192.2 453.217 192.586 451.28C192.932 449.551 193.183 447.801 193.595 446.089C194.326 443.045 195.188 440.033 195.906 436.987C196.153 435.94 196.136 434.831 196.366 433.384Z" fill="#858098"/>
<path d="M151.407 600.008C148.545 601.25 149.184 604.251 147.755 606.019C146.179 607.971 145.045 608.561 142.385 607.537C140.664 606.874 139.804 605.461 140.449 603.372C141.066 601.374 142.318 599.58 143.068 597.612C143.775 595.755 144.175 593.783 144.743 591.872C145.164 590.459 145.561 589.031 146.113 587.668C146.571 586.536 147.519 585.546 147.756 584.392C148.243 582.025 148.354 579.584 148.722 577.19C148.808 576.631 149.283 576.121 149.612 575.61C150.977 573.485 151.8 571.282 151.877 568.645C151.945 566.292 152.801 563.965 153.292 561.623C154.102 557.756 154.773 553.853 155.757 550.031C156.18 548.392 157.437 546.98 157.961 545.351C158.55 543.522 159.093 541.542 158.973 539.672C158.896 538.489 159.398 538.324 159.934 537.65C161.4 535.804 163.989 529.285 163.665 526.857C163.184 523.255 165.686 521.196 166.995 518.514C167.255 517.981 167.665 517.519 168.022 517.037C169.015 515.694 168.083 513.685 169.593 512.521C170.974 511.456 170.146 509.639 171.018 508.359C171.84 507.153 172.299 505.657 173.263 504.606C173.882 503.932 174.201 503.692 174.206 502.58C174.215 500.583 175.662 498.926 177.564 498.251C179.212 497.667 181.102 497.011 182.643 498.834C183.275 499.582 183.994 499.96 183.441 501.283C182.384 503.812 181.377 506.374 181.315 509.251C181.289 510.464 180.883 511.945 179.275 512.675C178.546 513.005 177.958 514.2 177.786 515.095C177.304 517.595 176.141 519.823 175.232 522.145C174.656 523.616 173.354 524.882 173.075 526.372C172.672 528.523 171.985 530.419 171.155 532.436C170.378 534.323 170.662 536.718 168.828 538.318C168.822 543.455 165.519 547.681 164.817 552.542C164.417 555.304 162.484 557.454 162.351 559.962C162.194 562.901 160.623 565.245 160.14 567.963C159.932 569.138 160.033 570.366 159.871 571.553C159.729 572.594 159.449 573.621 159.168 574.637C158.934 575.485 158.592 576.304 158.336 577.147C158.232 577.492 158.341 577.938 158.163 578.217C155.826 581.877 155.656 586.318 153.733 590.192C152.334 593.011 152.221 596.469 151.407 600.008Z" fill="#858098"/>
<path d="M277.548 200.556C278.821 198.509 281.051 193.305 280.79 190.807C280.637 189.342 281.13 188.863 281.885 188.097C284.754 185.182 285.112 181.131 285.313 177.591C285.51 174.117 287.434 171.945 288.765 169.268C289.2 168.392 290.192 167.477 290.077 166.707C289.825 165.02 290.52 163.878 291.659 163.073C292.414 162.539 291.918 162.154 292.024 161.697C292.498 159.632 293.012 157.441 294.77 156.081C295.82 155.268 296.132 154.685 295.918 153.31C295.627 151.437 297.272 150.439 298.673 149.643C300.742 148.466 302.827 148.989 304.642 150.275C305.055 150.567 305.141 151.685 304.995 152.337C304.342 155.269 303.554 158.17 302.805 161.08C302.708 161.454 302.656 161.914 302.409 162.163C300.842 163.748 299.088 165.281 298.92 167.653C298.772 169.759 297.705 171.564 296.785 173.189C295.415 175.607 295.279 178.391 294.13 180.61C292.641 183.485 293.437 187.268 290.462 189.426C291.078 191.713 289.731 193.585 289.107 195.593C288.265 198.306 286.796 200.91 286.455 203.668C286.122 206.359 284.826 208.584 284.137 211.069C283.392 213.759 282.475 216.404 281.793 219.109C281.473 220.379 281.517 221.743 281.422 223.066C281.38 223.661 281.654 224.538 281.352 224.817C278.664 227.292 280.446 231.504 277.524 234.079C276.423 235.05 277.122 237.839 276.214 239.314C275.153 241.037 274.601 242.895 274.634 244.631C274.67 246.56 272.157 247.752 273.457 249.864C273.606 250.105 273.221 250.997 272.875 251.169C270.632 252.287 270.616 254.741 269.567 256.551C268.499 258.391 266.361 259.654 264.397 259.201C262.992 258.877 261.589 256.177 262.199 254.193C262.815 252.187 264.031 250.372 264.79 248.399C265.504 246.544 265.987 244.597 266.523 242.678C266.755 241.85 266.717 240.921 267.063 240.156C267.665 238.825 268.659 237.652 269.135 236.29C269.61 234.927 269.658 233.414 269.88 231.964C270.304 229.191 271.498 226.701 272.468 224.102C273.789 220.56 274.547 216.76 274.956 212.912C275.244 210.205 276.239 207.577 276.837 204.897C277.128 203.593 277.232 202.248 277.548 200.556Z" fill="#858098"/>
<path d="M256.874 170.355C255.64 173.893 254.906 177.268 253.32 180.178C251.835 182.904 251.916 186.126 249.813 188.685C248.584 190.181 247.412 189.914 246.359 189.598C243.717 188.806 241.713 183.102 243.406 181.011C244.258 179.958 244.296 179.108 244.569 177.935C245.305 174.775 246.902 171.816 248.163 168.78C248.397 168.216 248.932 167.634 248.872 167.114C248.176 161.124 250.153 155.602 251.605 149.954C252.389 146.901 253.506 144.165 255.308 141.557C256.24 140.209 256.234 138.218 256.677 136.525C256.854 135.849 257.04 135.165 257.324 134.53C257.982 133.054 259.216 131.634 259.299 130.141C259.533 125.989 260.961 122.454 263.582 119.319C263.812 119.044 264.304 118.649 264.241 118.52C263.225 116.431 265.078 115.42 265.832 113.972C267.375 111.008 268.239 107.796 269.224 104.611C269.91 102.392 269.931 99.7476 272.11 98.1114C272.457 97.851 272.777 97.1044 272.653 96.7365C271.254 92.5886 274.437 89.1533 274.444 85.1544C274.447 83.5729 276.365 81.9145 277.599 80.4487C278.222 79.708 281.368 80.9718 282.138 82.0783C284.112 84.9146 283.464 88.0314 282.835 90.9918C282.159 94.1733 280.309 97.0705 280.407 100.474C280.414 100.715 280.307 101.007 280.155 101.199C278.087 103.815 278.42 107.271 277.034 110.104C275.742 112.747 274.237 115.285 272.867 117.891C272.457 118.672 272.079 119.499 271.866 120.349C271.004 123.794 269.605 127.167 268.126 130.241C266.294 134.048 265.019 137.993 263.579 141.894C262.485 144.861 262.025 148.055 261.096 151.092C260.115 154.302 258.615 157.378 257.893 160.636C257.219 163.67 257.27 166.865 256.874 170.355Z" fill="#858098"/>
<path d="M80.1109 425.9C80.7505 428.362 79.1696 430.231 78.4138 432.14C77.9586 433.289 77.5805 434.454 77.3865 435.611C76.6109 440.238 74.4748 444.373 72.7184 448.621C71.6331 451.246 67.9911 451.821 65.6015 450.198C64.6135 449.527 64.1001 445.836 65.2408 444.744C66.7831 443.266 66.105 441.104 67.581 439.465C68.8126 438.098 69.6599 435.758 69.1321 433.422C69.0008 432.84 69.6767 432.068 70.0012 431.393C70.6991 429.942 71.925 428.525 72.0086 427.041C72.1871 423.873 73.2094 421.059 74.3475 418.181C76.0956 413.761 76.8029 409.077 77.6384 404.41C78.1478 401.565 79.2231 398.794 79.6702 395.904C79.9607 394.026 79.6753 392.137 81.4329 390.569C82.3301 389.768 82.3975 387.999 82.7601 386.646C83.3747 384.353 83.2802 381.513 84.6422 379.854C87.2583 376.667 87.7927 372.849 87.8634 369.371C87.9304 366.078 90.5754 364.48 90.9993 361.643C91.2413 360.023 92.6562 358.613 93.1954 356.993C93.6997 355.478 95.4032 354.573 94.9708 352.468C94.7667 351.474 95.6268 350.042 96.7255 348.912C98.1211 347.477 99.0378 345.344 99.5604 343.354C100.156 341.085 101.936 341.395 103.359 341.059C104.897 340.696 106.604 340.647 107.466 342.463C107.685 342.924 107.735 343.597 107.582 344.084C106.718 346.834 105.448 349.47 105.489 352.456C105.496 352.941 105.32 353.598 104.982 353.893C100.762 357.57 101.494 363.798 97.8005 367.794C97.1337 368.516 97.5133 370.147 97.2734 371.331C96.7162 374.081 94.3236 376.349 95.1314 379.465C92.8487 380.744 93.3138 383.308 92.4755 385.254C91.5586 387.383 90.8421 389.606 90.1656 391.827C89.5156 393.961 88.6391 395.964 88.5398 398.349C88.4457 400.611 86.526 402.544 86.2523 405.052C86.0442 406.958 85.3105 408.88 84.4476 410.698C84.0636 411.507 84.2477 412.591 84.1963 413.551C84.0999 415.352 84.3298 417.061 82.7812 418.677C81.8651 419.633 82.1035 421.639 81.6601 423.125C81.3821 424.057 80.8023 424.899 80.1109 425.9Z" fill="#858098"/>
<path d="M200.778 326.527C200.146 328.805 199.144 330.525 199.322 332.704C199.415 333.845 198.186 335.087 197.581 336.297C197.309 336.84 196.892 337.423 196.906 337.978C196.986 340.974 195.881 343.454 194.21 345.903C192.83 347.928 191.722 350.228 190.949 352.558C189.877 355.787 188.851 359.152 187.349 362.072C185.232 366.188 183.91 370.515 182.367 374.786C181.338 377.636 180.908 380.698 180.023 383.608C179.085 386.692 177.67 389.649 176.94 392.773C176.284 395.585 176.712 398.598 175.776 401.424C175.514 402.216 175.66 403.141 175.404 403.936C174.573 406.514 173.58 409.041 172.769 411.625C172.059 413.888 170.937 415.984 170.342 418.306C170.028 419.529 169.096 420.661 168.237 421.656C167.446 422.57 164.036 421.774 163.097 420.598C161.603 418.727 160.984 414.81 162.472 413.207C163.389 412.219 163.095 411.341 163.424 410.477C164.581 407.442 164.664 403.914 167.225 401.463C167.474 401.224 167.686 400.705 167.605 400.398C166.485 396.169 169.194 392.32 168.802 388.141C168.703 387.088 169.374 385.942 169.77 384.868C171.09 381.282 171.371 377.342 174.155 374.242C175.173 373.107 175.016 370.936 175.454 369.253C175.629 368.581 175.953 367.946 176.232 367.305C176.983 365.582 178.319 363.887 178.388 362.14C178.545 358.2 179.949 354.979 182.471 352.101C182.786 351.742 183.284 351.224 183.208 350.892C182.519 347.888 184.856 346.298 186.16 344.212C186.515 343.644 186.587 342.882 186.72 342.196C186.834 341.606 186.635 340.839 186.943 340.422C189.206 337.361 188.163 332.91 191.264 330.218C191.433 330.071 191.56 329.718 191.513 329.503C190.682 325.7 192.957 322.342 193.042 318.666C193.101 316.088 195.221 314.697 196.772 313.085C197.026 312.821 198.79 311.959 199.88 313.687C201.291 315.925 203.203 317.69 202.032 320.745C201.381 322.445 201.264 324.349 200.778 326.527Z" fill="#858098"/>
<path d="M154.502 214.314C153.771 215.58 153.305 216.629 152.532 217.348C151.222 218.568 147.742 218.953 146.925 218.166C145.854 217.133 145.157 213.389 146.323 212.191C147.524 210.957 146.614 209.456 147.527 208.3C148.349 207.26 149.092 206.079 149.537 204.84C149.981 203.601 151.09 202.39 150.188 200.86C150.061 200.645 150.347 200.112 150.545 199.789C153.945 194.222 154.353 187.632 156.704 181.679C158.373 177.456 159.062 172.8 159.797 168.274C160.212 165.723 161.502 163.282 160.968 160.564C160.903 160.23 161.534 159.804 161.717 159.369C162.488 157.531 163.329 155.71 163.922 153.813C164.629 151.549 164.454 148.662 165.83 147.03C168.34 144.054 168.692 140.49 168.823 137.262C168.969 133.646 171.474 131.572 172.468 128.633C172.738 127.831 173.413 127.159 173.646 126.353C174.414 123.697 176.133 121.399 176.448 118.558C176.534 117.786 177.093 116.854 177.725 116.396C179.278 115.27 179.746 113.625 180.332 111.987C181.536 108.623 184.458 107.457 187.511 109.293C188.139 109.671 188.708 110.932 188.576 111.653C188.06 114.476 187.254 117.245 186.553 120.034C186.522 120.159 186.448 120.275 186.43 120.401C186.028 123.176 181.641 124.056 182.978 127.657C181.38 129.807 181.051 132.66 179.055 134.621C178.559 135.108 178.416 136.03 178.273 136.783C178.048 137.972 178.089 139.22 177.786 140.382C177.266 142.373 175.894 144.131 176.168 146.345C176.192 146.534 176.24 146.855 176.155 146.904C173.107 148.67 174.179 152.168 172.914 154.709C171.544 157.463 170.42 160.46 169.902 163.474C169.542 165.565 169.363 167.426 167.894 169.133C167.315 169.805 167.838 171.318 167.459 172.293C166.598 174.508 167.696 177.377 165.196 179.067C164.993 179.204 165.224 179.975 165.243 180.452C165.323 182.386 165.726 184.32 163.838 185.862C163.325 186.281 163.498 187.638 163.496 188.565C163.491 190.952 161.273 192.394 161.108 194.9C160.968 197.016 159.173 198.969 158.612 201.125C158.113 203.037 157.628 205.022 157.298 206.905C156.838 209.529 155.222 211.508 154.502 214.314Z" fill="#858098"/>
<path d="M135.711 261.138C135.107 262.206 136.074 263.277 134.799 263.878C133.845 264.328 134.04 265.556 133.769 266.494C132.84 269.716 131.554 272.835 130.546 276.038C129.955 277.918 128.67 279.662 129.275 281.848C129.388 282.258 129.049 282.857 128.793 283.294C127.183 286.037 126.529 289.007 126.509 292.162C126.507 292.628 126.273 293.324 125.926 293.518C124.235 294.463 124.42 295.886 124.698 297.413C125.022 299.191 124.839 300.831 123.366 302.144C123.08 302.399 123.025 302.949 122.934 303.377C122.704 304.46 122.755 305.678 122.262 306.614C121.073 308.872 120.576 311.327 119.83 313.715C119.291 315.441 118.703 317.155 118.039 318.836C117.451 320.324 116.74 322.056 116.675 323.37C116.516 326.551 114.341 328.711 113.548 331.515C112.826 334.065 110.246 335.14 107.984 334.409C105.099 333.476 103.988 330.708 105.877 328.298C107.13 326.699 106.831 324.67 108.191 323.018C109.288 321.686 110.368 319.539 109.604 317.323C109.504 317.033 109.723 316.534 109.943 316.247C113.541 311.563 113.216 305.548 115.311 300.313C117.284 295.381 118.167 289.978 119.204 284.718C119.728 282.064 120.8 279.466 120.499 276.645C120.447 276.156 121.112 275.619 121.355 275.064C122.053 273.474 122.834 271.904 123.342 270.252C124.039 267.987 123.873 265.134 125.224 263.46C127.805 260.264 128.383 256.465 128.458 252.97C128.527 249.689 131.151 248.068 131.584 245.232C131.831 243.611 133.243 242.201 133.786 240.581C134.293 239.065 135.924 238.154 135.576 236.055C135.389 234.927 136.722 233.424 137.611 232.278C138.441 231.208 139.253 230.364 139.351 228.804C139.507 226.318 143.488 223.836 145.86 224.439C147.081 224.75 148.316 226.93 147.995 228.254C147.349 230.925 146.788 233.623 145.98 236.244C145.635 237.367 144.778 238.338 144.121 239.357C143.599 240.164 142.649 240.893 142.544 241.738C142.082 245.468 140.047 248.417 138.333 251.597C137.313 253.49 137.585 256.06 136.638 258.017C136.177 258.97 136.118 259.865 135.711 261.138Z" fill="#858098"/>
<path d="M134.833 485.628C137.981 481.821 137.287 476.875 139.121 472.821C139.77 471.387 140.673 470.063 141.507 468.718C141.819 468.216 142.66 467.712 142.584 467.352C141.951 464.352 144.242 462.738 145.54 460.643C145.895 460.068 146.003 459.322 146.14 458.638C146.258 458.05 146.037 457.275 146.343 456.864C148.628 453.805 147.567 449.342 150.669 446.643C150.838 446.496 150.966 446.141 150.918 445.927C149.997 441.831 152.393 438.259 152.826 434.359C153.013 432.672 154.521 430.96 155.807 429.624C156.794 428.598 158.081 428.418 159.27 430.131C160.79 432.323 162.14 434.067 161.56 437.202C161.026 440.09 160.017 442.758 159.3 445.544C158.839 447.333 158.511 449.16 158.22 450.985C157.962 452.598 155.629 453.246 156.508 455.547C156.971 456.761 155.397 458.116 155.064 459.627C154.643 461.541 153.381 463.272 152.466 465.075C151.63 466.725 150.56 468.292 149.975 470.025C148.969 473.007 148.08 476.17 146.634 478.818C144.901 481.992 143.912 485.34 142.672 488.63C141.983 490.458 142.243 492.725 141.311 494.359C140.073 496.532 140.021 498.947 139.1 501.144C138.301 503.047 137.617 505.011 137.062 506.998C136.566 508.774 136.13 510.605 135.99 512.436C135.476 519.142 133.739 525.455 130.415 531.326C130.171 531.758 130.486 532.491 130.268 532.957C129.447 534.708 128.726 536.573 127.556 538.074C126.568 539.341 122.754 538.092 122.202 536.23C121.48 533.794 120 531.477 122.63 528.732C124.115 527.183 123.821 524.012 124.586 521.656C125.029 520.29 124.989 518.589 126.662 517.745C127.077 517.536 127.485 516.368 127.273 516.009C125.457 512.936 128.057 510.276 128.045 507.333C128.033 504.424 129.7 501.544 130.013 498.587C130.337 495.519 131.8 493.29 133.493 490.912C134.45 489.568 134.496 487.576 134.833 485.628Z" fill="#858098"/>
<path d="M202.366 300.187C202.192 299.705 202.011 299.39 202.102 299.244C204.357 295.603 204.415 291.202 206.217 287.411C206.581 286.647 207.083 285.95 207.515 285.217C207.762 284.797 208.283 284.29 208.192 283.954C207.044 279.716 209.943 275.867 209.328 271.693C209.278 271.351 209.483 270.961 209.605 270.605C210.235 268.774 211.336 266.961 211.39 265.115C211.447 263.134 212.479 261.744 213.285 260.278C214.717 257.674 216.207 255.285 216.202 252.07C216.2 250.551 217.886 249.101 218.423 247.492C219.125 245.386 219.292 243.102 219.985 240.992C220.474 239.504 221.39 238.137 222.236 236.792C223.048 235.5 224.102 234.573 223.848 232.608C223.696 231.424 225.413 230.027 226.215 228.68C226.705 227.857 227.531 226.836 227.36 226.102C227.039 224.727 227.232 223.991 228.445 223.283C228.817 223.065 228.788 222.161 228.94 221.57C229.502 219.388 229.517 216.782 230.786 215.148C231.932 213.671 232.023 212.47 232.126 210.879C232.244 209.051 232.809 207.255 233.136 205.437C233.33 204.362 233.472 203.274 233.577 202.187C233.808 199.787 235.777 198.481 237.056 196.77C237.588 196.059 240.798 197.56 241.603 198.571C243.759 201.278 242.895 204.305 242.327 207.124C241.661 210.431 239.838 213.442 239.725 216.962C239.693 217.943 238.738 218.894 238.209 219.86C237.974 220.291 237.522 220.743 237.552 221.158C237.86 225.483 235.25 228.757 233.611 232.383C232.268 235.353 231.267 238.525 229.577 241.276C228.074 243.721 228.257 246.64 226.349 249.067C224.613 251.274 224.137 254.519 223.281 257.359C222.329 260.52 221.68 263.774 220.706 266.927C219.641 270.379 218.196 273.718 217.22 277.191C216.57 279.506 216.795 282.008 216.492 284.418C215.856 289.482 213.469 293.85 212.096 298.589C211.507 300.62 210.436 302.573 209.274 304.361C207.88 306.504 205.279 306.609 203.986 304.599C203.208 303.389 202.967 301.834 202.366 300.187Z" fill="#858098"/>
<path d="M271.724 71.2437C272.795 73.8113 270.832 75.7016 270.975 77.865C271.084 79.5285 270.548 81.2761 270.089 82.9276C268.73 87.808 266.944 92.597 265.99 97.5498C265.552 99.8279 264.513 101.308 263.465 103.166C262.079 105.623 260.023 107.629 258.95 110.243C258.803 110.601 258.805 111.144 258.548 111.314C254.796 113.795 253.861 117.884 252.442 121.726C252.074 122.72 251.254 123.539 250.707 124.477C248.618 128.055 245.846 131.433 244.666 135.294C243.245 139.946 241.04 144.498 241.039 149.543C238.695 151.13 239.733 154.919 236.653 156.112C234.589 156.912 232.792 156.231 232.26 154.004C232.012 152.967 231.752 151.818 231.953 150.811C232.612 147.512 233.256 144.173 234.41 141.035C234.743 140.13 234.97 138.995 235.346 138.383C237.396 135.048 236.865 130.806 239.609 127.671C241.185 125.871 241.901 123.28 242.856 120.983C243.614 119.157 245.534 117.748 244.878 115.369C244.765 114.959 245.046 114.281 245.369 113.936C248.211 110.9 249.757 107.007 252.217 103.729C252.781 102.977 253.664 102.466 254.393 101.835C254.846 101.442 255.638 101.062 255.675 100.624C256.04 96.3394 258.632 92.5568 258.454 88.1584C258.44 87.7983 258.708 87.4325 258.815 87.0607C260.086 82.6454 261.808 78.2974 262.488 73.7924C263.165 69.3099 265.049 65.3101 266.236 61.0511C267.146 57.7854 267.858 54.4595 268.887 51.2336C269.852 48.2093 272.478 47.8344 274.76 50.1054C276.545 51.882 277.105 53.6595 276.224 56.1863C274.899 59.9883 273.838 63.9048 273.015 67.8457C272.776 68.9937 270.85 69.3872 271.724 71.2437Z" fill="#858098"/>
<path d="M193.095 296.749C192.141 298.935 191.316 300.756 190.481 302.572C190.441 302.66 190.224 302.752 190.231 302.765C191.47 305.047 189.585 307.175 189.823 309.238C190.176 312.29 189.258 314.895 188.285 317.572C186.616 322.167 185.223 326.812 184.969 331.742C184.931 332.485 184.649 333.327 184.205 333.917C182.555 336.111 180.386 338.011 179.159 340.405C177.038 344.545 173.038 347.524 172.041 352.331C171.636 354.283 170.804 356.064 169.128 357.397C168.512 357.888 168.276 358.867 167.887 359.633C166.769 361.835 165.661 364.041 164.55 366.247C163.883 367.57 163.05 368.84 162.598 370.233C162.151 371.61 162.558 373.523 161.741 374.455C160.709 375.631 161.232 376.871 160.744 378.008C160.183 379.313 160.424 380.95 159.923 382.296C159.194 384.258 158.333 386.256 157.083 387.9C156.503 388.662 154.846 388.956 153.727 388.864C152.423 388.757 150.915 388.343 151.17 386.284C151.391 384.505 151.279 382.686 151.46 380.9C151.621 379.32 151.828 377.711 152.301 376.205C152.759 374.747 153.627 373.424 154.233 372.006C154.783 370.722 155.304 369.414 155.685 368.073C156.004 366.949 155.965 365.719 156.32 364.611C157.805 359.984 160.416 355.922 162.922 351.813C163.109 351.505 163.537 351.187 163.501 350.923C162.849 346.247 167.06 344.004 168.634 340.47C169.841 337.761 171.457 335.644 174.048 334.231C174.321 334.082 174.511 333.638 174.588 333.296C175.033 331.327 175.348 329.324 175.871 327.377C176.483 325.092 177.357 322.936 177.557 320.48C177.74 318.238 179.215 316.133 179.682 313.877C181.094 307.053 182.668 300.296 185.061 293.725C186.216 290.554 186.725 287.154 187.752 283.929C188.647 281.118 191.198 280.744 193.386 282.798C195.321 284.614 196.015 286.483 195 289.141C194.119 291.445 193.794 293.961 193.095 296.749Z" fill="#858098"/>
<path d="M303.665 428.056C302.711 430.242 301.886 432.062 301.051 433.878C301.011 433.966 300.794 434.058 300.801 434.071C302.039 436.354 300.154 438.482 300.393 440.545C300.746 443.597 299.828 446.202 298.855 448.879C297.186 453.474 295.792 458.119 295.539 463.049C295.5 463.791 295.219 464.633 294.775 465.223C293.125 467.417 290.955 469.318 289.729 471.712C287.607 475.852 283.608 478.831 282.611 483.638C282.206 485.589 281.374 487.371 279.698 488.704C279.081 489.195 278.846 490.173 278.457 490.94C277.339 493.141 276.231 495.348 275.119 497.553C274.452 498.877 273.62 500.146 273.168 501.54C272.721 502.916 273.128 504.829 272.31 505.761C271.279 506.938 271.802 508.178 271.314 509.314C270.753 510.62 270.994 512.257 270.493 513.603C269.763 515.564 268.903 517.563 267.653 519.206C267.073 519.969 265.416 520.263 264.296 520.171C262.993 520.064 261.485 519.649 261.74 517.59C261.961 515.811 261.849 513.993 262.03 512.206C262.191 510.626 262.397 509.018 262.871 507.512C263.329 506.054 264.197 504.73 264.803 503.313C265.352 502.029 265.874 500.72 266.255 499.379C266.573 498.256 266.535 497.026 266.89 495.918C268.375 491.291 270.986 487.229 273.492 483.12C273.679 482.812 274.107 482.494 274.071 482.23C273.419 477.553 277.629 475.311 279.204 471.777C280.411 469.067 282.027 466.95 284.618 465.538C284.891 465.389 285.08 464.944 285.158 464.603C285.603 462.633 285.918 460.631 286.44 458.683C287.053 456.399 287.926 454.243 288.127 451.787C288.309 449.545 289.785 447.44 290.252 445.184C291.664 438.36 293.238 431.602 295.631 425.032C296.785 421.861 297.295 418.46 298.322 415.235C299.217 412.425 301.768 412.05 303.956 414.104C305.89 415.921 306.585 417.79 305.57 420.447C304.689 422.751 304.363 425.267 303.665 428.056Z" fill="#858098"/>
<path d="M275.979 421.726C274.694 424.157 274.885 426.739 272.879 428.572C271.74 429.612 270.965 429.837 269.644 429.397C268.319 428.954 267.776 428.341 267.535 426.78C267.218 424.727 267.319 422.927 267.973 420.987C268.516 419.372 268.687 417.626 268.957 415.927C269.213 414.318 271.039 413.423 270.63 411.395C270.317 409.84 272.092 408.676 272.219 406.904C272.344 405.162 273.134 403.394 273.939 401.792C275.642 398.4 277.552 395.112 279.361 391.773C279.614 391.307 279.836 390.807 279.969 390.296C280.284 389.095 280.238 387.686 280.868 386.701C282.873 383.57 284.942 380.444 287.33 377.605C289.224 375.353 290.696 372.849 292.038 370.331C293.106 368.326 293.781 365.79 293.628 363.559C293.511 361.857 294.187 360.632 294.517 359.21C295.225 356.159 296.248 353.171 296.788 350.095C297.229 347.578 298.063 345.182 298.68 342.729C299.38 339.949 299.772 337.037 301.388 334.493C301.908 333.676 301.637 332.368 301.77 331.29C301.933 329.962 301.71 328.284 302.436 327.401C303.384 326.247 303.661 325.382 303.648 323.893C303.636 322.412 308.093 321.648 309.472 322.765C311.522 324.425 312.198 326.897 311.471 329.408C310.493 332.788 310.07 336.406 308.605 339.547C306.921 343.156 306.812 346.855 306.473 350.609C306.45 350.856 306.337 351.095 306.27 351.338C305.231 355.103 304.115 358.849 303.174 362.639C302.249 366.367 301.511 370.141 300.66 373.888C300.564 374.309 300.367 374.801 300.053 375.062C298.78 376.115 298.178 377.553 297.367 378.933C295.984 381.285 294.087 383.336 292.375 385.489C290.633 387.681 288.924 389.821 288.458 392.769C288.262 394.009 287.827 395.274 286.604 396.359C285.315 397.504 284.81 399.534 283.965 401.178C283.007 403.042 282.042 404.903 281.098 406.775C280.262 408.433 278.948 410.052 278.769 411.784C278.585 413.562 276.878 414.652 277.116 416.276C277.394 418.167 276.624 419.706 275.979 421.726Z" fill="#858098"/>
<path d="M248.9 491.733C249.285 490.521 251.149 490.334 250.36 488.499C249.895 487.418 251.731 486.225 251.837 484.423C252.025 481.231 253.342 478.111 254.128 474.947C254.939 471.685 255.647 468.398 256.474 465.141C256.711 464.206 257.318 463.365 257.554 462.43C257.789 461.505 257.482 460.353 257.916 459.584C259.243 457.233 258.61 454.408 260.332 452.022C261.876 449.882 261.84 446.9 261.588 444.159C263.871 443.061 262.015 439.258 265.347 438.652C267.278 438.302 269.087 438.635 270.088 440.414C271.179 442.355 271.377 444.133 270.811 446.521C270.026 449.84 269.475 453.281 267.929 456.258C266.131 459.719 266.354 463.359 265.849 466.952C265.797 467.322 265.678 467.683 265.576 468.044C264.411 472.175 263.212 476.296 262.089 480.439C261.371 483.089 260.431 485.74 260.197 488.444C259.93 491.539 257.66 493.451 256.386 495.885C254.812 498.891 251.968 501.203 250.035 504.06C249.053 505.512 247.79 506.958 247.849 509.118C247.881 510.269 246.643 511.449 245.991 512.624C244.448 515.405 242.925 518.199 241.366 520.972C240.773 522.028 240.037 523.008 239.491 524.086C239.006 525.042 238.537 525.945 238.31 527.108C237.229 532.634 235.712 538.077 233.512 543.269C232.997 544.484 231.662 545.746 230.437 546.126C229.609 546.384 227.751 545.39 227.353 544.506C226.7 543.055 226.142 540.825 226.815 539.655C228.587 536.577 226.867 532.437 230.031 529.931C230.116 529.864 230.185 529.675 230.155 529.575C229.03 525.856 231.739 523.098 232.828 520.033C234.298 515.895 236.772 512.115 238.8 508.172C239.042 507.702 239.317 507.19 239.352 506.682C239.475 504.909 240.021 503.509 241.225 502.022C243.417 499.315 245.039 496.151 246.975 493.228C247.357 492.652 248.085 492.305 248.9 491.733Z" fill="#858098"/>
<path d="M140.307 426.36C140.917 422.842 141.524 419.538 142.405 416.309C143.807 411.172 145.345 406.069 146.919 400.981C147.709 398.429 149.014 397.571 150.824 397.768C152.986 398.003 155.561 401.129 155.099 402.978C153.8 408.177 153.416 413.726 150.106 418.279C149.964 418.474 149.666 418.744 149.717 418.86C150.792 421.341 149.027 423.694 149.372 426.057C149.661 428.035 149.154 429.706 148.601 431.498C147.067 436.463 145.055 441.383 144.362 446.475C143.764 450.865 140.557 453.246 138.765 456.654C136.611 460.75 132.558 463.643 131.523 468.472C131.087 470.505 130.443 472.561 128.443 473.873C127.818 474.282 127.668 475.388 127.251 476.147C126.015 478.399 124.737 480.628 123.512 482.885C123.095 483.654 122.543 484.46 122.471 485.286C122.084 489.707 119.619 493.571 119.363 498.115C119.243 500.247 117.24 502.417 115.735 504.284C114.225 506.156 112.472 505.874 111.4 503.885C110.755 502.687 110.345 501.57 110.603 499.968C111.181 496.378 111.824 492.881 113.374 489.553C113.856 488.518 113.376 486.869 114.037 486.119C115.371 484.608 115.076 482.785 115.647 481.158C116.884 477.63 118.982 474.54 120.587 471.223C121.523 469.288 123.154 467.508 123.082 464.944C123.046 463.687 124.332 462.355 125.123 461.123C126.163 459.506 127.723 458.09 128.295 456.339C128.965 454.29 130.445 453.084 131.732 451.664C132.806 450.478 133.949 449.761 134.145 447.698C134.283 446.24 135.376 444.623 135.712 442.811C136.444 438.857 137.708 434.995 138.88 431.134C139.341 429.614 138.665 427.682 140.307 426.36Z" fill="#858098"/>
<path d="M225.637 212.839C225.825 217.57 222.201 219.913 220.388 223.185C218.036 227.43 214.124 230.704 212.763 235.575C212.196 237.606 211.524 239.578 209.707 241.005C209.004 241.557 208.79 242.725 208.338 243.605C207.27 245.687 206.18 247.757 205.124 249.845C204.396 251.283 203.089 252.768 203.148 254.186C203.243 256.493 202.206 258.324 201.669 260.359C201.217 262.069 200.768 263.786 200.189 265.456C199.654 267 198.998 268.508 198.297 269.985C197.94 270.736 197.518 271.612 196.867 272.041C194.56 273.559 192.018 273.137 191.756 269.497C191.613 267.508 191.636 265.642 192.249 263.717C192.766 262.091 192.405 259.94 193.349 258.747C195.121 256.507 193.99 253.226 196.514 251.318C197.1 250.875 196.536 249.142 196.939 248.187C198.807 243.758 200.817 239.387 203.531 235.388C203.734 235.089 204.096 234.79 204.106 234.483C204.273 228.806 208.81 225.473 211.321 221.063C211.952 219.954 213.066 219.115 213.979 218.173C214.313 217.828 215.072 217.437 215.017 217.246C214.413 215.154 216.551 214.04 216.731 212.346C217.247 207.472 218.75 202.865 219.986 198.161C221.884 190.937 223.57 183.676 225.773 176.518C226.718 173.448 227.454 170.222 228.47 167.125C229.067 165.306 231.821 164.467 233.396 165.453C235.223 166.596 236.385 169.911 235.784 171.996C234.667 175.871 233.627 179.767 232.524 183.646C232.004 185.474 230.811 186.963 231.259 189.241C231.633 191.146 230.642 193.312 230.305 195.371C230.209 195.953 230.436 196.613 230.259 197.153C228.598 202.213 226.5 207.142 225.637 212.839Z" fill="#858098"/>
<path d="M272.298 154.382C273.969 152.047 274.632 149.947 274.956 147.334C275.389 143.843 276.92 140.385 278.561 137.213C279.044 136.278 278.867 135.483 279.038 134.73C279.841 131.181 282.677 128.899 284.177 125.819C284.602 124.947 285.538 124.095 285.496 123.272C285.408 121.559 286.167 121.279 287.589 121.085C291.646 120.531 294.396 123.42 293.192 127.28C292.766 128.648 291.791 129.842 291.085 131.125C290.298 132.559 289.452 133.967 288.772 135.451C287.361 138.53 286.022 141.644 284.692 144.759C283.059 148.586 281.364 152.391 279.902 156.283C279.308 157.865 278.095 159.396 278.843 161.36C278.978 161.713 278.202 162.349 277.992 162.909C277.264 164.859 276.585 166.827 275.913 168.797C274.509 172.91 273.313 177.112 271.578 181.079C271.192 181.961 271.405 182.608 271.193 183.263C269.561 188.296 268.194 193.483 265.9 198.212C263.839 202.462 261.936 206.782 259.981 211.075C259.449 212.243 259.37 213.705 259.402 215.024C259.475 218.024 259.071 220.924 257.959 223.696C257.419 225.043 254.353 226.8 253.253 226.574C249.548 225.814 248.537 224.997 248.294 222.556C248.247 222.081 248.016 221.363 248.237 221.164C250.82 218.835 251.274 215.592 251.011 212.608C250.814 210.371 253.693 209.249 252.361 207.028C255.03 205.63 252.855 201.992 255.373 200.49C255.628 200.338 255.612 199.771 255.778 199.424C256.74 197.411 257.451 195.207 258.757 193.446C260.657 190.886 259.777 187.21 262.423 185.057C262.621 178.19 267.061 172.517 267.842 165.771C268.068 163.818 269.292 161.905 270.345 160.145C271.29 158.565 272.236 157.147 271.251 155.263C271.247 155.254 271.85 154.927 272.298 154.382Z" fill="#858098"/>
<path d="M251.273 238.818C253.231 241.331 253.684 244.602 251.405 246.742C249.777 248.272 249.507 250.238 248.34 251.849C246.542 254.332 245.618 257.46 244.394 260.344C242.618 264.534 240.622 268.661 239.252 272.984C238.103 276.612 236.259 280.028 235.525 283.716C234.795 287.379 233.375 290.806 232.604 294.405C232.172 296.42 230.269 297.583 230.387 300.009C230.487 302.042 229.178 304.175 228.373 306.217C226.42 311.17 224.431 316.111 222.377 321.024C221.864 322.248 221.03 323.335 220.374 324.503C218.337 328.132 219.258 332.254 218.435 336.076C218.055 337.836 217.346 339.614 216.384 341.128C215.779 342.081 214.409 343.149 213.417 343.116C211.815 343.062 210.191 342.253 208.671 341.556C207.5 341.02 207.139 338.546 207.954 337.38C209.485 335.188 210.108 332.858 210.36 330.122C210.621 327.289 211.138 324.228 213.09 321.799C213.243 321.609 213.378 321.298 213.338 321.077C212.75 317.802 215.512 315.725 216.269 312.914C216.672 311.418 217.421 309.736 218.555 308.774C220.909 306.776 219.003 303.069 221.84 301.446C222.016 294.573 226.56 288.918 227.221 282.142C227.375 280.568 228.724 279.142 229.31 277.569C230.016 275.673 232.066 274.035 230.631 271.626C230.55 271.49 230.926 270.959 231.197 270.756C233.705 268.875 234.042 266.252 234.466 263.318C234.938 260.055 236.246 256.801 237.81 253.874C238.293 252.97 238.243 252.216 238.399 251.451C239.152 247.77 241.957 245.302 243.661 242.195C244.01 241.557 244.568 240.995 244.767 240.32C245.767 236.931 246.324 236.576 249.597 237.639C250.158 237.821 250.637 238.254 251.273 238.818Z" fill="#858098"/>
<path d="M208.495 353.853C211.652 355.119 212.933 357.098 212.145 359.684C211.691 361.175 211.166 362.614 210.046 364.005C208.052 366.48 206.623 369.491 205.35 372.446C202.937 378.047 200.753 383.748 198.58 389.447C197.9 391.229 197.663 393.176 197.035 394.982C196.417 396.757 194.807 398.533 194.991 400.155C195.238 402.334 193.593 403.524 193.425 405.388C193.256 407.245 192.678 409.163 191.851 410.844C189.867 414.873 189.227 419.333 187.524 423.441C185.583 428.122 183.733 432.841 181.762 437.51C181.195 438.852 180.335 440.069 179.63 441.354C177.695 444.883 178.482 448.829 177.92 452.569C177.562 454.949 176.982 457.079 174.541 458.453C171.651 460.08 167.4 458.482 167.093 455.322C167.036 454.731 166.899 453.821 167.21 453.572C169.963 451.369 170.057 448.19 169.953 445.225C169.877 443.034 171.486 441.826 171.882 439.982C172.869 435.381 174.516 431.086 177.059 427.012C178.224 425.145 179.24 422.91 179.815 420.452C180.478 417.622 181.594 414.701 182.46 411.826C183.809 407.342 186.544 403.256 186.449 398.349C188.993 396.829 187.898 393.318 190.133 391.582C190.431 391.351 190.26 390.533 190.33 389.99C190.53 388.437 190.499 386.974 192.014 385.719C193.048 384.862 193.697 383.069 193.799 381.643C194.112 377.26 195.682 373.388 197.796 369.638C198.088 369.119 197.808 368.309 197.946 367.666C198.695 364.174 201.088 361.579 202.916 358.674C203.434 357.851 204.142 357.056 204.36 356.152C204.972 353.617 205.306 353.324 208.495 353.853Z" fill="#858098"/>
<path d="M139.244 557.172C137.178 560.82 137.861 564.51 137.496 568.034C137.171 571.164 136.546 573.941 133 575.162C130.07 576.17 126.404 574.202 126.242 571.136C126.213 570.599 126.629 569.951 127.009 569.496C128.546 567.659 129.544 565.769 129.141 563.184C128.934 561.855 129.155 560.134 129.884 559.072C130.716 557.858 130.553 556.487 131.002 555.534C132.531 552.291 133.211 548.713 135.06 545.627C135.683 544.586 136.418 543.602 136.941 542.515C137.914 540.49 138.668 538.391 139.372 536.242C140.346 533.267 141.033 530.173 142.241 527.251C143.522 524.152 144.534 520.937 145.587 517.748C146.711 514.344 147.37 510.757 149.79 507.893C150.018 507.624 149.753 506.973 149.794 506.506C149.928 504.95 149.882 503.486 151.325 502.196C152.348 501.282 153.013 499.585 153.176 498.162C153.685 493.731 154.897 489.638 157.429 485.914C157.894 485.23 157.507 484.019 157.705 483.092C158.371 479.978 160.733 477.802 162.234 475.145C162.647 474.414 163.407 473.808 163.606 473.04C164.338 470.221 164.303 470.333 166.688 469.808C168.967 469.306 169.996 470.886 170.928 472.256C172.557 474.65 171.8 477.482 170.308 479.302C168.998 480.899 168.212 482.68 167.219 484.36C165.829 486.709 164.777 489.268 163.701 491.789C161.864 496.093 160.032 500.405 158.385 504.784C157.789 506.368 156.547 507.916 157.356 509.855C157.468 510.122 157.232 510.665 156.991 510.925C154.934 513.144 155.013 516.117 154.046 518.661C152.608 522.445 152.556 526.776 149.648 530.133C148.55 531.4 148.816 533.783 148.137 535.664C146.649 539.779 146.108 544.233 143.343 547.869C142.897 548.456 142.86 549.337 142.54 550.04C141.508 552.306 140.431 554.552 139.244 557.172Z" fill="#858098"/>
<path d="M152.31 124.041C153.325 122.054 153.066 119.882 154.942 118.693C155.285 118.475 155.147 117.536 155.279 116.94C155.542 115.747 155.502 114.295 156.188 113.424C157.896 111.261 158.769 108.982 158.67 106.228C158.64 105.387 159.147 104.526 159.412 103.675C160.615 99.8092 162.335 96.1361 163.519 92.2454C164.198 90.0122 165.98 88.1131 167.274 86.0691C167.79 85.254 168.53 84.5194 168.821 83.6342C169.686 81.0028 171.098 79.8279 173.148 80.4046C176.426 81.3268 177.581 83.6429 176.91 86.1381C176.174 88.877 174.883 91.5523 173.38 93.9736C172.079 96.0691 171.459 98.6124 170.173 100.4C167.606 103.968 167.55 108.426 164.945 111.98C163.477 113.983 162.138 116.854 162.745 119.859C162.811 120.187 162.629 120.657 162.407 120.938C158.655 125.701 159.362 131.986 156.85 137.207C155.845 139.297 154.609 141.333 154.307 143.861C154.007 146.365 152.805 148.783 151.86 151.184C150.051 155.775 148.179 160.343 146.253 164.886C145.734 166.108 144.941 167.217 144.244 168.359C142.379 171.413 143.472 174.897 142.793 178.118C142.406 179.954 142.094 181.857 141.345 183.552C140.533 185.386 138.03 186.443 136.389 185.782C134.477 185.011 131.405 185.286 131.884 181.875C132.052 180.682 132.533 179.113 133.411 178.532C135.074 177.432 134.594 175.879 134.57 174.651C134.526 172.366 135.103 170.397 135.984 168.332C137.297 165.251 138.168 161.984 139.386 158.858C140.053 157.145 141.076 155.574 141.886 153.914C142.986 151.657 145.058 149.732 144.359 146.843C146.731 144.342 146.056 140.804 147.4 137.911C148.753 134.997 149.589 131.845 150.652 128.797C151.162 127.334 151.672 125.871 152.31 124.041Z" fill="#858098"/>
<path d="M129.233 197.291C130.555 196.931 131.822 196.681 132.931 196.992C136.025 197.858 137.113 200.271 136.18 203.334C135.336 206.104 133.487 208.31 132.249 210.832C131.29 212.785 129.419 214.459 129.764 216.962C126.567 220.074 126.95 224.849 124.35 228.404C122.886 230.407 121.536 233.274 122.157 236.28C122.225 236.607 122.045 237.092 121.812 237.358C118.109 241.592 118.968 247.375 116.8 252.174C115.742 254.516 114.425 256.823 113.983 259.542C113.535 262.302 112.303 264.954 111.267 267.596C109.467 272.189 107.589 276.754 105.663 281.295C105.145 282.517 104.355 283.627 103.654 284.767C101.778 287.818 102.779 291.286 102.24 294.532C101.832 296.989 101.902 299.59 99.2439 300.979C98.3245 301.459 97.3099 302.541 96.5491 302.376C95.0312 302.048 93.5217 301.228 92.2629 300.276C90.858 299.213 90.989 298.167 91.9602 296.557C93.1656 294.558 94.354 292.612 94.0267 289.999C93.8236 288.378 94.4982 286.728 95.239 285.116C96.5266 282.314 97.2912 279.276 98.3942 276.383C99.1885 274.299 99.9607 272.247 101.132 270.255C102.404 268.091 104.845 266.028 103.888 262.914C106.656 258.389 106.068 252.513 109.751 248.358C109.102 245.362 111.021 242.997 111.821 240.38C112.504 238.149 114.609 236.094 114.594 233.972C114.574 231.289 116.18 229.713 116.938 227.603C118.166 224.183 118.812 220.558 119.925 217.091C120.36 215.734 120.226 213.934 122.013 213.207C122.25 213.111 122.45 212.48 122.385 212.152C121.574 208.031 124.7 205.607 126.61 202.767C127.615 201.274 128.866 200.158 128.189 198.178C128.168 198.116 128.785 197.836 129.233 197.291Z" fill="#858098"/>
<path d="M202.507 512.92C201.548 515.023 200.939 516.914 199.041 518.351C196.763 520.075 196.346 523.063 195.403 525.639C194.567 527.921 191.519 529.8 189.24 529.439C188.009 529.245 186.656 527.294 187.125 525.947C188.577 521.779 188.797 517.164 192.618 513.878C194.353 512.386 194.566 509.151 196.277 507.596C198.091 505.949 199.32 504.226 200.417 502.115C201.252 500.509 200.148 498.589 201.945 497.077C203.239 495.987 202.75 493.394 204.579 492.256C203.97 487.816 207.499 484.356 207.377 479.902C207.304 477.254 208.557 474.569 209.213 471.901C210.527 466.564 211.863 461.233 213.139 455.887C213.508 454.34 213.803 452.759 213.945 451.177C214.084 449.639 214.525 448.176 215.462 447.061C217.313 444.857 217.331 442.123 218.011 439.579C218.721 436.925 219.954 434.485 220.148 431.587C220.293 429.412 220.858 426.778 223.823 425.831C225.689 425.235 226.986 425.745 228.225 426.895C229.513 428.09 230.76 429.29 229.952 431.406C229.576 432.391 230.008 433.781 229.472 434.589C228.517 436.029 229.834 437.822 228.163 439.312C227.3 440.081 228.431 442.628 226.481 443.732C226.175 443.905 226.305 444.874 226.26 445.477C226.129 447.236 225.506 448.618 224.381 450.135C222.509 452.658 220.032 455.137 219.737 458.427C219.307 463.231 217.016 467.586 216.992 472.552C216.98 474.973 216.316 477.57 216.062 480.131C215.814 482.631 214.307 484.98 213.702 487.479C213.256 489.32 212.488 490.987 211.867 492.735C211.211 494.581 211.131 496.623 210.581 498.516C209.314 502.88 206.877 506.638 204.23 510.276C203.659 511.06 203.242 511.956 202.507 512.92Z" fill="#858098"/>
<path d="M241.683 383.49C241.756 382.542 241.451 381.814 241.69 381.402C242.716 379.633 244.675 378.04 244.872 376.229C245.308 372.216 247.166 368.737 248.114 364.952C248.603 362.999 248.795 360.98 249.358 359.024C249.939 357.008 250.488 354.941 250.679 352.862C251.291 346.229 254.054 340.024 254.403 333.318C254.481 331.826 256.013 330.404 256.896 328.961C257.208 328.45 257.774 328.019 257.895 327.478C258.754 323.623 259.489 319.74 260.352 315.886C260.632 314.635 261.155 313.435 261.61 312.227C262.468 309.948 264.935 308.775 267.307 309.486C269.789 310.231 271.072 312.756 270.4 315.341C270.16 316.26 270.504 317.419 270.072 318.18C269.188 319.738 270.051 321.577 268.674 323.24C267.904 324.17 268.745 326.552 267.042 327.712C266.945 327.778 266.793 327.891 266.802 327.965C267.404 332.744 263.313 335.156 261.482 338.709C260.652 340.32 260.545 342.306 260.122 344.124C260.069 344.354 260.177 344.647 260.074 344.835C257.646 349.252 258.305 354.381 256.789 359.004C256.668 359.372 256.338 359.804 256.437 360.091C257.742 363.857 255.374 366.906 254.509 370.241C253.647 373.563 252.747 376.874 251.866 380.191C250.27 386.203 246.505 391.076 243.503 396.365C240.788 401.148 236.364 404.971 235.416 410.767C235.227 411.917 231.094 413.437 229.819 413.022C227.972 412.421 227.403 410.752 228.038 408.409C228.452 406.879 228.389 405.195 228.946 403.736C229.497 402.296 230.453 400.968 231.424 399.743C232.644 398.202 233.623 396.572 234.57 394.845C235.45 393.24 236.217 391.459 238.061 390.284C240.203 388.919 240.799 386.236 241.683 383.49Z" fill="#858098"/>
<path d="M182.079 170.553C182.522 168.495 182.623 166.724 183.209 165.133C183.93 163.175 184.66 161.246 184.785 159.158C185.023 155.152 187.055 152.52 190.112 152.365C192.988 152.219 195.385 155.264 194.68 158.045C194.416 159.086 194.75 160.365 194.277 161.248C193.432 162.823 193.656 164.605 192.892 166.28C192.225 167.743 192.545 169.742 190.979 171.094C190.655 171.373 190.932 172.271 190.78 172.843C190.467 174.017 190.338 175.398 189.621 176.275C187.746 178.571 186.811 181.308 185.425 183.795C184.076 186.216 184.449 188.802 183.287 191.193C182.116 193.601 182.344 196.67 181.849 199.43C181.024 204.031 180.492 208.74 179.05 213.147C178.472 214.914 179.386 217.572 176.839 218.662C176.563 218.78 176.545 219.577 176.465 220.068C175.679 224.901 174.598 229.525 171.21 233.439C169.252 235.701 168.038 238.604 166.47 241.207C165.909 242.137 165.309 243.045 164.697 243.942C162.743 246.803 160.721 249.579 159.819 253.057C159.107 255.807 154.777 257.165 152.543 255.431C151.963 254.981 151.542 253.595 151.797 252.923C153.311 248.928 153.271 244.257 157.126 241.207C157.895 240.599 158.478 239.017 158.945 237.72C159.489 236.209 160.272 234.458 162.015 233.404C163.153 232.716 163.999 231.278 164.58 229.997C165.664 227.61 166.346 225.049 167.162 222.556C167.822 220.544 169.557 219.132 169.48 216.592C169.415 214.422 170.673 212.128 171.654 210.034C172.565 208.089 172.272 205.788 173.652 204.003C173.86 203.735 173.448 203.061 173.529 202.612C173.921 200.427 174.344 198.246 174.831 196.081C175.432 193.406 176.734 190.855 176.19 187.989C176.19 187.984 179.372 175.82 179.374 175.816C180.233 174.184 181.092 172.551 182.079 170.553Z" fill="#858098"/>
<path d="M125.014 343.632C126.321 340.787 126.556 337.976 128.46 335.687C129.42 334.533 129.095 332.371 129.548 330.719C130.06 328.856 130.582 326.94 131.493 325.26C132.35 323.68 131.601 321.639 133.132 320.349C131.98 316.271 135.116 312.773 134.698 308.794C137.223 306.296 135.369 302.737 136.878 299.898C137.708 298.337 137.738 296.328 138.023 294.504C138.411 292.01 139.236 289.757 141.124 287.989C141.207 287.91 141.224 287.753 141.255 287.628C142.249 283.63 143.235 279.63 144.237 275.635C144.664 273.932 144.965 272.174 145.619 270.56C146.23 269.053 149.487 268.299 151.255 269.022C153.217 269.824 154.562 272.195 154.235 274.012C153.848 276.165 153.651 278.353 153.264 280.507C153.077 281.546 152.842 282.669 152.286 283.532C150.331 286.565 150.986 290.525 148.382 293.423C146.832 295.148 146.153 297.768 144.982 299.726C143.142 302.803 144.276 306.555 141.93 309.248C142.145 313.645 139.588 317.743 140.524 322.231C140.616 322.671 140.339 323.206 140.177 323.678C139.147 326.69 138.776 329.995 137.61 332.822C135.705 337.441 135.07 342.429 132.908 346.916C132.741 347.263 132.757 347.835 132.503 347.982C129.338 349.812 129.541 354.157 126.458 356.025C124.701 361.212 119.742 364.71 118.91 370.417C118.743 371.558 114.417 372.862 113.164 372.347C111.572 371.693 111.046 370.018 111.583 367.944C111.98 366.408 111.942 364.736 112.487 363.268C113.026 361.814 113.837 360.33 114.914 359.238C116.567 357.561 117.644 355.783 118.516 353.547C119.027 352.234 119.986 350.373 122 349.49C123.983 348.62 124.148 345.976 125.014 343.632Z" fill="#858098"/>
<path d="M231.225 56.0961C231.995 58.8303 229.812 60.1704 228.88 61.9349C226.712 66.0385 225.419 68.98 224.882 73.2199C224.852 73.4603 224.912 73.8422 224.785 73.9209C222.584 75.2756 222.982 77.5491 222.872 79.558C222.688 82.949 220.567 86.1146 221.741 89.6718C221.869 90.0613 221.405 90.6251 221.277 91.1238C220.551 93.9519 219.845 96.7853 219.127 99.6154C219.064 99.8649 219.001 100.129 218.869 100.344C216.91 103.541 216.81 107.376 215.283 110.731C214.263 112.972 213.543 115.18 211.742 117.18C210.053 119.055 208.82 121.623 207.527 123.929C206.383 125.97 205.034 127.799 203.787 129.735C202.382 131.915 201.436 134.409 200.431 136.825C199.275 139.604 195.131 140.953 192.993 138.952C192.407 138.404 192.261 136.846 192.564 135.979C193.934 132.07 193.914 127.447 197.958 124.829C197.682 123.315 199.802 122.877 199.494 121.059C199.352 120.221 200.928 118.982 201.88 118.091C204.507 115.633 206.221 112.801 206.332 109.083C206.352 108.409 207.039 107.723 207.497 107.101C209.537 104.338 209.747 100.951 210.742 97.8279C211.762 94.6289 212.998 91.4988 214.006 88.2967C214.365 87.1597 214.343 85.901 214.475 84.6957C214.594 83.6155 214.644 82.5265 214.798 81.4519C215.06 79.6197 216.266 78.1211 216.049 75.9914C215.903 74.5539 217.684 73.0368 216.776 71.1526C216.617 70.8231 217.111 70.2094 217.233 69.7096C217.969 66.683 218.684 63.6514 219.407 60.6215C219.492 60.2643 219.531 59.8878 219.669 59.5525C220.805 56.7988 222.744 54.592 223.098 51.236C223.487 47.5498 225.504 44.0238 225.933 40.1598C226.215 37.6161 228.043 36.4395 230.407 36.1357C231.158 36.0392 232.277 36.136 232.697 36.6121C234.23 38.3486 236.108 40.0373 234.868 42.859C234.505 43.6859 234.726 44.7608 234.632 45.7174C234.514 46.9239 234.785 48.6466 234.107 49.2179C232.806 50.3132 233.893 51.7344 233.036 52.7709C232.271 53.6962 231.74 54.8155 231.225 56.0961Z" fill="#858098"/>
<path d="M288.664 248.16C289.058 246.049 289.691 244.208 290.056 242.315C290.587 239.562 290.802 236.746 291.377 234.004C292.019 230.94 292.94 227.935 293.688 224.892C294.221 222.723 295.095 220.522 295.038 218.356C294.98 216.142 296.52 214.978 297.217 213.298C297.589 212.402 298.593 211.566 298.556 210.737C298.424 207.815 299.897 205.384 300.59 202.724C301.152 200.563 301.45 198.328 302.098 196.197C302.867 193.668 305.054 192.468 307.531 192.945C309.193 193.264 311.613 196.462 311.165 198.182C310.572 200.463 309.983 202.688 310.469 205.055C308.142 206.614 310.214 210.238 307.396 211.623C307.108 211.765 306.932 212.604 307.049 213.023C307.606 215.015 306.364 216.167 305.34 217.597C303.787 219.766 301.775 222.059 301.396 224.521C300.624 229.528 298.609 234.174 298.119 239.336C297.699 243.759 297.983 248.674 295.449 252.8C294.425 254.467 294.811 256.471 293.856 258.227C293.019 259.766 293.019 261.743 292.543 263.497C290.882 269.615 287.115 274.629 284.024 280.024C281.35 284.693 277.08 288.437 276.049 294.111C275.626 296.442 270.692 297.66 268.874 295.977C268.279 295.427 268.075 293.892 268.369 293.042C269.725 289.123 269.69 284.53 273.69 281.801C274.298 281.386 274.304 280.159 274.718 279.376C275.791 277.344 276.555 275.13 278.785 273.861C279.647 273.37 280.362 272.301 280.742 271.337C282.286 267.417 282.856 263.142 285.579 259.64C286.368 258.625 285.982 256.767 286.391 255.371C287.081 253.018 287.975 250.725 288.664 248.16Z" fill="#858098"/>
<path d="M97.3561 411.178C98.1633 408.603 98.5124 406.282 100.302 404.517C100.855 403.972 100.985 402.938 101.175 402.098C101.443 400.907 101.347 399.58 101.833 398.503C102.857 396.234 103.228 393.924 103.587 391.473C103.898 389.344 104.078 386.622 106.96 385.443C108.924 384.639 110.404 384.911 111.757 386.225C113.082 387.513 114.46 388.829 113.453 391.093C113.034 392.035 113.147 393.232 113.1 394.317C113.014 396.288 111.36 401.392 110.119 403.51C109.905 403.875 109.815 404.364 109.815 404.797C109.816 406.6 109.318 408.048 107.995 409.466C105.59 412.045 103.703 415.432 103.236 418.632C102.634 422.746 99.8051 426.476 101.029 430.919C101.228 431.641 100.546 432.609 100.26 433.459C100.014 434.195 99.5844 434.912 99.5312 435.659C99.4211 437.205 99.7249 438.804 99.454 440.309C99.1601 441.942 98.3104 443.467 97.8834 445.086C97.533 446.416 97.8505 448.081 97.1599 449.128C95.6944 451.349 95.7325 453.946 94.8003 456.274C93.7927 458.791 93.5281 461.803 91.9604 463.849C89.8927 466.547 87.9268 469.344 86.418 472.285C84.0641 476.872 79.6009 480.209 78.7191 485.658C78.4653 487.226 74.7956 489.239 73.3068 489.016C71.5633 488.755 70.1463 486.821 70.8119 485.11C71.9557 482.17 71.8166 478.796 73.8698 476.179C75.0516 474.673 76.6129 473.321 77.3166 471.617C78.4014 468.989 79.8896 466.855 82.0775 465.087C82.6987 464.585 83.1437 463.711 83.3817 462.921C83.8452 461.383 83.9717 459.737 84.4896 458.222C84.9474 456.883 85.5055 455.434 86.4445 454.432C88.667 452.06 88.1444 448.886 89.2192 446.196C90.3688 443.318 91.8317 440.412 92.1787 437.406C92.6442 433.373 93.724 429.48 94.2411 425.477C94.3273 424.81 94.7637 424.181 95.0735 423.551C95.272 423.148 95.8154 422.69 95.7267 422.404C94.525 418.533 97.2953 415.234 97.3561 411.178Z" fill="#858098"/>
</svg>
