<svg width="615" height="19617" viewBox="0 0 615 19617" fill="none" xmlns="http://www.w3.org/2000/svg">
<path d="M142.572 1565.25C143.415 1563.61 144.302 1562.41 144.814 1561.06C146.182 1557.45 147.472 1553.81 148.626 1550.13C149.289 1548.01 149.403 1545.72 150.162 1543.65C151.411 1540.24 153.119 1537 154.368 1533.6C155.127 1531.53 155.395 1529.28 155.869 1527.11C156.343 1524.93 157.039 1522.81 157.529 1520.64C158.553 1516.12 160.723 1511.85 162.438 1507.48C162.567 1507.15 163.042 1506.84 162.996 1506.59C161.977 1501.04 164.552 1496.02 165.344 1490.75C166.129 1485.53 167.413 1480.38 168.488 1475.2C168.524 1475.03 168.635 1474.85 168.765 1474.73C170.503 1473.14 174.7 1472.27 176.499 1473.34C177.177 1473.74 177.728 1474.76 177.864 1475.57C178.036 1476.61 177.852 1477.75 177.598 1478.79C176.796 1482.07 175.658 1485.28 175.096 1488.6C174.608 1491.47 174.199 1494.5 173.391 1497.16C172.563 1499.88 172.351 1502.67 171.817 1505.36C171.252 1508.21 170.635 1511.02 169.489 1513.63C168.164 1516.64 167.244 1519.79 166.425 1522.92C165.348 1527.02 163.331 1530.8 162.301 1534.83C160.505 1541.87 158.143 1548.69 155.742 1555.51C155.306 1556.75 155.3 1558.19 153.81 1559.07C153.141 1559.46 152.747 1560.95 152.833 1561.88C153.066 1564.41 152.23 1566.43 150.692 1568.34C150.298 1568.83 150.378 1569.69 150.186 1570.36C150.04 1570.87 149.929 1571.47 149.592 1571.83C148.357 1573.15 147.288 1574.17 147.414 1576.48C147.503 1578.11 145.558 1580.02 144.196 1581.51C142.678 1583.17 139.59 1582.99 137.568 1581.49C136.286 1580.53 135.968 1578.4 137.121 1576.3C138.63 1573.55 140.268 1570.86 142.055 1568.29C142.72 1567.33 143.086 1566.62 142.572 1565.25Z" fill="#858098"/>
<path d="M224.69 842.831C222.444 841.661 223.902 839.695 224.069 838.799C224.433 836.845 224.583 834.493 226.588 833.054C227.102 832.685 227.227 831.679 227.39 830.935C227.757 829.262 227.846 827.504 228.404 825.905C228.961 824.306 230.124 822.919 230.699 821.324C231.186 819.975 231.246 818.465 231.435 817.018C231.78 814.363 233.223 812.064 233.917 809.579C235.401 804.274 236.333 798.79 237.519 793.423C238.443 789.247 238.191 784.431 241.498 780.76C242.477 779.673 242.798 777.328 242.39 775.842C241.955 774.261 242.81 773.911 243.469 773.118C244.657 771.688 245.52 770.174 245.679 768.186C245.819 766.447 247.048 764.704 246.888 763.051C246.538 759.44 248.832 757.125 250.326 754.388C250.793 753.531 251.27 752.679 251.717 751.812C251.828 751.597 251.94 751.309 251.887 751.095C251.373 749.01 254.013 748.31 253.877 746.093C253.766 744.289 254.783 742.272 256.59 741.01C257.116 740.642 257.744 739.699 257.608 739.225C256.812 736.454 259.144 736.018 260.588 734.873C262.359 733.468 264.047 734.399 265.561 735.19C266.136 735.49 266.56 736.865 266.411 737.624C265.836 740.554 265.005 743.434 264.259 746.33C264.163 746.703 264.112 747.163 263.866 747.408C261.854 749.414 260.37 751.401 260.344 754.641C260.33 756.499 258.205 758.306 257.16 760.207C256.628 761.176 255.994 762.341 256.093 763.349C256.269 765.136 255.83 766.3 254.575 767.63C253.828 768.423 254.382 770.311 253.804 771.423C252.569 773.798 252.176 776.406 251.29 778.868C250.333 781.53 249.339 784.183 248.523 786.889C248.069 788.397 247.951 790.006 247.668 791.566C247.622 791.816 247.566 792.106 247.41 792.288C245.306 794.74 245.728 798.05 244.499 800.818C243.452 803.177 242.45 805.649 243.191 808.369C243.251 808.591 243.305 808.947 243.186 809.066C240.566 811.692 241.932 815.886 239.292 818.657C238.3 819.698 238.95 822.181 238.069 823.474C236.164 826.27 235.94 829.606 235.273 832.583C234.457 836.223 232.063 838.782 230.809 842.027C230.074 843.931 227.268 844.21 224.69 842.831Z" fill="#858098"/>
<path d="M433.996 1991.52C431.563 1994.9 432.513 1999.27 429.581 2002.09C429.072 2002.58 429.752 2004.23 429.255 2004.82C428.422 2005.81 429.816 2007.11 428.361 2008.06C427.71 2008.49 428.007 2010.33 427.825 2011.52C427.77 2011.89 427.651 2012.43 427.399 2012.55C425.009 2013.69 424.968 2016.27 423.9 2018.2C422.997 2019.84 421.444 2020.48 419.272 2019.9C417.475 2019.43 416.433 2018.77 417.027 2016.44C417.53 2014.47 418.295 2010.84 419.455 2009.14C419.73 2008.74 419.953 2008.29 420.128 2007.83C421.478 2004.31 421.739 2000.49 423.71 1997.06C424.881 1995.01 424.532 1992.1 424.889 1989.59C424.942 1989.21 425.02 1988.76 425.259 1988.51C428.011 1985.59 427.971 1981.71 428.81 1978.16C429.481 1975.31 429.769 1972.38 430.364 1969.51C430.673 1968.03 431.365 1966.62 431.726 1965.14C432.071 1963.72 432.037 1962.2 432.495 1960.84C432.882 1959.68 433.951 1958.75 434.326 1957.59C434.85 1955.97 435.139 1954.25 435.289 1952.55C435.461 1950.61 436.492 1949.2 437.485 1947.64C438.485 1946.07 439.564 1944.17 439.56 1942.41C439.551 1937.7 440.557 1933.59 443.81 1930.01C444.632 1929.1 444.34 1927.27 444.888 1926.01C445.386 1924.86 446.503 1924.17 446.7 1922.62C446.957 1920.59 447.718 1918.53 449.459 1917.04C450.031 1916.55 450.702 1915.6 450.596 1914.99C450.124 1912.29 452.156 1911.77 453.792 1910.7C455.682 1909.45 457.249 1910.51 458.8 1911.17C459.294 1911.38 459.653 1912.65 459.547 1913.36C459.358 1914.61 458.677 1915.77 458.367 1917.02C458.044 1918.31 457.167 1919.39 457.635 1921.01C457.877 1921.85 456.852 1923.38 455.997 1924.15C454.599 1925.4 453.993 1926.95 453.494 1928.61C452.647 1931.42 451.904 1934.24 449.944 1936.6C449.368 1937.29 449.361 1938.48 449.172 1939.46C449.084 1939.91 449.394 1940.56 449.17 1940.85C447.076 1943.57 447.825 1947.41 445.395 1950.07C444.652 1950.88 445.029 1952.63 444.639 1953.87C443.713 1956.82 442.547 1959.69 441.651 1962.64C441.081 1964.51 441.257 1966.73 440.327 1968.36C438.513 1971.52 438.515 1975.19 436.972 1978.39C436.109 1980.17 435.549 1982.07 436.15 1984.14C436.304 1984.67 436.237 1985.67 435.912 1985.87C433.796 1987.18 434.858 1989.46 433.996 1991.52Z" fill="#858098"/>
<path d="M196.688 8493.99C195.14 8497.69 194.45 8501.28 192.423 8504.46C191.701 8505.58 191.128 8507.31 190.631 8508.82C189.788 8511.38 186.897 8511.8 185.345 8509.6C184.353 8508.19 183.779 8506.48 183.115 8504.86C182.929 8504.41 182.864 8503.61 183.128 8503.31C185.684 8500.46 185.432 8496.52 187.11 8493.35C187.677 8492.27 188.336 8491.25 188.887 8490.17C189.158 8489.64 189.604 8488.87 189.415 8488.48C188.068 8485.66 189.537 8483.09 190.007 8480.46C190.51 8477.66 191.678 8474.94 191.966 8472.13C192.328 8468.59 194.041 8465.61 195.505 8462.61C196.729 8460.1 196.869 8457.2 198.757 8454.9C199.579 8453.91 199.278 8452.05 199.726 8450.66C200.679 8447.7 201.063 8444.54 203.195 8442C204.012 8441.03 204.497 8439.78 204.746 8438.38C204.985 8437.02 206.196 8435.87 206.755 8434.53C207.365 8433.08 208.225 8431.75 208.43 8430.07C208.628 8428.45 209.342 8426.85 210.032 8425.34C210.899 8423.44 210.714 8421.02 212.772 8419.68C212.943 8419.57 213.069 8419.19 213.02 8418.97C212.177 8415.3 214.422 8412.06 214.481 8408.54C214.524 8405.96 216.394 8404.39 217.566 8402.47C218.163 8401.49 221.775 8402.51 222.51 8403.83C223.534 8405.68 224.371 8407.53 223.628 8409.83C222.658 8412.83 221.587 8415.9 221.308 8419C220.961 8422.85 218.317 8425.76 217.691 8429.32C216.577 8435.65 212.095 8440.51 210.649 8446.68C210.144 8448.83 208.658 8450.74 207.802 8452.83C206.878 8455.08 206.143 8457.42 205.371 8459.73C204.572 8462.13 202.796 8464.3 203.618 8467.08C201.298 8469.99 201.668 8473.82 200.223 8477.06C198.881 8480.08 197.766 8483.18 198.206 8486.78C198.474 8488.97 197.327 8491.34 196.688 8493.99Z" fill="#858098"/>
<path d="M263.635 3110.79C263.564 3111.27 263.689 3111.4 263.665 3111.49C262.527 3116.08 261.375 3120.67 260.225 3125.25C258.386 3125.88 259.466 3127.53 259.053 3128.66C257.585 3132.67 256.397 3136.78 253.633 3140.22C252.876 3141.16 252.421 3142.48 252.22 3143.69C251.97 3145.19 251.41 3146.47 250.794 3147.84C248.63 3152.67 246.68 3157.61 244.814 3162.56C244.22 3164.14 244.204 3165.93 243.808 3167.59C243.441 3169.13 242.362 3170.37 242.172 3172.08C241.978 3173.82 241.076 3175.48 240.483 3177.18C239.891 3178.88 239.092 3180.54 238.756 3182.29C238.279 3184.77 238.173 3187.31 237.851 3189.82C237.68 3191.15 237.584 3192.55 237.085 3193.76C236.671 3194.77 236.821 3195.8 236.239 3196.9C234.694 3199.82 233.888 3203.13 232.787 3206.29C232.491 3207.14 232.269 3208.02 231.885 3208.83C230.719 3211.28 228.036 3212.15 226.121 3210.41C225.079 3209.46 224.769 3207.73 224.038 3206.41C223.159 3204.81 223.607 3203.66 224.87 3202.47C225.438 3201.94 225.86 3200.89 225.807 3200.11C225.569 3196.6 227.593 3193.89 228.85 3190.91C229.219 3190.03 230.03 3188.81 229.721 3188.28C228.694 3186.5 229.701 3185.12 230.057 3183.56C230.296 3182.52 230.295 3181.42 230.39 3180.34C230.736 3176.39 232.68 3172.81 232.887 3168.79C232.954 3167.49 233.994 3166.03 234.98 3165.02C236.776 3163.19 237.201 3161.06 237.431 3158.66C237.534 3157.59 238.664 3156.66 238.987 3155.57C239.799 3152.82 240.273 3149.98 241.163 3147.27C241.729 3145.54 242.684 3143.91 243.677 3142.37C244.378 3141.29 245.481 3140.68 244.986 3138.9C244.743 3138.02 246.215 3136.68 246.886 3135.54C247.562 3134.38 248.548 3133.28 248.79 3132.03C249.25 3129.68 250.036 3127.41 250.567 3125.07C250.874 3123.73 250.941 3122.1 252.576 3121.15C253.25 3120.76 253.827 3119.11 253.555 3118.36C252.092 3114.31 255.461 3111.07 255.249 3107.18C255.18 3105.91 256.907 3104.3 258.17 3103.29C259.021 3102.61 260.346 3101.53 261.683 3103.42C263.222 3105.6 265.132 3107.46 263.635 3110.79Z" fill="#858098"/>
<path d="M78.0018 6952.08C77.2055 6950.03 77.6562 6948.42 78.1958 6946.71C78.6687 6945.21 78.732 6943.59 79.0756 6942.04C79.2369 6941.31 79.4388 6940.35 79.9605 6940.01C81.1581 6939.22 81.4288 6938.42 80.8347 6937.16C80.7146 6936.9 80.9268 6936.38 81.1422 6936.1C83.3105 6933.26 82.8293 6929.47 84.9489 6926.47C86.8881 6923.72 87.5737 6920.14 89.9363 6917.53C90.016 6917.44 90.1547 6917.33 90.139 6917.25C89.4072 6913.59 92.3352 6911.58 93.8639 6908.94C95.4889 6906.14 96.6176 6903.04 99.6703 6901.19C100.6 6900.62 102.366 6899.44 101.097 6897.57C102.28 6896.44 102.607 6895.21 102.688 6893.45C102.816 6890.65 103.763 6887.84 104.657 6885.13C106.274 6880.23 107.711 6875.32 108.235 6870.17C108.336 6869.17 108.832 6868.2 109.224 6867.25C111.491 6861.76 112.511 6855.93 113.946 6850.21C114.335 6848.66 117.564 6847.46 119.122 6848.36C121.756 6849.87 122.561 6852.03 121.724 6854.87C120.588 6858.72 119.535 6862.59 118.493 6866.47C118.067 6868.05 116.596 6869.2 117.324 6871.33C117.81 6872.76 116.99 6874.65 116.667 6876.32C116.262 6878.42 115.854 6880.52 115.295 6882.58C114.108 6886.95 112.681 6891.26 111.636 6895.66C111.113 6897.86 111.436 6900.12 109.087 6901.73C107.348 6902.93 107.849 6906.05 105.424 6907.02C103.495 6911.37 99.1399 6914.31 98.3333 6919.36C98.1575 6920.46 97.0945 6921.4 96.5171 6922.46C95.6361 6924.07 94.8292 6925.73 93.9775 6927.36C93.185 6928.88 92.7008 6930.76 91.4936 6931.8C89.8439 6933.23 89.1992 6935.21 89.2253 6936.8C89.2662 6939.29 88.0852 6941.24 87.4891 6943.41C86.6639 6946.42 86.1204 6949.56 84.4639 6952.29C84.0915 6952.91 83.7955 6953.67 83.2466 6954.06C80.3529 6956.09 79.6022 6955.84 78.0018 6952.08Z" fill="#858098"/>
<path d="M477.898 2430.68C478.495 2428.71 480.397 2427.5 479.335 2425.48C479.246 2425.31 479.184 2424.95 479.261 2424.89C482.079 2422.92 481.221 2419.38 482.699 2416.82C484.47 2413.76 485.92 2410.5 487.81 2407.51C488.288 2406.76 488.451 2406.34 488.574 2405.46C488.818 2403.71 489.246 2401.92 490.735 2400.43C492.31 2398.84 493.51 2396.76 494.441 2394.71C495.142 2393.15 496.368 2392.27 497.358 2391.07C498.211 2390.05 500.05 2389.6 499.53 2387.53C499.149 2386.02 501.224 2385.41 501.123 2383.41C500.986 2380.68 502.293 2377.87 503.004 2375.09C503.811 2371.95 504.733 2368.84 505.442 2365.67C506.133 2362.58 507.224 2359.59 507.803 2356.49C508.639 2352.03 511.346 2348.08 511.25 2343.34C511.223 2342.01 513.05 2341.12 512.387 2339.19C512.071 2338.28 516.028 2336.87 517.422 2337.38C519.062 2337.99 521.098 2341.51 520.662 2343.16C519.668 2346.91 518.674 2350.67 517.534 2354.38C517.187 2355.51 516.322 2356.48 515.773 2357.55C515.503 2358.09 515.188 2358.75 515.277 2359.28C515.901 2363.06 514.906 2366.56 513.776 2370.09C513.141 2372.07 512.825 2374.16 512.427 2376.22C512.029 2378.28 510.849 2380.02 510.931 2382.36C511.014 2384.73 509.428 2386.99 509.174 2389.57C509.059 2390.73 507.061 2391.9 506.268 2393.53C505.241 2395.63 503.51 2397.39 502.084 2399.3C500.076 2401.99 497.855 2404.5 497.155 2408.01C496.836 2409.61 495.628 2411.04 494.778 2412.52C494.301 2413.35 493.691 2414.1 493.207 2414.93C491.798 2417.34 490.342 2419.72 489.072 2422.2C488.536 2423.25 487.932 2424.25 487.756 2425.57C487.394 2428.31 486.616 2431.01 485.818 2433.66C484.969 2436.49 483.922 2439.26 482.917 2442.04C482.487 2443.23 479.894 2445.1 478.839 2444.84C478.21 2444.69 477.445 2444.12 477.198 2443.54C476.283 2441.4 475.794 2439.2 476.537 2436.81C477.119 2434.94 477.372 2432.97 477.898 2430.68Z" fill="#858098"/>
<path d="M504.64 9209.14C506.072 9211.66 504.583 9213.85 504.074 9215.8C503.03 9219.8 503.154 9224.19 500.628 9227.77C500.392 9228.11 500.295 9228.63 500.334 9229.05C500.517 9230.99 500.197 9232.8 499.386 9234.6C498.577 9236.4 498.4 9238.57 497.323 9240.15C496.198 9241.8 495.917 9244.17 493.714 9245.03C492.378 9248.77 489.45 9251.38 487.041 9254.36C486.964 9254.46 486.896 9254.61 486.917 9254.72C487.813 9259.25 483.62 9261.57 482.247 9265.15C481.319 9267.58 480.421 9270.51 477.838 9272.13C477.479 9272.35 477.263 9272.94 477.146 9273.4C476.501 9275.92 475.435 9278.46 475.406 9281C475.362 9284.86 473.49 9288.05 472.32 9291.47C471.927 9292.62 470.138 9293.89 468.879 9294.01C467.052 9294.19 465.829 9292.96 465.767 9290.7C465.722 9289.1 465.637 9287.61 466.137 9286.03C467.188 9282.69 468.188 9279.31 468.836 9275.87C469.265 9273.6 470.51 9271.73 471.196 9269.6C471.865 9267.52 472.768 9265.46 473.796 9263.45C475.39 9260.34 477.411 9257.39 478.411 9253.84C479.342 9250.54 481.584 9247.57 483.45 9244.57C484.513 9242.87 485.362 9240.87 487.539 9240.09C487.899 9239.96 488.208 9239.35 488.314 9238.91C489.163 9235.37 491.515 9232.27 491.238 9228.39C491.178 9227.56 491.771 9226.69 492.076 9225.84C493.509 9221.86 494.828 9217.88 494.782 9213.55C494.767 9212.12 496.132 9211.14 496.343 9209.44C496.817 9205.62 498.251 9201.92 499.266 9198.17C499.72 9196.49 500.346 9194.8 500.456 9193.09C500.553 9191.57 502.643 9191.05 501.84 9188.91C501.35 9187.61 506.024 9186.4 507.567 9187.59C509.607 9189.17 510.298 9191.88 509.545 9194.57C508.979 9196.58 508.853 9198.74 508.143 9200.69C507.121 9203.49 505.746 9206.17 504.64 9209.14Z" fill="#858098"/>
<path d="M212.968 8249.88C211.973 8252.58 211.542 8255.05 210.41 8257.31C209.352 8259.42 208.513 8261.77 208.235 8264C208.011 8265.8 206.589 8267.15 206.925 8269.18C207.1 8270.24 205.816 8271.54 205.184 8272.73C205.072 8272.94 204.826 8273.12 204.806 8273.33C204.614 8275.36 203.485 8277.09 202.954 8278.95C202.198 8281.61 201.439 8284.32 200.684 8286.97C199.836 8289.95 197.706 8292.54 196.325 8295.39C195.49 8297.12 195.018 8299.02 194.383 8300.84C193.515 8303.33 192.021 8305.53 192.937 8308.58C193.392 8310.1 191.329 8312.32 191.693 8313.94C192.072 8315.61 191.005 8315.94 190.443 8316.61C189.703 8317.48 188.513 8318.59 187.564 8318.54C185.964 8318.47 184.195 8317.86 182.883 8316.94C181.689 8316.09 180.843 8314.29 182.063 8312.94C183.87 8310.95 184.072 8308.67 184.404 8306.22C184.775 8303.48 185.551 8300.78 186.367 8298.13C187.759 8293.6 189.742 8289.32 192.395 8285.37C192.742 8284.86 192.71 8284.08 193.072 8283.58C194.298 8281.9 193.349 8279.66 194.897 8277.89C196.119 8276.49 196.467 8274.2 196.797 8272.36C197.258 8269.78 197.916 8267.55 199.29 8265.27C200.34 8263.53 200.153 8260.96 200.959 8259.15C201.879 8257.08 201.426 8254.4 203.608 8252.82C204.128 8252.45 204.232 8251.47 204.484 8250.76C205.268 8248.53 205.678 8246.21 206.754 8244.04C207.889 8241.76 208.778 8239.27 209.301 8236.78C210.22 8232.39 212.567 8228.56 213.775 8224.29C214.197 8222.8 215.246 8221.49 215.995 8220.1C216.804 8218.59 217.782 8217.13 218.35 8215.54C219 8213.71 220.17 8212.83 221.975 8213C224.509 8213.24 226.821 8215.35 226.759 8217.29C226.694 8219.33 226.486 8221.13 224.958 8222.98C222.9 8225.48 221.658 8228.67 220.18 8231.62C219.336 8233.3 218.745 8235.11 217.99 8236.84C217.378 8238.25 217.974 8240.21 216.06 8241.01C215.854 8244.12 213.593 8246.51 212.968 8249.88Z" fill="#858098"/>
<path d="M153.033 5831.73C150.991 5836.8 149.209 5841.58 147.091 5846.2C146.295 5847.93 146.738 5849.85 145.478 5851.56C144.311 5853.14 143.584 5855.32 143.428 5857.29C143.284 5859.1 142.52 5860.53 141.982 5862.13C141.386 5863.9 141.462 5866.07 140.44 5867.48C138.725 5869.85 139.322 5873.02 137.17 5875.22C136.419 5875.99 136.939 5877.86 136.476 5879.08C134.633 5883.91 132.703 5888.71 130.658 5893.46C129.543 5896.05 128.131 5898.51 126.86 5901.04C126.738 5901.28 126.512 5901.63 126.595 5901.79C128.435 5905.48 126.433 5908.91 125.568 5912.28C125.25 5913.51 122.986 5914.52 121.414 5915.1C119.175 5915.92 116.037 5913.48 115.939 5911.13C115.915 5910.53 115.86 5909.65 116.202 5909.37C119.006 5907.09 118.198 5903.75 118.841 5900.85C119.012 5900.08 119.2 5899.31 119.45 5898.56C120.119 5896.56 120.857 5894.59 121.505 5892.59C121.809 5891.65 121.775 5890.56 122.227 5889.72C124.119 5886.18 126.264 5882.78 128.052 5879.19C128.897 5877.5 128.488 5875.46 129.875 5873.67C130.985 5872.24 131.024 5869.93 131.374 5867.98C131.685 5866.25 132.419 5864.71 133.068 5863.11C133.938 5860.97 135.321 5858.71 135.191 5856.58C135.051 5854.27 138.077 5853.02 136.622 5850.66C138.48 5848.81 139.257 5846.59 138.99 5843.98C138.97 5843.77 139.522 5843.54 139.77 5843.28C141.518 5841.46 142.83 5839.5 142.485 5836.75C142.385 5835.95 142.894 5835.05 143.18 5834.22C144.266 5831.06 145.519 5827.94 146.438 5824.73C147.481 5821.09 149.611 5818.12 151.699 5815.08C152.143 5814.44 152.631 5813.69 152.715 5812.95C152.985 5810.54 154.313 5809.46 156.532 5810.06C160.99 5811.27 162.482 5815.9 159.589 5819.75C158.954 5820.59 158.098 5821.3 157.241 5821.94C156.364 5822.59 157.499 5823.41 156.636 5824.43C155.011 5826.34 154.269 5829.01 153.033 5831.73Z" fill="#858098"/>
<path d="M286.392 3741.63C287.406 3735.46 289.727 3730.1 291.495 3724.56C292.486 3721.46 294.001 3718.73 296.018 3716.18C296.893 3715.07 298.542 3714.05 297.588 3712.05C297.46 3711.78 298.319 3710.68 298.891 3710.5C302.376 3709.39 305.954 3711.21 306.033 3715.32C306.06 3716.77 305.586 3718.9 304.582 3719.55C302.119 3721.17 302.018 3723.83 300.871 3725.99C299.595 3728.4 298.505 3730.92 297.437 3733.43C295.618 3737.72 294.043 3742.11 292.027 3746.3C291.195 3748.03 291.822 3749.96 290.406 3751.66C289.174 3753.14 288.718 3755.4 288.302 3757.39C287.55 3761 287.249 3765.02 285.165 3767.86C283.423 3770.24 284.867 3773.55 282.093 3775.31C281.617 3775.62 282.143 3777.22 281.816 3778.07C279.779 3783.37 277.731 3788.68 275.477 3793.89C274.37 3796.45 272.788 3798.8 271.493 3801.28C271.33 3801.59 271.537 3802.16 271.691 3802.57C272.993 3806.01 271.238 3809.14 270.653 3812.37C270.33 3814.15 266.795 3815.71 265.037 3815.09C263.127 3814.41 260.596 3814.34 260.921 3811.24C260.984 3810.65 260.815 3809.76 261.145 3809.5C263.979 3807.23 263.066 3803.84 263.845 3800.97C264.075 3800.13 264.41 3799.31 264.68 3798.47C265.3 3796.56 265.941 3794.65 266.51 3792.72C266.824 3791.66 266.701 3790.32 267.312 3789.51C269.598 3786.5 270.219 3782.52 273.045 3779.84C273.294 3779.61 273.467 3779.11 273.416 3778.77C273.171 3777.12 273.513 3775.73 274.457 3774.28C275.17 3773.18 275.231 3771.66 275.569 3770.32C276.526 3766.52 278.365 3763.02 279.37 3759.26C280.528 3754.93 282.514 3750.91 283.761 3746.64C284.283 3744.84 284.034 3742.8 286.392 3741.63Z" fill="#858098"/>
<path d="M192.431 4288.2C191.42 4290.18 191.615 4292.26 189.842 4293.56C189.347 4293.92 189.852 4295.45 189.561 4296.33C188.066 4300.84 186.86 4305.52 184.784 4309.76C182.658 4314.1 180.687 4318.51 178.724 4322.92C178.081 4324.37 178.073 4325.86 178.199 4327.58C178.399 4330.29 177.599 4333.27 176.512 4335.83C175.546 4338.1 173.068 4338.64 170.587 4338.46C168.51 4338.3 167.661 4336.8 166.995 4335.19C166.744 4334.59 166.666 4333.44 167.026 4333.12C169.531 4330.88 169.67 4327.79 169.7 4324.93C169.727 4322.36 171.419 4320.63 171.962 4318.4C172.047 4318.04 172.475 4317.68 172.411 4317.4C171.744 4314.51 174.244 4312.75 174.886 4310.35C175.569 4307.79 177.064 4305.72 178.589 4303.62C179.121 4302.89 179.245 4301.84 179.468 4300.92C179.606 4300.34 179.362 4299.56 179.664 4299.15C181.63 4296.5 181.345 4293.12 182.658 4290.23C184.037 4287.2 185.05 4283.99 185.97 4280.78C186.448 4279.11 187.061 4277.51 187.746 4275.95C188.431 4274.38 188.286 4272.37 190.098 4271.35C190.262 4271.26 190.192 4270.67 190.151 4270.32C189.929 4268.4 190.235 4266.96 191.962 4265.51C193.149 4264.51 193.708 4262.29 193.803 4260.57C194.024 4256.57 195.417 4253.07 197.432 4249.73C197.554 4249.52 197.865 4249.33 197.848 4249.16C197.369 4244.46 200.409 4241.54 203.161 4238.44C203.556 4237.99 203.614 4237.26 203.863 4236.67C204.202 4235.88 202.728 4234.66 204.477 4234.19C205.657 4233.88 206.868 4233.08 207.978 4233.22C210.357 4233.51 212.629 4236.62 212.081 4238.73C211.524 4240.87 211.182 4243.57 209.082 4244.54C207.167 4245.41 208.877 4246.81 207.802 4247.94C206.097 4249.74 205.169 4252.33 204.147 4254.69C202.192 4259.2 200.315 4263.75 198.59 4268.35C197.998 4269.92 196.763 4271.45 197.552 4273.4C197.686 4273.73 197.342 4274.48 196.996 4274.74C195.066 4276.19 194.651 4278.56 194.469 4280.49C194.222 4283.11 192.63 4285.26 192.431 4288.2Z" fill="#858098"/>
<path d="M269.323 10698.8C271.052 10699.5 272.89 10699.3 273.969 10701.3C275.687 10704.4 273.57 10706.7 272.717 10709.2C272.034 10711.2 270.236 10712.7 269.348 10714.7C267.418 10718.9 265.821 10723.3 263.954 10727.6C262.789 10730.2 261.915 10733 260.458 10735.6C259.906 10736.5 260.526 10738.3 259.873 10739.1C258.207 10741 259.405 10744.2 256.877 10745.6C257.439 10748.3 255.858 10750.5 255.147 10752.8C254.371 10755.4 253.395 10757.9 252.506 10760.5C250.898 10765.1 249.275 10769.7 247.687 10774.3C246.354 10778.2 244.81 10782 242.245 10785.2C242.556 10787.9 238.843 10790 241.143 10792.9C240.341 10796 239.76 10799.3 238.656 10802.3C237.97 10804.2 234.637 10804.4 231.873 10803.2C230.274 10802.5 229.219 10800.8 230.043 10799.4C231.802 10796.2 232.232 10792.9 232.765 10789.4C233.321 10785.8 234.896 10782.3 236.351 10778.9C237.539 10776.1 239.213 10773.5 240.654 10770.8C240.891 10770.4 241.112 10769.9 241.214 10769.4C241.862 10766.3 242.596 10763.1 243.83 10760.3C245.238 10757.2 244.655 10753.3 247.618 10750.7C248.378 10750.1 247.839 10748.1 248.312 10746.9C249.591 10743.6 249.94 10740 252.435 10737.2C252.594 10737 252.704 10736.7 252.685 10736.5C252.464 10733.8 254.146 10731.8 255.085 10729.4C255.809 10727.6 256.36 10725.8 256.564 10723.7C256.79 10721.4 257.348 10718.7 259.418 10716.9C260.784 10715.6 259.706 10713.4 261.208 10712.1C260.559 10708.9 263.816 10707.5 264.592 10704.9C264.965 10703.7 266.125 10702.7 266.498 10701.4C266.931 10700 267.858 10699.4 269.323 10698.8Z" fill="#858098"/>
<path d="M415.295 321.228C417.664 317.755 419.74 314.37 421.934 311.063C422.782 309.785 423.98 308.743 424.865 307.485C425.632 306.397 426.889 305.02 426.695 304.007C426.087 300.835 428.287 298.798 429.595 296.697C430.586 295.104 430.39 293.561 430.898 292.064C432.394 287.662 433.937 283.214 434.74 278.656C435.877 272.199 437.479 265.875 439.012 259.519C439.574 257.191 439.625 254.74 439.936 252.349C439.985 251.975 440.073 251.507 440.322 251.273C444.199 247.632 443.726 242.234 445.724 237.828C446.622 235.849 446.736 233.519 447.251 231.359C447.743 229.297 449.352 229.116 451.144 228.625C453.255 228.046 453.971 229.525 454.69 230.484C455.779 231.935 456.693 233.61 455.593 235.758C454.509 237.874 455.301 240.452 454.208 242.786C453.726 243.816 454.151 245.319 452.797 246.195C452.451 246.419 452.173 247.143 452.253 247.564C452.98 251.391 450.067 253.62 448.217 256.108C446.544 258.359 446.105 260.884 445.243 263.328C444.846 264.452 445 265.767 444.622 266.902C443.801 269.374 442.892 271.771 443.269 274.486C443.396 275.401 442.906 276.416 442.634 277.367C442.386 278.23 441.593 279.236 441.832 279.889C443.121 283.418 441.087 286.27 440.044 289.255C439.478 290.873 439.549 292.611 438.542 294.207C437.694 295.552 438.011 297.577 437.437 299.165C436.731 301.122 434.887 302.94 434.894 304.814C434.903 307.316 433.087 308.212 432.14 309.841C431.105 311.623 429.952 313.349 429.071 315.204C426.768 320.056 422.239 323.605 421.202 329.243C420.753 331.679 415.485 332.798 413.718 331.014C413.29 330.582 413.132 329.598 413.261 328.949C413.768 326.397 414.439 323.878 415.295 321.228Z" fill="#858098"/>
<path d="M445.263 1127.08C445.916 1124.43 446.334 1122.1 447.002 1119.86C447.538 1118.06 451.359 1116.04 452.756 1116.61C454.623 1117.39 456.224 1120.83 455.757 1122.83C455.427 1124.25 455.176 1125.7 455.072 1127.15C454.902 1129.5 453.909 1132.7 452.543 1134.78C452.342 1135.09 452.013 1135.48 452.072 1135.76C452.935 1139.94 448.944 1141.8 447.719 1144.97C446.956 1146.95 445.683 1148.78 445.234 1150.81C444.071 1156.07 443.405 1161.44 442.08 1166.67C441.986 1167.04 441.633 1167.47 441.734 1167.75C443.014 1171.36 440.866 1174.32 439.916 1177.49C439.313 1179.5 438.683 1181.57 438.14 1183.52C437.598 1185.47 436.843 1187.53 436.604 1189.59C436.425 1191.14 434.874 1191.94 434.996 1193.72C435.106 1195.33 432.718 1196.3 432.405 1197.39C431.479 1200.64 428.574 1202.57 427.629 1205.68C427.434 1206.32 426.798 1206.83 426.385 1207.41C424.326 1210.32 422.237 1213.16 421.288 1216.75C420.473 1219.83 416.748 1220.91 414.007 1219.17C413.009 1218.54 412.705 1217.64 413.246 1216.6C414.639 1213.9 413.971 1210.51 416.193 1208.09C419.369 1204.63 420.431 1199.73 424.201 1196.6C425.418 1195.59 426.314 1193.72 426.573 1192.12C427.109 1188.81 428.653 1186.16 430.395 1183.4C431.444 1181.73 431.21 1179.31 431.867 1177.34C433.361 1172.85 434.318 1168.26 435.025 1163.59C435.414 1161.03 436.215 1158.53 436.815 1155.99C437.958 1151.17 439.357 1146.39 440.049 1141.5C440.235 1140.19 440.654 1139.35 441.308 1138.51C443.846 1135.24 443.3 1130.93 445.263 1127.08Z" fill="#858098"/>
<path d="M371.436 5032.48C372.239 5030.18 372.746 5028.16 373.643 5026.32C374.472 5024.63 374.25 5022.68 375.335 5021.03C375.845 5020.25 375.52 5018.93 375.587 5017.86C375.639 5017.02 375.422 5016 375.825 5015.38C377.474 5012.88 376.205 5009.44 378.572 5007.18C378.749 5007.01 378.303 5006.28 378.302 5005.81C378.3 5004.86 378.317 5003.89 378.48 5002.95C379.024 4999.82 379.433 4996.64 380.303 4993.6C380.774 4991.95 382.089 4990.55 382.996 4989.02C383.37 4988.38 384.04 4987.65 383.944 4987.06C383.521 4984.5 385.029 4982.47 385.585 4980.19C386.233 4977.53 386.767 4974.84 387.579 4972.24C388.267 4970.03 391.103 4968.98 393.382 4969.84C395.523 4970.65 396.831 4973.05 396.369 4975.1C396.077 4976.4 396.163 4977.8 395.74 4979.04C395.227 4980.54 396.117 4982.53 394.222 4983.54C394.845 4985.44 394.325 4986.91 392.688 4988.08C392.491 4988.22 392.903 4989.05 392.747 4989.44C392.173 4990.9 391.544 4992.34 390.814 4993.72C389.641 4995.93 388.535 4998.29 387.284 5000.33C385.469 5003.28 386.267 5006.66 384.501 5009.53C383.517 5011.12 383.941 5013.54 383.537 5015.55C382.988 5018.29 382.484 5020.96 382.517 5023.81C382.543 5026.07 381.869 5028.5 380.906 5030.57C378.57 5035.61 377.812 5041.15 375.618 5046.2C375.042 5047.53 374.254 5048.78 373.445 5049.98C371.981 5052.16 369.992 5054.11 369.031 5056.48C368.03 5058.95 366.442 5060.87 364.896 5062.87C363.082 5065.22 362.358 5068.01 361.373 5070.7C361.143 5071.34 357.273 5073.14 356.412 5073.01C355.008 5072.81 354.082 5071.98 353.822 5070.61C353.693 5069.93 353.887 5069.17 353.994 5068.46C354.228 5066.9 355.302 5065.63 354.969 5063.75C354.773 5062.64 355.933 5060.81 357.008 5060.05C359.746 5058.1 360.237 5054.86 362.021 5052.4C362.308 5052.01 362.292 5051.16 362.607 5051.05C366.485 5049.62 366.499 5045.8 367.854 5042.81C368.821 5040.67 368.893 5038.19 370.789 5036.35C371.462 5035.7 371.164 5034.05 371.436 5032.48Z" fill="#858098"/>
<path d="M511.125 6167.19C512.629 6160.96 515.127 6155.35 515.023 6149.14C515.005 6148.06 515.774 6146.98 516.099 6145.87C516.856 6143.29 518.575 6140.85 517.327 6137.95C517.249 6137.77 517.421 6137.47 517.485 6137.23C518.405 6133.81 519.221 6130.36 520.294 6126.99C520.766 6125.5 521.724 6124.17 522.527 6122.8C523.816 6120.61 523.498 6117.99 524.835 6115.68C526.087 6113.52 526.842 6110.64 526.632 6108.18C526.39 6105.34 527.965 6104.87 529.734 6103.93C531.616 6102.93 532.891 6103.28 534.245 6104.92C536.131 6107.19 536.385 6108.36 535.238 6111.04C534.863 6111.91 534.876 6112.98 534.828 6113.96C534.752 6115.53 533.723 6119.43 533.104 6120.61C531.752 6123.18 531.797 6126.19 529.645 6128.66C527.766 6130.81 526.856 6133.92 525.893 6136.73C524.722 6140.16 523.917 6143.71 523.024 6147.22C522.887 6147.76 523.129 6148.4 523.195 6148.99C523.262 6149.58 523.59 6150.53 523.354 6150.7C521.048 6152.35 522.523 6154.68 522.102 6156.65C521.344 6160.19 520.179 6163.64 519.342 6167.17C518.86 6169.2 517.117 6170.96 517.971 6173.28C515.969 6174.48 516.159 6176.78 515.364 6178.58C514.372 6180.82 513.483 6182.94 511.833 6184.97C510.078 6187.12 508.638 6189.83 507.376 6192.4C506.077 6195.06 503.544 6196.83 502.749 6199.89C502.472 6200.96 501.332 6201.86 501.586 6203.38C501.899 6205.26 500.127 6205.47 498.96 6206.09C497.322 6206.96 495.386 6207.22 494.048 6206.08C492.674 6204.92 492.864 6203 493.512 6201.26C494.764 6197.91 495.548 6194.37 498.4 6191.77C499.423 6190.84 499.858 6189.27 500.602 6188.02C501.216 6186.99 501.673 6185.69 502.579 6185.04C504.953 6183.33 505.597 6180.83 506.498 6178.3C507.797 6174.65 509.479 6171.13 511.125 6167.19Z" fill="#858098"/>
<path d="M302.2 9900.37C301.941 9902.79 302.21 9904.93 300.303 9906.5C299.786 9906.92 299.582 9907.8 299.376 9908.51C298.195 9912.6 295.513 9915.86 293.493 9919.49C291.315 9923.4 288.427 9926.78 285.991 9930.49C285.786 9930.8 285.535 9931.27 285.629 9931.56C286.724 9935.01 283.875 9935.4 281.906 9936.57C280.36 9937.49 279.063 9936.6 277.988 9935.96C276.925 9935.34 277.42 9934 277.752 9932.85C278.119 9931.58 278.085 9930.2 278.374 9928.91C278.921 9926.45 280.527 9924.56 281.937 9922.55C283.457 9920.39 284.669 9918 286.219 9915.86C287.406 9914.21 289.233 9913.04 289.788 9910.92C290.009 9910.07 290.369 9909.26 290.63 9908.43C291.157 9906.73 291.344 9904.85 292.232 9903.38C294.929 9898.92 296.173 9894.08 297.337 9889.05C298.257 9885.08 298.584 9880.9 299.883 9877.15C301.625 9872.13 301.801 9866.88 303.291 9861.88C303.721 9860.44 303.733 9858.86 304.235 9857.45C304.757 9855.99 305.907 9854.72 306.315 9853.25C307.452 9849.13 309.966 9845.43 309.904 9840.92C309.881 9839.25 311.599 9837.79 310.828 9835.9C312.302 9834.99 313.684 9833.74 315.288 9833.3C316.093 9833.08 317.433 9834.16 318.299 9834.91C320.159 9836.54 320.603 9838.44 319.74 9840.96C318.879 9843.48 318.719 9846.23 318.227 9848.87C318.148 9849.29 317.985 9849.72 317.791 9850.11C317.3 9851.09 316.29 9852.09 316.344 9853.03C316.508 9855.89 314.649 9857.54 313.2 9859.54C310.985 9862.59 309.458 9865.91 309.514 9869.84C309.53 9870.93 308.855 9872.05 308.423 9873.12C307.534 9875.32 306.894 9877.56 307.196 9879.97C307.241 9880.33 307.43 9880.78 307.282 9881.02C305.537 9883.88 306.382 9887.17 305.675 9890.16C304.881 9893.52 303.47 9896.73 302.2 9900.37Z" fill="#858098"/>
<path d="M179.664 4431.51C182.052 4429.65 181.97 4426.73 183.611 4424.85C184.001 4424.4 184.174 4423.61 184.636 4423.41C187.279 4422.25 188.066 4419.83 188.611 4417.42C189.303 4414.36 190.499 4411.67 192.262 4409.05C193.278 4407.54 192.988 4405.22 193.607 4403.36C195.147 4398.76 196.209 4394.07 196.899 4389.26C197.286 4386.57 198.262 4383.97 198.786 4381.29C199.774 4376.24 201.495 4371.36 201.832 4366.15C201.913 4364.9 203.326 4363.77 203.936 4362.49C204.532 4361.24 204.894 4359.88 205.334 4358.56C205.405 4358.35 205.295 4358.07 205.357 4357.85C206.506 4353.74 207.655 4349.63 208.836 4345.53C209.314 4343.87 210.483 4342.75 212.092 4342.31C214.922 4341.52 218.301 4345.12 217.73 4348.17C217.555 4349.11 217.537 4350.08 217.469 4351.04C217.362 4352.53 215.221 4358.8 214.154 4360.75C214.032 4360.97 213.866 4361.25 213.912 4361.47C214.795 4365.63 210.804 4367.51 209.586 4370.68C208.83 4372.66 207.521 4374.48 207.092 4376.51C206.004 4381.66 205.188 4386.86 204.063 4392C204.009 4392.25 203.765 4392.54 203.833 4392.72C205.134 4396.32 202.995 4399.29 202.021 4402.45C201.365 4404.57 202.291 4407.26 199.855 4408.77C200.197 4411.12 199.377 4413.31 198.334 4415.24C196.926 4417.84 197.377 4421.48 194.085 4423.04C193.665 4426.42 190.406 4428.24 189.516 4431.37C189.378 4431.85 189.288 4432.51 188.942 4432.75C185.391 4435.19 184.368 4439.06 183.067 4442.8C182.23 4445.21 177.444 4446.46 175.573 4444.75C175.122 4444.33 174.8 4443.3 174.991 4442.75C176.211 4439.22 176.544 4435.35 178.855 4432.22C178.99 4432.04 179.305 4431.99 179.664 4431.51Z" fill="#858098"/>
</svg>
