<svg width="1512" height="19617" viewBox="0 0 1512 19617" fill="none" xmlns="http://www.w3.org/2000/svg">
<g clip-path="url(#clip0_118_219)">
<path d="M510.7 940.466C510.702 943.657 509.623 946.107 508.41 948.591C507.528 950.396 506.942 952.324 505.291 953.633C506.098 956.139 503.607 957.494 503.214 959.583C502.796 961.805 500.67 962.4 499.192 962.435C497.658 962.47 495.791 961.407 494.611 960.265C492.907 958.617 494.263 956.579 495.125 955.028C496.452 952.638 498.231 950.5 499.804 948.245C499.946 948.042 500.067 947.759 500.053 947.523C499.831 943.988 502.561 941.518 503.353 938.311C504.183 934.956 505.601 931.749 506.688 928.454C506.948 927.667 506.795 926.745 507.046 925.953C507.644 924.066 507.99 921.933 509.126 920.415C511.402 917.375 511.885 913.815 512.82 910.375C514.293 904.958 515.382 899.416 517.22 894.131C517.834 892.366 517.515 890.155 519.27 888.711C521.18 887.139 520.109 884.929 520.255 882.952C520.408 880.886 521.063 878.86 521.446 876.807C522.366 871.882 523.13 866.923 524.208 862.033C524.758 859.54 525.659 857.077 526.746 854.762C527.981 852.131 533.385 851.704 534.911 854.189C535.579 855.276 535.536 857.182 535.109 858.484C534.056 861.688 533.957 865.135 532.926 868.205C531.62 872.091 530.843 876.09 530.318 879.999C529.229 888.109 526.249 895.562 523.698 903.188C524.555 905.843 522.444 907.801 521.96 910.159C521.546 912.173 519.02 913.569 519.863 916.142C517.617 917.869 518.954 920.706 517.752 922.858C516.579 924.959 516.064 927.426 515.26 929.733C514.413 932.16 513.64 934.617 512.688 937.003C512.247 938.107 511.458 939.073 510.7 940.466Z" fill="#858098"/>
<path d="M1222.57 2940.25C1223.42 2938.61 1224.3 2937.41 1224.81 2936.06C1226.18 2932.45 1227.47 2928.81 1228.63 2925.13C1229.29 2923.01 1229.4 2920.72 1230.16 2918.65C1231.41 2915.24 1233.12 2912 1234.37 2908.6C1235.13 2906.53 1235.39 2904.28 1235.87 2902.11C1236.34 2899.93 1237.04 2897.81 1237.53 2895.64C1238.55 2891.12 1240.72 2886.85 1242.44 2882.48C1242.57 2882.15 1243.04 2881.84 1243 2881.59C1241.98 2876.04 1244.55 2871.02 1245.34 2865.75C1246.13 2860.53 1247.41 2855.38 1248.49 2850.2C1248.52 2850.03 1248.63 2849.85 1248.77 2849.73C1250.5 2848.14 1254.7 2847.27 1256.5 2848.34C1257.18 2848.74 1257.73 2849.76 1257.86 2850.57C1258.04 2851.61 1257.85 2852.75 1257.6 2853.79C1256.8 2857.07 1255.66 2860.28 1255.1 2863.6C1254.61 2866.47 1254.2 2869.5 1253.39 2872.16C1252.56 2874.88 1252.35 2877.67 1251.82 2880.36C1251.25 2883.21 1250.64 2886.02 1249.49 2888.63C1248.16 2891.64 1247.24 2894.79 1246.42 2897.92C1245.35 2902.02 1243.33 2905.8 1242.3 2909.83C1240.5 2916.87 1238.14 2923.69 1235.74 2930.51C1235.31 2931.75 1235.3 2933.19 1233.81 2934.07C1233.14 2934.46 1232.75 2935.95 1232.83 2936.88C1233.07 2939.41 1232.23 2941.43 1230.69 2943.34C1230.3 2943.83 1230.38 2944.69 1230.19 2945.36C1230.04 2945.87 1229.93 2946.47 1229.59 2946.83C1228.36 2948.15 1227.29 2949.17 1227.41 2951.48C1227.5 2953.11 1225.56 2955.02 1224.2 2956.51C1222.68 2958.17 1219.59 2957.99 1217.57 2956.49C1216.29 2955.53 1215.97 2953.4 1217.12 2951.3C1218.63 2948.55 1220.27 2945.86 1222.06 2943.29C1222.72 2942.33 1223.09 2941.62 1222.57 2940.25Z" fill="#858098"/>
<path d="M1126.69 1067.83C1124.44 1066.66 1125.9 1064.7 1126.07 1063.8C1126.43 1061.85 1126.58 1059.49 1128.59 1058.05C1129.1 1057.69 1129.23 1056.68 1129.39 1055.93C1129.76 1054.26 1129.85 1052.5 1130.4 1050.9C1130.96 1049.31 1132.12 1047.92 1132.7 1046.32C1133.19 1044.98 1133.25 1043.46 1133.43 1042.02C1133.78 1039.36 1135.22 1037.06 1135.92 1034.58C1137.4 1029.27 1138.33 1023.79 1139.52 1018.42C1140.44 1014.25 1140.19 1009.43 1143.5 1005.76C1144.48 1004.67 1144.8 1002.33 1144.39 1000.84C1143.96 999.261 1144.81 998.911 1145.47 998.118C1146.66 996.688 1147.52 995.174 1147.68 993.186C1147.82 991.447 1149.05 989.704 1148.89 988.051C1148.54 984.44 1150.83 982.125 1152.33 979.388C1152.79 978.531 1153.27 977.679 1153.72 976.812C1153.83 976.597 1153.94 976.309 1153.89 976.095C1153.37 974.01 1156.01 973.31 1155.88 971.093C1155.77 969.289 1156.78 967.272 1158.59 966.01C1159.12 965.642 1159.74 964.699 1159.61 964.225C1158.81 961.454 1161.14 961.018 1162.59 959.873C1164.36 958.468 1166.05 959.399 1167.56 960.19C1168.14 960.49 1168.56 961.865 1168.41 962.624C1167.84 965.554 1167 968.434 1166.26 971.33C1166.16 971.703 1166.11 972.163 1165.87 972.408C1163.85 974.414 1162.37 976.401 1162.34 979.641C1162.33 981.499 1160.21 983.306 1159.16 985.207C1158.63 986.176 1157.99 987.341 1158.09 988.349C1158.27 990.136 1157.83 991.3 1156.58 992.63C1155.83 993.423 1156.38 995.311 1155.8 996.423C1154.57 998.798 1154.18 1001.41 1153.29 1003.87C1152.33 1006.53 1151.34 1009.18 1150.52 1011.89C1150.07 1013.4 1149.95 1015.01 1149.67 1016.57C1149.62 1016.82 1149.57 1017.11 1149.41 1017.29C1147.31 1019.74 1147.73 1023.05 1146.5 1025.82C1145.45 1028.18 1144.45 1030.65 1145.19 1033.37C1145.25 1033.59 1145.3 1033.95 1145.19 1034.07C1142.57 1036.69 1143.93 1040.89 1141.29 1043.66C1140.3 1044.7 1140.95 1047.18 1140.07 1048.47C1138.16 1051.27 1137.94 1054.61 1137.27 1057.58C1136.46 1061.22 1134.06 1063.78 1132.81 1067.03C1132.07 1068.93 1129.27 1069.21 1126.69 1067.83Z" fill="#858098"/>
<path d="M1120 4579.52C1117.56 4582.9 1118.51 4587.27 1115.58 4590.09C1115.07 4590.58 1115.75 4592.23 1115.26 4592.82C1114.42 4593.81 1115.82 4595.11 1114.36 4596.06C1113.71 4596.49 1114.01 4598.33 1113.83 4599.52C1113.77 4599.89 1113.65 4600.43 1113.4 4600.55C1111.01 4601.69 1110.97 4604.27 1109.9 4606.2C1109 4607.84 1107.44 4608.48 1105.27 4607.9C1103.48 4607.43 1102.43 4606.77 1103.03 4604.44C1103.53 4602.47 1104.29 4598.84 1105.45 4597.14C1105.73 4596.74 1105.95 4596.29 1106.13 4595.83C1107.48 4592.31 1107.74 4588.49 1109.71 4585.06C1110.88 4583.01 1110.53 4580.1 1110.89 4577.59C1110.94 4577.21 1111.02 4576.76 1111.26 4576.51C1114.01 4573.59 1113.97 4569.71 1114.81 4566.16C1115.48 4563.31 1115.77 4560.38 1116.36 4557.51C1116.67 4556.03 1117.36 4554.62 1117.73 4553.14C1118.07 4551.72 1118.04 4550.2 1118.49 4548.84C1118.88 4547.68 1119.95 4546.75 1120.33 4545.59C1120.85 4543.97 1121.14 4542.25 1121.29 4540.55C1121.46 4538.61 1122.49 4537.2 1123.49 4535.64C1124.49 4534.07 1125.56 4532.17 1125.56 4530.41C1125.55 4525.7 1126.56 4521.59 1129.81 4518.01C1130.63 4517.1 1130.34 4515.27 1130.89 4514.01C1131.39 4512.86 1132.5 4512.17 1132.7 4510.62C1132.96 4508.59 1133.72 4506.53 1135.46 4505.04C1136.03 4504.55 1136.7 4503.6 1136.6 4502.99C1136.12 4500.29 1138.16 4499.77 1139.79 4498.7C1141.68 4497.45 1143.25 4498.51 1144.8 4499.17C1145.29 4499.38 1145.65 4500.65 1145.55 4501.36C1145.36 4502.61 1144.68 4503.77 1144.37 4505.02C1144.04 4506.31 1143.17 4507.39 1143.63 4509.01C1143.88 4509.85 1142.85 4511.38 1142 4512.15C1140.6 4513.4 1139.99 4514.95 1139.49 4516.61C1138.65 4519.42 1137.9 4522.24 1135.94 4524.6C1135.37 4525.29 1135.36 4526.48 1135.17 4527.46C1135.08 4527.91 1135.39 4528.56 1135.17 4528.85C1133.08 4531.57 1133.83 4535.41 1131.4 4538.07C1130.65 4538.88 1131.03 4540.63 1130.64 4541.87C1129.71 4544.82 1128.55 4547.69 1127.65 4550.64C1127.08 4552.51 1127.26 4554.73 1126.33 4556.36C1124.51 4559.52 1124.52 4563.19 1122.97 4566.39C1122.11 4568.17 1121.55 4570.07 1122.15 4572.14C1122.3 4572.67 1122.24 4573.67 1121.91 4573.87C1119.8 4575.18 1120.86 4577.46 1120 4579.52Z" fill="#858098"/>
<path d="M445.639 3855.47C446.076 3852.96 448.385 3853.39 449.586 3853.16C450.753 3852.94 452.289 3854.14 453.492 3854.97C453.809 3855.18 453.62 3856.35 453.448 3857.03C452.809 3859.56 451.402 3861.85 451.54 3864.64C451.584 3865.52 450.447 3866.44 449.883 3867.36C449.188 3868.5 448.129 3869.6 447.95 3870.82C447.703 3872.49 446.846 3873.82 446.25 3875.28C445.608 3876.86 444.631 3878.3 443.908 3879.85C443.542 3880.63 443.057 3881.62 443.247 3882.36C443.813 3884.56 441.456 3885.83 441.516 3887.23C441.606 3889.33 441.148 3891.64 440.07 3892.45C438.321 3893.77 439.628 3895.19 439.019 3896.47C437.647 3899.35 436.741 3902.47 435.772 3905.53C435.257 3907.16 434.037 3908.68 434.782 3910.58C434.854 3910.76 434.698 3911.12 434.54 3911.29C432.458 3913.62 432.925 3916.8 431.759 3919.45C430.67 3921.93 429.622 3924.51 430.351 3927.36C430.408 3927.59 430.443 3927.94 430.32 3928.06C427.648 3930.66 429.107 3934.89 426.411 3937.64C425.414 3938.65 426.064 3941.14 425.208 3942.47C423.395 3945.28 423.372 3948.58 422.376 3951.58C421.718 3953.56 421.565 3955.3 419.705 3956.69C419.22 3957.06 418.841 3958.83 418.382 3959.93C417.442 3962.19 415.159 3963.39 413.121 3962.85C411.639 3962.46 410.406 3959.57 411.161 3957.46C411.818 3955.61 412.153 3953.68 413.582 3952.01C414.72 3950.68 414.929 3948.53 415.441 3946.71C415.701 3945.79 415.411 3944.59 415.898 3943.88C418.348 3940.3 418.608 3936.2 419.195 3932.13C419.37 3930.91 420.705 3929.89 421.092 3928.65C422.173 3925.19 423.369 3921.71 423.887 3918.14C424.364 3914.86 424.669 3911.59 425.709 3908.41C426.077 3907.29 425.94 3906 426.21 3904.84C426.425 3903.91 426.726 3902.89 427.306 3902.17C429.348 3899.64 429.393 3896.71 429.284 3893.7C429.273 3893.41 429.575 3893.02 429.839 3892.81C433.464 3889.93 433.721 3885.47 434.027 3881.62C434.298 3878.19 436.123 3876 437.472 3873.35C437.972 3872.37 439.091 3871.22 438.87 3870.45C438.418 3868.89 439.374 3868.25 440.078 3867.4C440.494 3866.89 441.03 3866.81 440.758 3865.76C440.515 3864.83 441.092 3863.36 441.804 3862.57C443.655 3860.53 444.635 3858.14 445.639 3855.47Z" fill="#858098"/>
<path d="M299.064 1915.75C298.706 1920.62 296.751 1924.65 295.283 1928.8C294.403 1931.28 293.122 1933.63 291.987 1936.03C290.676 1938.8 288.366 1939.14 286.58 1936.69C285.615 1935.37 284.978 1933.78 284.358 1932.24C284.147 1931.72 284.196 1930.68 284.543 1930.41C287.034 1928.46 286.33 1925.3 287.57 1922.9C288.59 1920.93 288.462 1918.42 290.447 1916.86C290.756 1916.61 290.69 1915.68 290.55 1915.12C290.083 1913.28 289.483 1911.63 291.18 1909.87C291.929 1909.08 291.934 1907.28 291.783 1906C291.358 1902.39 293.633 1899.43 293.948 1895.91C294.205 1893.04 296.435 1890.35 297.779 1887.58C298.01 1887.1 298.244 1886.61 298.366 1886.1C298.475 1885.64 298.236 1884.96 298.485 1884.7C301.826 1881.16 300.727 1876.11 302.831 1872.17C303.28 1871.33 304.136 1870.66 304.401 1869.79C304.754 1868.63 305.801 1867.88 305.775 1866.4C305.755 1865.23 307.128 1864.1 307.505 1862.84C307.996 1861.2 308.946 1859.78 309.506 1858.14C310.798 1854.37 311.104 1850.12 314.03 1846.98C314.271 1846.72 314.497 1846.2 314.396 1845.91C313.039 1842.08 315.871 1838.83 315.901 1835.12C315.916 1833.28 317.53 1831.34 318.719 1829.65C319.518 1828.52 323.168 1829.57 323.925 1831.14C324.83 1833.01 325.624 1834.89 324.883 1837.16C323.901 1840.16 323.406 1843.32 322.396 1846.31C321.738 1848.25 322.61 1850.43 320.913 1852.28C319.766 1853.53 318.916 1855.46 318.791 1857.14C318.585 1859.95 317.463 1862.48 315.974 1864.45C313.421 1867.83 313.738 1872.45 310.661 1875.45C310.648 1879.58 307.504 1882.59 306.761 1886.49C306.267 1889.09 304.09 1891.3 304.932 1894.23C302.634 1897.42 303.026 1901.55 301.214 1904.92C299.459 1908.19 299.517 1911.83 299.064 1915.75Z" fill="#858098"/>
<path d="M1167.69 17172C1166.14 17175.7 1165.45 17179.3 1163.42 17182.5C1162.7 17183.6 1162.13 17185.3 1161.63 17186.8C1160.79 17189.4 1157.9 17189.8 1156.35 17187.6C1155.35 17186.2 1154.78 17184.5 1154.11 17182.9C1153.93 17182.4 1153.86 17181.6 1154.13 17181.3C1156.68 17178.5 1156.43 17174.5 1158.11 17171.3C1158.68 17170.3 1159.34 17169.2 1159.89 17168.2C1160.16 17167.6 1160.6 17166.9 1160.42 17166.5C1159.07 17163.7 1160.54 17161.1 1161.01 17158.5C1161.51 17155.7 1162.68 17152.9 1162.97 17150.1C1163.33 17146.6 1165.04 17143.6 1166.51 17140.6C1167.73 17138.1 1167.87 17135.2 1169.76 17132.9C1170.58 17131.9 1170.28 17130 1170.73 17128.7C1171.68 17125.7 1172.06 17122.5 1174.2 17120C1175.01 17119 1175.5 17117.8 1175.75 17116.4C1175.99 17115 1177.2 17113.9 1177.76 17112.5C1178.36 17111.1 1179.22 17109.8 1179.43 17108.1C1179.63 17106.4 1180.34 17104.9 1181.03 17103.3C1181.9 17101.4 1181.71 17099 1183.77 17097.7C1183.94 17097.6 1184.07 17097.2 1184.02 17097C1183.18 17093.3 1185.42 17090.1 1185.48 17086.5C1185.52 17084 1187.39 17082.4 1188.57 17080.5C1189.16 17079.5 1192.78 17080.5 1193.51 17081.8C1194.53 17083.7 1195.37 17085.5 1194.63 17087.8C1193.66 17090.8 1192.59 17093.9 1192.31 17097C1191.96 17100.8 1189.32 17103.8 1188.69 17107.3C1187.58 17113.6 1183.1 17118.5 1181.65 17124.7C1181.14 17126.8 1179.66 17128.7 1178.8 17130.8C1177.88 17133.1 1177.14 17135.4 1176.37 17137.7C1175.57 17140.1 1173.8 17142.3 1174.62 17145.1C1172.3 17148 1172.67 17151.8 1171.22 17155.1C1169.88 17158.1 1168.77 17161.2 1169.21 17164.8C1169.47 17167 1168.33 17169.3 1167.69 17172Z" fill="#858098"/>
<path d="M1130.63 5887.79C1130.56 5888.27 1130.69 5888.4 1130.67 5888.49C1129.53 5893.08 1128.38 5897.67 1127.23 5902.25C1125.39 5902.88 1126.47 5904.53 1126.05 5905.66C1124.58 5909.67 1123.4 5913.78 1120.63 5917.22C1119.88 5918.16 1119.42 5919.48 1119.22 5920.69C1118.97 5922.19 1118.41 5923.47 1117.79 5924.84C1115.63 5929.67 1113.68 5934.61 1111.81 5939.56C1111.22 5941.14 1111.2 5942.93 1110.81 5944.59C1110.44 5946.13 1109.36 5947.37 1109.17 5949.08C1108.98 5950.82 1108.08 5952.48 1107.48 5954.18C1106.89 5955.88 1106.09 5957.54 1105.76 5959.29C1105.28 5961.77 1105.17 5964.31 1104.85 5966.82C1104.68 5968.15 1104.58 5969.55 1104.08 5970.76C1103.67 5971.77 1103.82 5972.8 1103.24 5973.9C1101.69 5976.82 1100.89 5980.13 1099.79 5983.29C1099.49 5984.14 1099.27 5985.02 1098.89 5985.83C1097.72 5988.28 1095.04 5989.15 1093.12 5987.41C1092.08 5986.46 1091.77 5984.73 1091.04 5983.41C1090.16 5981.81 1090.61 5980.66 1091.87 5979.47C1092.44 5978.94 1092.86 5977.89 1092.81 5977.11C1092.57 5973.6 1094.59 5970.89 1095.85 5967.91C1096.22 5967.03 1097.03 5965.81 1096.72 5965.28C1095.69 5963.5 1096.7 5962.12 1097.06 5960.56C1097.3 5959.52 1097.3 5958.42 1097.39 5957.34C1097.74 5953.39 1099.68 5949.81 1099.89 5945.79C1099.95 5944.49 1100.99 5943.03 1101.98 5942.02C1103.78 5940.19 1104.2 5938.06 1104.43 5935.66C1104.53 5934.59 1105.66 5933.66 1105.99 5932.57C1106.8 5929.82 1107.27 5926.98 1108.16 5924.27C1108.73 5922.54 1109.68 5920.91 1110.68 5919.37C1111.38 5918.29 1112.48 5917.68 1111.99 5915.9C1111.74 5915.02 1113.22 5913.68 1113.89 5912.54C1114.56 5911.38 1115.55 5910.28 1115.79 5909.03C1116.25 5906.68 1117.04 5904.41 1117.57 5902.07C1117.87 5900.73 1117.94 5899.1 1119.58 5898.15C1120.25 5897.76 1120.83 5896.11 1120.56 5895.36C1119.09 5891.31 1122.46 5888.07 1122.25 5884.18C1122.18 5882.91 1123.91 5881.3 1125.17 5880.29C1126.02 5879.61 1127.35 5878.53 1128.68 5880.42C1130.22 5882.6 1132.13 5884.46 1130.63 5887.79Z" fill="#858098"/>
<path d="M322.111 17683.5C323.017 17680.1 323.732 17677 324.595 17674.1C325.331 17671.5 326.68 17669.2 326.619 17666.3C326.592 17665 327.832 17663.5 328.119 17661.9C328.354 17660.5 332.585 17659.7 333.778 17660.6C335.357 17661.7 336.595 17664.8 336.088 17666.8C335.139 17670.4 334.178 17674 333.09 17677.6C332.784 17678.6 332.004 17679.5 331.471 17680.5C331.228 17680.9 330.826 17681.4 330.891 17681.8C331.624 17686.5 329.986 17690.8 328.725 17695.2C327.747 17698.6 327.53 17702.2 326.579 17705.6C325.951 17707.8 325.354 17710.2 324.288 17712.3C323.197 17714.4 321.919 17716.5 320.515 17718.4C318.154 17721.7 315.622 17724.9 313.18 17728.1C312.96 17728.4 312.686 17728.8 312.759 17729.1C313.491 17732 311.191 17733.3 309.853 17735.3C308.613 17737.1 308.441 17739.4 306.986 17741.3C305.844 17742.8 305.609 17745 303.698 17746.1C303.319 17746.3 303.26 17747.2 303.178 17747.7C303.114 17748.2 303.387 17748.7 303.265 17749.2C301.844 17754.1 300.465 17759.1 298.854 17764C298.473 17765.2 297.449 17766.3 296.4 17767C294.419 17768.2 292.718 17767.5 292.305 17765.3C291.942 17763.3 291.641 17761.3 292.338 17759.2C293.488 17755.7 293.56 17751.7 295.133 17748.5C296.984 17744.6 297.778 17740.4 300.013 17736.6C301.761 17733.7 303.678 17730.7 304.633 17727.1C305.52 17723.8 307.629 17720.7 309.6 17717.8C310.765 17716.1 311.57 17713.8 313.991 17713.1C314.312 17713 314.542 17712.3 314.659 17711.8C315.615 17708.1 317.957 17704.7 317.82 17700.6C317.791 17699.7 318.34 17698.9 318.665 17698C320.062 17694.4 321.024 17690.7 320.994 17686.9C320.985 17685.7 323.505 17685.4 322.111 17683.5Z" fill="#858098"/>
<path d="M516.076 6851.79C513.847 6856.8 511.71 6861.44 509.677 6866.12C509.327 6866.93 509.602 6868 509.272 6868.82C508.731 6870.18 507.914 6871.42 507.249 6872.72C506.963 6873.28 506.616 6873.88 506.561 6874.48C506.438 6875.83 507.014 6877.64 506.335 6878.45C505.208 6879.81 505.737 6881.26 505.247 6882.47C504.512 6884.29 503.811 6886.09 503.23 6887.96C502.893 6889.05 501.723 6894.85 501.354 6896.18C500.309 6899.97 501.282 6904.25 498.344 6907.63C497.61 6908.48 498.121 6910.29 497.653 6911.5C496.485 6914.53 495.115 6917.48 493.761 6920.43C492.993 6922.11 490.409 6922.61 489.339 6921.14C488.144 6919.49 487.307 6917.55 486.474 6915.67C486.113 6914.86 485.678 6913.88 487.134 6913.23C487.709 6912.97 487.963 6911.69 488.105 6910.83C488.627 6907.68 490.358 6904.98 491.265 6901.98C491.853 6900.03 492.288 6898.63 492.086 6897.15C492.006 6896.56 491.781 6895.93 491.913 6895.39C492.678 6892.23 493.544 6889.1 494.348 6885.96C494.866 6883.93 496.315 6882.09 495.687 6879.81C495.659 6879.71 495.752 6879.56 495.806 6879.45C496.859 6877.21 497.931 6874.97 498.963 6872.72C499.95 6870.56 500.9 6868.39 501.86 6866.23C502.215 6865.42 502.8 6864.63 502.854 6863.8C503.279 6857.23 506.869 6851.97 509.726 6846.36C510.999 6843.86 511.886 6841.1 512.503 6838.36C513.005 6836.13 514.183 6834.22 514.831 6832.08C515.1 6831.18 515.935 6830.56 515.771 6829.38C515.627 6828.34 515.836 6827.18 516.146 6826.16C517.32 6822.27 517.158 6817.97 519.981 6814.56C520.791 6813.58 521.322 6812.73 522.612 6813.22C523.97 6813.74 525.658 6813.74 526.207 6815.62C527.319 6819.42 527.192 6819.36 525.874 6823.87C524.95 6827.03 524.675 6830.38 523.906 6833.59C523.641 6834.69 522.626 6835.6 522.189 6836.69C521.33 6838.84 520.727 6841.09 519.852 6843.23C518.72 6845.99 517.427 6848.69 516.076 6851.79Z" fill="#858098"/>
<path d="M1049 15630.1C1048.21 15628 1048.66 15626.4 1049.2 15624.7C1049.67 15623.2 1049.73 15621.6 1050.08 15620C1050.24 15619.3 1050.44 15618.3 1050.96 15618C1052.16 15617.2 1052.43 15616.4 1051.83 15615.2C1051.71 15614.9 1051.93 15614.4 1052.14 15614.1C1054.31 15611.3 1053.83 15607.5 1055.95 15604.5C1057.89 15601.7 1058.57 15598.1 1060.94 15595.5C1061.02 15595.4 1061.15 15595.3 1061.14 15595.2C1060.41 15591.6 1063.34 15589.6 1064.86 15586.9C1066.49 15584.1 1067.62 15581 1070.67 15579.2C1071.6 15578.6 1073.37 15577.4 1072.1 15575.6C1073.28 15574.4 1073.61 15573.2 1073.69 15571.4C1073.82 15568.6 1074.76 15565.8 1075.66 15563.1C1077.27 15558.2 1078.71 15553.3 1079.24 15548.2C1079.34 15547.2 1079.83 15546.2 1080.22 15545.3C1082.49 15539.8 1083.51 15533.9 1084.95 15528.2C1085.34 15526.7 1088.56 15525.5 1090.12 15526.4C1092.76 15527.9 1093.56 15530 1092.72 15532.9C1091.59 15536.7 1090.54 15540.6 1089.49 15544.5C1089.07 15546.1 1087.6 15547.2 1088.32 15549.3C1088.81 15550.8 1087.99 15552.7 1087.67 15554.3C1087.26 15556.4 1086.85 15558.5 1086.29 15560.6C1085.11 15565 1083.68 15569.3 1082.64 15573.7C1082.11 15575.9 1082.44 15578.1 1080.09 15579.7C1078.35 15580.9 1078.85 15584.1 1076.42 15585C1074.49 15589.4 1070.14 15592.3 1069.33 15597.4C1069.16 15598.5 1068.09 15599.4 1067.52 15600.5C1066.64 15602.1 1065.83 15603.7 1064.98 15605.4C1064.19 15606.9 1063.7 15608.8 1062.49 15609.8C1060.84 15611.2 1060.2 15613.2 1060.23 15614.8C1060.27 15617.3 1059.09 15619.2 1058.49 15621.4C1057.66 15624.4 1057.12 15627.6 1055.46 15630.3C1055.09 15630.9 1054.8 15631.7 1054.25 15632.1C1051.35 15634.1 1050.6 15633.8 1049 15630.1Z" fill="#858098"/>
<path d="M1163.9 5018.68C1164.5 5016.71 1166.4 5015.5 1165.34 5013.48C1165.25 5013.31 1165.18 5012.95 1165.26 5012.89C1168.08 5010.92 1167.22 5007.38 1168.7 5004.82C1170.47 5001.76 1171.92 4998.5 1173.81 4995.51C1174.29 4994.76 1174.45 4994.34 1174.57 4993.46C1174.82 4991.71 1175.25 4989.92 1176.73 4988.43C1178.31 4986.84 1179.51 4984.76 1180.44 4982.71C1181.14 4981.15 1182.37 4980.27 1183.36 4979.07C1184.21 4978.05 1186.05 4977.6 1185.53 4975.53C1185.15 4974.02 1187.22 4973.41 1187.12 4971.41C1186.99 4968.68 1188.29 4965.87 1189 4963.09C1189.81 4959.95 1190.73 4956.84 1191.44 4953.67C1192.13 4950.58 1193.22 4947.59 1193.8 4944.49C1194.64 4940.03 1197.35 4936.08 1197.25 4931.34C1197.22 4930.01 1199.05 4929.12 1198.39 4927.19C1198.07 4926.28 1202.03 4924.87 1203.42 4925.38C1205.06 4925.99 1207.1 4929.51 1206.66 4931.16C1205.67 4934.91 1204.67 4938.67 1203.53 4942.38C1203.19 4943.51 1202.32 4944.48 1201.77 4945.55C1201.5 4946.09 1201.19 4946.75 1201.28 4947.28C1201.9 4951.06 1200.91 4954.56 1199.78 4958.09C1199.14 4960.07 1198.82 4962.16 1198.43 4964.22C1198.03 4966.28 1196.85 4968.02 1196.93 4970.36C1197.01 4972.73 1195.43 4974.99 1195.17 4977.57C1195.06 4978.73 1193.06 4979.9 1192.27 4981.53C1191.24 4983.63 1189.51 4985.39 1188.08 4987.3C1186.08 4989.99 1183.85 4992.5 1183.15 4996.01C1182.84 4997.61 1181.63 4999.04 1180.78 5000.52C1180.3 5001.35 1179.69 5002.1 1179.21 5002.93C1177.8 5005.34 1176.34 5007.72 1175.07 5010.2C1174.54 5011.25 1173.93 5012.25 1173.76 5013.57C1173.39 5016.31 1172.62 5019.01 1171.82 5021.66C1170.97 5024.49 1169.92 5027.26 1168.92 5030.04C1168.49 5031.23 1165.89 5033.1 1164.84 5032.84C1164.21 5032.69 1163.44 5032.12 1163.2 5031.54C1162.28 5029.4 1161.79 5027.2 1162.54 5024.81C1163.12 5022.94 1163.37 5020.97 1163.9 5018.68Z" fill="#858098"/>
<path d="M1531.64 17887.1C1533.07 17889.7 1531.58 17891.9 1531.07 17893.8C1530.03 17897.8 1530.15 17902.2 1527.63 17905.8C1527.39 17906.1 1527.29 17906.6 1527.33 17907C1527.52 17909 1527.2 17910.8 1526.39 17912.6C1525.58 17914.4 1525.4 17916.6 1524.32 17918.1C1523.2 17919.8 1522.92 17922.2 1520.71 17923C1519.38 17926.8 1516.45 17929.4 1514.04 17932.4C1513.96 17932.5 1513.9 17932.6 1513.92 17932.7C1514.81 17937.2 1510.62 17939.6 1509.25 17943.2C1508.32 17945.6 1507.42 17948.5 1504.84 17950.1C1504.48 17950.4 1504.26 17950.9 1504.15 17951.4C1503.5 17953.9 1502.43 17956.5 1502.41 17959C1502.36 17962.9 1500.49 17966.1 1499.32 17969.5C1498.93 17970.6 1497.14 17971.9 1495.88 17972C1494.05 17972.2 1492.83 17971 1492.77 17968.7C1492.72 17967.1 1492.64 17965.6 1493.14 17964C1494.19 17960.7 1495.19 17957.3 1495.84 17953.9C1496.26 17951.6 1497.51 17949.7 1498.2 17947.6C1498.87 17945.5 1499.77 17943.5 1500.8 17941.5C1502.39 17938.3 1504.41 17935.4 1505.41 17931.8C1506.34 17928.5 1508.58 17925.6 1510.45 17922.6C1511.51 17920.9 1512.36 17918.9 1514.54 17918.1C1514.9 17918 1515.21 17917.3 1515.31 17916.9C1516.16 17913.4 1518.52 17910.3 1518.24 17906.4C1518.18 17905.6 1518.77 17904.7 1519.08 17903.8C1520.51 17899.9 1521.83 17895.9 1521.78 17891.5C1521.77 17890.1 1523.13 17889.1 1523.34 17887.4C1523.82 17883.6 1525.25 17879.9 1526.27 17876.2C1526.72 17874.5 1527.35 17872.8 1527.46 17871.1C1527.55 17869.6 1529.64 17869 1528.84 17866.9C1528.35 17865.6 1533.02 17864.4 1534.57 17865.6C1536.61 17867.2 1537.3 17869.9 1536.54 17872.6C1535.98 17874.6 1535.85 17876.7 1535.14 17878.7C1534.12 17881.5 1532.75 17884.2 1531.64 17887.1Z" fill="#858098"/>
<path d="M769.376 7942.57C769.886 7940.58 770.179 7938.7 772.399 7938.11C775.219 7937.36 778.83 7941.04 778.064 7943.96C776.981 7948.09 776.241 7952.41 774.458 7956.23C772.919 7959.52 773.431 7962.91 772.594 7966.16C772.503 7966.51 772.513 7966.89 772.415 7967.24C771.221 7971.47 769.974 7975.69 768.834 7979.94C768.391 7981.59 768.187 7983.3 767.869 7984.98C767.574 7986.54 767.273 7988.11 766.97 7989.67C766.923 7989.91 766.921 7990.32 766.791 7990.37C764.445 7991.27 764.207 7993.8 762.876 7995.48C760.058 7999.03 757.553 8002.82 754.92 8006.52C755.345 8011.26 750.869 8013.72 749.663 8017.85C748.741 8021.01 745.721 8023.55 745.13 8027C744.721 8029.39 743.285 8031.36 743.255 8033.98C743.226 8036.41 741.788 8038.85 740.865 8041.25C740.524 8042.13 739.787 8042.86 739.396 8043.73C738.627 8045.45 736.817 8045.49 735.733 8045.18C734.924 8044.94 734.591 8043.08 734.032 8041.94C733.118 8040.09 733.743 8038.37 734.309 8036.56C734.854 8034.82 735.01 8032.96 735.434 8031.17C735.844 8029.44 737.986 8028.12 736.627 8025.98C739.594 8023.17 738.865 8018.8 741.021 8015.63C742.243 8013.84 743.528 8012.02 744.342 8010.04C745.132 8008.11 746.802 8006.47 746.517 8004.11C746.461 8003.65 746.702 8003.05 747.011 8002.68C750.013 7999.09 751.584 7994.46 755.145 7991.33C756.248 7990.36 757.082 7989.64 757.042 7988.04C757.005 7986.56 758.505 7985.72 758.62 7983.92C758.833 7980.62 760.181 7977.4 761.021 7974.13C761.702 7971.48 762.467 7968.85 762.948 7966.16C763.44 7963.41 764.468 7960.82 764.981 7958.09C765.227 7956.78 766.481 7955.62 765.589 7954.12C765.503 7953.97 765.652 7953.57 765.813 7953.41C768.836 7950.46 767.989 7946.43 768.795 7942.86C768.813 7942.78 769.015 7942.74 769.376 7942.57Z" fill="#858098"/>
<path d="M398.815 6644.57C399.325 6642.58 399.617 6640.7 401.837 6640.11C404.658 6639.36 408.269 6643.04 407.503 6645.96C406.42 6650.09 405.68 6654.41 403.897 6658.23C402.357 6661.52 402.869 6664.91 402.032 6668.16C401.942 6668.51 401.952 6668.89 401.854 6669.24C400.659 6673.47 399.412 6677.69 398.272 6681.94C397.83 6683.59 397.626 6685.3 397.308 6686.98C397.012 6688.54 396.711 6690.11 396.409 6691.67C396.362 6691.91 396.36 6692.32 396.23 6692.37C393.883 6693.27 393.645 6695.8 392.314 6697.48C389.497 6701.03 386.992 6704.82 384.359 6708.52C384.783 6713.26 380.307 6715.72 379.102 6719.85C378.179 6723.01 375.159 6725.55 374.569 6729C374.16 6731.39 372.724 6733.36 372.693 6735.98C372.665 6738.41 371.227 6740.85 370.303 6743.25C369.962 6744.13 369.226 6744.86 368.834 6745.73C368.065 6747.45 366.256 6747.49 365.171 6747.18C364.362 6746.94 364.03 6745.08 363.471 6743.94C362.557 6742.09 363.182 6740.37 363.747 6738.56C364.293 6736.82 364.449 6734.96 364.873 6733.17C365.282 6731.44 367.424 6730.12 366.066 6727.98C369.032 6725.17 368.304 6720.8 370.46 6717.63C371.681 6715.84 372.966 6714.02 373.78 6712.04C374.571 6710.11 376.241 6708.47 375.955 6706.11C375.9 6705.65 376.141 6705.05 376.449 6704.68C379.452 6701.09 381.022 6696.46 384.583 6693.33C385.686 6692.36 386.521 6691.64 386.48 6690.04C386.443 6688.56 387.943 6687.72 388.059 6685.92C388.271 6682.62 389.62 6679.4 390.46 6676.13C391.141 6673.48 391.905 6670.85 392.386 6668.16C392.879 6665.41 393.906 6662.82 394.419 6660.09C394.665 6658.78 395.919 6657.62 395.027 6656.12C394.941 6655.97 395.09 6655.57 395.251 6655.41C398.274 6652.46 397.428 6648.43 398.234 6644.86C398.252 6644.78 398.453 6644.74 398.815 6644.57Z" fill="#858098"/>
<path d="M497.366 9617.4C497.804 9615.22 499.409 9613.67 498.586 9611.61C498.514 9611.43 498.663 9611.06 498.83 9610.9C501.581 9608.37 500.908 9604.83 501.614 9601.69C501.923 9600.31 503.211 9599.45 502.847 9597.54C502.577 9596.12 506.459 9595.33 508.152 9596.44C510.97 9598.28 511.5 9599.86 510.593 9602.97C509.646 9606.21 508.922 9609.51 507.936 9612.74C507.591 9613.87 506.735 9614.84 506.15 9615.9C505.908 9616.34 505.534 9616.87 505.612 9617.29C506.414 9621.6 504.916 9625.52 503.815 9629.56C502.19 9635.53 501.168 9641.67 499.427 9647.61C498.817 9649.69 496.821 9651.36 495.506 9653.25C494.818 9654.24 494.266 9655.32 493.595 9656.32C492.529 9657.92 491.62 9659.69 490.269 9660.99C488.655 9662.55 488.188 9664.44 487.555 9666.43C487.049 9668.01 485.967 9669.42 485.105 9670.89C484.681 9671.61 484.017 9672.23 483.736 9673C482.753 9675.67 481.35 9678.03 479.627 9680.32C478.662 9681.6 477.75 9683.32 477.893 9685.11C477.962 9685.99 477.495 9686.44 477.252 9687.1C476.664 9688.68 476.677 9690.48 476.186 9692.11C475.373 9694.82 474.368 9697.47 473.413 9700.13C473.207 9700.71 473.011 9701.52 472.573 9701.73C471.364 9702.32 469.873 9703.18 468.794 9702.88C467.975 9702.65 467.574 9700.81 467.062 9699.65C466.259 9697.84 466.656 9696.11 467.247 9694.27C468.723 9689.67 469.985 9685 471.327 9680.36C472.892 9674.95 475.647 9670.13 478.747 9665.48C478.94 9665.19 479.145 9664.87 479.207 9664.54C479.454 9663.22 479.201 9661.52 479.939 9660.64C482.802 9657.22 483.757 9652.35 487.584 9649.83C490.17 9648.13 490.283 9645.37 491.177 9643.15C492.884 9638.93 493.591 9634.3 494.659 9629.82C495.202 9627.55 495.896 9625.25 495.984 9622.95C496.023 9621.94 496.192 9621.6 496.793 9620.88C497.365 9620.2 497.123 9618.83 497.366 9617.4Z" fill="#858098"/>
<path d="M358.461 19061.6C357.169 19065 355.725 19068.1 353.466 19070.8C352.697 19071.8 352.148 19073.2 352.223 19074.4C352.408 19077.4 350.827 19079.7 350.198 19082.4C349.863 19083.8 349.909 19085.3 349.436 19086.7C348.963 19088.1 347.969 19089.2 347.363 19090.5C346.586 19092.2 344.697 19093.7 343.037 19093.2C341.639 19092.7 340.575 19091.5 340.82 19089.7C341.059 19087.9 341.118 19086.1 341.348 19084.3C341.549 19082.8 341.392 19080.8 342.251 19079.7C344.065 19077.4 343.016 19074 345.512 19071.9C346.188 19071.4 345.621 19069.5 346.097 19068.5C347.993 19064.3 349.912 19060.2 352.2 19056.2C352.789 19055.2 353.467 19054.7 353.086 19053.4C352.882 19052.7 353.378 19051.6 353.848 19050.9C356.011 19047.6 358.251 19044.3 360.524 19041.1C361.064 19040.3 361.733 19039.5 362.525 19039.1C363.69 19038.4 364.57 19037.9 364.186 19036.2C364.039 19035.5 365.228 19034.7 365.428 19033.8C366.049 19031.2 366.496 19028.6 366.99 19025.9C367.078 19025.4 366.989 19024.9 367.116 19024.5C368.357 19020.1 369.932 19015.7 370.804 19011.3C371.73 19006.5 373.772 19002.1 374.728 18997.5C375.392 18994.2 376.323 18991.1 377.38 18988.1C378.175 18985.8 380.918 18985.2 382.665 18986.9C384.54 18988.7 385.618 18990.6 384.533 18993.5C383.176 18997.1 382.357 19001 381.365 19004.7C380.946 19006.3 379.483 19007.5 380.166 19009.6C380.632 19011 379.839 19012.9 379.535 19014.6C379.182 19016.5 378.85 19018.5 378.326 19020.4C377.015 19025.1 374.889 19029.7 374.441 19034.6C374.053 19038.7 370.975 19040.7 369.351 19043.7C367.033 19048.1 362.972 19051.4 361.663 19056.5C361.159 19058.4 360.475 19060.3 358.461 19061.6Z" fill="#858098"/>
<path d="M1183.97 16927.9C1182.97 16930.6 1182.54 16933 1181.41 16935.3C1180.35 16937.4 1179.51 16939.8 1179.24 16942C1179.01 16943.8 1177.59 16945.1 1177.92 16947.2C1178.1 16948.2 1176.82 16949.5 1176.18 16950.7C1176.07 16950.9 1175.83 16951.1 1175.81 16951.3C1175.61 16953.4 1174.49 16955.1 1173.95 16957C1173.2 16959.6 1172.44 16962.3 1171.68 16965C1170.84 16967.9 1168.71 16970.5 1167.33 16973.4C1166.49 16975.1 1166.02 16977 1165.38 16978.8C1164.51 16981.3 1163.02 16983.5 1163.94 16986.6C1164.39 16988.1 1162.33 16990.3 1162.69 16991.9C1163.07 16993.6 1162.01 16993.9 1161.44 16994.6C1160.7 16995.5 1159.51 16996.6 1158.56 16996.5C1156.96 16996.5 1155.19 16995.9 1153.88 16994.9C1152.69 16994.1 1151.84 16992.3 1153.06 16990.9C1154.87 16989 1155.07 16986.7 1155.4 16984.2C1155.77 16981.5 1156.55 16978.8 1157.37 16976.1C1158.76 16971.6 1160.74 16967.3 1163.4 16963.4C1163.74 16962.9 1163.71 16962.1 1164.07 16961.6C1165.3 16959.9 1164.35 16957.7 1165.9 16955.9C1167.12 16954.5 1167.47 16952.2 1167.8 16950.4C1168.26 16947.8 1168.92 16945.5 1170.29 16943.3C1171.34 16941.5 1171.15 16939 1171.96 16937.2C1172.88 16935.1 1172.43 16932.4 1174.61 16930.8C1175.13 16930.4 1175.23 16929.5 1175.48 16928.8C1176.27 16926.5 1176.68 16924.2 1177.75 16922C1178.89 16919.8 1179.78 16917.3 1180.3 16914.8C1181.22 16910.4 1183.57 16906.6 1184.78 16902.3C1185.2 16900.8 1186.25 16899.5 1186.99 16898.1C1187.8 16896.6 1188.78 16895.1 1189.35 16893.5C1190 16891.7 1191.17 16890.8 1192.97 16891C1195.51 16891.2 1197.82 16893.3 1197.76 16895.3C1197.69 16897.3 1197.49 16899.1 1195.96 16901C1193.9 16903.5 1192.66 16906.7 1191.18 16909.6C1190.34 16911.3 1189.74 16913.1 1188.99 16914.8C1188.38 16916.2 1188.97 16918.2 1187.06 16919C1186.85 16922.1 1184.59 16924.5 1183.97 16927.9Z" fill="#858098"/>
<path d="M1190.03 11175.7C1187.99 11180.8 1186.21 11185.6 1184.09 11190.2C1183.29 11191.9 1183.74 11193.9 1182.48 11195.6C1181.31 11197.1 1180.58 11199.3 1180.43 11201.3C1180.28 11203.1 1179.52 11204.5 1178.98 11206.1C1178.39 11207.9 1178.46 11210.1 1177.44 11211.5C1175.72 11213.9 1176.32 11217 1174.17 11219.2C1173.42 11220 1173.94 11221.9 1173.48 11223.1C1171.63 11227.9 1169.7 11232.7 1167.66 11237.5C1166.54 11240 1165.13 11242.5 1163.86 11245C1163.74 11245.3 1163.51 11245.6 1163.59 11245.8C1165.43 11249.5 1163.43 11252.9 1162.57 11256.3C1162.25 11257.5 1159.99 11258.5 1158.41 11259.1C1156.17 11259.9 1153.04 11257.5 1152.94 11255.1C1152.91 11254.5 1152.86 11253.7 1153.2 11253.4C1156.01 11251.1 1155.2 11247.8 1155.84 11244.8C1156.01 11244.1 1156.2 11243.3 1156.45 11242.6C1157.12 11240.6 1157.86 11238.6 1158.51 11236.6C1158.81 11235.7 1158.78 11234.6 1159.23 11233.7C1161.12 11230.2 1163.26 11226.8 1165.05 11223.2C1165.9 11221.5 1165.49 11219.5 1166.87 11217.7C1167.98 11216.2 1168.02 11213.9 1168.37 11212C1168.68 11210.2 1169.42 11208.7 1170.07 11207.1C1170.94 11205 1172.32 11202.7 1172.19 11200.6C1172.05 11198.3 1175.08 11197 1173.62 11194.7C1175.48 11192.8 1176.26 11190.6 1175.99 11188C1175.97 11187.8 1176.52 11187.5 1176.77 11187.3C1178.52 11185.5 1179.83 11183.5 1179.49 11180.7C1179.38 11179.9 1179.89 11179.1 1180.18 11178.2C1181.27 11175.1 1182.52 11171.9 1183.44 11168.7C1184.48 11165.1 1186.61 11162.1 1188.7 11159.1C1189.14 11158.4 1189.63 11157.7 1189.71 11156.9C1189.98 11154.5 1191.31 11153.5 1193.53 11154.1C1197.99 11155.3 1199.48 11159.9 1196.59 11163.7C1195.95 11164.6 1195.1 11165.3 1194.24 11165.9C1193.36 11166.6 1194.5 11167.4 1193.64 11168.4C1192.01 11170.3 1191.27 11173 1190.03 11175.7Z" fill="#858098"/>
<path d="M1227.39 7200.63C1228.41 7194.46 1230.73 7189.1 1232.5 7183.56C1233.49 7180.46 1235 7177.73 1237.02 7175.18C1237.89 7174.07 1239.54 7173.05 1238.59 7171.05C1238.46 7170.78 1239.32 7169.68 1239.89 7169.5C1243.38 7168.39 1246.95 7170.21 1247.03 7174.32C1247.06 7175.77 1246.59 7177.9 1245.58 7178.55C1243.12 7180.17 1243.02 7182.83 1241.87 7184.99C1240.59 7187.4 1239.51 7189.92 1238.44 7192.43C1236.62 7196.72 1235.04 7201.11 1233.03 7205.3C1232.2 7207.03 1232.82 7208.96 1231.41 7210.66C1230.17 7212.14 1229.72 7214.4 1229.3 7216.39C1228.55 7220 1228.25 7224.02 1226.16 7226.86C1224.42 7229.24 1225.87 7232.55 1223.09 7234.31C1222.62 7234.62 1223.14 7236.22 1222.82 7237.07C1220.78 7242.37 1218.73 7247.68 1216.48 7252.89C1215.37 7255.45 1213.79 7257.8 1212.49 7260.28C1212.33 7260.59 1212.54 7261.16 1212.69 7261.57C1213.99 7265.01 1212.24 7268.14 1211.65 7271.37C1211.33 7273.15 1207.79 7274.71 1206.04 7274.09C1204.13 7273.41 1201.6 7273.34 1201.92 7270.24C1201.98 7269.65 1201.81 7268.76 1202.14 7268.5C1204.98 7266.23 1204.07 7262.84 1204.85 7259.97C1205.07 7259.13 1205.41 7258.31 1205.68 7257.47C1206.3 7255.56 1206.94 7253.65 1207.51 7251.72C1207.82 7250.66 1207.7 7249.32 1208.31 7248.51C1210.6 7245.5 1211.22 7241.52 1214.05 7238.84C1214.29 7238.61 1214.47 7238.11 1214.42 7237.77C1214.17 7236.12 1214.51 7234.73 1215.46 7233.28C1216.17 7232.18 1216.23 7230.66 1216.57 7229.32C1217.53 7225.52 1219.37 7222.02 1220.37 7218.26C1221.53 7213.93 1223.51 7209.91 1224.76 7205.64C1225.28 7203.84 1225.03 7201.8 1227.39 7200.63Z" fill="#858098"/>
<path d="M411.472 3718.12C411.572 3717.28 411.396 3716.75 411.54 3716.34C413.623 3710.34 415.615 3704.3 417.945 3698.39C418.66 3696.58 420.348 3695.17 421.548 3693.54C421.838 3693.14 422.241 3692.51 422.11 3692.18C421.052 3689.51 423.535 3689.55 424.727 3689.13C425.583 3688.84 426.977 3689.51 427.885 3690.12C428.8 3690.73 429.939 3691.73 430.048 3692.67C430.284 3694.72 430 3696.85 428.629 3698.62C425.954 3702.08 424.177 3706.03 422.496 3710.01C420.37 3715.05 418.573 3720.23 416.253 3725.18C415.437 3726.92 416.321 3728.89 414.647 3730.56C413.419 3731.78 412.534 3734.2 412.806 3735.87C413.167 3738.09 411.365 3739.2 411.26 3741.09C411.157 3742.93 410.558 3744.87 409.67 3746.5C408.387 3748.85 408.165 3751.6 406.483 3753.81C405.853 3754.64 406.347 3756.23 405.929 3757.33C403.992 3762.39 402.005 3767.44 399.85 3772.42C398.738 3774.99 397.209 3777.38 395.947 3779.89C395.733 3780.31 395.781 3780.98 395.943 3781.46C397.059 3784.75 395.421 3787.78 395.002 3790.91C394.712 3793.06 392.208 3794.27 389.854 3793.96C388.119 3793.73 386.039 3794.49 385.426 3791.72C385.118 3790.33 384.686 3789.58 385.962 3788.15C387.957 3785.9 387.671 3782.57 388.18 3779.66C388.329 3778.8 388.617 3777.94 389.008 3777.17C389.83 3775.54 389.502 3773.46 391.009 3772.11C390.026 3768.19 393.579 3765.87 394.607 3762.61C395.317 3760.36 397.074 3758.22 397.542 3755.67C397.835 3754.08 399.47 3753.2 399.276 3751.17C399.12 3749.54 400.688 3747.81 400.796 3746.08C400.907 3744.31 402.079 3743.15 402.503 3741.61C403.08 3739.5 404.65 3737.38 404.424 3735.43C404.18 3733.32 407.101 3732.34 405.687 3730.19C405.577 3730.02 406.77 3729.22 406.953 3728.59C407.504 3726.71 408.292 3724.95 408.403 3722.84C408.478 3721.42 411.074 3720.5 411.472 3718.12Z" fill="#858098"/>
<path d="M911.837 12659.7C909.895 12664.4 907.995 12668.8 906.309 12673.3C905.715 12674.9 904.545 12676.4 905.259 12678.4C905.392 12678.7 904.631 12679.4 904.42 12679.9C903.69 12681.9 902.999 12683.8 902.331 12685.8C900.936 12689.9 899.754 12694 898.036 12698C897.659 12698.9 897.848 12699.5 897.638 12700.2C896.024 12705.2 894.699 12710.4 892.357 12715C890.419 12718.9 888.97 12723 886.829 12726.7C885.103 12729.8 886.49 12733.3 885.554 12736.4C885.039 12738.2 884.439 12739.9 883.479 12741.4C882.876 12742.4 881.515 12743.5 880.529 12743.4C878.935 12743.4 877.321 12742.6 875.809 12741.9C874.644 12741.3 874.28 12738.9 875.091 12737.7C876.615 12735.5 877.259 12733.2 877.481 12730.5C877.71 12727.7 878.29 12724.6 880.201 12722.2C880.351 12722 880.481 12721.7 880.448 12721.5C879.993 12718.4 882.609 12716.5 883.241 12713.7C883.559 12712.4 884.386 12711 885.362 12710C887.534 12707.7 886.226 12704 888.903 12702C889.11 12695.1 893.507 12689.5 894.308 12682.8C894.541 12680.8 895.79 12679 896.777 12677.2C897.567 12675.7 898.563 12674.5 897.874 12672.7C897.808 12672.5 898.398 12672.1 898.586 12671.8C899.951 12669.4 901.247 12667.1 901.512 12664.1C901.8 12660.7 903.343 12657.4 904.964 12654.4C905.471 12653.4 905.274 12652.6 905.437 12651.9C906.218 12648.3 909.076 12646.1 910.549 12643C910.966 12642.1 911.962 12641.3 911.88 12640.5C911.665 12638.4 912.903 12638.3 914.294 12638.2C917.437 12637.8 920.353 12640.4 919.899 12643.4C919.661 12644.9 918.905 12646.5 918.018 12647.8C915.608 12651.5 913.959 12655.5 911.837 12659.7Z" fill="#858098"/>
<path d="M1166.43 9021.2C1165.42 9023.18 1165.61 9025.26 1163.84 9026.56C1163.35 9026.92 1163.85 9028.45 1163.56 9029.33C1162.07 9033.84 1160.86 9038.52 1158.78 9042.76C1156.66 9047.1 1154.69 9051.51 1152.72 9055.92C1152.08 9057.37 1152.07 9058.86 1152.2 9060.58C1152.4 9063.29 1151.6 9066.27 1150.51 9068.83C1149.55 9071.1 1147.07 9071.64 1144.59 9071.46C1142.51 9071.3 1141.66 9069.8 1141 9068.19C1140.74 9067.59 1140.67 9066.44 1141.03 9066.12C1143.53 9063.88 1143.67 9060.79 1143.7 9057.93C1143.73 9055.36 1145.42 9053.63 1145.96 9051.4C1146.05 9051.04 1146.48 9050.68 1146.41 9050.4C1145.74 9047.51 1148.24 9045.75 1148.89 9043.35C1149.57 9040.79 1151.06 9038.72 1152.59 9036.62C1153.12 9035.89 1153.24 9034.84 1153.47 9033.92C1153.61 9033.34 1153.36 9032.56 1153.66 9032.15C1155.63 9029.5 1155.34 9026.12 1156.66 9023.23C1158.04 9020.2 1159.05 9016.99 1159.97 9013.78C1160.45 9012.11 1161.06 9010.51 1161.75 9008.95C1162.43 9007.38 1162.29 9005.37 1164.1 9004.35C1164.26 9004.26 1164.19 9003.67 1164.15 9003.32C1163.93 9001.4 1164.23 8999.96 1165.96 8998.51C1167.15 8997.51 1167.71 8995.29 1167.8 8993.57C1168.02 8989.57 1169.42 8986.07 1171.43 8982.73C1171.55 8982.52 1171.87 8982.33 1171.85 8982.16C1171.37 8977.46 1174.41 8974.54 1177.16 8971.44C1177.56 8970.99 1177.61 8970.26 1177.86 8969.67C1178.2 8968.88 1176.73 8967.66 1178.48 8967.19C1179.66 8966.88 1180.87 8966.08 1181.98 8966.22C1184.36 8966.51 1186.63 8969.62 1186.08 8971.73C1185.52 8973.87 1185.18 8976.57 1183.08 8977.54C1181.17 8978.41 1182.88 8979.81 1181.8 8980.94C1180.1 8982.74 1179.17 8985.33 1178.15 8987.69C1176.19 8992.2 1174.32 8996.75 1172.59 9001.35C1172 9002.92 1170.76 9004.45 1171.55 9006.4C1171.69 9006.73 1171.34 9007.48 1171 9007.74C1169.07 9009.19 1168.65 9011.56 1168.47 9013.49C1168.22 9016.11 1166.63 9018.26 1166.43 9021.2Z" fill="#858098"/>
<path d="M610.963 14109.6C609.695 14115.1 608.887 14120.3 605.725 14124.8C605.326 14125.4 605.837 14126.5 605.586 14127.2C604.131 14131.6 603.149 14136.3 600.864 14140.2C599.117 14143.2 598.414 14146.6 596.425 14149.6C594.793 14152 593.881 14155.1 594.13 14158.5C594.322 14161.1 593.449 14163.8 592.729 14166.4C592.246 14168.1 589.231 14169.7 587.831 14169.4C583.789 14168.4 583.142 14167.9 582.995 14165.2C582.975 14164.9 582.793 14164.4 582.96 14164.2C585.596 14161.8 585.477 14158.4 586.036 14155.3C586.389 14153.3 586.219 14150.8 587.399 14149.6C589.682 14147.2 588.447 14143.7 590.762 14141.4C592.164 14140 592.638 14137.7 593.645 14135.9C595.636 14132.2 596.586 14128.3 597.65 14124.3C599.068 14119.1 601.709 14114.2 602.504 14108.7C602.846 14106.4 604.777 14104.2 605.962 14102C606.165 14101.6 606.479 14101.1 606.356 14100.8C605.573 14098.8 606.426 14097.6 607.805 14096.1C608.862 14095 609.743 14093.2 609.718 14091.8C609.649 14087.6 611.863 14084.2 613.107 14080.6C613.365 14079.8 613.512 14078.9 613.672 14078.2C614.451 14074.5 617.221 14072.1 618.973 14069C619.4 14068.3 619.933 14067.6 620.138 14066.8C620.662 14064.7 620.972 14064.3 622.732 14064.2C626.206 14064 628.846 14067.1 627.832 14070.4C627.381 14071.9 626.373 14073.2 625.609 14074.6C624.886 14075.9 624.077 14077.2 623.437 14078.6C622.161 14081.3 620.931 14084 619.762 14086.7C617.992 14090.9 616.169 14095 614.599 14099.3C613.381 14102.6 612.691 14106.1 610.963 14109.6Z" fill="#858098"/>
<path d="M456.357 831.287C454.527 834.714 455.573 838.15 454.961 841.386C454.531 843.655 453.96 845.685 452.375 847.323C451.449 848.279 446.985 848.926 446.134 848.089C445.067 847.04 443.765 845.914 444.06 844.087C444.13 843.655 444.155 843.094 444.429 842.837C447.029 840.402 446.75 837.128 447.069 834.03C447.142 833.319 446.971 832.032 447.182 831.973C449.124 831.43 448.047 829.528 448.882 828.487C449.815 827.325 449.617 825.714 449.966 824.399C450.705 821.612 452.532 819.129 453.766 816.453C454.733 814.357 457.385 812.942 456.428 810.035C456.364 809.841 456.511 809.492 456.672 809.322C459.039 806.824 458.323 803.293 459.685 800.414C461.053 797.526 461.86 794.373 462.931 791.342C463.946 788.471 464.289 785.295 466.017 782.77C467.032 781.287 467.589 779.993 467.459 778.221C467.404 777.476 467.843 776.552 468.339 775.934C469.845 774.06 470.404 772.1 470.704 769.617C471.127 766.126 472.636 762.671 474.247 759.488C474.642 758.708 474.57 758.08 474.702 757.441C475.409 754.039 477.758 751.609 479.57 748.861C480.034 748.158 480.7 747.499 480.893 746.724C481.514 744.244 483.117 742.803 485.07 743.211C487.743 743.769 489.823 746.344 489.124 748.8C488.561 750.782 487.351 752.582 486.412 754.454C485.954 755.366 485.425 756.242 484.986 757.162C483.495 760.295 481.968 763.413 480.569 766.587C478.897 770.379 477.228 774.18 475.792 778.063C475.165 779.76 473.874 781.39 474.606 783.481C474.734 783.846 473.958 784.463 473.751 785.021C473.031 786.964 472.352 788.924 471.713 790.895C471.529 791.462 471.72 792.213 471.42 792.669C469.146 796.13 469.749 800.696 466.869 804.042C466.196 804.823 466.629 806.923 465.686 808.387C464.908 809.597 464.919 811.29 464.448 812.726C462.617 818.316 460.204 823.649 457.263 828.747C456.884 829.403 456.738 830.194 456.357 831.287Z" fill="#858098"/>
<path d="M250.033 12463.9C247.962 12468.1 248.173 12472.9 245.183 12476.5C245.056 12481.2 242.843 12485.3 241.194 12489.5C239.534 12493.7 237.738 12498 235.476 12502C234.128 12504.4 233.025 12507.1 233.529 12510.2C233.97 12512.9 233.271 12515.6 232.15 12518.1C231.537 12519.5 228.7 12521.5 227.595 12521.3C225.07 12521 222.126 12518.6 222.262 12516.7C222.337 12515.6 223.13 12514.4 223.98 12513.7C225.198 12512.7 225.137 12511.5 225.107 12510.2C225.052 12507.9 225.491 12505.7 226.534 12503.5C227.857 12500.8 228.679 12497.8 229.644 12494.8C230.654 12491.8 231.975 12488.9 234.132 12486.4C234.603 12485.9 234.782 12485 234.949 12484.3C235.814 12480.5 236.691 12476.6 238.129 12473C240.072 12468 241.568 12462.9 243.343 12457.9C244.388 12454.9 245.534 12452 246.629 12449.1C247.38 12447.1 249.147 12445.1 249.193 12443C249.24 12440.9 249.939 12439.1 250.595 12437.3C251.121 12435.8 252.082 12434.5 252.812 12433.1C253.046 12432.6 253.37 12432.1 253.297 12431.6C252.547 12427 256.476 12424.5 258.129 12421C258.538 12420.1 259.304 12419.3 259.524 12418.4C260.088 12416.1 260.915 12415.4 262.936 12415.9C265.147 12416.5 267.271 12417.4 267.435 12419.9C267.543 12421.5 266.959 12423.4 266.232 12424.9C265.263 12426.9 263.452 12428.7 262.752 12430.8C262.087 12432.8 259.959 12434.2 260.561 12436.7C257.477 12441.1 256.473 12446.5 253.917 12451.3C253.257 12452.5 252.416 12453.9 253.093 12455.6C253.3 12456.1 252.819 12457.2 252.313 12457.6C250.454 12459.3 250.215 12461.5 250.033 12463.9Z" fill="#858098"/>
<path d="M1240.32 19376.8C1242.05 19377.5 1243.89 19377.3 1244.97 19379.3C1246.69 19382.4 1244.57 19384.7 1243.72 19387.2C1243.03 19389.2 1241.24 19390.7 1240.35 19392.7C1238.42 19396.9 1236.82 19401.3 1234.95 19405.6C1233.79 19408.2 1232.92 19411 1231.46 19413.6C1230.91 19414.5 1231.53 19416.3 1230.87 19417.1C1229.21 19419 1230.4 19422.2 1227.88 19423.6C1228.44 19426.3 1226.86 19428.5 1226.15 19430.8C1225.37 19433.4 1224.39 19435.9 1223.51 19438.5C1221.9 19443.1 1220.27 19447.7 1218.69 19452.3C1217.35 19456.2 1215.81 19460 1213.25 19463.2C1213.56 19465.9 1209.84 19468 1212.14 19470.9C1211.34 19474 1210.76 19477.3 1209.66 19480.3C1208.97 19482.2 1205.64 19482.4 1202.87 19481.2C1201.27 19480.5 1200.22 19478.8 1201.04 19477.4C1202.8 19474.2 1203.23 19470.9 1203.76 19467.4C1204.32 19463.8 1205.9 19460.3 1207.35 19456.9C1208.54 19454.1 1210.21 19451.5 1211.65 19448.8C1211.89 19448.4 1212.11 19447.9 1212.21 19447.4C1212.86 19444.3 1213.6 19441.1 1214.83 19438.3C1216.24 19435.2 1215.65 19431.3 1218.62 19428.7C1219.38 19428.1 1218.84 19426.1 1219.31 19424.9C1220.59 19421.6 1220.94 19418 1223.43 19415.2C1223.59 19415 1223.7 19414.7 1223.68 19414.5C1223.46 19411.8 1225.15 19409.8 1226.09 19407.4C1226.81 19405.6 1227.36 19403.8 1227.56 19401.7C1227.79 19399.4 1228.35 19396.7 1230.42 19394.9C1231.78 19393.6 1230.71 19391.4 1232.21 19390.1C1231.56 19386.9 1234.82 19385.5 1235.59 19382.9C1235.96 19381.7 1237.12 19380.7 1237.5 19379.4C1237.93 19378 1238.86 19377.4 1240.32 19376.8Z" fill="#858098"/>
<path d="M1215.3 247.228C1217.66 243.755 1219.74 240.37 1221.93 237.063C1222.78 235.785 1223.98 234.743 1224.87 233.485C1225.63 232.397 1226.89 231.02 1226.69 230.007C1226.09 226.835 1228.29 224.798 1229.59 222.697C1230.59 221.104 1230.39 219.561 1230.9 218.064C1232.39 213.662 1233.94 209.214 1234.74 204.656C1235.88 198.199 1237.48 191.875 1239.01 185.519C1239.57 183.191 1239.62 180.74 1239.94 178.349C1239.98 177.975 1240.07 177.507 1240.32 177.273C1244.2 173.632 1243.73 168.234 1245.72 163.828C1246.62 161.849 1246.74 159.519 1247.25 157.359C1247.74 155.297 1249.35 155.116 1251.14 154.625C1253.26 154.046 1253.97 155.525 1254.69 156.484C1255.78 157.935 1256.69 159.61 1255.59 161.758C1254.51 163.874 1255.3 166.452 1254.21 168.786C1253.73 169.816 1254.15 171.319 1252.8 172.195C1252.45 172.419 1252.17 173.143 1252.25 173.564C1252.98 177.391 1250.07 179.62 1248.22 182.108C1246.54 184.359 1246.1 186.884 1245.24 189.328C1244.85 190.452 1245 191.767 1244.62 192.902C1243.8 195.374 1242.89 197.771 1243.27 200.486C1243.4 201.401 1242.91 202.416 1242.63 203.367C1242.39 204.23 1241.59 205.236 1241.83 205.889C1243.12 209.418 1241.09 212.27 1240.04 215.255C1239.48 216.873 1239.55 218.611 1238.54 220.207C1237.69 221.552 1238.01 223.577 1237.44 225.165C1236.73 227.122 1234.89 228.94 1234.89 230.814C1234.9 233.316 1233.09 234.212 1232.14 235.841C1231.11 237.623 1229.95 239.349 1229.07 241.204C1226.77 246.056 1222.24 249.605 1221.2 255.243C1220.75 257.679 1215.48 258.798 1213.72 257.014C1213.29 256.582 1213.13 255.598 1213.26 254.949C1213.77 252.397 1214.44 249.878 1215.3 247.228Z" fill="#858098"/>
<path d="M434.68 5499.08C435.793 5494.13 436.939 5489.4 438.292 5484.73C439.051 5482.1 441.49 5480.85 443.748 5481.61C446.059 5482.37 447.612 5485.24 447.073 5487.61C446.693 5489.27 445.652 5491.4 446.293 5492.55C447.379 5494.5 444.559 5494.52 445.258 5496.06C445.789 5497.23 445.338 5498.47 443.972 5499.19C443.629 5499.37 443.325 5500.12 443.404 5500.53C444.14 5504.36 441.231 5506.62 439.382 5509.09C437.696 5511.35 437.271 5513.88 436.364 5516.3C435.904 5517.53 436.08 5518.99 435.639 5520.23C434.801 5522.58 434.537 5524.95 434.341 5527.44C434.037 5531.31 433.397 5535.22 432.32 5538.95C431.459 5541.93 430.672 5544.97 429.404 5547.87C428.53 5549.86 428.563 5552.24 427.826 5554.32C426.987 5556.68 425.899 5558.99 424.632 5561.16C423.309 5563.42 421.165 5565.29 420.23 5567.66C418.28 5572.62 413.572 5575.99 412.637 5581.49C412.376 5583.03 408.791 5585.12 407.319 5584.97C404.646 5584.7 403.96 5583.5 404.712 5580.84C405.14 5579.32 405.07 5577.64 405.61 5576.18C406.284 5574.36 406.96 5572.19 408.354 5571.06C410.168 5569.58 410.791 5567.75 411.663 5565.84C412.194 5564.68 413.098 5563.63 414.025 5562.73C416.236 5560.57 417.887 5558.37 418.194 5555C418.4 5552.72 420.219 5550.62 421.076 5548.35C422.322 5545.05 423.685 5541.73 424.297 5538.29C424.524 5537.02 424.637 5535.63 425.056 5534.37C426.149 5531.09 426.844 5527.74 426.934 5524.27C426.943 5523.91 427.184 5523.55 427.297 5523.18C429.093 5517.27 430.595 5511.32 431.256 5505.14C431.413 5503.67 433.024 5502.35 433.937 5500.95C434.269 5500.44 434.514 5499.87 434.68 5499.08Z" fill="#858098"/>
<path d="M359.004 18947.1C360.87 18943.3 361.972 18939.6 362.711 18936C363.786 18930.7 365.988 18925.7 365.963 18920.2C365.961 18919.7 366.3 18919.2 366.445 18918.7C368.117 18913 369.677 18907.3 370.054 18901.4C370.078 18901 370.188 18900.5 370.437 18900.3C374.346 18896.7 373.777 18891.2 375.839 18886.8C376.761 18884.9 376.912 18882.5 377.356 18880.4C377.858 18877.9 379.931 18877.9 381.712 18877.7C383.459 18877.4 384.451 18878.3 385.11 18880C385.788 18881.6 386.789 18883.1 385.624 18885C385.294 18885.5 385.713 18886.5 385.442 18887.1C384.846 18888.4 385.978 18890 384.355 18891.4C383.659 18892 384.631 18894.4 382.801 18895.4C382.382 18895.6 382.033 18896.6 382.188 18897.1C383.002 18899.7 381.355 18901.5 379.994 18903C377.289 18906.1 375.455 18909.4 375.547 18913.6C375.563 18914.3 375.073 18915 374.824 18915.8C373.946 18918.3 372.845 18920.8 373.406 18923.7C373.577 18924.6 372.961 18925.6 372.678 18926.6C372.426 18927.5 371.691 18928.5 371.937 18929.1C373.052 18932.1 371.394 18934.5 370.669 18937.1C369.576 18941 368.639 18944.9 367.36 18948.8C365.515 18954.3 362.349 18959.2 359.332 18964.2C356.489 18968.9 352.485 18972.9 351.247 18978.5C350.766 18980.7 345.151 18981.7 343.71 18980C343.361 18979.5 343.18 18978.8 343.278 18978.2C343.673 18976 343.944 18973.8 344.771 18971.7C345.526 18969.9 346.967 18968.3 348.054 18966.6C348.829 18965.4 349.66 18964.1 350.21 18962.8C350.929 18961.1 352.009 18959.7 353.472 18958.5C355.411 18957 357.056 18954.9 356.883 18952.7C356.702 18950.3 357.747 18949 359.004 18947.1Z" fill="#858098"/>
<path d="M328.304 8750.81C327.2 8753.54 325.21 8755.2 324.079 8757.61C322.283 8761.44 319.132 8764.6 316.837 8768.23C315.707 8770.01 315.213 8772.2 314.423 8774.2C313.759 8775.88 310.32 8777.83 308.655 8777.47C307.443 8777.21 305.962 8774.96 306.45 8773.74C307.669 8770.71 307.356 8767.06 309.672 8764.55C312.864 8761.08 313.973 8756.2 317.723 8753.11C318.684 8752.32 318.874 8750.64 319.759 8749.69C321.117 8748.24 319.466 8746.14 321.287 8744.66C322.513 8743.67 323.297 8741.85 323.747 8740.24C324.882 8736.2 325.743 8732.08 326.662 8727.97C327.171 8725.7 327.511 8723.39 328.044 8721.13C328.758 8718.09 329.683 8715.11 330.343 8712.07C331.384 8707.28 332.178 8702.43 333.301 8697.66C333.633 8696.25 334.712 8695.02 335.463 8693.71C335.824 8693.09 336.585 8692.45 336.534 8691.87C336.254 8688.67 338.097 8686.08 338.794 8683.18C339.253 8681.27 339.482 8679.29 340.034 8677.41C340.657 8675.29 343.736 8673.36 345.779 8673.58C347.198 8673.73 349.697 8677.64 349.126 8679.21C348.389 8681.24 348.45 8683.24 348.417 8685.33C348.394 8686.83 347.786 8688.42 347.082 8689.79C344.94 8693.95 344.518 8698.93 340.591 8702.3C339.321 8703.39 338.932 8705.71 338.525 8707.56C337.338 8712.94 336.345 8718.37 335.274 8723.78C335.249 8723.9 335.136 8724.03 335.157 8724.14C335.999 8728.33 333.787 8731.88 332.809 8735.7C331.77 8739.76 330.681 8743.79 329.451 8747.8C329.167 8748.72 327.366 8749.07 328.304 8750.81Z" fill="#858098"/>
<path d="M95.198 502.642C97.0585 499.65 98.9068 497.092 100.464 494.367C101.054 493.335 101.681 492.644 102.609 491.914C104.399 490.505 105.376 488.383 105.818 486.156C106.409 483.176 107.616 480.591 109.359 478.078C110.255 476.785 109.99 474.725 110.439 473.063C111.606 468.737 112.984 464.465 114.077 460.121C115.076 456.152 115.884 452.13 116.645 448.107C117.489 443.643 118.033 439.117 119.027 434.689C119.38 433.115 120.657 431.741 121.536 430.29C121.847 429.776 122.565 429.27 122.522 428.819C122.135 424.798 125.195 421.571 124.988 417.523C124.902 415.849 125.959 414.052 126.7 412.403C127.374 410.901 130.56 410.112 132.327 410.831C134.28 411.626 135.627 414.002 135.297 415.823C134.905 417.986 134.697 420.182 134.302 422.344C134.112 423.387 133.876 424.514 133.319 425.383C131.365 428.432 131.955 432.361 129.418 435.322C127.464 437.603 125.133 440.15 124.976 443.31C124.734 448.182 121.245 452.412 122.389 457.477C120.595 462.189 121.336 467.425 119.042 472.117C117.67 474.923 117.334 478.238 116.527 481.322C114.91 487.494 111.101 492.522 108.029 497.952C105.311 502.757 100.894 506.605 99.9227 512.419C99.7305 513.57 95.6147 515.123 94.3494 514.718C92.5098 514.13 91.9339 512.446 92.5667 510.105C92.9822 508.568 93.0125 506.923 93.4739 505.404C93.7408 504.526 94.5207 503.802 95.198 502.642Z" fill="#858098"/>
<path d="M971.263 2209.08C971.916 2206.43 972.334 2204.1 973.002 2201.86C973.538 2200.06 977.359 2198.04 978.756 2198.61C980.623 2199.39 982.224 2202.83 981.757 2204.83C981.427 2206.25 981.176 2207.7 981.072 2209.15C980.902 2211.5 979.909 2214.7 978.543 2216.78C978.342 2217.09 978.013 2217.48 978.072 2217.76C978.935 2221.94 974.944 2223.8 973.719 2226.97C972.956 2228.95 971.683 2230.78 971.234 2232.81C970.071 2238.07 969.405 2243.44 968.08 2248.67C967.986 2249.04 967.633 2249.47 967.734 2249.75C969.014 2253.36 966.866 2256.32 965.916 2259.49C965.313 2261.5 964.683 2263.57 964.14 2265.52C963.598 2267.47 962.843 2269.53 962.604 2271.59C962.425 2273.14 960.874 2273.94 960.996 2275.72C961.106 2277.33 958.718 2278.3 958.405 2279.39C957.479 2282.64 954.574 2284.57 953.629 2287.68C953.434 2288.32 952.798 2288.83 952.385 2289.41C950.326 2292.32 948.237 2295.16 947.288 2298.75C946.473 2301.83 942.748 2302.91 940.007 2301.17C939.009 2300.54 938.705 2299.64 939.246 2298.6C940.639 2295.9 939.971 2292.51 942.193 2290.09C945.369 2286.63 946.431 2281.73 950.201 2278.6C951.418 2277.59 952.314 2275.72 952.573 2274.12C953.109 2270.81 954.653 2268.16 956.395 2265.4C957.444 2263.73 957.21 2261.31 957.867 2259.34C959.361 2254.85 960.318 2250.26 961.025 2245.59C961.414 2243.03 962.215 2240.53 962.815 2237.99C963.958 2233.17 965.357 2228.39 966.049 2223.5C966.235 2222.19 966.654 2221.35 967.308 2220.51C969.846 2217.24 969.3 2212.93 971.263 2209.08Z" fill="#858098"/>
<path d="M416.908 15852.6C417.715 15849.5 418.634 15846.7 418.927 15843.9C419.013 15843.1 419.47 15842.9 419.634 15842.3C420.496 15839.6 423.061 15837.5 422.621 15834.2C422.483 15833.1 423.781 15832 424.203 15830.8C424.606 15829.6 424.732 15828.4 424.964 15827.2C425.287 15825.5 425.347 15823.7 425.98 15822.1C426.601 15820.6 427.632 15819.4 429.773 15819.4C433.112 15819.3 435.56 15821.9 434.701 15825.1C434.455 15826 434.762 15827.2 434.341 15827.9C433.501 15829.5 434.27 15831.3 433.011 15833C432.201 15834.1 432.926 15836.5 431.112 15837.7C431.027 15837.7 430.972 15837.9 430.987 15838C431.606 15842.6 427.02 15844.9 426.143 15848.6C425.575 15851 423.574 15853 424.152 15855.7C424.218 15856 424.411 15856.5 424.283 15856.6C421.854 15859 422.968 15862.4 421.989 15865.2C420.602 15869.1 421.811 15873.4 419.861 15877.2C419.076 15878.7 418.693 15880.5 418.796 15882.3C418.816 15882.7 418.649 15883.1 418.422 15883.4C416.092 15886.3 416.596 15890.2 415 15893.4C413.853 15895.7 413.282 15898.1 411.259 15900.1C409.11 15902.3 408.04 15905.5 406.503 15908.2C406.206 15908.8 406.037 15909.4 405.629 15909.9C402.825 15912.8 401.015 15916.2 399.888 15920C399.262 15922.2 394.089 15923.4 392.629 15921.7C392.07 15921.1 391.993 15919.6 392.302 15918.7C393.649 15914.8 393.797 15910.4 397.618 15907.5C398.232 15907 398.654 15904.9 399.231 15904C400.121 15902.6 400.493 15900.6 402.509 15899.7C403.537 15899.3 404.285 15897.8 404.788 15896.6C405.912 15894 406.083 15890.9 407.734 15888.5C409.577 15885.9 409.63 15882.8 410.556 15880C411.477 15877.1 413.499 15874.5 412.897 15871.3C415.167 15869.7 413.268 15867.3 414.028 15865.4C414.789 15863.4 414.7 15861.1 415.658 15859.3C416.769 15857.2 416.19 15855 416.908 15852.6Z" fill="#858098"/>
<path d="M1345.44 9765.48C1346.24 9763.18 1346.75 9761.16 1347.64 9759.32C1348.47 9757.63 1348.25 9755.68 1349.34 9754.03C1349.85 9753.25 1349.52 9751.93 1349.59 9750.86C1349.64 9750.02 1349.42 9749 1349.83 9748.38C1351.47 9745.88 1350.2 9742.44 1352.57 9740.18C1352.75 9740.01 1352.3 9739.28 1352.3 9738.81C1352.3 9737.86 1352.32 9736.89 1352.48 9735.95C1353.02 9732.82 1353.43 9729.64 1354.3 9726.6C1354.77 9724.95 1356.09 9723.55 1357 9722.02C1357.37 9721.38 1358.04 9720.65 1357.94 9720.06C1357.52 9717.5 1359.03 9715.47 1359.59 9713.19C1360.23 9710.53 1360.77 9707.84 1361.58 9705.24C1362.27 9703.03 1365.1 9701.98 1367.38 9702.84C1369.52 9703.65 1370.83 9706.05 1370.37 9708.1C1370.08 9709.4 1370.16 9710.8 1369.74 9712.04C1369.23 9713.54 1370.12 9715.53 1368.22 9716.54C1368.85 9718.44 1368.33 9719.91 1366.69 9721.08C1366.49 9721.22 1366.9 9722.05 1366.75 9722.44C1366.17 9723.9 1365.54 9725.34 1364.81 9726.72C1363.64 9728.93 1362.53 9731.29 1361.28 9733.33C1359.47 9736.28 1360.27 9739.66 1358.5 9742.53C1357.52 9744.12 1357.94 9746.54 1357.54 9748.55C1356.99 9751.29 1356.48 9753.96 1356.52 9756.81C1356.54 9759.07 1355.87 9761.5 1354.91 9763.57C1352.57 9768.61 1351.81 9774.15 1349.62 9779.2C1349.04 9780.53 1348.25 9781.78 1347.45 9782.98C1345.98 9785.16 1343.99 9787.11 1343.03 9789.48C1342.03 9791.95 1340.44 9793.87 1338.9 9795.87C1337.08 9798.22 1336.36 9801.01 1335.37 9803.7C1335.14 9804.34 1331.27 9806.14 1330.41 9806.01C1329.01 9805.81 1328.08 9804.98 1327.82 9803.61C1327.69 9802.93 1327.89 9802.17 1327.99 9801.46C1328.23 9799.9 1329.3 9798.63 1328.97 9796.75C1328.77 9795.64 1329.93 9793.81 1331.01 9793.05C1333.75 9791.1 1334.24 9787.86 1336.02 9785.4C1336.31 9785.01 1336.29 9784.16 1336.61 9784.05C1340.49 9782.62 1340.5 9778.8 1341.85 9775.81C1342.82 9773.67 1342.89 9771.19 1344.79 9769.35C1345.46 9768.7 1345.16 9767.05 1345.44 9765.48Z" fill="#858098"/>
<path d="M1482.13 14845.2C1483.63 14839 1486.13 14833.3 1486.02 14827.1C1486 14826.1 1486.77 14825 1487.1 14823.9C1487.86 14821.3 1489.58 14818.9 1488.33 14815.9C1488.25 14815.8 1488.42 14815.5 1488.49 14815.2C1489.4 14811.8 1490.22 14808.4 1491.29 14805C1491.77 14803.5 1492.72 14802.2 1493.53 14800.8C1494.82 14798.6 1494.5 14796 1495.83 14793.7C1497.09 14791.5 1497.84 14788.6 1497.63 14786.2C1497.39 14783.3 1498.97 14782.9 1500.73 14781.9C1502.62 14780.9 1503.89 14781.3 1505.24 14782.9C1507.13 14785.2 1507.38 14786.4 1506.24 14789C1505.86 14789.9 1505.88 14791 1505.83 14792C1505.75 14793.5 1504.72 14797.4 1504.1 14798.6C1502.75 14801.2 1502.8 14804.2 1500.65 14806.7C1498.77 14808.8 1497.86 14811.9 1496.89 14814.7C1495.72 14818.2 1494.92 14821.7 1494.02 14825.2C1493.89 14825.8 1494.13 14826.4 1494.2 14827C1494.26 14827.6 1494.59 14828.5 1494.35 14828.7C1492.05 14830.4 1493.52 14832.7 1493.1 14834.6C1492.34 14838.2 1491.18 14841.6 1490.34 14845.2C1489.86 14847.2 1488.12 14849 1488.97 14851.3C1486.97 14852.5 1487.16 14854.8 1486.36 14856.6C1485.37 14858.8 1484.48 14860.9 1482.83 14863C1481.08 14865.1 1479.64 14867.8 1478.38 14870.4C1477.08 14873.1 1474.54 14874.8 1473.75 14877.9C1473.47 14879 1472.33 14879.9 1472.59 14881.4C1472.9 14883.3 1471.13 14883.5 1469.96 14884.1C1468.32 14885 1466.39 14885.2 1465.05 14884.1C1463.67 14882.9 1463.86 14881 1464.51 14879.3C1465.76 14875.9 1466.55 14872.4 1469.4 14869.8C1470.42 14868.8 1470.86 14867.3 1471.6 14866C1472.22 14865 1472.67 14863.7 1473.58 14863C1475.95 14861.3 1476.6 14858.8 1477.5 14856.3C1478.8 14852.6 1480.48 14849.1 1482.13 14845.2Z" fill="#858098"/>
<path d="M1273.2 18578.4C1272.94 18580.8 1273.21 18582.9 1271.3 18584.5C1270.79 18584.9 1270.58 18585.8 1270.38 18586.5C1269.19 18590.6 1266.51 18593.9 1264.49 18597.5C1262.31 18601.4 1259.43 18604.8 1256.99 18608.5C1256.79 18608.8 1256.54 18609.3 1256.63 18609.6C1257.72 18613 1254.87 18613.4 1252.91 18614.6C1251.36 18615.5 1250.06 18614.6 1248.99 18614C1247.92 18613.3 1248.42 18612 1248.75 18610.9C1249.12 18609.6 1249.09 18608.2 1249.37 18606.9C1249.92 18604.4 1251.53 18602.6 1252.94 18600.6C1254.46 18598.4 1255.67 18596 1257.22 18593.9C1258.41 18592.2 1260.23 18591 1260.79 18588.9C1261.01 18588.1 1261.37 18587.3 1261.63 18586.4C1262.16 18584.7 1262.34 18582.8 1263.23 18581.4C1265.93 18576.9 1267.17 18572.1 1268.34 18567.1C1269.26 18563.1 1269.58 18558.9 1270.88 18555.2C1272.62 18550.1 1272.8 18544.9 1274.29 18539.9C1274.72 18538.4 1274.73 18536.9 1275.24 18535.4C1275.76 18534 1276.91 18532.7 1277.32 18531.2C1278.45 18527.1 1280.97 18523.4 1280.9 18518.9C1280.88 18517.3 1282.6 18515.8 1281.83 18513.9C1283.3 18513 1284.68 18511.7 1286.29 18511.3C1287.09 18511.1 1288.43 18512.2 1289.3 18512.9C1291.16 18514.5 1291.6 18516.4 1290.74 18519C1289.88 18521.5 1289.72 18524.2 1289.23 18526.9C1289.15 18527.3 1288.98 18527.7 1288.79 18528.1C1288.3 18529.1 1287.29 18530.1 1287.34 18531C1287.51 18533.9 1285.65 18535.5 1284.2 18537.5C1281.98 18540.6 1280.46 18543.9 1280.51 18547.8C1280.53 18548.9 1279.86 18550 1279.42 18551.1C1278.53 18553.3 1277.89 18555.6 1278.2 18558C1278.24 18558.3 1278.43 18558.8 1278.28 18559C1276.54 18561.9 1277.38 18565.2 1276.68 18568.2C1275.88 18571.5 1274.47 18574.7 1273.2 18578.4Z" fill="#858098"/>
<path d="M1153.66 9164.51C1156.05 9162.65 1155.97 9159.73 1157.61 9157.85C1158 9157.4 1158.17 9156.61 1158.64 9156.41C1161.28 9155.25 1162.07 9152.83 1162.61 9150.42C1163.3 9147.36 1164.5 9144.67 1166.26 9142.05C1167.28 9140.54 1166.99 9138.22 1167.61 9136.36C1169.15 9131.76 1170.21 9127.07 1170.9 9122.26C1171.29 9119.57 1172.26 9116.97 1172.79 9114.29C1173.77 9109.24 1175.49 9104.36 1175.83 9099.15C1175.91 9097.9 1177.33 9096.77 1177.94 9095.49C1178.53 9094.24 1178.89 9092.88 1179.33 9091.56C1179.41 9091.35 1179.29 9091.07 1179.36 9090.85C1180.51 9086.74 1181.65 9082.63 1182.84 9078.53C1183.31 9076.87 1184.48 9075.75 1186.09 9075.31C1188.92 9074.52 1192.3 9078.12 1191.73 9081.17C1191.55 9082.11 1191.54 9083.08 1191.47 9084.04C1191.36 9085.53 1189.22 9091.8 1188.15 9093.75C1188.03 9093.97 1187.87 9094.25 1187.91 9094.47C1188.8 9098.63 1184.8 9100.51 1183.59 9103.68C1182.83 9105.66 1181.52 9107.48 1181.09 9109.51C1180 9114.66 1179.19 9119.86 1178.06 9125C1178.01 9125.25 1177.77 9125.54 1177.83 9125.72C1179.13 9129.32 1177 9132.29 1176.02 9135.45C1175.36 9137.57 1176.29 9140.26 1173.85 9141.77C1174.2 9144.12 1173.38 9146.31 1172.33 9148.24C1170.93 9150.84 1171.38 9154.48 1168.08 9156.04C1167.67 9159.42 1164.41 9161.24 1163.52 9164.37C1163.38 9164.85 1163.29 9165.51 1162.94 9165.75C1159.39 9168.19 1158.37 9172.06 1157.07 9175.8C1156.23 9178.21 1151.44 9179.46 1149.57 9177.75C1149.12 9177.33 1148.8 9176.3 1148.99 9175.75C1150.21 9172.22 1150.54 9168.35 1152.85 9165.22C1152.99 9165.04 1153.31 9164.99 1153.66 9164.51Z" fill="#858098"/>
<path d="M376.531 10619.7C377.583 10615.1 378.591 10610.9 379.409 10606.7C380.264 10602.2 380.816 10597.8 381.764 10593.4C382.046 10592 383.233 10590.9 383.976 10589.7C384.481 10588.9 385.371 10588 385.334 10587.2C385.203 10584.3 386.666 10581.9 387.355 10579.2C387.914 10577.1 388.21 10574.8 388.854 10572.7C389.619 10570.2 391.788 10569 394.244 10569.5C395.883 10569.8 398.198 10572.9 397.927 10574.7C397.626 10576.6 396.742 10578.5 396.866 10580.4C396.995 10582.4 396.038 10584 395.569 10585.6C394.913 10587.8 394.135 10590 393.326 10592.2C392.566 10594.3 390.766 10596 389.619 10597.9C388.681 10599.5 387.402 10601.3 387.41 10603C387.42 10605.1 386.483 10606.9 386.068 10608.8C385.734 10610.3 385.546 10611.9 385.233 10613.5C384.041 10619.4 383.996 10625.5 381.653 10631.2C380.54 10633.9 379.805 10637 379.173 10639.9C377.894 10646 373.886 10650.8 370.955 10656.1C368.423 10660.7 364.182 10664.2 363.102 10669.7C362.552 10672.5 358.172 10673.8 355.915 10672.1C355.3 10671.6 354.965 10670 355.246 10669.2C356.619 10665.3 356.608 10660.9 360.389 10657.9C361.968 10656.7 362.527 10654.1 363.564 10652.2C363.848 10651.7 364.06 10650.9 364.517 10650.7C368.027 10648.9 368.452 10645.6 369.013 10642.3C369.255 10640.8 370.053 10639.3 370.985 10638.1C372.177 10636.6 372.567 10635.1 372.728 10633.2C372.888 10631.4 373.819 10629.6 374.552 10627.8C375.163 10626.3 375.427 10624.7 376.01 10623.2C376.386 10622.3 376.289 10621.1 376.531 10619.7Z" fill="#858098"/>
</g>
<defs>
<clipPath id="clip0_118_219">
<rect width="1512" height="19617" fill="white"/>
</clipPath>
</defs>
</svg>
