<svg width="58" height="47" viewBox="0 0 58 47" fill="none" xmlns="http://www.w3.org/2000/svg">
<rect x="3" y="5" width="51" height="37" rx="10" fill="#D4D3D9"/>
<path d="M4.13818 41.9324C4.05602 41.8878 3.95698 41.8241 3.89608 41.7358C3.82345 41.6304 3.80597 41.486 3.72494 41.39C3.5291 41.158 3.12822 41.0537 3.26241 40.6212C3.27597 40.5775 3.10954 40.4769 3.02165 40.4087C2.71236 40.1688 2.35283 39.9736 2.40156 39.4902C2.41433 39.3636 2.32185 39.1874 2.21909 39.096C1.73174 38.6625 1.74807 38.048 1.58181 37.5005C1.56943 37.4597 1.65806 37.39 1.69974 37.3338C1.73208 37.3576 1.76375 37.3822 1.79695 37.4048C1.83621 37.4314 1.87681 37.4563 1.91683 37.4819C1.94315 37.4257 2.0056 37.3325 1.99051 37.3186C1.57829 36.9392 1.85078 36.3058 1.43912 35.9227C1.38739 35.8746 1.39908 35.7211 1.43294 35.6357C1.51708 35.4236 1.57697 35.2501 1.49476 34.993C1.44486 34.837 1.48869 34.6098 1.44683 34.3968C1.37525 34.0323 1.36717 33.6323 1.44869 33.272C1.50074 33.0419 1.45776 32.8333 1.40755 32.6561C1.32459 32.3632 1.20568 32.1237 1.50936 31.8824C1.57399 31.831 1.54555 31.6622 1.54914 31.5471C1.56047 31.1854 1.5109 30.8255 1.71758 30.479C1.79025 30.3572 1.68888 30.1403 1.67452 29.9663C1.65189 29.6921 1.8983 29.3924 1.59135 29.1415C1.58079 29.1329 1.62478 29.0615 1.64335 29.0193C1.82142 28.6151 1.64158 28.2839 1.38053 27.9985C1.145 27.741 1.12162 27.4478 1.1498 27.1667C1.23279 27.2165 1.28619 27.2339 1.33684 27.257C1.39814 27.285 1.4571 27.3177 1.51708 27.3484C1.51106 27.2812 1.52185 27.2071 1.496 27.1481C1.40442 26.9391 1.28701 27.1324 1.18061 27.1368C1.11456 26.6372 1.31878 26.1184 1.06437 25.6288C1.04297 25.5877 1.1266 25.5002 1.15068 25.4308C1.23471 25.1883 1.20187 24.9652 1.05738 24.7545C0.82246 24.4119 0.941157 23.8243 1.30068 23.55C1.45935 23.429 1.45935 23.429 1.2965 23.3109C0.856837 22.9921 0.858988 22.9935 1.15224 22.5585C1.21417 22.4666 1.32089 22.3351 1.29266 22.2654C1.14085 21.8909 1.34228 21.5274 1.29749 21.1655C1.24692 20.757 1.63196 20.3541 1.30384 19.9488C1.37363 19.2783 1.35659 19.139 1.04191 18.6992C0.85595 18.4392 0.8864 18.2195 1.13088 18.0467C1.39601 17.8592 1.40747 17.6618 1.31317 17.3723C1.14034 16.8419 1.26971 16.3664 1.674 15.9464C1.9438 15.6661 2.00679 15.3145 1.8596 14.937C1.81227 14.8156 1.75016 14.6268 1.80834 14.5522C2.04691 14.2461 1.84965 13.9534 1.77927 13.6908C1.67491 13.3014 1.52762 12.9436 1.7929 12.5669C1.8216 12.5262 1.82349 12.4247 1.7927 12.394C1.42416 12.0268 1.6924 11.6296 1.72758 11.2448C1.73028 11.2153 1.7826 11.1672 1.77805 11.1631C1.37552 10.8008 1.77614 10.3753 1.68236 9.9853C1.6372 9.79752 1.62865 9.59656 1.91601 9.48516C2.12884 9.40264 2.07756 9.15695 1.98869 8.9727C1.80052 8.58254 1.9496 8.22096 2.11882 7.88524C2.33245 7.46141 2.35909 7.21275 2.11992 6.82614C1.98303 6.60486 1.87267 5.95854 1.90584 5.68581C1.92723 5.50998 1.93542 5.32846 1.91591 5.15302C1.87914 4.82236 1.90365 4.49802 2.04519 4.22622C2.24282 3.8467 2.45291 3.47327 2.66088 3.0989C2.6849 3.05566 2.73069 2.98937 2.76411 2.99063C3.28716 3.01032 3.34863 2.50499 3.64534 2.26999C3.69725 2.22887 3.75029 2.18907 3.80282 2.14866C3.83038 2.21044 3.8747 2.27083 3.88038 2.33445C3.88523 2.38873 3.84564 2.44673 3.82571 2.50308C3.88131 2.49183 3.95627 2.49916 3.98954 2.46651C4.38356 2.07983 4.861 1.90216 5.41692 1.90816C5.4328 1.90834 5.44853 1.88772 5.46497 1.87778C5.81091 1.66858 5.64722 2.22758 5.87693 2.14139C6.03606 2.08168 6.12267 1.72609 6.349 1.9773C6.64878 2.31005 6.8838 2.09033 7.11305 1.93821C7.2364 1.85636 7.30328 1.88301 7.4336 1.89175C7.92599 1.92478 8.42219 1.89389 8.87443 2.13956C8.89038 2.14823 8.92592 2.15398 8.93015 2.1475C9.18133 1.76195 9.65508 2.03068 9.96068 1.81741C10.191 1.65671 10.424 1.74102 10.633 1.82557C10.8608 1.91769 11.0732 2.05685 11.2722 2.20157C11.545 2.39993 11.8079 2.19406 11.9718 2.10348C12.3123 1.91523 12.6481 1.89072 13.0013 1.91459C13.4206 1.94292 13.8366 1.79219 14.2557 1.90708C14.3109 1.92223 14.4043 1.92766 14.4311 1.89715C14.5177 1.79845 14.5816 1.6809 14.6542 1.57061C14.7268 1.66773 14.797 1.76666 14.8742 1.86023C14.8873 1.87612 14.9485 1.88162 14.9564 1.87074C15.2543 1.45857 15.7841 1.84103 16.1155 1.55085C16.8002 1.63056 17.4856 1.7058 18.1689 1.7956C18.2549 1.8069 18.362 1.87735 18.4049 1.95047C18.5832 2.25429 18.8611 2.14087 18.9921 2.00014C19.2755 1.69572 19.5439 1.78813 19.8457 1.90894C20.2838 2.08432 20.7084 2.14423 21.1424 1.86333C21.3418 1.73429 21.5889 1.72259 21.8062 1.8909C21.8799 1.948 21.9779 2.03126 22.0534 2.02124C22.4941 1.96275 22.9381 1.98773 23.3823 1.92516C24.0823 1.82655 24.7974 1.82738 25.5065 1.79381C25.5764 1.79049 25.6691 1.82162 25.7167 1.86921C25.8898 2.04195 26.069 2.2549 26.3332 2.13672C26.5193 2.05346 26.6602 2.50048 26.812 2.14451C26.9061 1.92382 27.0452 2.26977 27.2228 2.09312C27.3779 1.9388 27.7259 1.94054 27.9911 1.92982C28.0983 1.92549 28.2026 2.09096 28.3243 2.14517C28.8003 2.35719 29.2703 2.09401 29.7457 2.10932C29.7737 2.11021 29.8036 2.05747 29.8326 2.02969C30.1767 2.39629 30.5952 2.06808 30.9751 2.14104C31.3618 2.21532 31.7655 2.20469 32.1532 2.27564C32.4691 2.33346 32.769 2.46973 33.0828 2.54493C33.2135 2.57628 33.3616 2.53829 33.5019 2.53389C33.8062 2.52433 34.1107 2.50709 34.4145 2.51554C34.4701 2.51708 34.5138 2.66177 34.5784 2.67636C34.6948 2.7027 34.8229 2.68067 34.9462 2.67883C34.9192 2.42421 35.1187 2.51145 35.2368 2.51095C35.6018 2.50942 35.9405 2.45486 36.2098 2.18443C36.2406 2.15352 36.3177 2.16596 36.3733 2.1583C36.3496 2.21465 36.2939 2.28211 36.3097 2.32484C36.3352 2.39418 36.4128 2.50278 36.4592 2.49861C36.8499 2.46366 37.2528 2.45176 37.623 2.3412C37.8822 2.2638 38.0678 2.22437 38.2629 2.4299C38.3059 2.4752 38.4334 2.51551 38.4641 2.49071C38.9039 2.13458 39.426 2.31655 39.9115 2.26481C40.0422 2.25087 40.1661 2.18043 40.2969 2.16269C40.4423 2.14299 40.6417 2.0669 40.6178 2.34893C40.6101 2.43988 40.6284 2.59551 40.7555 2.42215C40.8902 2.23825 41.0679 2.27084 41.2478 2.26789C41.4657 2.26431 41.7014 2.32424 41.8525 2.09013C41.8766 2.05286 41.9564 2.02925 42.008 2.03271C42.1676 2.04336 42.2508 2.52806 42.5082 2.0774C42.5891 1.93572 42.9238 2.0057 43.1381 1.83635C43.3004 1.70806 43.6736 1.72387 43.9031 1.80628C44.3017 1.94944 44.6962 1.87368 45.09 1.91291C45.2611 1.92995 45.4268 2.00027 45.5978 2.01495C45.7061 2.02423 45.8473 2.0089 45.9264 1.94736C46.4425 1.54569 47.0735 1.52484 47.6805 1.43639C48.0426 1.38363 48.3911 1.50718 48.7438 1.56366C49.337 1.65866 49.9791 1.84703 50.5875 1.55072C51.3185 1.19467 52.0741 0.965864 52.9099 1.06784C53.2031 1.10361 53.5036 1.09576 53.7714 0.925809C53.8452 0.878945 54.3939 1.0527 54.5739 1.1678C54.6243 1.20003 54.6552 1.26563 54.7077 1.28858C54.7533 1.30851 54.8357 1.31012 54.8673 1.28257C54.9006 1.25345 54.9053 1.17916 54.9002 1.12663C54.8947 1.06896 54.8637 1.01362 54.8438 0.957268C54.8994 0.968542 54.9714 0.962237 55.0077 0.994156C55.1597 1.12777 55.3121 1.26374 55.4439 1.4156C55.7378 1.75423 55.9475 1.89711 56.4111 2.15632C56.6133 2.26943 56.8297 2.43595 56.9278 2.63114C57.137 3.04713 57.5161 3.3711 57.5994 3.85582C57.6657 4.24164 57.749 4.62903 57.8746 4.99984C58.0154 5.41551 57.8268 5.70737 57.5078 5.88436C57.1835 6.06433 57.1945 6.29833 57.2935 6.54108C57.407 6.8193 57.4364 7.04012 57.2147 7.28613C57.1486 7.35947 57.1782 7.56699 57.2334 7.68162C57.5968 8.43693 57.5585 9.28775 57.8505 10.0631C57.9391 10.2985 57.7567 10.6232 57.8258 10.874C57.9116 11.1854 57.8324 11.4306 57.7072 11.6869C57.5849 11.9371 57.4682 12.1936 57.3116 12.4232C57.1349 12.6822 57.1116 12.957 57.1284 13.2473C57.1435 13.5075 57.1295 13.7378 56.8869 13.9318C56.5749 14.1813 56.6123 14.5481 56.654 14.8957C56.6598 14.9444 56.7565 15.0239 56.7533 15.0267C56.4274 15.3105 56.6012 15.6673 56.5628 15.9981C56.544 16.16 56.5616 16.2268 56.6487 16.3337C56.8977 16.639 56.98 16.9748 56.8071 17.3451C56.7914 17.3787 56.755 17.4156 56.7611 17.4445C56.9155 18.1764 56.4507 18.8982 56.724 19.6311C56.4621 20.2715 56.827 20.9753 56.5118 21.6103C56.6929 22.1192 56.2106 22.5098 56.2393 23.007C56.2462 23.1269 56.1294 23.2358 56.2691 23.3862C56.4844 23.6181 56.4632 23.8831 56.2384 24.1107C56.0633 24.2879 55.8709 24.4498 56.1421 24.6912C55.9258 24.9418 56.2833 25.3401 55.8751 25.5768C55.759 25.6441 55.7118 26.0157 55.7932 26.1664C55.9208 26.4028 55.7796 26.7308 56.0718 26.8971C56.0761 26.8995 56.0403 26.9784 56.0152 27.0166C55.9792 27.0715 55.8897 27.1426 55.9031 27.1709C55.9885 27.3502 56.2257 27.5402 55.8181 27.6346C55.8107 27.6363 55.8155 27.6876 55.8145 27.7158C56.0079 27.7141 56.0683 27.8388 56.0071 27.9772C55.9783 28.0426 55.8196 28.0474 55.7301 28.0973C55.6899 28.1197 55.6438 28.2156 55.6546 28.2261C55.7013 28.272 55.7662 28.3233 55.8278 28.3276C55.979 28.338 56.0295 28.3144 55.9216 28.5028C55.6144 29.0396 55.5801 29.1327 55.9135 29.6568C56.1556 30.0374 55.8761 30.3186 55.8769 30.6445C55.8778 30.9898 55.7019 31.3319 55.6561 31.6819C55.5882 32.2 55.6162 32.7335 55.5107 33.2424C55.4222 33.6697 55.2495 34.0987 55.0224 34.4748C54.8622 34.7401 54.7564 34.9837 54.789 35.2791C54.8228 35.5859 54.6144 35.8842 54.7756 36.2016C54.8097 36.2688 54.7292 36.4233 54.659 36.5019C54.3393 36.8603 54.307 37.3249 54.1895 37.747C54.1241 37.9815 54.2493 38.2673 54.2944 38.5291C54.3567 38.8905 54.1596 39.2751 54.4014 39.6226C54.425 39.6565 54.4119 39.7448 54.3814 39.7791C54.0864 40.1117 54.1942 40.5115 54.1655 40.8908C54.1531 41.0556 54.1207 41.2339 54.0407 41.3762C53.8385 41.7357 53.602 42.0769 53.3849 42.4288C53.3485 42.4879 53.3023 42.6047 53.3257 42.6253C53.5784 42.8476 53.3486 42.8768 53.2043 42.9673C53.0887 43.0398 53.0511 43.1153 53.1224 43.2995C53.3411 43.8642 53.3963 44.4599 53.182 45.0487C53.1317 45.1868 53.0689 45.3284 52.9784 45.4436C52.7755 45.7016 52.5178 45.9238 52.3443 46.1975C52.0871 46.6033 51.6179 46.4354 51.2888 46.6252C50.8664 46.2845 50.6174 46.724 50.3206 46.8579C50.167 46.9272 50.1095 46.9575 50.0065 46.8316C49.7873 46.5637 49.5892 46.2808 49.1416 46.4882C49.0488 46.5312 48.8521 46.3354 48.6921 46.2808C48.6089 46.2524 48.4494 46.2579 48.4144 46.3076C48.3188 46.4436 48.3953 46.5167 48.5627 46.5145C48.5742 46.5144 48.5968 46.642 48.592 46.7087C48.5911 46.7219 48.4643 46.756 48.4373 46.7334C48.3001 46.6191 48.1508 46.5052 48.0561 46.3603C47.9681 46.2256 47.9467 46.0667 47.7844 46.3003C47.7138 46.4021 47.6095 46.5625 47.5265 46.5591C47.3447 46.5515 47.2289 46.4316 47.2636 46.2094C47.2979 45.9903 47.1855 45.9695 47.0177 46.0915C46.5574 46.4263 46.0764 46.4764 45.5265 46.279C45.221 46.1694 44.8474 46.2395 44.5408 46.1315C44.2564 46.0314 43.9686 46.2844 43.6866 46.045C43.6009 45.9722 43.2886 46.0584 43.1458 46.1593C42.7669 46.4269 42.4247 46.1832 42.0699 46.1396C42.0299 46.1346 41.9817 46.0302 41.9749 45.968C41.9615 45.8442 41.8629 45.731 41.8056 45.792C41.4276 46.1944 41.0148 45.8282 40.6216 45.8514C40.5711 45.8544 40.496 45.7769 40.4687 45.7934C40.1101 46.0098 39.8284 45.7614 39.5037 45.6968C39.2254 45.6414 38.983 45.572 38.7485 45.4306C38.4361 45.2422 38.1225 45.2587 37.8029 45.4276C37.5551 45.5585 37.3092 45.6129 37.0196 45.4846C36.8491 45.4092 36.5987 45.3789 36.4341 45.4451C36.1958 45.541 36.0154 45.5527 35.7839 45.4421C35.6926 45.3984 35.4854 45.4543 35.4094 45.5347C35.22 45.7351 34.9843 45.696 34.7852 45.6594C34.0122 45.5175 33.9421 45.527 33.1574 45.6515C32.9636 45.6822 32.7372 45.5046 32.5229 45.4307C32.2744 45.3452 32.0667 45.0014 31.7523 45.31C31.4988 45.0405 31.2417 45.2839 30.9927 45.3162C30.6099 45.3657 30.2346 45.4682 29.8525 45.5245C29.5815 45.5644 29.3114 45.5916 29.0475 45.4341C28.5734 45.1514 28.0607 45.3089 27.5619 45.3621C26.925 45.43 26.2835 45.4831 25.6478 45.5213C25.2396 45.5459 24.8141 45.3095 24.3963 45.5492C24.033 45.2575 23.4419 45.6577 23.1408 45.1624C23.1277 45.1408 23.0006 45.1519 22.9989 45.161C22.9316 45.5077 22.6521 45.4223 22.4231 45.4284C22.069 45.4378 21.7069 45.3794 21.3865 45.6031C21.3319 45.6412 21.2208 45.6099 21.137 45.6003C21.041 45.5893 20.9273 45.5245 20.8542 45.5557C20.1188 45.8699 19.4374 45.4159 18.7248 45.4212C18.6278 45.4219 18.5217 45.3189 18.4336 45.2478C17.9854 44.8865 17.241 44.8319 16.7183 45.1138C16.6246 45.1643 16.4913 45.1925 16.3885 45.1723C15.9909 45.0942 16.0101 45.1041 15.7128 45.3638C15.5624 45.4951 15.3448 45.4943 15.1747 45.3199C15.068 45.2106 14.94 45.0161 14.8532 45.3416C14.8503 45.3525 14.7386 45.3607 14.7077 45.3355C14.5979 45.2462 14.517 45.1121 14.3953 45.0513C14.2629 44.9852 14.0101 44.9075 13.9596 44.9631C13.537 45.4282 13.1344 45.0349 12.7237 44.9757C12.4698 44.9391 12.2796 44.9062 12.2551 44.5781C12.2407 44.3851 11.8064 44.2947 11.5505 44.3992C11.428 44.4493 11.3242 44.5477 11.1995 44.5857C11.1136 44.6119 10.9693 44.6011 11.1185 44.4458C11.1519 44.411 11.1171 44.3146 11.1137 44.2466C11.0436 44.2664 10.9605 44.2696 10.9062 44.3096C10.809 44.3812 10.726 44.4722 10.6427 44.5602C10.5094 44.7009 10.3845 44.7765 10.1727 44.6626C10.0447 44.5938 9.86483 44.6209 9.71149 44.59C9.60072 44.5677 9.45404 44.552 9.39501 44.4788C9.20664 44.2455 8.97036 44.1987 8.69351 44.234C8.07646 44.3126 7.64514 43.9905 7.35839 43.5364C7.16829 43.2353 6.96335 43.116 6.63816 43.1618C6.36406 43.2005 6.32984 43.0652 6.38716 42.8292C6.42097 42.7623 6.42398 42.7254 6.42699 42.6885C6.40344 42.7254 6.37989 42.7623 6.35635 42.7993C6.10627 42.7455 6.09342 42.8899 6.1037 43.0702C6.10524 43.0972 6.02321 43.1525 5.98135 43.1511C5.94102 43.1498 5.87524 43.0964 5.86881 43.0582C5.85257 42.9619 5.85629 42.8607 5.86482 42.7625C5.88624 42.5159 5.78022 42.6663 5.66003 42.6592C5.41859 42.6449 5.23258 42.4749 5.24727 42.1918C5.25793 41.9864 5.16427 41.8621 4.94806 41.8452C4.89322 41.8409 4.83593 41.8662 4.77977 41.8779C4.80606 41.9198 4.82801 41.9653 4.85975 42.0029C4.89831 42.0486 4.97383 42.0829 4.9822 42.1307C4.99794 42.2204 5.00049 42.3274 4.96124 42.4047C4.94192 42.4427 4.79295 42.4639 4.74591 42.4322C4.68503 42.3912 4.64437 42.2924 4.6349 42.214C4.5802 41.7611 4.5428 41.7042 4.23477 41.7309C4.19761 41.7341 4.17014 41.8428 4.13818 41.9324ZM38.027 7.82778C37.9889 7.82487 37.9508 7.82195 37.9128 7.81903C37.9508 7.84188 37.9889 7.86472 38.027 7.94734C38.065 7.95026 38.1031 7.95318 38.1412 7.9561C38.1031 7.93325 38.065 7.91041 38.027 7.82778ZM51.0279 19.3654C51.0831 19.3517 51.1497 19.3523 51.1912 19.3214C51.287 19.25 51.4177 19.1777 51.4498 19.0798C51.5233 18.8547 51.3095 18.9323 51.1976 18.879C50.889 18.7321 50.891 18.3665 51.1795 18.1419C51.4157 17.958 51.5777 17.7695 51.3399 17.4644C51.1023 17.1595 51.2138 16.8668 51.4234 16.5841C51.499 16.4821 51.5585 16.3534 51.5772 16.2301C51.6329 15.8633 51.6488 15.4906 51.7098 15.1248C51.7838 14.6806 51.7545 14.2694 51.5313 13.8575C51.4373 13.6841 51.473 13.4416 51.468 13.2301C51.4675 13.2072 51.5874 13.1669 51.6537 13.1617C51.71 13.1573 51.7695 13.1919 51.8276 13.2093C51.814 13.1554 51.813 13.094 51.7847 13.0487C51.5964 12.748 51.6076 12.7518 51.7012 12.3209C51.7658 12.0234 51.7312 11.6959 51.8417 11.4198C52.0243 10.9638 51.7458 10.4698 52.0125 10.0328C52.0328 9.99945 51.9944 9.89967 51.954 9.87394C51.9192 9.85174 51.8228 9.87236 51.7882 9.90676C51.6714 10.0229 51.5579 10.2678 51.4648 10.2586C51.1046 10.2227 50.953 10.4679 50.7645 10.6595C50.4463 10.9828 50.2312 11.4071 49.7344 11.5483C49.6299 11.578 49.5697 11.7516 49.4873 11.8575C49.2581 12.1523 48.986 12.3881 48.6371 12.5564C48.1926 12.7709 47.7702 13.0284 47.3413 13.2725C47.3376 13.2746 47.3683 13.3546 47.397 13.3862C47.5389 13.542 47.5414 13.542 47.3787 13.6259C47.2949 13.6691 47.205 13.745 47.1225 13.7396C46.6783 13.7105 46.3819 14.0437 46.2006 14.2875C45.694 14.9689 44.9548 15.4245 44.4659 16.126C44.2315 16.4623 43.8863 16.7555 43.5993 17.0765C43.2339 17.4849 42.8937 17.9212 42.5082 18.3168C42.2471 18.5848 41.8203 18.7894 41.9665 19.2838C41.9722 19.3029 41.9221 19.3607 41.8961 19.362C41.443 19.3833 41.2329 19.877 40.762 19.899C40.6253 19.9054 40.3973 20.1199 40.3866 20.2523C40.3474 20.738 39.9195 20.9783 39.6545 21.2498C39.2676 21.6461 38.6623 21.8397 38.6363 22.5151C38.634 22.5751 38.5325 22.6291 38.4828 22.6902C38.2454 22.9821 38.0035 23.271 37.903 23.6423C37.8315 23.9062 37.6222 24.0464 37.4292 24.2307C37.1384 24.5084 36.9569 24.8739 36.4728 24.892C36.4122 24.8942 36.3586 25.0725 36.3017 25.1691C36.2675 25.2273 36.2455 25.2987 36.1968 25.3413C35.8532 25.6412 35.7432 25.8261 35.5613 26.436C35.5509 26.4707 35.5335 26.5173 35.5052 26.531C35.0194 26.7664 34.9119 27.4544 34.2662 27.5051C34.2038 27.51 34.0944 27.6169 34.1002 27.6663C34.1419 28.0248 33.836 28.0386 33.6248 28.1113C33.2566 28.2381 32.9955 28.4099 32.889 28.8186C32.7728 29.2648 32.5276 29.5877 31.929 29.5507C31.6275 29.5321 31.2986 29.7128 31.2276 30.1248C31.2117 30.2172 31.2295 30.4566 30.9554 30.4959C30.4045 30.5749 29.8254 30.5525 29.3153 30.8348C29.2991 30.8437 29.1596 30.7222 29.1657 30.6716C29.1755 30.5914 29.3809 30.5521 29.1196 30.4689C28.8001 30.3672 28.8233 30.3256 28.6317 30.4419C28.5893 30.4677 28.4544 30.4231 28.4243 30.3746C28.3929 30.3239 28.4106 30.2107 28.4517 30.1572C28.6724 29.8696 28.4607 29.8857 28.2607 29.8866C28.0964 29.8872 27.9293 29.9047 27.7689 29.8804C27.6614 29.8642 27.5214 29.8136 27.4699 29.7336C27.3503 29.5481 27.2219 29.3422 27.1932 29.1322C27.1235 28.6219 26.8316 28.3096 26.381 28.0895C26.0547 27.93 25.8063 27.7087 25.8223 27.3078C25.8249 27.2419 25.7646 27.1737 25.734 27.1063C25.5893 26.7877 24.8173 25.8872 24.5272 25.7027C24.431 25.6415 24.3062 25.6067 24.2357 25.526C23.8396 25.0722 23.5738 24.496 22.9451 24.263C22.9073 24.249 22.905 24.1612 22.8676 24.1267C22.6976 23.9706 22.5244 23.8174 22.346 23.6704C22.0432 23.421 21.7317 23.1813 21.4317 22.9288C21.2796 22.8008 21.1442 22.6542 21.002 22.5152C20.8026 22.3201 20.4548 22.1386 20.4331 21.926C20.3706 21.315 19.8859 21.1141 19.5013 20.7953C19.3574 20.6761 19.2232 20.5181 19.1509 20.3508C18.9285 19.8364 18.6546 19.4452 18.0887 19.1569C17.571 18.8932 17.0749 18.5595 16.5412 18.2999C16.4167 18.2393 16.3042 18.1331 16.2184 18.024C15.9704 17.7087 15.7727 17.3498 15.4932 17.0654C15.0161 16.5798 14.3624 16.293 13.8928 15.7862C13.8065 15.6931 13.6055 15.6622 13.46 15.6678C13.253 15.6758 13.121 15.596 12.9864 15.4634C12.9086 15.3867 12.7741 15.3643 12.6958 15.2878C12.2221 14.8261 11.4435 14.7861 11.0888 14.1257C10.9537 13.874 10.5933 13.6693 10.2929 13.5824C9.75544 13.4271 9.41907 13.1038 9.33966 12.6116C9.28979 12.3026 9.10524 12.2119 8.904 12.2071C8.61262 12.2002 8.46747 12.0547 8.32822 11.8585C8.00968 11.4095 7.69365 11.3995 7.40584 11.8353C7.36643 11.895 7.34955 11.9759 7.34462 12.0484C7.32927 12.274 7.21362 12.4724 7.32197 12.7341C7.42845 12.9913 7.31625 13.3274 7.39581 13.6029C7.50945 13.9963 7.49035 14.3426 7.29056 14.6989C7.16416 14.9243 7.06203 15.1658 6.98042 15.4099C6.95036 15.4998 6.74508 15.6308 6.98199 15.7146C7.0133 15.7257 7.09363 15.6034 7.15284 15.5444C7.19493 15.5024 7.23968 15.463 7.28324 15.4225C7.3029 15.4943 7.35799 15.5805 7.33446 15.6347C7.29191 15.7326 7.18681 15.8939 7.1351 15.8847C6.80029 15.8251 6.87288 16.0916 6.80998 16.2402C6.77881 16.3139 6.7571 16.4644 6.78118 16.4752C6.95207 16.5519 6.9545 16.418 6.992 16.3043C7.02546 16.2029 7.10298 16.1151 7.16105 16.0213C7.18036 16.153 7.20447 16.2843 7.21511 16.4167C7.21737 16.4448 7.16372 16.4735 7.14726 16.5072C6.89409 17.0252 7.05638 17.6082 6.86945 18.1478C6.7898 18.3777 6.93902 18.6789 6.97061 18.9492C7.01088 19.2939 7.12293 19.6065 7.00332 19.9945C6.86984 20.4275 6.9078 20.9255 6.87852 21.3928C6.86617 21.59 6.97854 21.7671 6.75721 21.9174C6.73204 21.9345 6.77539 22.0466 6.78698 22.1146C6.84882 22.0836 6.91339 22.0566 6.97179 22.0204C7.03875 21.9788 7.10023 21.9289 7.16409 21.8827C7.15712 21.9648 7.17141 22.0562 7.13841 22.1269C7.08332 22.2449 6.98316 22.3433 6.92999 22.4618C6.88583 22.5602 6.85622 22.6779 6.86594 22.783C6.88312 22.969 6.96207 23.1512 6.96736 23.3363C6.98215 23.8539 6.91516 24.3801 6.98956 24.8878C7.05633 25.3435 7.21284 25.7757 6.89752 26.196C6.88298 26.2154 6.88156 26.2552 6.8913 26.2788C7.05772 26.6821 6.91562 27.0258 6.78372 27.4225C6.66078 27.7923 6.81639 28.2492 6.84908 28.6678C6.85063 28.6876 6.85721 28.7122 6.84813 28.7268C6.57082 29.1728 6.7742 29.6185 6.85274 30.0624C6.86803 30.1488 6.98566 30.2654 6.95857 30.3045C6.60271 30.8181 7.08545 31.4953 6.6066 31.9803C6.58597 32.0011 6.58971 32.0631 6.60482 32.0961C6.88303 32.7034 6.65382 33.3409 6.72406 33.9603C6.73962 34.0975 6.67118 34.2839 6.74195 34.3683C7.10556 34.8016 6.93251 35.3019 6.96814 35.774C6.97635 35.8829 6.95521 36.0085 6.90384 36.1043C6.65484 36.5688 6.65826 36.6752 7.02441 37.0483C7.29335 37.3224 7.57266 37.5871 7.85229 37.8511C7.92122 37.9162 8.00283 37.9958 8.08968 38.0116C8.93402 38.1658 9.64741 38.602 10.3838 38.991C10.4823 39.0431 10.6526 39.1202 10.7 39.0818C10.8536 38.9571 10.936 39.018 11.0198 39.1356C11.1525 39.322 11.3364 39.348 11.553 39.3356C11.8565 39.3183 12.1555 39.3529 12.4511 39.4405C12.6722 39.506 12.905 39.5455 13.1355 39.5676C13.5634 39.6084 14.0221 39.4593 14.4029 39.7798C14.4367 39.8082 14.527 39.8149 14.5644 39.7915C14.9604 39.5442 15.2478 39.8239 15.5783 39.9587C15.8637 40.0751 16.1208 40.2447 16.505 40.0978C16.8952 39.9486 17.3578 39.9754 17.7892 39.9306C18.2101 39.8869 18.697 39.7032 19.0372 39.8457C19.5128 40.0448 19.9474 39.6679 20.3873 39.9149C20.4952 39.9754 20.7156 39.8117 20.8815 39.8182C21.2352 39.8321 21.5875 39.8869 21.9393 39.9323C22.0124 39.9418 22.0982 39.9663 22.1488 40.0134C22.4448 40.289 22.7794 40.1727 23.1086 40.1152C23.2029 40.0987 23.294 40.0618 23.3885 40.0513C23.6393 40.0234 23.8808 40.0871 24.1291 39.8854C24.2604 39.7788 24.5942 39.9125 24.8372 39.9255C24.8855 39.9281 24.9342 39.8592 24.9874 39.8508C25.3607 39.7912 25.7271 39.7583 26.092 39.9262C26.7398 40.2246 27.253 40.2464 27.9918 40.0514C28.0492 40.0362 28.1153 40.0429 28.1759 40.0504C28.5998 40.1032 28.9931 39.9626 29.3966 39.8808C29.4606 39.8678 29.5406 39.9295 29.6132 39.9566C29.5669 39.9876 29.5047 40.0091 29.4782 40.0517C29.4434 40.1076 29.4366 40.1799 29.4178 40.2452C29.4879 40.2459 29.5659 40.2662 29.6265 40.2433C29.7677 40.1897 29.8951 40.0746 30.0375 40.0571C30.45 40.0062 30.8805 40.1328 31.2812 39.9337C31.3248 39.912 31.4248 39.9218 31.4509 39.9537C31.7137 40.2749 31.891 40.0558 32.1053 39.8852C32.3129 39.7199 32.5498 39.5873 32.7829 39.4553C32.8689 39.4066 32.9807 39.4008 33.0807 39.3753C33.0485 39.4575 33.0137 39.5387 32.9846 39.6219C32.9513 39.7172 32.9231 39.8141 32.8927 39.9103C32.9919 39.8669 33.0982 39.8341 33.1878 39.7767C33.2515 39.7359 33.2951 39.6638 33.3438 39.6028C33.5886 39.2953 33.7006 39.2829 34.0421 39.4626C34.1726 39.5312 34.3376 39.5619 34.4881 39.566C34.8287 39.5754 35.1509 39.6159 35.418 39.8472C35.4597 39.8833 35.5146 39.9208 35.5673 39.927C36.1488 39.9956 36.731 39.7915 37.313 39.9298C37.9199 39.5706 38.594 39.7227 39.2439 39.69C39.3629 39.6841 39.5466 39.7125 39.5891 39.6517C39.8111 39.3345 39.9272 39.584 40.0807 39.7074C40.2311 39.8285 40.3852 40.0159 40.5518 40.0314C40.8309 40.0573 41.0446 40.0836 41.112 40.3895C41.1196 40.4236 41.1922 40.4747 41.2246 40.4685C41.508 40.4149 41.7868 40.3351 42.0717 40.294C42.2455 40.2689 42.4064 40.2814 42.5686 40.433C42.86 40.7053 43.2258 40.807 43.6539 40.7759C44.3683 40.7241 45.0715 40.8329 45.7724 40.9917C46.0498 41.0546 46.4417 41.057 46.6422 40.9092C46.8494 40.7564 46.9905 40.8518 47.0873 40.8998C47.3634 41.0367 47.5932 40.9826 47.8469 40.8675C48.4364 40.6002 48.6234 40.2424 48.5017 39.5746C48.4515 39.2997 48.5139 39.2336 48.8032 39.2002C48.8668 39.1929 48.9731 39.0953 48.9675 39.0503C48.9549 38.95 48.8839 38.8566 48.8367 38.7604C48.5098 38.9283 48.5968 38.6165 48.6357 38.5529C48.7953 38.2921 48.7257 38.048 48.6213 37.8104C48.4371 37.3914 48.5052 37.0896 48.8517 36.7338C49.1839 36.3925 49.4112 35.8932 49.1088 35.4011C48.9159 35.0873 49.0931 34.8262 49.107 34.5381C49.1231 34.2043 49.7343 34.4344 49.5644 34.1208C49.3904 33.7996 49.5848 33.6173 49.6499 33.3775C49.669 33.3072 49.7483 33.2198 49.7258 33.1762C49.3805 32.5068 49.8307 31.8458 49.7467 31.1779C49.7302 31.0463 49.9569 30.8821 49.9347 30.7555C49.8609 30.3359 49.9817 29.9612 50.0973 29.5723C50.1724 29.3195 50.2109 29.0503 50.2219 28.7867C50.2483 28.1578 50.1446 27.5092 50.5882 26.958C50.6107 26.9301 50.579 26.8489 50.5555 26.8003C50.3594 26.3935 50.3674 25.9993 50.6225 25.6174C50.654 25.5701 50.7168 25.5231 50.7154 25.4773C50.6964 24.8299 50.7473 24.1677 50.6198 23.54C50.5067 22.9833 51.0157 22.5732 50.8541 22.0364C50.8244 21.9378 50.9147 21.7826 50.9895 21.6811C51.3005 21.2592 51.3037 21.1149 50.9683 20.7427C50.8954 20.6618 50.7329 20.5633 51.0098 20.5615C51.2812 20.5597 51.3989 20.3889 51.3244 20.1786C51.234 19.9234 51.3031 19.7684 51.4993 19.6201C51.5269 19.5993 51.5223 19.5385 51.5325 19.4963C51.4931 19.4925 51.4439 19.4722 51.4159 19.4878C51.3035 19.5503 51.1877 19.6132 51.0926 19.6967C51.0125 19.7672 50.9592 19.8664 50.8941 19.9529C50.8771 19.8401 50.8394 19.7256 50.8497 19.6153C50.8577 19.5293 50.9252 19.4485 51.0279 19.3654ZM27.7371 21.0392C27.7663 20.9312 27.7813 20.8167 27.8299 20.7177C27.8592 20.6579 27.9407 20.6222 27.9988 20.5757C28.0142 20.6293 28.0449 20.6834 28.0426 20.7362C28.0321 20.9822 28.1937 21.2133 28.0581 21.4799C27.9905 21.6127 27.9911 21.8906 28.3117 21.6802C28.3314 21.6673 28.3791 21.6677 28.3961 21.6818C28.715 21.947 29.0347 22.2115 29.3437 22.4873C29.3819 22.5214 29.3749 22.6759 29.3642 22.6785C28.8935 22.7924 29.3438 22.8913 29.3755 22.9806C29.4212 23.1091 29.6885 23.0374 29.6589 23.2803C29.6459 23.3869 29.4759 23.9332 29.9286 23.4563C29.958 23.487 29.9819 23.5278 30.018 23.5463C30.1082 23.5928 30.2384 23.6887 30.2917 23.6596C30.5774 23.5039 30.884 23.3536 31.1087 23.1305C31.4436 22.7979 31.6521 22.3373 32.1826 22.2185C32.2107 22.2122 32.2501 22.0927 32.2302 22.0697C31.9588 21.7553 32.2626 21.5794 32.4228 21.4069C32.7797 21.0228 33.1712 20.6691 33.5485 20.3029C33.7783 20.08 34.0195 19.867 34.2347 19.6317C34.4838 19.3593 34.7801 19.0972 34.9258 18.7751C35.0621 18.4738 35.0641 18.0994 35.0584 17.7581C35.0536 17.4705 35.1167 17.2162 35.3734 17.1115C35.9404 16.8802 36.1033 16.3242 36.3946 15.9035C36.606 15.5983 36.8347 15.4796 37.1353 15.4306C37.361 15.3938 37.5018 15.3628 37.5479 15.1084C37.5677 14.9996 37.7357 14.9124 37.8439 14.824C37.896 14.7814 38.0195 14.7553 38.0176 14.7279C38.0092 14.608 37.9068 14.4132 37.9463 14.3843C38.1971 14.2007 38.0914 14.6008 38.2419 14.5765C38.3295 14.5624 38.4617 14.4947 38.4742 14.4324C38.4914 14.3463 38.4128 14.2431 38.3785 14.1462C38.3498 14.065 38.3256 13.9822 38.2994 13.9002C38.384 13.9193 38.4696 13.9353 38.553 13.9584C38.694 13.9975 38.8336 14.0411 38.9738 14.0828C38.9127 13.9983 38.8485 13.9158 38.7924 13.8283C38.7732 13.7984 38.7543 13.7398 38.7696 13.7222C38.8863 13.5875 38.9974 13.4412 39.1408 13.3388C39.1977 13.2982 39.3322 13.3713 39.4313 13.3708C39.4972 13.3706 39.6209 13.331 39.6205 13.3105C39.6122 12.8068 40.0694 12.4243 40.0045 11.9049C39.9921 11.8058 40.0341 11.6195 40.0864 11.6065C40.4704 11.5104 40.7158 11.2354 40.9855 10.9944C41.4015 10.6227 41.8695 10.2844 42.2 9.84941C42.6013 9.32116 42.6456 9.23246 43.2219 9.40855C43.3816 9.45735 43.423 9.44856 43.4539 9.28407C43.5334 8.85991 43.675 8.47762 44.2342 8.47942C44.2599 8.47951 44.3099 8.38991 44.3046 8.34726C44.2999 8.30981 44.2356 8.25514 44.1937 8.25162C44.1188 8.24533 44.041 8.2726 43.9642 8.28432C43.8798 8.29723 43.7314 8.3377 43.7206 8.31569C43.6436 8.15795 43.7698 8.15602 43.8865 8.1064C44.0061 8.05555 44.0894 7.9242 44.1886 7.82808C44.05 7.84791 43.9092 7.85934 43.7739 7.89184C43.7221 7.90428 43.6845 7.99619 43.6373 7.99871C43.2368 8.02012 42.846 8.28937 42.4315 8.04371C42.3836 8.01536 42.2554 8.02761 42.2305 8.06383C42.0578 8.31453 41.793 8.20447 41.5665 8.25326C41.1923 8.33384 41.0024 7.97119 40.7144 7.94602C40.434 7.92153 40.1386 8.06032 39.8493 8.12547C39.8335 8.12902 39.8063 8.1203 39.7966 8.10815C39.6369 7.90704 39.5278 8.04045 39.4091 8.15675C39.3792 8.18601 39.324 8.19093 39.2805 8.20704C39.2734 8.17005 39.2488 8.12531 39.2619 8.09726C39.4249 7.75015 39.2639 7.64525 38.9247 7.64016C38.8712 7.63936 38.8051 7.53501 38.772 7.46622C38.7488 7.41811 39.0169 7.35015 38.7784 7.29943C38.7056 7.28395 38.562 7.3631 38.5277 7.43392C38.3872 7.72447 38.6867 7.76263 38.834 7.88784C38.8951 7.93968 38.9533 7.99458 39.0128 8.04809C38.9328 8.05643 38.8529 8.07001 38.7727 8.07188C38.6475 8.07482 38.4522 8.01888 38.4077 8.07625C38.0601 8.52499 37.6538 8.64339 37.1233 8.39598C37.0062 8.34135 36.8441 8.38429 36.7066 8.36073C36.6485 8.35078 36.5511 8.27822 36.5559 8.24564C36.6023 7.92585 36.3673 8.02459 36.2029 8.00506C36.0386 7.98554 35.8354 7.87339 35.7199 7.93228C34.7838 8.40953 34.6606 8.2315 34.0457 8.24533C33.7995 8.25087 33.5269 8.17942 33.3117 8.2588C32.669 8.49582 32.1235 8.40192 31.6219 7.95659C31.5264 7.87175 31.3968 7.80845 31.2716 7.77285C31.0683 7.71504 30.8566 7.68106 30.6464 7.65047C30.4339 7.61953 30.1486 7.7629 30.081 7.41177C29.7736 7.71003 29.3412 7.26326 29.023 7.58369C28.9263 7.68109 28.6971 7.76133 28.6717 7.51609C28.6383 7.19379 28.5641 7.23813 28.3511 7.40176C28.0141 7.66057 28.0051 7.64225 27.6639 7.34303C27.5804 7.26975 27.4684 7.22699 27.3695 7.1702C27.2772 7.5329 27.1254 7.1966 27.0245 7.21382C26.78 7.25552 26.6215 7.16935 26.44 7.05718C26.3922 7.02766 26.2745 7.05549 26.2184 7.0957C25.8196 7.38162 25.4058 7.45417 24.9528 7.22233C24.887 7.18867 24.8012 7.16527 24.7295 7.17414C24.4918 7.20356 24.2472 7.30808 24.0223 7.27487C23.7486 7.23445 23.4949 7.07644 23.2271 6.98391C23.1187 6.94643 22.9471 6.89199 22.8885 6.9407C22.6358 7.15051 22.4165 6.90526 22.181 6.92494C21.8969 6.94869 21.6086 6.92972 21.3223 6.92197C21.2638 6.92037 21.1672 6.85602 21.1539 6.87207C20.9254 7.14635 20.6956 7.01632 20.4101 6.95282C20.104 6.88473 19.7047 6.80706 19.4769 7.17917C19.4442 7.23254 19.4306 7.35588 19.4572 7.37244C19.517 7.40958 19.6168 7.42443 19.6828 7.40129C19.7323 7.38393 19.7456 7.25201 19.7903 7.24307C19.9086 7.21946 20.0351 7.23494 20.1583 7.23486C20.1248 7.34397 20.2339 7.46965 20.0014 7.54867C19.7572 7.63166 19.5753 7.71737 19.3554 7.53112C19.2087 7.40687 19.0538 7.28225 18.8812 7.2003C18.7985 7.16108 18.5882 7.19277 18.5702 7.24031C18.5027 7.41846 18.6574 7.40519 18.7822 7.41461C18.8145 7.41705 18.8744 7.49927 18.8649 7.51929C18.8407 7.56992 18.7516 7.64687 18.7453 7.64215C18.3458 7.34197 17.8577 7.63125 17.4144 7.43455C17.0992 7.2947 16.7024 7.20546 16.2851 7.38351C16.0606 7.47928 15.6875 7.52254 15.4211 7.29683C15.0054 6.94463 14.5674 6.85541 14.0687 7.15053C13.9275 7.23407 13.7353 7.29588 13.5763 7.27926C13.2437 7.24449 13.1875 7.59016 12.9431 7.66104C12.9382 7.66248 12.9422 7.76201 12.9675 7.778C13.0146 7.80784 13.1015 7.8403 13.1351 7.81847C13.3298 7.69187 13.3112 7.8616 13.4054 7.94469C13.6301 8.1427 13.3755 8.25368 13.3775 8.40212C13.3794 8.53852 13.3907 8.63203 13.574 8.59884C13.9434 8.53194 14.1492 8.64751 14.1046 8.97843C14.0561 9.3393 14.2807 9.5426 14.4865 9.70848C14.6688 9.85538 14.9456 9.88109 14.8683 10.2077C14.8663 10.2162 14.9974 10.2545 15.0665 10.2787C15.127 10.2999 16.0779 10.9044 16.0912 10.9343C16.2438 11.2769 16.5756 11.3974 16.8979 11.4652C17.5575 11.6041 18.1536 11.7678 18.1926 12.5786C18.1985 12.7015 18.267 12.682 18.3116 12.5723C18.421 12.3029 18.4989 12.3531 18.5575 12.5986C18.592 12.7429 18.6285 12.8884 18.6846 13.0254C18.706 13.0777 18.8081 13.1529 18.8334 13.1406C18.953 13.0821 19.0698 12.949 19.0521 13.227C19.0411 13.3995 19.0009 13.6357 19.3222 13.4353C19.3529 13.4161 19.4688 13.5073 19.5324 13.5613C19.5936 13.6134 19.6285 13.7248 19.6919 13.739C19.9879 13.8056 20.2378 13.9002 20.3511 14.2164C20.3756 14.2849 20.5505 14.3026 20.656 14.3439C21.1363 14.5318 21.4913 14.9006 21.7304 15.298C21.8662 15.5235 21.8969 15.5895 22.1241 15.4883C22.1609 15.472 22.2363 15.4643 22.2499 15.4829C22.4438 15.7478 22.8286 15.863 22.8761 16.2476C22.8863 16.33 22.9735 16.4097 23.0391 16.4781C23.1763 16.6214 23.3254 16.7539 23.4641 16.8959C23.522 16.9552 23.5566 17.075 23.6176 17.0862C24.1264 17.1799 24.299 17.6056 24.4557 17.9699C24.7137 18.5696 25.0887 18.9466 25.7734 19.016C25.8803 19.0269 25.9936 19.1471 26.07 19.2424C26.4104 19.6666 26.731 20.094 27.3348 20.2102C27.6813 20.2769 27.7435 20.4308 27.6657 20.7509C27.6427 20.8457 27.6308 20.9431 27.7371 21.0392ZM13.9967 2.328C14.2004 2.19326 14.0209 2.05612 13.9431 2.05275C13.8076 2.04686 13.6677 2.13483 13.5296 2.18346C13.5957 2.22442 13.6594 2.26996 13.7287 2.30505C13.7944 2.33832 13.8661 2.36064 13.9967 2.328ZM40.8613 40.4678C40.81 40.408 40.7298 40.2895 40.7118 40.2978C40.5726 40.3621 40.5726 40.6932 40.7118 40.7574C40.7298 40.7657 40.8099 40.6472 40.8613 40.4678ZM39.1361 13.5667C39.1115 13.6624 39.087 13.7582 39.0624 13.8539C39.1611 13.8058 39.2972 13.7818 39.3502 13.7043C39.443 13.5686 39.3632 13.4909 39.1361 13.5667ZM56.1421 15.2405C56.2436 15.1819 56.3515 15.1309 56.4415 15.0587C56.4614 15.0428 56.4349 14.9297 56.3978 14.9025C56.3643 14.878 56.2645 14.8899 56.2341 14.9218C56.1858 14.9724 56.171 15.053 56.1421 15.2405ZM51.9522 45.8481C51.8999 45.8281 51.8475 45.8082 51.7952 45.7883C51.7956 45.8375 51.7754 45.9124 51.8003 45.9312C51.8731 45.9861 51.9611 46.0256 52.0486 46.0572C52.0927 46.0732 52.1483 46.0591 52.1986 46.0585C52.137 46.0083 52.0754 45.9581 51.9522 45.8481ZM44.7431 8.24625C44.7465 8.12999 44.7499 8.01374 44.7533 7.89749C44.7003 7.90251 44.6472 7.90753 44.5941 7.91254C44.6232 8.00385 44.6524 8.09516 44.7431 8.24625ZM1.24223 24.5065C1.33469 24.4965 1.42715 24.4865 1.51961 24.4765C1.47167 24.4101 1.43811 24.3112 1.37286 24.2841C1.23118 24.2253 1.16124 24.2986 1.24223 24.5065ZM17.2008 6.8713C17.2479 6.93108 17.295 6.99086 17.3421 7.05064C17.3772 7.01665 17.4122 6.98266 17.4472 6.94868C17.3856 6.90296 17.324 6.85724 17.2008 6.8713ZM21.6371 40.1091C21.6842 40.1689 21.7314 40.2287 21.7785 40.2885C21.8135 40.2545 21.8485 40.2205 21.8836 40.1865C21.822 40.1408 21.7603 40.0951 21.6371 40.1091ZM49.4875 35.0876C49.4404 35.0278 49.3933 34.968 49.3462 34.9083C49.3111 34.9423 49.2761 34.9762 49.2411 35.0102C49.3027 35.0559 49.3643 35.1017 49.4875 35.0876ZM16.0301 1.90953C16.0703 1.94853 16.1104 1.98754 16.1506 2.02653C16.1689 1.96457 16.1872 1.90261 16.2055 1.84065C16.1265 1.84368 16.0475 1.84672 16.0301 1.90953ZM49.6108 34.7289C49.5656 34.6691 49.5233 34.6068 49.4719 34.5526C49.4649 34.5453 49.4121 34.579 49.3804 34.5937C49.4367 34.6587 49.4929 34.7237 49.6108 34.7289ZM48.7481 37.3593C48.8294 37.3601 48.9106 37.361 48.9919 37.3619C48.9106 37.3212 48.8294 37.2804 48.7481 37.3593ZM12.8876 2.328C12.8425 2.26822 12.8002 2.20587 12.7488 2.15169C12.7418 2.14436 12.6889 2.17808 12.6573 2.19278C12.7136 2.25778 12.7698 2.32278 12.8876 2.328ZM6.97251 14.8819C6.90728 14.8654 6.84218 14.8483 6.77615 14.8359C6.77413 14.8356 6.76233 14.8842 6.75509 14.91C6.80703 14.9206 6.85896 14.9311 6.97251 14.8819ZM50.3502 46.2067C50.4154 46.2232 50.4805 46.2402 50.5465 46.2527C50.5485 46.253 50.5603 46.2044 50.5676 46.1786C50.5156 46.168 50.4637 46.1575 50.3502 46.2067ZM14.12 9.62119C14.1446 9.63714 14.1693 9.65308 14.1939 9.66902C14.1898 9.63315 14.1857 9.59728 14.12 9.62119ZM4.26141 41.5439C4.23677 41.5279 4.21212 41.512 4.18747 41.496C4.19158 41.5319 4.19569 41.5678 4.26141 41.5439ZM52.6299 45.31C52.6135 45.3339 52.5971 45.3579 52.5807 45.3818C52.6176 45.3778 52.6546 45.3738 52.6299 45.31ZM1.79677 32.6964C1.77212 32.6805 1.74747 32.6645 1.72283 32.6486C1.72694 32.6844 1.73105 32.7203 1.79677 32.6964Z" fill="#030201"/>
</svg>
