<svg width="51" height="53" viewBox="0 0 51 53" fill="none" xmlns="http://www.w3.org/2000/svg">
<rect x="18" y="3" width="14" height="11" rx="5.5" fill="#D4D3D9"/>
<path d="M2 32C2 28.134 5.13379 25 9 25C12.8662 25 16 28.134 16 32V35H34V32C34 28.134 37.1338 25 41 25C44.8662 25 48 28.134 48 32V41C48 44.866 44.8662 48 41 48C40.915 48 40.8301 47.9983 40.7451 47.9954C40.6641 47.9983 40.582 48 40.5 48H8.5C4.91016 48 2 45.0898 2 41.5C2 41.4177 2.00195 41.3362 2.00488 41.2546C2.00195 41.1702 2 41.0852 2 41V32Z" fill="#D4D3D9"/>
<path d="M0.42039 41.9163C0.517534 41.8474 0.695348 41.8134 0.699024 41.7658C0.72758 41.3962 1.17371 41.092 0.875685 40.6748C1.02398 40.2716 0.796302 39.9531 0.660553 39.6044C0.611836 39.4793 0.609432 39.396 0.458784 39.3472C0.330983 39.3059 0.274387 39.1862 0.43434 39.0681C0.464002 39.0462 0.45901 38.9131 0.423666 38.8774C0.211334 38.6628 0.157353 38.4165 0.310815 38.1652C0.600842 37.6903 0.526919 37.1718 0.535207 36.6605C0.537114 36.5429 0.473592 36.3277 0.721699 36.5102C0.715923 36.3863 0.916782 36.3266 0.797001 36.1484C0.689329 35.9882 0.408243 35.8407 0.637433 35.5666C0.645092 35.5574 0.491082 35.4211 0.422509 35.3359C0.38638 35.291 0.372065 35.2285 0.347903 35.1739C0.410008 35.1915 0.480095 35.1966 0.532144 35.2299C0.593762 35.2693 0.639822 35.3332 0.692625 35.3864C0.7157 35.3224 0.772769 35.2467 0.755616 35.1965C0.699624 35.0324 0.937429 34.7676 0.5938 34.7021C0.614236 34.6641 0.634682 34.593 0.655106 34.593C0.919783 34.5931 1.0233 34.5072 0.881396 34.2399C0.855469 34.191 0.880177 34.0644 0.921759 34.0384C1.23975 33.8402 1.25833 33.5266 1.30215 33.2006C1.34171 32.9061 1.2336 32.6618 0.933615 32.5319C0.867845 32.5035 0.761799 32.4179 0.770823 32.3902C0.845499 32.1607 0.880826 31.9705 0.660008 31.7742C0.585724 31.7081 0.589212 31.4322 0.664402 31.3437C0.845881 31.1299 0.751392 31.0803 0.558488 31.0122C0.508627 30.9945 0.482297 30.9101 0.445154 30.8563C0.516589 30.8456 0.591876 30.8159 0.658361 30.8295C0.723544 30.8428 0.77644 30.9232 0.840737 30.9325C0.929665 30.9454 1.00303 30.9658 0.920919 30.7972C0.613802 30.1666 0.851165 29.504 0.898625 28.8602C0.91047 28.6995 1.01914 28.5752 0.84338 28.4529C0.828051 28.4422 0.802736 28.4174 0.804809 28.4142C1.09487 27.9765 0.58653 27.6463 0.648468 27.2407C0.656541 27.1879 0.670436 27.1359 0.681635 27.0835C0.708451 27.1328 0.723596 27.2065 0.764606 27.2263C0.842126 27.2637 0.843738 27.4614 1.00575 27.3341C1.16562 27.2085 1.01289 27.166 0.963429 27.0883C0.926119 27.0297 0.863204 26.9433 0.881969 26.8997C1.10127 26.3898 0.96726 25.797 1.29793 25.3008C1.44755 25.0763 1.32564 24.7675 1.14682 24.5399C1.02225 24.3813 0.98854 24.4554 0.980613 24.6098C0.979546 24.6306 0.883202 24.6685 0.840859 24.6581C0.806779 24.6497 0.754998 24.5619 0.766856 24.5408C0.900584 24.3022 0.710309 24.1341 0.651529 23.9373C0.637839 23.8915 0.667875 23.8326 0.677796 23.7797C0.718035 23.8019 0.760642 23.8207 0.797966 23.847C0.857358 23.8889 0.908632 23.9444 0.971828 23.9783C1.04084 24.0152 1.1635 24.077 1.18637 24.0534C1.28469 23.9521 1.35493 23.8235 1.4354 23.7049C1.39392 23.6827 1.352 23.6417 1.31106 23.6426C1.24149 23.6442 1.17254 23.6723 1.10333 23.6893C1.15843 23.5981 1.19175 23.4705 1.27241 23.422C1.6193 23.2137 1.63346 23.1983 1.46007 22.9123C1.22417 22.5232 1.31769 22.2222 1.62592 21.8945C1.8489 21.6575 2.04971 21.3338 2.10415 21.0214C2.16052 20.698 2.38258 20.6589 2.5726 20.5675C2.80793 20.4542 3.10619 20.4538 3.31755 20.314C3.54757 20.1618 3.79103 20.0222 4.02383 20.1179C4.32868 20.2433 4.68539 20.2778 4.92508 20.5597C5.07658 20.7379 5.22347 20.9646 5.52065 20.8993C5.56556 20.8895 5.64206 20.8565 5.6416 20.8357C5.63949 20.7436 5.61461 20.652 5.59797 20.5602C5.69587 20.5978 5.79867 20.6745 5.89044 20.663C6.00539 20.6486 6.13681 20.5857 6.2159 20.5013C6.39494 20.3101 6.56029 20.3147 6.80809 20.3818C7.10645 20.4627 7.4365 20.4201 7.75144 20.4473C8.05917 20.4738 8.40286 20.4471 8.6611 20.5799C8.91096 20.7083 9.13379 20.6514 9.36497 20.6599C9.43923 20.6626 9.517 20.5098 9.59737 20.4326C9.63174 20.3995 9.67687 20.3777 9.71711 20.3508C9.72939 20.4028 9.75209 20.4549 9.75099 20.5066C9.74989 20.5578 9.73891 20.6204 9.70787 20.6575C9.57637 20.8148 9.79106 20.8149 9.81154 20.901C9.86823 20.8706 9.96358 20.8511 9.97552 20.8082C10.0809 20.4297 10.3332 20.6256 10.4295 20.7441C10.6557 21.0225 10.9317 21.0352 11.2357 21.0137C11.3064 21.0088 11.4279 21.0036 11.4383 20.9707C11.5729 20.5448 11.8466 20.7765 12.1146 20.7485C12.5062 20.7075 12.9841 20.6259 13.267 20.2744C13.5181 19.9625 13.8667 19.9215 14.1897 19.8882C14.8289 19.8221 15.4705 19.8667 16.0874 20.098C16.2691 20.1661 16.4736 20.1707 16.6638 20.2196C16.7815 20.2499 16.935 20.2769 16.9972 20.3611C17.1464 20.5634 17.3364 20.5676 17.5474 20.5601C17.7087 20.5543 17.7058 20.5567 17.905 20.3207C17.9924 20.2172 18.0682 20.133 18.1824 20.3296C18.47 20.8249 18.8417 21.2407 19.3331 21.5597C19.6954 21.795 19.7802 22.4942 19.5735 22.9816C19.3816 23.4341 19.1461 23.8771 19.0291 24.349C18.9627 24.617 19.0683 24.9423 19.1473 25.2276C19.2176 25.4813 19.3429 25.6967 19.0546 25.9097C18.9186 26.0102 18.8265 26.1887 18.7535 26.3496C18.7086 26.4486 18.6212 26.5368 18.7559 26.712C18.889 26.8851 18.9326 27.2493 18.8415 27.4506C18.5445 28.1075 18.7207 28.8514 18.4103 29.4966C18.3764 29.5672 18.3871 29.7123 18.4372 29.762C18.8525 30.1739 18.7222 30.6902 18.5871 31.1138C18.4913 31.4142 18.6508 31.5743 18.7551 31.6558C18.9678 31.8221 19.2171 31.9809 19.5314 31.9698C20.0618 31.9511 20.5938 31.9776 21.1243 31.9594C21.4052 31.9498 21.6493 31.9813 21.807 32.2391C22.0133 32.5765 22.2919 32.5767 22.6042 32.4181C22.6374 32.4012 22.6699 32.3454 22.6703 32.3072C22.6729 32.065 22.7808 31.979 22.9384 32.1345C23.1341 32.3277 23.2158 32.2514 23.4341 32.1487C23.8028 31.9755 24.1934 31.7007 24.6571 31.8948C24.6994 31.9125 24.7674 31.8892 24.8155 31.8674C24.8957 31.8313 24.9672 31.7483 25.0465 31.7426C25.3032 31.7238 25.5839 31.7997 25.7484 31.5084C26.1544 31.5358 26.5641 31.5383 26.9651 31.5989C27.2581 31.6431 27.5554 31.8685 27.8228 31.828C28.321 31.7525 28.883 31.7929 29.2822 31.3833C29.7052 30.9493 30.1728 30.9657 30.6787 31.2003C30.7473 31.2321 30.8337 31.2254 30.9119 31.2366C30.8735 31.1751 30.8485 31.0795 30.7944 31.0581C30.5659 30.9681 30.5658 30.782 30.5867 30.5956C30.6148 30.3449 30.5958 30.0532 30.7196 29.8566C30.9529 29.4858 30.823 29.1739 30.7079 28.8318C30.6735 28.7295 30.6556 28.5803 30.7053 28.4983C30.8865 28.1996 30.869 27.9545 30.6168 27.7044C30.5705 27.6586 30.6003 27.492 30.6441 27.4064C30.8237 27.0561 30.9476 26.6695 31.2807 26.4137C31.4117 26.313 31.4977 26.1957 31.5073 25.9917C31.5231 25.6547 31.6227 25.3219 31.6844 24.9868C31.7007 24.8983 31.7478 24.7809 31.7099 24.7242C31.6348 24.6117 31.5927 24.623 31.7584 24.5303C31.9538 24.4211 31.966 24.1347 31.9566 23.8892C31.9535 23.8072 32.0324 23.7221 32.0738 23.6384C32.1083 23.71 32.1358 23.7863 32.1795 23.8518C32.2128 23.9018 32.2665 23.9382 32.3112 23.9806C32.3424 23.9057 32.408 23.7695 32.3999 23.7649C32.1609 23.6305 32.3242 23.1493 31.8998 23.1741C31.8881 23.1748 31.8452 23.0061 31.8574 23.0002C32.1562 22.8549 31.8997 22.6231 31.9494 22.4428C31.9635 22.3915 31.9754 22.3395 31.9883 22.2879C32.0286 22.3161 32.0757 22.338 32.1078 22.3737C32.211 22.4884 32.3183 22.7116 32.4063 22.7033C32.5644 22.6885 32.7096 22.5358 32.8602 22.4123C32.9727 22.3838 33.0854 22.388 33.1977 22.3822C33.2682 22.3786 33.338 22.3599 33.4081 22.348C33.3692 22.2948 33.328 22.2432 33.2921 22.188C33.268 22.1508 33.2513 22.1088 33.2313 22.0689C33.2822 22.0637 33.3569 22.0341 33.3803 22.057C33.6083 22.2811 33.6948 22.092 33.7684 21.9206C33.9511 21.4956 33.9468 21.4932 34.2842 21.8151C34.4412 21.9649 34.5865 22.2063 34.7952 21.842C34.9302 21.7732 35.1425 21.773 35.1874 21.6861C35.4352 21.2059 35.9188 21.2179 36.3259 21.1495C36.6124 21.1014 36.9591 21.008 37.2443 21.2406C37.2671 21.2592 37.3378 21.2594 37.3531 21.2408C37.7298 20.7814 38.4159 20.9328 38.8114 20.4856C38.9829 20.2917 39.2389 20.2719 39.4951 20.4385C39.6985 20.5707 39.9307 20.6743 40.1643 20.7398C40.4167 20.8105 40.7184 20.9261 40.8347 20.5172C40.8443 20.4835 40.951 20.4776 41.0125 20.4588C40.9889 20.5131 40.9653 20.5674 40.9416 20.6217C40.9135 20.686 40.8724 20.7481 40.8609 20.8152C40.8504 20.8771 40.8716 20.9443 40.8789 21.0092C40.9302 20.9997 40.9914 21.0049 41.0311 20.9781C41.1807 20.8771 41.3873 20.7969 41.457 20.6528C41.7276 20.0938 42.1663 20.3325 42.544 20.4098C42.8711 20.4767 43.1323 20.5046 43.4888 20.3946C43.9609 20.249 44.5179 20.3574 45.0361 20.3919C45.3369 20.4119 45.6326 20.5045 45.9322 20.5547C45.9748 20.5619 46.0451 20.5267 46.0713 20.4892C46.2471 20.2375 46.4655 20.3033 46.6383 20.4506C46.9508 20.7168 47.3362 20.7253 47.6979 20.7738C47.9949 20.8137 48.2097 20.9353 48.4049 21.1365C48.6608 21.4001 48.8914 21.6852 49.2309 21.8639C49.4081 21.9571 49.5211 22.1291 49.4858 22.3822C49.431 22.7755 49.5808 23.1992 49.2864 23.5581C49.2566 23.5945 49.3182 23.7102 49.3432 23.7872C49.4247 24.0382 49.51 24.2879 49.592 24.5387C49.768 25.077 49.6061 25.5958 49.4484 26.0961C49.4022 26.2424 49.4335 26.2781 49.5044 26.3426C50.0238 26.816 49.8682 27.3793 49.7001 27.9301C49.6156 28.2068 49.596 28.1945 49.7025 28.4658C49.7604 28.6131 49.805 28.7734 49.8149 28.9304C49.8327 29.2142 49.8138 29.5001 49.8217 29.7849C49.8289 30.0386 49.8626 30.2881 49.8309 30.5467C49.8104 30.7137 49.8681 30.9063 49.9398 31.0653C50.0692 31.3526 50.0784 31.6105 49.8688 31.8584C49.8566 31.8728 49.8283 31.8938 49.8307 31.8976C50.1487 32.4208 49.593 32.9992 49.9323 33.5211C49.9602 33.564 49.9535 33.6349 49.9872 33.6676C50.424 34.0924 50.2953 34.534 50.0511 34.9956C49.899 35.2833 49.8943 35.5477 50.0048 35.9019C50.1374 36.3274 50.2431 36.7435 50.4597 37.1441C50.5394 37.2915 50.3987 37.5797 50.3172 37.7874C50.2405 37.9829 50.0923 38.1493 50.0062 38.3423C49.8869 38.6097 50.3362 38.6018 50.2752 38.8542C50.6881 39.0804 50.648 39.5042 50.7353 39.8805C50.8504 40.3769 50.6776 40.7949 50.4432 41.2067C50.3472 41.3755 50.2552 41.5466 50.1329 41.7452C50.1017 41.8089 50.0989 41.8442 50.0961 41.8794C50.1179 41.8442 50.1396 41.8089 50.1614 41.7737C50.339 41.8646 50.5044 41.9507 50.2798 42.1714C49.9695 42.4764 50.0726 42.9164 49.9463 43.285C49.8141 43.6711 49.8519 44.1238 49.6852 44.4875C49.5364 44.8124 49.6902 44.9656 49.8777 45.0613C50.1154 45.1827 50.2296 45.2651 50.1147 45.5521C50.0851 45.6259 50.2774 45.7837 50.357 45.9096C50.3819 45.949 50.3719 46.0106 50.3779 46.0621C50.3377 46.0523 50.2878 46.0543 50.2591 46.0306C50.1864 45.9703 50.1339 45.876 50.0533 45.8374C49.9631 45.7943 49.8508 45.7975 49.7481 45.7806C49.7737 45.8724 49.7704 45.999 49.8306 46.0489C49.974 46.1676 49.8871 46.2311 49.7998 46.2957C49.715 46.3585 49.6083 46.3934 49.5287 46.4612C49.3505 46.6127 49.2125 46.7438 49.4021 47.0264C49.5369 47.2273 49.4022 47.5242 49.242 47.6855C48.8837 48.0462 48.9699 48.4825 49.0482 48.868C49.0972 49.1094 49.0481 49.2284 48.9074 49.3561C48.6761 49.5661 48.4354 49.7664 48.1902 49.9601C48.1095 50.0238 48.0026 50.0541 47.9078 50.1C47.8645 50.1211 47.8215 50.1429 47.7784 50.1643C47.8284 50.1809 47.8853 50.1881 47.9257 50.2178C47.9468 50.2334 47.9532 50.3157 47.9423 50.3214C47.7891 50.4007 47.5226 50.564 47.4939 50.5298C47.3441 50.3514 47.2724 50.6217 47.1671 50.5562C47.067 50.8682 46.8071 50.779 46.5887 50.7829C46.2854 50.7884 45.9757 50.7457 45.6802 50.794C45.3038 50.8556 45.0027 50.6887 44.7969 50.46C44.4194 50.0404 43.8677 50.1198 43.4325 49.8846C43.3458 49.8378 43.1177 49.914 43.0465 50.0052C42.8618 50.2418 42.6239 50.188 42.3873 50.2204C42.0022 50.2732 41.5819 50.2123 41.2593 50.5179C41.2259 50.5495 41.1491 50.5681 41.1072 50.5526C40.4925 50.3252 40.0127 50.8267 39.4472 50.8558C39.1158 50.8728 38.8689 50.9911 38.7709 51.345C38.75 51.4205 38.6342 51.5003 38.5483 51.5213C38.2531 51.5934 37.9361 51.7288 37.6561 51.6787C37.0417 51.5687 36.5124 51.706 36.0059 52.0246C35.7363 52.1942 35.4486 52.2161 35.2013 52.0317C34.9357 51.8336 34.6585 51.9607 34.3893 51.9294C34.154 51.9021 33.9438 51.9296 33.7229 51.7331C33.4024 51.4478 32.5791 51.5417 32.2334 51.8056C32.1529 51.8671 32.0215 51.9415 31.9458 51.9155C31.5831 51.7911 31.2755 51.987 30.9608 52.0778C30.7533 52.1376 30.616 52.1567 30.4088 52.0517C29.9418 51.8149 29.4507 51.8577 29.0347 52.1796C28.788 52.3704 28.5642 52.3578 28.3092 52.2666C27.9955 52.1545 27.6911 51.9925 27.368 51.9353C26.817 51.8378 26.2508 51.9142 25.7989 52.241C25.4778 52.4732 25.2397 52.3787 25.0185 52.2049C24.7726 52.0117 24.5302 51.9025 24.2203 51.9205C24.1372 51.9253 24.0374 51.8964 23.9684 51.849C23.5018 51.5281 23.0242 51.7112 22.6734 51.9705C22.4174 52.1598 22.2385 52.0773 22.0519 52.0248C21.8571 51.9701 21.7276 51.92 21.5071 52.0174C21.2848 52.1155 20.9856 52.0435 20.7203 52.0373C20.5593 52.0335 20.451 52.0192 20.4388 52.2601C20.4276 52.4819 20.2282 52.3976 20.1116 52.3188C19.8334 52.1308 19.5366 52.2016 19.2635 52.2807C19.1226 52.3215 19.0252 52.5064 18.9029 52.6206C18.8532 52.6668 18.743 52.8118 18.755 52.6059C18.7692 52.3623 18.6428 52.392 18.482 52.3755C18.1891 52.3454 17.9012 52.2166 17.6078 52.3795C17.5165 52.4302 17.3491 52.4395 17.3275 52.5047C17.1501 53.0386 16.7701 52.6762 16.4998 52.6817C16.1678 52.6885 15.86 52.3373 15.4857 52.5986C15.4507 52.6229 15.2927 52.5147 15.2245 52.4386C14.9938 52.1808 14.7436 52.1457 14.418 52.2595C14.002 52.4048 13.5718 52.5556 13.1386 52.5907C12.7727 52.6204 12.393 52.4925 12.0208 52.4267C11.8065 52.3889 11.5903 52.2927 11.3759 52.4667C11.2329 52.2565 11.0559 52.2427 10.8709 52.2713C10.8356 52.2768 10.7864 52.3366 10.7845 52.3735C10.7825 52.4128 10.8267 52.4878 10.8547 52.4897C11.0183 52.5009 11.1831 52.4952 11.3475 52.4952C11.2835 52.6769 11.0621 52.8008 10.8786 52.768C10.4951 52.6996 10.1205 52.5381 9.71625 52.7127C9.62901 52.7504 9.46763 52.6791 9.36917 52.6142C9.17215 52.4842 8.98697 52.3329 8.81192 52.1738C8.63142 52.0098 8.5179 51.9055 8.48369 52.2751C8.4759 52.3594 8.23562 52.4896 8.10872 52.4826C7.72048 52.4612 7.41383 52.6274 7.10134 52.8118C6.91871 52.9196 6.72898 52.9714 6.52299 52.8393C6.09645 52.5658 5.64959 52.3701 5.12075 52.3674C4.92844 52.3665 4.73481 52.2134 4.54558 52.1219C4.314 52.0099 4.07921 51.9224 3.84337 52.0912C3.59466 52.2692 3.37434 52.1207 3.19067 52.0079C2.60634 51.6487 2.17882 51.1447 1.89305 50.5112C1.77699 50.2539 1.59686 50.0205 1.41783 49.799C1.3324 49.6933 1.43649 49.6187 1.42688 49.5982C1.35989 49.4554 1.25079 49.2104 1.17061 49.216C0.715034 49.2484 0.750687 48.8578 0.661922 48.6294C0.544461 48.3271 0.454852 48.0201 0.217041 47.7889C0.00787637 47.5856 0.0645312 47.3662 0.137463 47.1293C0.241446 46.7915 0.379436 46.4519 0.405363 46.1057C0.430377 45.7718 0.578589 45.6196 0.851286 45.4893C0.946068 45.444 1.17189 45.4692 1.11139 45.2115C1.05784 44.9835 0.905708 45.1205 0.803632 45.0817C0.754445 45.063 0.704043 45.0475 0.654186 45.0305C0.698238 45.0095 0.740651 44.9764 0.786715 44.9701C0.861148 44.9599 0.956499 44.9957 1.00954 44.9608C1.0933 44.9058 1.14937 44.8085 1.21716 44.729C1.14583 44.6944 1.05769 44.6754 1.00748 44.6212C0.946769 44.5556 0.866556 44.4454 0.885085 44.3803C0.947884 44.1598 0.991312 44.397 1.04985 44.4037C1.105 44.41 1.1574 44.4404 1.21101 44.4602C1.21306 44.3851 1.24482 44.2882 1.2098 44.2403C1.16369 44.1772 1.06918 44.1402 0.988394 44.1135C0.55245 43.9696 0.455984 43.5964 0.430485 43.2171C0.411286 42.9316 0.356017 42.6328 0.52074 42.3456C0.570037 42.2597 0.458329 42.081 0.42039 41.9163ZM9.98158 26.4328C9.87658 26.2687 9.71494 26.231 9.54319 26.2674C9.46238 26.2845 9.39418 26.3614 9.32027 26.4112C9.38951 26.4374 9.45742 26.4808 9.52826 26.4863C9.67856 26.498 9.83038 26.4899 9.98158 26.5469C9.85468 26.701 9.35047 26.8379 9.2348 26.6825C9.05363 26.4391 8.79114 26.5434 8.59084 26.4198C8.34774 26.2699 8.05756 26.5035 7.79263 26.3794C7.75013 26.3595 7.66073 26.3666 7.6351 26.3969C7.53088 26.5202 7.47051 26.6999 7.34422 26.7819C6.87921 27.0839 7.02049 27.4594 7.18026 27.8427C7.22756 27.9562 7.29386 28.064 7.36526 28.1646C7.52094 28.3839 7.53346 28.6253 7.35646 28.8055C7.12879 29.0373 7.17252 29.322 7.26606 29.5184C7.49149 29.9918 7.31624 30.4319 7.16414 30.8222C6.96098 31.3435 7.07321 31.8092 7.18522 32.2927C7.25645 32.6002 7.47639 32.9049 7.44993 33.1943C7.42338 33.485 7.17568 33.7561 7.02083 34.0336C6.98578 34.0964 6.93153 34.1481 6.89018 34.2077C6.73697 34.4288 6.73237 34.6416 6.89737 34.8675C7.03315 35.0534 7.14579 35.257 7.26044 35.4575C7.30088 35.5282 7.35733 35.626 7.33705 35.689C7.24572 35.9728 7.19778 36.3153 7.00641 36.5116C6.70683 36.8189 6.83883 37.1797 6.82505 37.4799C6.803 37.9604 7.24193 38.4087 7.02345 38.9438C7.01823 38.9565 7.02698 38.9819 7.03772 38.9934C7.32257 39.2997 7.15367 39.6049 7.01423 39.891C6.90578 40.1134 6.86737 40.3846 6.62136 40.5313C6.5786 40.5568 6.55162 40.6751 6.57203 40.7302C6.71857 41.1256 6.73866 41.5854 7.08349 41.8832C7.25397 42.0304 7.29552 42.2092 7.24162 42.3849C7.15457 42.6687 7.05563 42.9655 6.88597 43.2024C6.71035 43.4476 6.53804 43.6636 6.56054 43.9862C6.56588 44.0627 6.49891 44.149 6.4535 44.2236C6.25844 44.5442 6.28727 45.0524 6.5495 45.3417C6.70024 45.5079 6.75076 45.6381 6.57935 45.82C6.52078 45.8821 6.47779 46.012 6.50149 46.0878C6.54988 46.2425 6.98981 46.3922 7.11283 46.2955C7.58649 45.9231 8.10689 46.1334 8.6089 46.1631C9.01247 46.187 9.40347 46.5595 9.82626 46.1282C9.92004 46.0326 10.2669 46.1074 10.4526 46.1969C10.858 46.3922 11.1621 46.3909 11.5061 46.1276C11.5995 46.0562 11.7388 45.9893 11.8465 46.003C12.1457 46.041 12.5146 46.0336 12.7186 46.2067C13.0704 46.5051 13.3514 46.0733 13.6502 46.2233C13.6979 46.2473 13.7337 46.3095 13.781 46.3174C13.8906 46.3355 14.0357 46.3784 14.1104 46.328C14.4544 46.0955 14.8428 46.3093 15.1937 46.1905C15.5671 46.064 15.9394 46.0253 16.3108 46.2154C16.3498 46.2354 16.4395 46.1708 16.4985 46.134C16.7276 45.991 16.9798 45.9866 17.2375 45.9918C17.4243 45.9956 17.7024 46.0568 17.7825 45.9607C18.1176 45.5587 18.4953 45.8015 18.7939 45.9065C19.0344 45.9912 19.1331 45.9664 19.3205 45.8372C19.4857 45.7232 19.7366 45.6305 19.9197 45.6696C20.2213 45.7339 20.493 45.9278 20.7885 46.0364C20.9626 46.1003 21.1365 46.139 21.3485 46.1322C21.8516 46.116 22.3534 46.0476 22.876 46.2658C23.2469 46.4206 23.798 46.5597 24.1368 46.0236C24.1901 45.9391 24.363 45.8743 24.4681 45.8892C24.8201 45.9392 25.1648 46.0384 25.5154 46.1009C25.74 46.141 25.9767 46.0665 26.015 45.8393C26.0495 45.6345 26.1458 45.6258 26.2708 45.6585C26.3828 45.6878 26.4577 45.7664 26.5762 45.6365C26.6389 45.5678 26.799 45.5882 26.9151 45.5683C26.8276 45.6355 26.7393 45.7018 26.653 45.7705C26.6235 45.794 26.5915 45.8196 26.5737 45.8515C26.5395 45.9125 26.5147 45.9788 26.486 46.043C26.5514 46.0646 26.6198 46.1103 26.6815 46.1025C26.7842 46.0895 26.8806 46.0303 26.9835 46.0129C27.0697 45.9983 27.2122 45.9803 27.2427 46.0243C27.4863 46.3767 27.7449 46.363 28.0548 46.1145C28.1127 46.0682 28.2396 46.1027 28.334 46.1089C28.6347 46.1284 28.9033 46.126 28.8977 45.6994C28.8967 45.6281 29.0059 45.4957 29.1744 45.65C29.5536 45.9973 30.018 45.9085 30.4736 45.8217C30.8576 45.7485 31.2494 45.5763 31.6209 45.8766C31.674 45.9195 31.8215 45.9436 31.8246 45.9359C31.9487 45.626 32.0996 45.441 32.4099 45.7629C32.4185 45.7718 32.4723 45.7398 32.5033 45.7237C32.771 45.5844 33.0002 45.2739 33.3604 45.5321C33.3708 45.5395 33.435 45.4552 33.4826 45.4295C33.79 45.2637 34.0851 45.308 34.4094 45.4237C34.8789 45.5913 35.3757 45.7251 35.7914 45.2784C35.9105 45.1504 35.914 45.221 35.9412 45.3362C35.9507 45.3764 36.0528 45.4227 36.1086 45.4181C36.2501 45.4065 36.4243 45.41 36.5215 45.3297C36.6734 45.2042 37.0098 45.205 36.9066 44.8532C36.8895 44.7948 36.979 44.705 37.0193 44.6297C37.0367 44.6985 37.0572 44.7667 37.0704 44.8363C37.0774 44.873 37.0584 44.9192 37.0742 44.9487C37.1163 45.0272 37.1708 45.099 37.2204 45.1735C37.2847 45.1198 37.395 45.0728 37.404 45.011C37.4266 44.8562 37.5022 44.7827 37.6104 44.8909C37.8626 45.1431 38.0474 44.7535 38.2724 44.8477C38.4264 44.5927 38.6902 44.6721 38.9171 44.6135C39.3756 44.4951 39.8201 44.3395 40.3061 44.3907C40.3804 44.3985 40.4624 44.3181 40.5431 44.2837C40.6398 44.2425 40.7422 44.1681 40.8365 44.1759C41.1777 44.204 41.4947 44.0908 41.7582 43.9265C42.0322 43.7556 42.3085 43.8019 42.4539 43.9556C42.7355 44.2535 43.1007 44.1612 43.4149 44.2661C43.751 44.3783 43.7973 44.3084 43.7822 43.9443C43.7719 43.6935 43.6128 43.3983 43.7005 43.2052C43.8515 42.8726 43.6706 42.4544 43.9947 42.182C44.0168 42.1634 43.9878 42.0333 43.9461 41.9972C43.5789 41.6786 43.6991 41.3419 43.9026 41.0059C44.0592 40.7474 44.0427 40.4981 43.9017 40.2437C43.8727 40.1914 43.8518 40.1346 43.8272 40.0798C43.892 40.0954 43.9609 40.1018 44.0204 40.1288C44.092 40.1613 44.1556 40.2114 44.2227 40.2538C44.2225 40.1643 44.2468 40.0653 44.2164 39.9877C44.1717 39.8736 44.1121 39.7243 44.0167 39.6788C43.6628 39.5099 43.7583 39.2766 43.866 39.0109C44.1125 38.403 43.9886 37.7616 44.0123 37.1338C44.0141 37.0851 43.9933 37.0136 43.9579 36.989C43.7079 36.8147 43.8061 36.6946 43.9625 36.4976C44.0828 36.3459 44.0949 36.097 44.1247 35.887C44.1673 35.5865 43.836 35.8318 43.7679 35.6576C43.7169 35.5272 43.5415 35.3672 43.5761 35.2961C43.6827 35.0776 43.5627 34.9477 43.4776 34.7891C43.3861 34.6187 43.3026 34.4439 43.2186 34.2695C43.1428 34.112 43.0673 33.9617 43.2138 33.7903C43.2909 33.7001 43.3115 33.5638 43.3781 33.4617C43.6425 33.0561 43.6079 32.6515 43.4288 32.2223C43.3545 32.0442 43.2816 31.7969 43.3488 31.6426C43.485 31.3297 43.411 31.0209 43.4484 30.7134C43.4743 30.5001 43.4831 30.2694 43.5737 30.0826C43.7234 29.7739 43.6911 29.5018 43.591 29.189C43.4816 28.8469 43.0085 28.5874 43.3243 28.1367C43.3262 28.134 43.2965 28.113 43.2864 28.0974C43.0674 27.7574 43.1774 27.2727 42.7769 26.9998C42.646 26.9106 42.6682 26.8498 42.6514 26.8995C42.5002 27.346 42.2128 27.3284 41.8207 27.2189C41.5249 27.1363 41.0969 27.0623 40.8934 27.2114C40.4525 27.5346 40.0112 27.3333 39.655 27.248C39.2272 27.1455 38.938 27.2969 38.596 27.4122C38.4621 27.4573 38.2773 27.5555 38.1914 27.5036C37.8406 27.2917 37.8067 27.4536 37.7443 27.7645C37.6246 28.3609 37.5239 28.9792 36.98 29.3889C36.8971 29.4514 36.8737 29.6089 36.8502 29.7278C36.8394 29.7823 36.8949 29.8499 36.9203 29.9116C36.9707 29.875 37.019 29.8347 37.0722 29.8028C37.1335 29.766 37.1992 29.7367 37.263 29.7041C37.2751 29.7751 37.3176 29.8603 37.2926 29.914C37.2478 30.0107 37.1442 30.0798 37.0989 30.1764C37.0422 30.297 36.9604 30.4521 36.9937 30.56C37.086 30.8589 37.1126 31.1449 37.0849 31.4596C37.0619 31.7216 37.1554 31.9939 37.1972 32.2616C37.2116 32.3534 37.2547 32.4517 37.2356 32.5359C37.1346 32.9801 37.1943 33.1257 37.6066 33.3558C37.8545 33.4942 38.0205 33.6861 37.9801 33.9883C37.9318 34.3499 38.089 34.6658 38.2243 34.9711C38.294 35.1283 38.3321 35.1957 38.2158 35.3439C37.9519 35.6802 37.7293 36.0277 37.3864 36.32C36.911 36.7252 36.3375 36.9473 35.8568 37.324C35.525 37.5841 35.1873 37.8225 34.7336 37.5606C34.6482 37.5113 34.5064 37.5364 34.3977 37.56C34.3333 37.574 34.2409 37.6463 34.233 37.7025C34.1907 38.0057 33.9154 38.068 33.7592 37.9924C33.3898 37.8135 33.0225 37.9114 32.6597 37.907C32.3545 37.9033 32.1177 37.8392 31.9303 37.5936C31.6752 37.2594 31.3595 37.2413 30.9984 37.4172C30.8578 37.4857 30.6542 37.5915 30.5502 37.5391C30.1279 37.3265 29.7375 37.6874 29.325 37.5652C29.2384 37.5395 29.0184 37.6561 29.0138 37.7183C28.998 37.9368 28.8616 37.878 28.7402 37.8981C28.2586 37.9777 27.7798 37.7205 27.2953 37.8888C27.2525 37.9037 27.1806 37.8088 27.1149 37.788C26.9581 37.7382 26.8017 37.6746 26.6758 37.8697C26.5957 37.9938 26.4762 38.0928 26.3716 38.2003C26.3193 38.254 26.2655 38.3383 26.2043 38.3462C25.6916 38.4122 25.1597 38.2291 24.6589 38.466C24.1227 38.1221 23.6994 38.5199 23.2592 38.7062C23.0565 38.792 22.9216 38.8119 22.7034 38.7439C22.2949 38.6167 21.9497 38.4465 21.6402 38.1332C21.1958 37.6831 20.8756 37.6696 20.3304 37.9651C20.1723 38.0509 20.038 38.0422 19.9434 37.8935C19.7853 37.6452 19.6187 37.7051 19.4214 37.8386C19.3532 37.8848 19.2481 37.8975 19.1619 37.8921C18.8935 37.8755 19.0282 37.9877 19.0821 38.0953C19.0975 38.1261 19.0598 38.2152 19.0253 38.2309C18.9881 38.2479 18.9073 38.2267 18.878 38.1934C18.6484 37.9329 18.5315 37.9552 18.3817 38.2927C18.2926 38.4933 18.1326 38.7682 17.8778 38.7985C16.9934 38.9037 16.0962 39.147 15.2322 38.6937C15.0137 38.5791 14.7869 38.4756 14.5833 38.3383C14.0821 38.0001 13.8942 37.6902 13.6823 36.9934C13.6481 36.8809 13.6354 36.6905 13.3965 36.749C13.1217 36.8163 13.147 36.6261 13.1912 36.4477C13.2106 36.369 13.2721 36.2727 13.2461 36.2159C13.1577 36.0237 13.0433 35.8425 12.9274 35.6646C12.9051 35.6304 12.8068 35.6006 12.7838 35.619C12.4366 35.8979 12.5145 35.61 12.4761 35.4122C12.4543 35.2999 12.3311 35.2096 12.2629 35.1033C12.2163 35.0307 12.1857 34.9477 12.148 34.8694C12.2355 34.8516 12.3596 34.7878 12.4046 34.8236C12.6907 35.0515 12.6186 34.7612 12.5902 34.6805C12.5374 34.5304 12.4236 34.4263 12.5435 34.2338C12.8511 33.7402 12.7533 33.4022 12.2665 33.1031C12.2164 33.0723 12.1845 33.0117 12.1442 32.9649C12.2152 32.9497 12.2855 32.9294 12.3572 32.9206C12.4482 32.9094 12.6022 32.9362 12.6204 32.8965C12.6784 32.7699 12.6862 32.6202 12.7134 32.4794C12.6735 32.4809 12.6334 32.4806 12.5937 32.4842C12.5288 32.49 12.4642 32.4983 12.3994 32.5055C12.4213 32.4272 12.4221 32.3318 12.469 32.2737C12.6143 32.0934 12.8869 31.9578 12.6047 31.6743C12.5668 31.6362 12.5744 31.5154 12.6039 31.4535C12.7313 31.1863 12.595 30.8544 12.8198 30.6072C12.8496 30.5744 12.779 30.4499 12.7549 30.3679C12.7031 30.4221 12.6454 30.472 12.6014 30.5321C12.5671 30.579 12.5498 30.6384 12.5249 30.6923C12.4739 30.6374 12.389 30.5876 12.38 30.5265C12.3674 30.4406 12.4111 30.3464 12.4307 30.2557C12.0097 30.2043 12.1607 29.8755 12.1496 29.6428C12.1355 29.3477 12.1232 29.0519 11.9104 28.8301C11.7347 28.6469 11.7391 28.3841 11.8273 28.26C12.1242 27.8419 12.1363 27.3552 12.2623 26.8957C12.2846 26.8147 12.4836 26.7214 12.2204 26.7185C11.9928 26.716 11.7498 26.77 11.5406 26.7077C11.0284 26.5551 10.5128 26.48 9.98158 26.4328ZM0.989509 31.3374C0.97625 31.3887 0.952668 31.4398 0.951764 31.4913C0.949493 31.6206 0.952866 31.7505 0.964902 31.8791C0.967618 31.9081 1.01481 31.933 1.04154 31.9598C1.06214 31.839 1.09702 31.7185 1.09902 31.5975C1.10077 31.4921 1.06539 31.3861 0.989509 31.3374ZM33.2016 22.783C33.3261 22.764 33.4511 22.748 33.5745 22.7237C33.603 22.7181 33.6259 22.6843 33.6514 22.6634C33.6381 22.65 33.6264 22.6342 33.6111 22.6236C33.472 22.5273 33.0652 22.6436 32.9911 22.8001C33.0423 22.8134 33.0935 22.8267 33.2016 22.783ZM33.7138 37.6676C33.7704 37.6676 33.8293 37.6775 33.8831 37.6651C33.9543 37.6488 34.0215 37.615 34.0904 37.5888C34.0167 37.539 33.9401 37.4465 33.87 37.4512C33.7958 37.4561 33.7277 37.5535 33.7138 37.6676ZM37.47 33.5615C37.4718 33.6773 37.464 33.7946 37.4808 33.9082C37.4863 33.9457 37.5554 33.9738 37.5954 34.0061C37.6105 33.9557 37.6475 33.8995 37.6361 33.8561C37.6142 33.773 37.5649 33.6973 37.47 33.5615ZM8.21732 51.9249C8.12717 51.9866 8.03703 52.0484 7.94688 52.1101C7.97671 52.1244 8.00634 52.1504 8.03641 52.151C8.15432 52.153 8.3061 52.1941 8.21732 51.9249ZM19.3721 51.8108C19.2772 51.8988 19.182 51.9865 19.089 52.0764C19.0856 52.0796 19.1039 52.1054 19.1122 52.1207C19.2046 52.0497 19.2971 51.9788 19.3891 51.9073C19.4038 51.8959 19.4158 51.8811 19.3721 51.8108ZM10.0385 46.5642C10.1239 46.5546 10.2093 46.5451 10.2947 46.5355C10.2504 46.4722 10.2194 46.3778 10.1591 46.352C10.0283 46.2959 9.9637 46.3659 10.0385 46.5642ZM0.591129 38.2379C0.589535 38.3123 0.587944 38.3868 0.586346 38.4612C0.644852 38.4393 0.703355 38.4175 0.761861 38.3956C0.70109 38.3362 0.89199 38.1428 0.591129 38.2379ZM43.9011 35.3294C43.939 35.3685 43.9858 35.4025 44.0123 35.4482C44.037 35.4908 44.0402 35.5459 44.0528 35.5955C44.0781 35.5639 44.1215 35.5343 44.1255 35.5001C44.1422 35.3596 44.1324 35.3523 43.9011 35.3294ZM49.5922 32.4779C49.5922 32.4421 49.5998 32.4042 49.5906 32.371C49.5745 32.3132 49.548 32.2584 49.5258 32.2023C49.51 32.2495 49.4789 32.2977 49.4821 32.3435C49.4866 32.4082 49.5164 32.4712 49.5922 32.4779ZM2.46922 20.958C2.47952 21.0064 2.48982 21.0547 2.50012 21.1031C2.55703 21.046 2.61394 20.989 2.67085 20.932C2.62261 20.9216 2.57437 20.9113 2.46922 20.958ZM0.534214 47.4196C0.521948 47.3693 0.509687 47.319 0.497425 47.2687C0.471748 47.3 0.41956 47.3531 0.424531 47.3592C0.468753 47.4131 0.305799 47.6039 0.534214 47.4196ZM46.1775 20.7299C46.259 20.7489 46.3398 20.7732 46.4223 20.7839C46.449 20.7874 46.4803 20.7553 46.5095 20.7394C46.4714 20.7173 46.4356 20.6845 46.3947 20.6756C46.3435 20.6644 46.288 20.6729 46.1775 20.7299ZM49.1939 47.0204C49.1419 47.0824 49.09 47.1444 49.038 47.2064C49.0672 47.2204 49.1161 47.2526 49.1225 47.2456C49.17 47.1939 49.2091 47.1344 49.1939 47.0204ZM44.1287 39.3214C44.1387 39.3695 44.1488 39.4176 44.1588 39.4656C44.1834 39.4589 44.2297 39.448 44.2293 39.4462C44.2175 39.385 44.2012 39.3248 44.1287 39.3214ZM18.2338 52.039C18.2528 52.077 18.2717 52.115 18.2907 52.153C18.3097 52.115 18.3287 52.077 18.2338 52.039ZM36.7871 45.5376C36.7719 45.5604 36.7567 45.5832 36.7415 45.6061C36.7757 45.6023 36.8098 45.5985 36.7871 45.5376ZM13.5101 46.6212C13.4874 46.606 13.4646 46.5908 13.4418 46.5756C13.4456 46.6098 13.4494 46.644 13.5101 46.6212ZM37.2424 35.8427C37.2272 35.8655 37.212 35.8883 37.1968 35.9111C37.231 35.9073 37.2651 35.9035 37.2424 35.8427ZM1.10333 34.0748C1.1261 34.09 1.14886 34.1052 1.17163 34.1204C1.16783 34.0862 1.16404 34.0519 1.10333 34.0748Z" fill="#030201"/>
<path d="M20.4537 17.5933C20.2364 17.4015 20.0867 17.5905 20.0102 17.6574C19.7372 17.8962 19.4944 17.9184 19.2222 17.6757C19.173 17.6318 19.0924 17.5926 19.0306 17.5984C18.5448 17.6437 18.3157 17.5132 17.9403 17.4449C17.5826 17.3799 17.2681 16.9994 16.8542 17.2466C16.8242 17.2646 16.7315 17.2344 16.7102 17.2002C16.5725 16.9791 16.3576 17.0276 16.1549 17.0202C16.1091 17.0185 16.0645 16.9817 16.0194 16.9611C16.0691 16.9437 16.1177 16.919 16.1689 16.9109C16.2244 16.9022 16.2845 16.9184 16.3386 16.9061C16.3853 16.8954 16.4263 16.8599 16.4699 16.8354C16.4343 16.7839 16.4087 16.7186 16.3609 16.684C16.2909 16.6334 16.2044 16.6061 16.1261 16.5665C15.8578 16.4307 15.4941 16.4425 15.5331 15.9395C15.5525 15.6882 15.3861 15.4301 15.4225 15.1115C15.4895 14.5252 15.6746 13.9202 15.4405 13.3294C15.3825 13.1831 15.2897 12.9852 15.167 12.942C14.7805 12.806 14.8649 12.5351 14.8658 12.2428C14.8667 11.9559 14.9383 11.6679 14.7817 11.368C14.6843 11.1815 14.7153 10.9009 14.9577 10.7134C15.1631 10.5545 15.2801 10.3566 14.9998 10.1113C14.9015 10.0253 14.9042 9.81348 14.8785 9.6562C14.8287 9.35199 14.8588 9.01361 14.7327 8.74808C14.5587 8.38152 14.6656 8.11441 14.8732 7.85026C15.1417 7.50854 15.1052 7.02335 15.4257 6.70598C15.4487 6.68325 15.3765 6.55254 15.3359 6.47911C15.233 6.29318 15.0976 6.121 15.0227 5.92506C14.9479 5.72921 14.9002 5.53045 15.0071 5.29828C15.1237 5.04504 15.2458 4.73106 15.1937 4.47919C15.1298 4.16974 15.2699 4.03335 15.4339 3.86011C15.7436 3.53302 15.7562 3.52383 15.5047 3.11848C15.3579 2.88198 15.4571 2.67773 15.5677 2.51077C15.8047 2.15297 16.0194 1.79689 16.1439 1.37792C16.1842 1.24223 16.3968 1.14266 16.5483 1.05878C16.8245 0.90588 17.1125 0.773972 17.3985 0.639544C17.5252 0.580022 17.6687 0.476678 17.7875 0.4964C18.0628 0.542102 18.4266 0.568438 18.5769 0.750156C18.9344 1.18257 19.4215 1.07537 19.8427 1.1466C20.2855 1.22148 20.7751 1.25929 21.2117 1.04996C21.5205 0.90196 21.8293 0.917074 22.1537 0.936135C22.6435 0.964907 23.1343 0.892576 23.6038 1.15324C23.7779 1.2499 24.0503 1.17219 24.2778 1.16802C24.571 1.16266 24.8543 1.16486 25.1232 1.32943C25.2366 1.39877 25.4338 1.43832 25.544 1.38665C26.0856 1.13249 26.733 1.14018 27.2043 0.727197C27.3738 0.578693 27.4786 0.586469 27.6833 0.695181C28.1234 0.928825 28.6159 0.856543 29.0885 0.78014C29.4008 0.729661 29.6942 0.57407 29.9936 0.503382C30.56 0.36963 31.1267 0.524002 31.5843 0.881089C31.8293 1.07224 32.0322 1.08336 32.2909 1.001C32.3926 0.968652 32.5023 0.941307 32.6074 0.944335C32.8986 0.952738 32.9899 0.854719 32.8664 0.56864C32.8181 0.456489 32.8796 0.395568 33.0309 0.355797C33.2035 0.310491 33.3467 0.153104 33.5026 0.0444336C33.4783 0.232062 33.4335 0.420985 33.4452 0.60633C33.4479 0.648162 33.6506 0.714896 33.7554 0.705331C34.0256 0.680673 33.757 0.58051 33.7675 0.512975C33.7857 0.396801 33.7711 0.375039 33.9163 0.443756C34.4622 0.701989 35.0137 0.961175 35.6447 0.948289C35.7356 0.946431 35.8711 1.02304 35.9137 1.10234C36.2084 1.65062 36.4883 2.20352 36.5112 2.85184C36.5184 3.05662 36.5888 3.27845 36.6924 3.45612C36.8544 3.73393 36.8805 3.98689 36.6805 4.23773C36.4358 4.54452 36.4585 4.81609 36.722 5.10157C36.9237 5.32006 36.8986 5.55723 36.7275 5.80028C36.6601 5.89594 36.592 6.05612 36.6267 6.14795C36.8037 6.61558 36.6317 7.09955 36.7249 7.56982C36.7805 7.85047 36.6614 8.09017 36.4908 8.32752C36.3681 8.49835 36.22 8.68961 36.4541 8.96647C36.6314 9.1763 36.6454 9.5254 36.7299 9.81316C36.7549 9.89826 36.7461 10.0087 36.7979 10.0681C37.2159 10.5475 36.9718 11.0082 36.6896 11.388C36.486 11.6621 36.5407 11.843 36.5987 12.1277C36.6985 12.6178 37.0316 13.0495 36.9581 13.5784C37.3759 13.9778 37.0609 14.3043 36.8765 14.6676C36.7752 14.8673 36.749 15.1177 36.7381 15.3475C36.7272 15.5763 36.6362 15.6636 36.4437 15.8009C35.933 16.1651 35.3438 16.1001 34.7908 16.2125C34.6007 16.2511 34.3741 16.2405 34.32 16.431C34.2291 16.7511 34.0023 16.6905 33.7972 16.6768C33.2644 16.6411 32.8262 16.8006 32.4842 17.2246C32.2941 17.4602 32.0836 17.6661 31.7272 17.5975C31.4472 17.5436 31.1759 17.6302 30.8867 17.4128C30.3339 16.9973 29.6725 16.9318 29.0128 17.1785C28.7498 17.2769 28.5227 17.3284 28.3134 17.0877C28.1704 16.9232 28.0951 17.0842 27.9986 17.1594C27.8564 17.2701 27.7141 17.451 27.561 17.463C27.2384 17.4883 26.8935 17.5613 26.585 17.366C26.4656 17.2904 26.3463 17.2085 26.2158 17.1591C26.1385 17.1298 25.9689 17.1371 25.9607 17.1643C25.8384 17.5708 25.4302 17.4129 25.3206 17.341C24.9767 17.1154 24.6225 17.1621 24.2622 17.128C24.1147 17.1141 23.9801 16.9911 23.8332 16.9342C23.6859 16.8771 23.5317 16.8077 23.3785 16.8025C23.1503 16.7948 23.1565 16.8135 23.273 17.0643C23.2912 17.1035 23.2145 17.2411 23.1789 17.2422C22.9865 17.248 22.7834 17.2106 22.8315 17.5207C22.8324 17.5263 22.6469 17.561 22.5483 17.5821C22.5714 17.5284 22.5885 17.4708 22.6193 17.422C22.6488 17.3755 22.7154 17.3429 22.7255 17.2956C22.747 17.1948 22.7767 17.0136 22.7425 16.9978C22.6174 16.9404 22.4674 16.9374 22.3268 16.9139C22.3324 16.9542 22.3401 16.9944 22.3432 17.0349C22.3481 17.0996 22.3501 17.1646 22.3533 17.2295C22.3131 17.2036 22.2656 17.1845 22.2338 17.1506C22.0426 16.9471 21.8516 16.9657 21.6492 17.135C21.4673 17.2871 21.2676 17.4194 21.0966 17.5824C20.8944 17.7752 20.7092 17.7677 20.4537 17.5933ZM23.9822 7.4991C23.8749 7.60661 23.7762 7.72524 23.657 7.8172C23.5917 7.86752 23.4858 7.90594 23.4088 7.89175C23.2193 7.85676 23.0347 7.79187 22.8503 7.73243C22.5404 7.6326 22.2672 7.47507 22.0189 7.25753C21.9312 7.18073 21.6842 7.10121 21.7148 7.36692C21.7747 7.88531 21.53 8.24291 21.1985 8.58465C21.0826 8.70409 21.1069 8.85601 21.1166 9.03375C21.1461 9.57851 21.2343 10.1446 20.9444 10.6638C20.9034 10.7374 20.9049 10.8444 20.9143 10.933C20.9202 10.9888 20.9719 11.0453 21.0166 11.0869C21.0257 11.0954 21.1267 11.0439 21.1317 11.0118C21.1771 10.7172 21.3951 10.7477 21.6003 10.7498C22.0011 10.7538 22.4132 10.7046 22.7365 11.0342C22.7791 11.0776 22.869 11.086 22.9382 11.0897C23.1571 11.1015 23.3744 11.0571 23.556 11.2685C23.616 11.3383 23.902 11.3365 23.9507 11.2696C24.1016 11.0623 24.4039 11.1287 24.5347 10.8532C24.6317 10.6488 24.9592 10.6821 25.1201 10.8287C25.287 10.9807 25.4503 10.9682 25.6331 10.9791C25.9232 10.9964 26.2207 10.9168 26.5015 11.0831C26.5741 11.1261 26.7333 11.0935 26.8139 11.0385C27.0629 10.8685 27.2746 10.7609 27.6223 10.8361C27.9027 10.8968 28.2332 10.6781 28.5474 10.6501C28.7008 10.6365 28.8923 10.7449 29.0231 10.8516C29.2547 11.0405 29.4477 11.2761 29.6678 11.4803C29.7609 11.5666 29.8243 11.7684 30.0243 11.6042C30.0948 11.5464 30.1955 11.4441 30.2466 11.2941C30.2688 11.2291 30.3609 11.1232 30.3787 11.1312C30.6513 11.2529 30.5914 11.043 30.5803 10.9218C30.5539 10.6324 30.4723 10.344 30.4789 10.0567C30.4879 9.66433 30.4221 9.32519 30.1036 9.06701C30.0732 9.04234 30.0663 8.98847 30.0485 8.94816C30.0832 8.94038 30.1177 8.92748 30.1527 8.92589C30.2284 8.92246 30.3044 8.92292 30.3802 8.92519C30.6082 8.93201 30.698 8.82187 30.4962 8.68354C30.2895 8.54182 30.4259 8.41971 30.4783 8.3299C30.5887 8.14057 30.5704 7.98372 30.5328 7.77047C30.4556 7.33261 30.1664 7.20135 29.8178 7.05663C29.634 6.98031 29.5162 6.95787 29.384 7.10455C29.033 7.49412 28.5779 7.38676 28.1988 7.25075C27.7585 7.09284 27.2913 6.9772 26.8983 6.67469C26.6254 6.46463 26.3658 6.51463 26.2939 6.80196C26.1481 7.38491 25.7468 7.34501 25.32 7.32893C25.1685 7.32322 25.0157 7.3389 24.8651 7.3259C24.46 7.29093 24.2696 7.31323 23.9822 7.4991ZM27.4538 1.16886C27.5108 1.12525 27.5677 1.08163 27.6246 1.03801C27.5922 1.00559 27.5599 0.97317 27.5275 0.94075C27.484 0.997779 27.4405 1.05481 27.4538 1.16886ZM36.389 5.33199C36.3985 5.41757 36.4081 5.50315 36.4176 5.58873C36.4792 5.5079 36.5408 5.42707 36.6024 5.34625C36.5503 5.32248 36.4981 5.29872 36.389 5.33199ZM25.0066 11.149C24.9595 11.13 24.9118 11.0942 24.8655 11.0959C24.7991 11.0984 24.7337 11.1281 24.6679 11.1462C24.729 11.1712 24.7892 11.1987 24.8515 11.2205C24.902 11.2382 24.9548 11.2491 25.0066 11.149ZM36.1614 9.43809C36.1744 9.45115 36.1856 9.4674 36.2011 9.47608C36.2106 9.48136 36.2374 9.47671 36.2379 9.47355C36.2518 9.38647 36.2662 9.29919 36.2716 9.21138C36.2723 9.20018 36.2238 9.18595 36.1982 9.17311C36.1859 9.22342 36.1736 9.27373 36.1614 9.43809ZM21.0228 17.3081C20.9413 17.2891 20.8606 17.2648 20.778 17.2541C20.7513 17.2507 20.72 17.2828 20.6908 17.2986C20.7289 17.3208 20.7647 17.3535 20.8057 17.3625C20.8569 17.3736 20.9123 17.3652 21.0228 17.3081ZM15.2747 12.5747C15.2557 12.5367 15.2368 12.4987 15.2178 12.4606C15.1988 12.4987 15.1799 12.5367 15.2747 12.5747ZM34.3402 0.997772C34.3174 0.982568 34.2947 0.967357 34.2719 0.952146C34.2757 0.986362 34.2795 1.02059 34.3402 0.997772Z" fill="#030201"/>
</svg>
